<svg width="32" height="32" viewBox="0 0 32 32" fill="none" xmlns="http://www.w3.org/2000/svg">
<path fill-rule="evenodd" clip-rule="evenodd" d="M5.75425 24.2458C5.55421 24.4458 5.44183 24.7171 5.44183 25C5.44183 25.2829 5.55421 25.5542 5.75425 25.7542C5.95429 25.9543 6.2256 26.0667 6.50849 26.0667C6.79139 26.0667 7.0627 25.9543 7.26274 25.7542L25.3647 7.65231C25.5647 7.45227 25.6771 7.18096 25.6771 6.89807C25.6771 6.61517 25.5647 6.34386 25.3647 6.14382C25.1646 5.94378 24.8933 5.8314 24.6104 5.8314C24.3275 5.8314 24.0562 5.94378 23.8562 6.14382L5.75425 24.2458Z" fill="#D1D1D1"/>
<path fill-rule="evenodd" clip-rule="evenodd" d="M7.26206 5.75425C7.06202 5.55421 6.79071 5.44183 6.50781 5.44183C6.22491 5.44183 5.9536 5.55421 5.75357 5.75425C5.55353 5.95429 5.44115 6.2256 5.44115 6.50849C5.44115 6.79139 5.55353 7.0627 5.75357 7.26274L23.8555 25.3647C24.0555 25.5647 24.3268 25.6771 24.6097 25.6771C24.8926 25.6771 25.164 25.5647 25.364 25.3647C25.564 25.1646 25.6764 24.8933 25.6764 24.6104C25.6764 24.3275 25.564 24.0562 25.364 23.8562L7.26206 5.75425Z" fill="#D1D1D1"/>
</svg>
