<svg width="16" height="16" viewBox="0 0 16 16" fill="none" xmlns="http://www.w3.org/2000/svg">
<path d="M9 8C9 8.55313 8.55313 9 8 9C7.44687 9 7 8.55313 7 8V1C7 0.447812 7.44687 0 8 0C8.55313 0 9 0.447812 9 1V8ZM2.5 8C2.5 11.0375 4.9625 13.5 8 13.5C11.0375 13.5 13.5 11.0375 13.5 8C13.5 6.3 12.7281 4.77812 11.5156 3.76875C11.0906 3.41562 11.0312 2.78531 11.3844 2.36063C11.7375 1.93594 12.3687 1.87813 12.7937 2.23125C14.4437 3.60625 15.5 5.68125 15.5 7.97188C15.5 12.1406 12.1406 15.5 8 15.5C3.85938 15.5 0.5 12.1406 0.5 7.97188C0.5 5.68125 1.55469 3.60625 3.20625 2.23125C3.63125 1.87813 4.2625 1.93594 4.61562 2.36063C4.94062 2.78531 4.90938 3.41562 4.48438 3.76875C3.27188 4.77812 2.5 6.3 2.5 8Z" fill="#1F2024"/>
</svg>
