<svg width="24" height="24" viewBox="0 0 24 24" fill="none" xmlns="http://www.w3.org/2000/svg">
<rect width="24" height="24" rx="12" fill="#C2C2C2"/>
<path d="M6 8.4C6 7.76348 6.25286 7.15303 6.70294 6.70294C7.15303 6.25286 7.76348 6 8.4 6H15.6C16.2365 6 16.847 6.25286 17.2971 6.70294C17.7471 7.15303 18 7.76348 18 8.4V15.6C18 16.2365 17.7471 16.847 17.2971 17.2971C16.847 17.7471 16.2365 18 15.6 18H8.4C7.76348 18 7.15303 17.7471 6.70294 17.2971C6.25286 16.847 6 16.2365 6 15.6V8.4Z" stroke="white" stroke-width="1.3" stroke-linecap="round" stroke-linejoin="round"/>
<path d="M9.90039 11.3999C10.7288 11.3999 11.4004 10.7283 11.4004 9.8999C11.4004 9.07148 10.7288 8.3999 9.90039 8.3999C9.07196 8.3999 8.40039 9.07148 8.40039 9.8999C8.40039 10.7283 9.07196 11.3999 9.90039 11.3999Z" stroke="white" stroke-width="1.3" stroke-linecap="round" stroke-linejoin="round"/>
<path d="M13.516 12.3727L8.40039 18.0001H15.6802C16.2955 18.0001 16.8857 17.7556 17.3208 17.3205C17.7559 16.8854 18.0004 16.2952 18.0004 15.6799V15.6001C18.0004 15.3205 17.8954 15.2131 17.7064 15.0061L15.2884 12.3691C15.1757 12.2461 15.0386 12.1481 14.8859 12.0811C14.7332 12.0141 14.5682 11.9796 14.4014 11.98C14.2346 11.9803 14.0698 12.0154 13.9173 12.083C13.7649 12.1506 13.6282 12.2493 13.516 12.3727V12.3727Z" stroke="white" stroke-width="1.3" stroke-linecap="round" stroke-linejoin="round"/>
</svg>
