<svg width="48" height="48" viewBox="0 0 48 48" fill="none" xmlns="http://www.w3.org/2000/svg">
<path d="M32.228 17.4548C32.228 19.6368 31.3612 21.7295 29.8183 23.2724C28.2754 24.8153 26.1827 25.6821 24.0007 25.6821C21.8187 25.6821 19.7261 24.8153 18.1831 23.2724C16.6402 21.7295 15.7734 19.6368 15.7734 17.4548C15.7734 15.2728 16.6402 13.1802 18.1831 11.6373C19.7261 10.0943 21.8187 9.22754 24.0007 9.22754C26.1827 9.22754 28.2754 10.0943 29.8183 11.6373C31.3612 13.1802 32.228 15.2728 32.228 17.4548ZM27.4398 20.8939C28.3519 19.9818 28.8643 18.7447 28.8643 17.4548C28.8643 16.1649 28.3519 14.9278 27.4398 14.0157C26.5277 13.1036 25.2906 12.5912 24.0007 12.5912C22.7108 12.5912 21.4737 13.1036 20.5616 14.0157C19.6495 14.9278 19.1371 16.1649 19.1371 17.4548C19.1371 18.7447 19.6495 19.9818 20.5616 20.8939C21.4737 21.806 22.7108 22.3184 24.0007 22.3184C25.2906 22.3184 26.5277 21.806 27.4398 20.8939Z" fill="#1F2024" stroke="white"/>
<path d="M24.1418 32.2273C21.6042 32.2255 19.1037 32.8368 16.8531 34.0089C14.6023 35.1812 12.6681 36.8798 11.2148 38.9602L10.9488 39.341L11.3091 39.6343C14.8941 42.5528 19.3773 44.1431 24 44.1364C28.7045 44.1428 33.2616 42.4954 36.8744 39.4822L37.2312 39.1846L36.9607 38.807C35.5013 36.7697 33.577 35.1099 31.3474 33.9655C29.118 32.8212 26.6477 32.2253 24.1418 32.2273ZM24.1418 32.2273C24.1416 32.2273 24.1415 32.2273 24.1414 32.2273L24.1418 32.7273L24.1422 32.2273C24.142 32.2273 24.1419 32.2273 24.1418 32.2273ZM3.86364 23.9999V24C3.86364 28.6757 5.45916 32.9811 8.13269 36.3997L8.53182 36.91L8.92434 36.3946C10.7087 34.0513 13.0106 32.1523 15.6504 30.8459C18.2901 29.5395 21.1961 28.8611 24.1414 28.8636H24.1423C27.0495 28.8609 29.9189 29.5217 32.532 30.7959C35.1451 32.07 37.4329 33.9237 39.221 36.2159L39.6198 36.7271L40.0129 36.2115C41.9515 33.669 43.2567 30.7014 43.8207 27.5542C44.3846 24.4071 44.191 21.1709 43.2559 18.1134C42.3209 15.0559 40.6712 12.265 38.4433 9.97169C36.2155 7.67836 33.4736 5.94849 30.4445 4.92523C27.4154 3.90196 24.1861 3.61471 21.024 4.08725C17.8618 4.55979 14.8576 5.77852 12.26 7.64262C9.66234 9.50671 7.54593 11.9626 6.08586 14.807C4.62579 17.6514 3.86404 20.8027 3.86364 23.9999ZM0.5 24C0.5 11.0216 11.0216 0.5 24 0.5C36.9784 0.5 47.5 11.0216 47.5 24C47.5 36.9784 36.9784 47.5 24 47.5C11.0216 47.5 0.5 36.9784 0.5 24Z" fill="#1F2024" stroke="white"/>
</svg>
