<svg width="111" height="101" viewBox="0 0 111 101" fill="none" xmlns="http://www.w3.org/2000/svg">
<circle cx="77.1725" cy="53.8131" r="17.5709" fill="#C1D3E8"/>
<circle cx="41.4811" cy="66.0768" r="17.5709" fill="#C1D3E8"/>
<rect x="28.6699" y="0.00195312" width="58.5697" height="86.0242" rx="12" fill="#707384"/>
<rect x="28.6699" y="14.6436" width="58.5697" height="14.6424" fill="#5B5C6C"/>
<rect x="28.6699" y="43.9287" width="58.5697" height="14.6424" fill="#5B5C6C"/>
<path d="M28.6699 71.3838H87.2396V71.3838C87.2396 79.4706 80.6839 86.0262 72.5972 86.0262H43.3123C35.2255 86.0262 28.6699 79.4706 28.6699 71.3838V71.3838Z" fill="#5B5C6C"/>
<rect opacity="0.1" x="28.6699" y="0.00195312" width="50.8824" height="74.8593" rx="12" fill="white"/>
<circle cx="34.5267" cy="7.32264" r="1.46424" fill="#FF6469"/>
<circle cx="34.5267" cy="21.9652" r="1.46424" fill="#FF6469"/>
<circle cx="34.5267" cy="36.6078" r="1.46424" fill="#FF6469"/>
<circle cx="34.5267" cy="51.2504" r="1.46424" fill="#FF6469"/>
<circle cx="34.5267" cy="65.892" r="1.46424" fill="#FF6469"/>
<circle cx="40.017" cy="7.32264" r="1.46424" fill="#FFB96A"/>
<circle cx="40.017" cy="21.9652" r="1.46424" fill="#FFB96A"/>
<circle cx="40.017" cy="36.6078" r="1.46424" fill="#FFB96A"/>
<circle cx="40.017" cy="51.2504" r="1.46424" fill="#FFB96A"/>
<circle cx="40.017" cy="65.892" r="1.46424" fill="#FFB96A"/>
<circle cx="45.5053" cy="7.32264" r="1.46424" fill="#A7D16C"/>
<circle cx="45.5053" cy="21.9652" r="1.46424" fill="#A7D16C"/>
<circle cx="45.5053" cy="36.6078" r="1.46424" fill="#A7D16C"/>
<circle cx="45.5053" cy="51.2504" r="1.46424" fill="#A7D16C"/>
<circle cx="45.5053" cy="65.892" r="1.46424" fill="#A7D16C"/>
<ellipse cx="26.1982" cy="83.8303" rx="16.1982" ry="16.1067" fill="#E2F0FF"/>
<circle cx="52.4628" cy="78.3388" r="21.5976" fill="#E2F0FF"/>
<path d="M80.8501 99.9376L105.909 75.2285L38.6459 87.4818L25.5586 99.9376H80.8501Z" fill="#E2F0FF"/>
<rect x="71.8652" y="5.8584" width="10.9818" height="2.92848" rx="1.46424" fill="#EBEEFC"/>
<rect x="71.8652" y="20.501" width="10.9818" height="2.92848" rx="1.46424" fill="#EBEEFC"/>
<rect x="71.8652" y="35.1436" width="10.9818" height="2.92848" rx="1.46424" fill="#EBEEFC"/>
<rect x="71.8652" y="49.7861" width="10.9818" height="2.92848" rx="1.46424" fill="#EBEEFC"/>
<circle cx="80.8329" cy="74.8613" r="25.0751" fill="#E2F0FF"/>
<path d="M6.20744 95.2031V84.2231L3.76744 84.8231L3.12744 82.3031L7.14744 81.1031H9.24744V95.2031H6.20744ZM17.1849 95.4431C15.1583 95.4431 13.4116 94.7431 11.9449 93.3431L13.8049 91.1231C14.9249 92.1365 16.0383 92.6431 17.1449 92.6431C17.8783 92.6431 18.4516 92.4698 18.8649 92.1231C19.2783 91.7765 19.4849 91.2898 19.4849 90.6631C19.4849 90.0765 19.2583 89.6165 18.8049 89.2831C18.3516 88.9365 17.7516 88.7631 17.0049 88.7631C16.2583 88.7631 15.4783 88.9365 14.6649 89.2831L12.8849 88.1031L13.2849 81.2031H21.8849V83.9031H15.9249L15.7649 86.3231C16.4049 86.1631 17.0183 86.0831 17.6049 86.0831C19.0583 86.0831 20.2383 86.4565 21.1449 87.2031C22.0516 87.9498 22.5049 89.0831 22.5049 90.6031C22.5049 92.0831 22.0183 93.2631 21.0449 94.1431C20.0849 95.0098 18.7983 95.4431 17.1849 95.4431ZM35.4626 93.3831C34.3026 94.7565 32.8026 95.4431 30.9626 95.4431C29.1226 95.4431 27.6293 94.7565 26.4826 93.3831C25.3359 92.0098 24.7626 90.2831 24.7626 88.2031C24.7626 86.1365 25.3426 84.4165 26.5026 83.0431C27.6626 81.6565 29.1626 80.9631 31.0026 80.9631C32.8293 80.9631 34.3159 81.6498 35.4626 83.0231C36.6226 84.3965 37.2026 86.1231 37.2026 88.2031C37.2026 90.2698 36.6226 91.9965 35.4626 93.3831ZM28.7626 91.4031C29.3359 92.2431 30.0826 92.6631 31.0026 92.6631C31.9226 92.6631 32.6559 92.2498 33.2026 91.4231C33.7626 90.5831 34.0426 89.5098 34.0426 88.2031C34.0426 86.9231 33.7559 85.8631 33.1826 85.0231C32.6093 84.1698 31.8693 83.7431 30.9626 83.7431C30.0559 83.7431 29.3226 84.1631 28.7626 85.0031C28.2026 85.8298 27.9226 86.8965 27.9226 88.2031C27.9226 89.4965 28.2026 90.5631 28.7626 91.4031ZM43.272 93.1431V89.5431H39.652V86.7831H43.272V83.1831H46.112V86.7831H49.732V89.5431H46.112V93.1431H43.272ZM58.761 95.2031V81.2031H64.221C66.4077 81.2031 68.1944 81.8698 69.581 83.2031C70.9677 84.5231 71.661 86.1898 71.661 88.2031C71.661 90.2031 70.961 91.8698 69.561 93.2031C68.1744 94.5365 66.3944 95.2031 64.221 95.2031H58.761ZM61.841 92.4231H64.221C65.4877 92.4231 66.5077 92.0365 67.281 91.2631C68.0544 90.4765 68.441 89.4565 68.441 88.2031C68.441 86.9631 68.0477 85.9498 67.261 85.1631C66.4877 84.3765 65.4744 83.9831 64.221 83.9831H61.841V92.4231ZM79.1903 95.4031C76.8969 95.4031 74.9169 94.6565 73.2503 93.1631L75.0703 90.9831C76.4436 92.1165 77.8369 92.6831 79.2503 92.6831C79.8769 92.6831 80.3703 92.5631 80.7303 92.3231C81.0903 92.0831 81.2703 91.7498 81.2703 91.3231C81.2703 90.9231 81.0836 90.6031 80.7103 90.3631C80.3369 90.1098 79.5836 89.8365 78.4503 89.5431C77.6503 89.3431 77.0036 89.1498 76.5103 88.9631C76.0169 88.7631 75.5436 88.5031 75.0903 88.1831C74.6503 87.8631 74.3236 87.4631 74.1103 86.9831C73.9103 86.4898 73.8103 85.9031 73.8103 85.2231C73.8103 83.9565 74.2636 82.9365 75.1703 82.1631C76.0903 81.3898 77.2703 81.0031 78.7103 81.0031C80.6969 81.0031 82.4303 81.5965 83.9103 82.7831L82.3103 85.1031C80.9903 84.1831 79.7769 83.7231 78.6703 83.7231C78.0969 83.7231 77.6503 83.8431 77.3303 84.0831C77.0236 84.3098 76.8703 84.6098 76.8703 84.9831C76.8703 85.4365 77.0636 85.7765 77.4503 86.0031C77.8369 86.2298 78.6503 86.5031 79.8903 86.8231C81.4103 87.2231 82.5303 87.7365 83.2503 88.3631C83.9703 88.9898 84.3303 89.8898 84.3303 91.0631C84.3303 92.4231 83.8569 93.4898 82.9103 94.2631C81.9769 95.0231 80.7369 95.4031 79.1903 95.4031ZM87.0032 95.2031V81.2031H92.7232C94.3766 81.2031 95.6832 81.6498 96.6432 82.5431C97.6032 83.4365 98.0832 84.6165 98.0832 86.0831C98.0832 87.6431 97.5499 88.8565 96.4832 89.7231C95.4166 90.5765 94.0632 91.0031 92.4232 91.0031H90.0832V95.2031H87.0032ZM90.0832 88.2631H92.5232C93.2832 88.2631 93.8766 88.0631 94.3032 87.6631C94.7432 87.2631 94.9632 86.7431 94.9632 86.1031C94.9632 85.4231 94.7432 84.9031 94.3032 84.5431C93.8632 84.1698 93.2499 83.9831 92.4632 83.9831H90.0832V88.2631ZM103.803 95.4031C102.109 95.4031 100.576 94.8631 99.2026 93.7831L100.503 91.7831C101.676 92.6365 102.803 93.0631 103.883 93.0631C104.736 93.0631 105.163 92.7831 105.163 92.2231C105.163 92.1565 105.149 92.0898 105.123 92.0231C105.109 91.9565 105.076 91.8965 105.023 91.8431C104.969 91.7898 104.909 91.7431 104.843 91.7031C104.789 91.6498 104.709 91.6031 104.603 91.5631C104.509 91.5098 104.423 91.4698 104.343 91.4431C104.276 91.4031 104.176 91.3631 104.043 91.3231C103.909 91.2698 103.796 91.2298 103.703 91.2031C103.609 91.1765 103.483 91.1431 103.323 91.1031C103.163 91.0498 103.036 91.0098 102.943 90.9831C102.489 90.8498 102.103 90.7165 101.783 90.5831C101.476 90.4365 101.149 90.2431 100.803 90.0031C100.456 89.7498 100.189 89.4365 100.003 89.0631C99.8293 88.6765 99.7426 88.2298 99.7426 87.7231C99.7426 86.6698 100.116 85.8431 100.863 85.2431C101.609 84.6298 102.543 84.3231 103.663 84.3231C105.103 84.3231 106.436 84.7365 107.663 85.5631L106.503 87.6631C105.369 86.9965 104.403 86.6631 103.603 86.6631C102.856 86.6631 102.483 86.9231 102.483 87.4431C102.483 87.8031 103.096 88.1898 104.323 88.6031C104.469 88.6565 104.583 88.6965 104.663 88.7231C105.023 88.8431 105.329 88.9565 105.583 89.0631C105.836 89.1698 106.123 89.3165 106.443 89.5031C106.763 89.6898 107.016 89.8898 107.203 90.1031C107.403 90.3031 107.569 90.5631 107.703 90.8831C107.836 91.2031 107.903 91.5565 107.903 91.9431C107.903 93.0898 107.523 93.9565 106.763 94.5431C106.016 95.1165 105.029 95.4031 103.803 95.4031Z" fill="#0074FF"/>
</svg>
