<svg width="110" height="100" viewBox="0 0 110 100" fill="none" xmlns="http://www.w3.org/2000/svg">
<g clip-path="url(#clip0_205_1214)">
<path fill-rule="evenodd" clip-rule="evenodd" d="M90.9962 31.4678C88.5797 31.4678 86.2622 32.4277 84.5534 34.1364C82.8447 35.8452 81.8848 38.1627 81.8848 40.5792L81.8848 40.5801C81.8835 41.2269 81.9532 41.8719 82.0927 42.5034L82.093 42.5049C82.5702 44.696 83.8401 46.6334 85.6589 47.9451C87.4776 49.2569 89.7169 49.8503 91.9466 49.6114C94.1762 49.3725 96.239 48.3181 97.7386 46.6509C99.2382 44.9837 100.069 42.8211 100.071 40.5787L100.071 40.0792H100.094C99.9711 37.8449 99.0294 35.7269 97.4389 34.1364C95.7302 32.4277 93.4127 31.4678 90.9962 31.4678ZM101.058 41.0792H101.108V40.5792C101.108 37.8974 100.042 35.3256 98.146 33.4293C96.2497 31.5331 93.6779 30.4678 90.9962 30.4678C88.3145 30.4678 85.7426 31.5331 83.8463 33.4293C81.9502 35.3255 80.8849 37.8971 80.8848 40.5787C80.8848 40.5785 80.8848 40.5783 80.8848 40.5782L81.3848 40.5792H80.8848C80.8848 40.579 80.8848 40.5788 80.8848 40.5787C80.8834 41.2982 80.961 42.0157 81.1161 42.7184C81.6458 45.1501 83.0553 47.3004 85.0739 48.7562C87.0927 50.2122 89.5782 50.8708 92.0531 50.6057C94.528 50.3405 96.8176 49.1702 98.4821 47.3196C100.035 45.5932 100.942 43.3882 101.058 41.0792Z" fill="#1D1D1B"/>
<path fill-rule="evenodd" clip-rule="evenodd" d="M33.2281 0.958008C30.8116 0.958008 28.4941 1.91795 26.7854 3.62667C25.0767 5.33539 24.1167 7.6529 24.1167 10.0694V10.0783L24.1166 10.0783C24.1052 10.718 24.1633 11.3571 24.2899 11.9843L24.2903 11.9863C24.7304 14.2143 25.9883 16.197 27.8165 17.5443C29.6447 18.8917 31.9109 19.5061 34.1693 19.2668C36.4277 19.0274 38.5148 17.9517 40.02 16.2511C41.5252 14.5505 42.3396 12.3482 42.3029 10.0775L42.2947 9.56939H42.3258C42.2031 7.33512 41.2613 5.21716 39.6708 3.62667C37.9621 1.91795 35.6446 0.958008 33.2281 0.958008ZM43.2982 10.5694H43.3395V10.0694C43.3395 7.38769 42.2742 4.81582 40.3779 2.91956C38.4817 1.02331 35.9098 -0.0419922 33.2281 -0.0419922C30.5464 -0.0419922 27.9745 1.02331 26.0783 2.91956C24.1831 4.81476 23.1179 7.38484 23.1167 10.0649C23.1044 10.7752 23.169 11.4847 23.3095 12.1811C23.7981 14.6537 25.1942 16.8541 27.2232 18.3493C29.2525 19.8448 31.7679 20.5269 34.2747 20.2612C36.7815 19.9956 39.0981 18.8015 40.7688 16.9139C42.3271 15.1534 43.2183 12.9085 43.2982 10.5694Z" fill="#1D1D1B"/>
<path fill-rule="evenodd" clip-rule="evenodd" d="M10.0684 33.499C7.65194 33.499 5.33443 34.459 3.62571 36.1677C1.917 37.8764 0.95705 40.1939 0.95705 42.6104L0.957049 42.6114C0.955763 43.2582 1.02549 43.9031 1.16497 44.5347L1.16529 44.5361C1.64244 46.7272 2.91237 48.6647 4.73113 49.9764C6.54988 51.2881 8.78918 51.8815 11.0188 51.6426C13.2485 51.4037 15.3113 50.3494 16.8108 48.6822C18.3104 47.0149 19.1411 44.8524 19.1432 42.6099L19.1437 42.1104H19.1661C19.0434 39.8761 18.1016 37.7582 16.5112 36.1677C14.8024 34.459 12.4849 33.499 10.0684 33.499ZM20.1304 43.1104H20.1798V42.6104C20.1798 39.9287 19.1145 37.3568 17.2183 35.4606C15.322 33.5643 12.7501 32.499 10.0684 32.499C7.38673 32.499 4.81486 33.5643 2.91861 35.4606C1.02247 37.3567 -0.0428182 39.9284 -0.0429503 42.6099C-0.04295 42.6097 -0.0429496 42.6096 -0.0429493 42.6094L0.45705 42.6104H-0.0429503C-0.0429503 42.6102 -0.0429503 42.6101 -0.0429503 42.6099C-0.0443438 43.3295 0.033219 44.047 0.188345 44.7496C0.718087 47.1814 2.1276 49.3317 4.14617 50.7875C6.16495 52.2434 8.65051 52.9021 11.1254 52.6369C13.6002 52.3718 15.8898 51.2015 17.5543 49.3509C19.1072 47.6244 20.0138 45.4195 20.1304 43.1104Z" fill="#1D1D1B"/>
<path d="M90.9405 44.1848C92.9324 44.1848 94.5471 42.5701 94.5471 40.5782C94.5471 38.5864 92.9324 36.9717 90.9405 36.9717C88.9487 36.9717 87.334 38.5864 87.334 40.5782C87.334 42.5701 88.9487 44.1848 90.9405 44.1848Z" fill="#1D1D1B"/>
<path d="M33.2081 13.6575C35.2 13.6575 36.8147 12.0427 36.8147 10.0509C36.8147 8.05905 35.2 6.44434 33.2081 6.44434C31.2163 6.44434 29.6016 8.05905 29.6016 10.0509C29.6016 12.0427 31.2163 13.6575 33.2081 13.6575Z" fill="#1D1D1B"/>
<path d="M10.0499 46.217C12.0418 46.217 13.6565 44.6023 13.6565 42.6105C13.6565 40.6186 12.0418 39.0039 10.0499 39.0039C8.05807 39.0039 6.44336 40.6186 6.44336 42.6105C6.44336 44.6023 8.05807 46.217 10.0499 46.217Z" fill="#1D1D1B"/>
<path d="M31.5 72C29.4233 72 27.3932 72.6158 25.6665 73.7696C23.9398 74.9233 22.594 76.5632 21.7993 78.4818C21.0046 80.4004 20.7966 82.5116 21.2018 84.5484C21.6069 86.5852 22.6069 88.4562 24.0754 89.9246C25.5438 91.3931 27.4148 92.3931 29.4516 92.7982C31.4884 93.2034 33.5996 92.9954 35.5182 92.2007C37.4368 91.406 39.0767 90.0602 40.2304 88.3335C41.3842 86.6068 42 84.5767 42 82.5C42 79.7152 40.8938 77.0445 38.9246 75.0754C36.9555 73.1062 34.2848 72 31.5 72ZM31.5 87.5671C30.4978 87.5671 29.5182 87.2699 28.6849 86.7131C27.8516 86.1564 27.2021 85.365 26.8186 84.4391C26.4351 83.5132 26.3348 82.4944 26.5303 81.5115C26.7258 80.5285 27.2084 79.6257 27.917 78.917C28.6257 78.2084 29.5285 77.7258 30.5115 77.5303C31.4944 77.3347 32.5132 77.4351 33.4391 77.8186C34.365 78.2021 35.1564 78.8516 35.7131 79.6849C36.2699 80.5181 36.5671 81.4978 36.5671 82.5C36.5599 83.8392 36.0229 85.1211 35.0734 86.0655C34.1239 87.0099 32.8392 87.54 31.5 87.54V87.5671Z" fill="#1D1D1B"/>
<path fill-rule="evenodd" clip-rule="evenodd" d="M90.9832 6.06348C89.2873 6.06348 87.6576 6.7214 86.437 7.89876C85.2186 9.07408 84.5027 10.6755 84.4395 12.367V23.5071H83.4395V12.3489L83.4398 12.3398C83.5102 10.3863 84.3358 8.53619 85.7428 7.17903C87.1498 5.82187 89.0284 5.06348 90.9832 5.06348C92.9381 5.06348 94.8167 5.82187 96.2237 7.17903C97.6306 8.53619 98.4562 10.3863 98.5267 12.3398L98.527 12.3489V23.5071H97.527V12.367C97.4637 10.6755 96.7479 9.07407 95.5294 7.89876C94.3088 6.7214 92.6791 6.06348 90.9832 6.06348Z" fill="#1D1D1B"/>
<path fill-rule="evenodd" clip-rule="evenodd" d="M83.4395 23.0068H98.527V26.8892L96.0429 31.2363L95.2814 32.5493L94.8658 32.3528C93.6448 31.7756 92.311 31.4763 90.9603 31.4763C89.6097 31.4763 88.2759 31.7756 87.0549 32.3528L86.9534 32.4008H86.4683L85.8006 31.2294L83.4395 27.0057V23.0068ZM84.4395 24.0068V26.7451L86.6725 30.7396L86.9851 31.2881C88.2407 30.7529 89.5928 30.4763 90.9603 30.4763C92.305 30.4763 93.6346 30.7437 94.8723 31.2614L95.1763 30.7373L95.1779 30.7345L97.527 26.6236V24.0068H84.4395Z" fill="#1D1D1B"/>
<path fill-rule="evenodd" clip-rule="evenodd" d="M81.8987 41.7109L82.0935 42.6053C82.3728 43.8876 82.9261 45.0942 83.7154 46.1426C84.5047 47.191 85.5113 48.0563 86.6663 48.6793L87.2621 49.0006L80.8692 55.2969V60.5115L83.9174 62.9189V74.2503L74.3236 66.815L71.9238 64.953V51.6858L81.8987 41.7109ZM81.3443 43.6796L72.9238 52.1V64.4632L74.9362 66.0246L82.9174 72.2101V63.4034L79.8692 60.9959V54.8782L85.6124 49.2218C84.572 48.568 83.6578 47.7288 82.9165 46.7441C82.2195 45.8183 81.6884 44.7814 81.3443 43.6796Z" fill="#1D1D1B"/>
<path fill-rule="evenodd" clip-rule="evenodd" d="M100.067 41.7109L110.042 51.6858V64.953L107.642 66.8149L98.0483 74.2503V62.9184L101.106 60.511V55.2971L94.7031 49.0009L95.2994 48.6793C96.4544 48.0563 97.461 47.191 98.2503 46.1426C99.0396 45.0942 99.5929 43.8876 99.8722 42.6053L100.067 41.7109ZM100.621 43.6796C100.277 44.7814 99.7461 45.8183 99.0492 46.7441C98.308 47.7286 97.394 48.5678 96.3537 49.2215L102.106 54.878V60.9964L99.0483 63.4038V72.2101L107.029 66.0248L109.042 64.4632V52.1L100.621 43.6796Z" fill="#1D1D1B"/>
<path fill-rule="evenodd" clip-rule="evenodd" d="M56.0195 13.9082H83.9383V14.9082H56.0195V13.9082Z" fill="#1D1D1B"/>
<path fill-rule="evenodd" clip-rule="evenodd" d="M55.2363 4.80957H91.9266V5.32788H91.4266V5.80957H55.7363V5.32788H55.2363V4.80957Z" fill="#1D1D1B"/>
<path fill-rule="evenodd" clip-rule="evenodd" d="M52.6527 3.48971C51.7712 3.15128 50.8305 2.99382 49.8868 3.02673L49.8781 3.02704H39.1687V2.02704H49.8608C50.9357 1.99074 52.007 2.17065 53.0111 2.55614C54.018 2.94269 54.9368 3.52804 55.7126 4.27727C56.4884 5.02651 57.1054 5.9243 57.5268 6.91711C57.9482 7.90991 58.1654 8.97741 58.1654 10.056C58.1654 11.1345 57.9482 12.202 57.5268 13.1948C57.1054 14.1876 56.4884 15.0854 55.7126 15.8346C54.9368 16.5839 54.018 17.1692 53.0111 17.5558C52.007 17.9413 50.9357 18.1212 49.8608 18.0849H39.1504V17.0849H49.8781L49.8868 17.0852C50.8305 17.1181 51.7712 16.9606 52.6527 16.6222C53.5343 16.2838 54.3387 15.7713 55.0179 15.1153C55.6972 14.4593 56.2374 13.6733 56.6063 12.8041C56.9753 11.9349 57.1654 11.0002 57.1654 10.056C57.1654 9.11167 56.9753 8.17705 56.6063 7.30783C56.2374 6.4386 55.6972 5.65257 55.0179 4.9966C54.3387 4.34063 53.5343 3.82814 52.6527 3.48971Z" fill="#1D1D1B"/>
<path fill-rule="evenodd" clip-rule="evenodd" d="M9.75195 32.694L24.8372 15.0273L25.5977 15.6767L10.5124 33.3433L9.75195 32.694Z" fill="#1D1D1B"/>
<path fill-rule="evenodd" clip-rule="evenodd" d="M31.7237 19.734L19.3113 38.7554L18.9066 38.4913H18.3926V38.3334L30.8863 19.1875L31.7237 19.734Z" fill="#1D1D1B"/>
<path fill-rule="evenodd" clip-rule="evenodd" d="M15.7806 12.0003C18.6815 10.7526 21.7368 10.0968 23.5392 9.78711L23.7085 10.7727C21.9409 11.0763 18.973 11.7158 16.1758 12.9189C13.3603 14.1299 10.8236 15.8669 9.76639 18.3047C7.61807 23.2877 6.37064 30.9312 5.88479 34.3871L4.89453 34.2479C5.37897 30.802 6.63958 23.0311 8.8483 17.9083L8.84871 17.9074C10.0617 15.1096 12.8982 13.2401 15.7806 12.0003Z" fill="#1D1D1B"/>
<path fill-rule="evenodd" clip-rule="evenodd" d="M22.1954 69.2456L10.7441 52.4211L11.5708 51.8584L23.1088 68.8102V68.9734H22.5953L22.1954 69.2456Z" fill="#1D1D1B"/>
<path fill-rule="evenodd" clip-rule="evenodd" d="M38.7066 67.3749L38.7114 67.3802L38.5809 67.5007L37.9998 68.0822L37.9836 68.066L18.4336 46.8952L19.1683 46.2168L38.7046 67.3728L38.7066 67.3749Z" fill="#1D1D1B"/>
<path fill-rule="evenodd" clip-rule="evenodd" d="M31.5 98C40.0604 98 47 91.0604 47 82.5C47 73.9396 40.0604 67 31.5 67C22.9396 67 16 73.9396 16 82.5C16 91.0604 22.9396 98 31.5 98ZM31.5 99C40.6127 99 48 91.6127 48 82.5C48 73.3873 40.6127 66 31.5 66C22.3873 66 15 73.3873 15 82.5C15 91.6127 22.3873 99 31.5 99Z" fill="#1D1D1B"/>
</g>
<defs>
<clipPath id="clip0_205_1214">
<rect width="110" height="100" fill="white"/>
</clipPath>
</defs>
</svg>
