<svg width="107" height="84" viewBox="0 0 107 84" fill="none" xmlns="http://www.w3.org/2000/svg">
<path fill-rule="evenodd" clip-rule="evenodd" d="M0 0H12.59C20.5306 0 28.1459 3.15438 33.7608 8.76922C39.3756 14.3841 42.53 21.9994 42.53 29.94V32.47H0V0ZM1 1V31.47H41.53V29.94C41.5287 26.1415 40.7812 22.3803 39.33 18.87C37.1424 13.579 33.4335 9.05634 28.6732 5.8751C23.9129 2.69386 18.3154 0.997172 12.59 1H1Z" fill="#1D1D1B"/>
<path fill-rule="evenodd" clip-rule="evenodd" d="M49 33.56C47.2265 32.8313 45.3273 32.4576 43.41 32.46H1V67.46H53.9C54.9849 67.4574 56.0247 67.0259 56.7927 66.2598C57.5607 65.4936 57.9947 64.4548 58 63.37V47.05C58.0074 45.1322 57.6335 43.232 56.9 41.46C56.1624 39.6885 55.0855 38.0783 53.73 36.72C52.3778 35.3643 50.7701 34.2902 49 33.56ZM43.41 31.46C45.4584 31.456 47.4875 31.8566 49.3807 32.6387C51.274 33.4207 52.9942 34.5689 54.4426 36.0174C55.8911 37.4658 57.0393 39.186 57.8213 41.0793C58.6034 42.9725 59.004 45.0016 59 47.05V63.37C59 64.7279 58.4606 66.0302 57.5004 66.9904C56.5402 67.9506 55.2379 68.49 53.88 68.49H0V31.49L43.41 31.46Z" fill="#1D1D1B"/>
<path d="M48.6495 68V80C48.6469 81.0398 48.2334 82.0363 47.4991 82.7725C46.7648 83.5087 45.7693 83.9247 44.7295 83.93H38.7295C38.2109 83.934 37.6966 83.8352 37.2164 83.6395C36.7361 83.4438 36.2993 83.1549 35.9312 82.7896C35.5631 82.4243 35.2709 81.9897 35.0715 81.5109C34.8722 81.0321 34.7695 80.5186 34.7695 80V68" fill="#1D1D1B"/>
<path d="M45.3098 50.8604H38.7298C37.7689 50.9883 36.8871 51.4609 36.2485 52.1902C35.6099 52.9195 35.2578 53.8559 35.2578 54.8254C35.2578 55.7948 35.6099 56.7312 36.2485 57.4605C36.8871 58.1898 37.7689 58.6624 38.7298 58.7904H45.3098C46.2708 58.6624 47.1525 58.1898 47.7911 57.4605C48.4298 56.7312 48.7818 55.7948 48.7818 54.8254C48.7818 53.8559 48.4298 52.9195 47.7911 52.1902C47.1525 51.4609 46.2708 50.9883 45.3098 50.8604Z" fill="#1D1D1B"/>
<path fill-rule="evenodd" clip-rule="evenodd" d="M77.7995 34C75.2695 34 73.4595 35.61 73.4595 37.39V57.08C73.4595 59.61 70.9395 61.47 68.1195 61.47H58.5195V60.47H68.1195C70.5995 60.47 72.4595 58.86 72.4595 57.08V37.39C72.4595 34.87 74.9295 33 77.7995 33H86.2595C89.0595 33 91.5995 34.87 91.5995 37.39V43.27H90.5995V37.39C90.5995 35.62 88.7295 34 86.2595 34H77.7995Z" fill="#1D1D1B"/>
<path d="M0.5 63.7296H21.66C22.7978 63.7936 23.9157 63.4116 24.7764 62.6647C25.6372 61.9179 26.1729 60.865 26.27 59.7296V52.7296C26.1729 51.5941 25.6372 50.5412 24.7764 49.7944C23.9157 49.0476 22.7978 48.6656 21.66 48.7296H0.5" fill="#1D1D1B"/>
<path d="M66.0895 52.0604H58.7695V51.0604H66.0895C66.2616 51.0604 66.4319 51.0265 66.5908 50.9607C66.7498 50.8949 66.8942 50.7984 67.0158 50.6767C67.1375 50.5551 67.234 50.4107 67.2998 50.2517C67.3657 50.0928 67.3995 49.9225 67.3995 49.7504V23.0004C67.3883 22.03 67.6204 21.0722 68.0746 20.2145C68.5288 19.3568 69.1906 18.6266 69.9995 18.0904L74.7595 14.9404L75.3095 15.7804L70.5495 18.9204C69.887 19.3575 69.3424 19.9512 68.9639 20.6489C68.5854 21.3465 68.3847 22.1267 68.3795 22.9204V49.7204C68.3835 50.0246 68.3273 50.3266 68.2143 50.609C68.1012 50.8915 67.9335 51.1488 67.7207 51.3662C67.5079 51.5836 67.2543 51.7569 66.9744 51.876C66.6944 51.9952 66.3937 52.0578 66.0895 52.0604Z" fill="black"/>
<path d="M89.6095 58.1201V60.6901C89.6272 60.9169 89.5978 61.1449 89.5231 61.3598C89.4485 61.5748 89.3302 61.7719 89.1757 61.9389C89.0212 62.1059 88.8339 62.2392 88.6254 62.3303C88.417 62.4214 88.1919 62.4685 87.9644 62.4685C87.737 62.4685 87.5119 62.4214 87.3035 62.3303C87.095 62.2392 86.9077 62.1059 86.7532 61.9389C86.5987 61.7719 86.4804 61.5748 86.4058 61.3598C86.3312 61.1449 86.3018 60.9169 86.3195 60.6901V58.1201H89.6095Z" fill="#1D1D1B"/>
<path d="M96.0906 58.1201V60.6901C96.0914 60.9071 96.0495 61.1222 95.9671 61.3229C95.8847 61.5237 95.7636 61.7062 95.6106 61.8601C95.2999 62.1631 94.8845 62.335 94.4506 62.3401C94.0162 62.3371 93.6001 62.1649 93.2906 61.8601C93.1375 61.7062 93.0164 61.5237 92.934 61.3229C92.8517 61.1222 92.8097 60.9071 92.8106 60.6901V58.1201H96.0906Z" fill="#1D1D1B"/>
<path d="M98.9405 58.63H90.7705V57.63H97.9405V50.79C98.0099 49.6941 97.8176 48.5975 97.3794 47.5908C96.9412 46.584 96.2697 45.6959 95.4205 45C94.1133 43.9469 92.4789 43.3844 90.8005 43.41L90.7305 42.41C92.666 42.37 94.5536 43.0146 96.0605 44.23C97.0237 45.0212 97.7865 46.0286 98.2869 47.1702C98.7874 48.3118 99.0113 49.5555 98.9405 50.8V58.63Z" fill="black"/>
<path d="M91.2102 58.6299H83.0002V50.7899C82.9448 49.5537 83.177 48.3214 83.6785 47.1901C84.1799 46.0587 84.937 45.0592 85.8902 44.2699C87.3936 43.0552 89.2778 42.4107 91.2102 42.4499L91.1402 43.4499C89.478 43.4266 87.858 43.9737 86.5502 44.9999C85.7074 45.692 85.038 46.5713 84.5953 47.5679C84.1525 48.5644 83.9488 49.6507 84.0002 50.7399V57.6299H91.1802L91.2102 58.6299Z" fill="black"/>
<path d="M88.15 78.4205C88.568 78.4145 88.9749 78.2852 89.3195 78.0487C89.6642 77.8122 89.9312 77.479 90.0871 77.0912C90.243 76.7033 90.2807 76.278 90.1955 75.8688C90.1104 75.4595 89.9061 75.0846 89.6085 74.7911C89.3109 74.4976 88.9331 74.2987 88.5227 74.2193C88.1123 74.1399 87.6876 74.1836 87.3019 74.3449C86.9163 74.5062 86.587 74.7779 86.3553 75.1258C86.1237 75.4738 86 75.8824 86 76.3005C86 76.5814 86.0558 76.8595 86.1642 77.1187C86.2726 77.3779 86.4315 77.613 86.6315 77.8102C86.8315 78.0075 87.0688 78.163 87.3295 78.2678C87.5902 78.3725 87.8691 78.4244 88.15 78.4205Z" fill="#1D1D1B"/>
<path d="M94.6395 78.4197C95.0588 78.4197 95.4687 78.2954 95.8173 78.0624C96.166 77.8295 96.4377 77.4984 96.5982 77.111C96.7586 76.7236 96.8006 76.2973 96.7188 75.8861C96.637 75.4749 96.4351 75.0971 96.1386 74.8006C95.8421 74.5041 95.4644 74.3022 95.0531 74.2204C94.6419 74.1386 94.2156 74.1806 93.8282 74.3411C93.4409 74.5015 93.1098 74.7732 92.8768 75.1219C92.6439 75.4705 92.5195 75.8804 92.5195 76.2997C92.5195 76.5781 92.5744 76.8538 92.6809 77.111C92.7874 77.3682 92.9436 77.6019 93.1405 77.7988C93.3373 77.9956 93.571 78.1518 93.8282 78.2583C94.0855 78.3649 94.3611 78.4197 94.6395 78.4197Z" fill="#1D1D1B"/>
<path d="M101.43 83.6899H81.3496C80.2887 83.6899 79.2713 83.2685 78.5212 82.5183C77.771 81.7682 77.3496 80.7508 77.3496 79.6899V72.9199C77.3496 71.8591 77.771 70.8416 78.5212 70.0915C79.2713 69.3414 80.2887 68.9199 81.3496 68.9199H101.43C102.49 68.9199 103.508 69.3414 104.258 70.0915C105.008 70.8416 105.43 71.8591 105.43 72.9199V79.6899C105.43 80.7508 105.008 81.7682 104.258 82.5183C103.508 83.2685 102.49 83.6899 101.43 83.6899ZM81.3496 69.9099C80.554 69.9099 79.7909 70.226 79.2283 70.7886C78.6657 71.3512 78.3496 72.1143 78.3496 72.9099V79.6799C78.3496 80.4756 78.6657 81.2386 79.2283 81.8012C79.7909 82.3639 80.554 82.6799 81.3496 82.6799H101.43C102.225 82.6799 102.988 82.3639 103.551 81.8012C104.114 81.2386 104.43 80.4756 104.43 79.6799V72.9199C104.43 72.1243 104.114 71.3612 103.551 70.7986C102.988 70.236 102.225 69.9199 101.43 69.9199L81.3496 69.9099Z" fill="black"/>
<path d="M84.7499 19.2904C83.62 19.2968 82.4961 19.1247 81.4199 18.7804L72.4199 16.4904L81.4799 10.5904C83.5955 9.21552 86.0314 8.41272 88.5499 8.26044L103.18 7.38044C104.35 7.38044 105.79 7.30044 105.99 9.06044L106.07 10.4104C106.07 12.2004 104.15 12.3204 103.23 12.4104L93.9099 13.0004L93.0599 14.3504C92.2678 15.8624 91.0715 17.1247 89.6043 17.9969C88.1371 18.8691 86.4566 19.3169 84.7499 19.2904ZM74.8699 16.0904L81.7199 17.8304C83.6564 18.5282 85.7788 18.5082 87.7018 17.7743C89.6248 17.0403 91.2208 15.641 92.1999 13.8304L93.3299 12.0004L103.17 11.3404C104.93 11.2304 105.07 10.8304 105.07 10.4004L105 9.15044C104.92 8.45044 104.66 8.34044 103.24 8.38044L88.6199 9.25044C86.2625 9.39561 83.9824 10.1465 81.9999 11.4304L74.8699 16.0904Z" fill="black"/>
</svg>
