<svg width="110" height="113" viewBox="0 0 110 113" fill="none" xmlns="http://www.w3.org/2000/svg">
<g clip-path="url(#clip0_178_1360)">
<path d="M52.6702 109.34C71.818 109.34 87.3404 93.818 87.3404 74.6702C87.3404 55.5224 71.818 40 52.6702 40C33.5224 40 18 55.5224 18 74.6702C18 93.818 33.5224 109.34 52.6702 109.34Z" fill="#1D1D1B"/>
<path d="M57.4163 111.339C76.5641 111.339 92.0864 95.817 92.0864 76.6692C92.0864 57.5214 76.5641 41.999 57.4163 41.999C38.2685 41.999 22.7461 57.5214 22.7461 76.6692C22.7461 95.817 38.2685 111.339 57.4163 111.339Z" fill="white"/>
<path fill-rule="evenodd" clip-rule="evenodd" d="M57.4163 42.499C38.5446 42.499 23.2461 57.7975 23.2461 76.6692C23.2461 95.5409 38.5446 110.839 57.4163 110.839C76.2879 110.839 91.5864 95.5409 91.5864 76.6692C91.5864 57.7975 76.2879 42.499 57.4163 42.499ZM22.2461 76.6692C22.2461 57.2452 37.9923 41.499 57.4163 41.499C76.8402 41.499 92.5864 57.2452 92.5864 76.6692C92.5864 96.0931 76.8402 111.839 57.4163 111.839C37.9923 111.839 22.2461 96.0931 22.2461 76.6692Z" fill="#1D1D1B"/>
<path fill-rule="evenodd" clip-rule="evenodd" d="M57.4152 71.5234C54.5733 71.5234 52.2695 73.8272 52.2695 76.6691C52.2695 79.511 54.5733 81.8148 57.4152 81.8148C60.2571 81.8148 62.5609 79.511 62.5609 76.6691C62.5609 73.8272 60.2571 71.5234 57.4152 71.5234ZM51.2695 76.6691C51.2695 73.2749 54.021 70.5234 57.4152 70.5234C60.8094 70.5234 63.5609 73.2749 63.5609 76.6691C63.5609 80.0633 60.8094 82.8148 57.4152 82.8148C54.021 82.8148 51.2695 80.0633 51.2695 76.6691Z" fill="#1D1D1B"/>
<path fill-rule="evenodd" clip-rule="evenodd" d="M57.4152 47.8008C41.4717 47.8008 28.5469 60.7256 28.5469 76.6691C28.5469 92.6126 41.4717 105.537 57.4152 105.537C73.3587 105.537 86.2835 92.6126 86.2835 76.6691C86.2835 60.7256 73.3587 47.8008 57.4152 47.8008ZM27.5469 76.6691C27.5469 60.1733 40.9194 46.8008 57.4152 46.8008C73.911 46.8008 87.2835 60.1733 87.2835 76.6691C87.2835 93.1649 73.911 106.537 57.4152 106.537C40.9194 106.537 27.5469 93.1649 27.5469 76.6691Z" fill="#1D1D1B"/>
<path fill-rule="evenodd" clip-rule="evenodd" d="M68.1723 86.0337L62.0742 79.9356L62.7813 79.2285L68.8794 85.3266L68.1723 86.0337Z" fill="#1D1D1B"/>
<path fill-rule="evenodd" clip-rule="evenodd" d="M58.0957 51.2637V71.0235H57.0957V51.2637H58.0957Z" fill="#1D1D1B"/>
<path fill-rule="evenodd" clip-rule="evenodd" d="M0 60.8057H11.0923V61.8057H0V60.8057Z" fill="#1D1D1B"/>
<path fill-rule="evenodd" clip-rule="evenodd" d="M1.71076 30.833L16.5487 39.1748L16.0587 40.0465L1.2207 31.7047L1.71076 30.833Z" fill="#1D1D1B"/>
<path fill-rule="evenodd" clip-rule="evenodd" d="M27.5721 13.9219L33.9778 23.2408L33.1537 23.8073L26.748 14.4883L27.5721 13.9219Z" fill="#1D1D1B"/>
<path fill-rule="evenodd" clip-rule="evenodd" d="M110 61.8057H98.9082V60.8057H110V61.8057Z" fill="#1D1D1B"/>
<path fill-rule="evenodd" clip-rule="evenodd" d="M108.779 31.7044L93.9593 40.0463L93.4688 39.1748L108.289 30.833L108.779 31.7044Z" fill="#1D1D1B"/>
<path fill-rule="evenodd" clip-rule="evenodd" d="M83.2512 14.4883L76.8456 23.8073L76.0215 23.2408L82.4271 13.9219L83.2512 14.4883Z" fill="#1D1D1B"/>
<path fill-rule="evenodd" clip-rule="evenodd" d="M55.291 0V16.9189H54.291V0H55.291Z" fill="#1D1D1B"/>
<path d="M33 48.0796C32.5439 48.9997 31.9035 49.8209 31.1169 50.4944C30.3302 51.1678 29.4134 51.6798 28.4207 52L26.6861 49.8276C26.3113 49.3813 26.0785 48.8372 26.0166 48.2627C25.9547 47.6882 26.0664 47.1086 26.3378 46.5956C26.6092 46.0826 27.0284 45.6587 27.5435 45.3765C28.0586 45.0942 28.6471 44.966 29.2359 45.0077C29.6565 45.0314 30.0671 45.142 30.4408 45.3321C30.8145 45.5222 31.1428 45.7876 31.4042 46.1109L33 48.0796Z" fill="white"/>
<path fill-rule="evenodd" clip-rule="evenodd" d="M29.2006 45.5064C28.707 45.4715 28.2143 45.5791 27.7838 45.815C27.3534 46.0508 27.0048 46.404 26.7797 46.8294C26.5548 47.2547 26.4626 47.7343 26.5138 48.2091C26.5649 48.684 26.7574 49.1351 27.069 49.5061L27.0769 49.5156L28.5906 51.4115C29.3965 51.1099 30.1418 50.6709 30.7917 50.1145C31.4463 49.5541 31.9921 48.8848 32.4045 48.139L31.0158 46.4257C30.799 46.1576 30.5257 45.9363 30.2141 45.7777C29.9024 45.6192 29.5594 45.5267 29.2078 45.5069L29.2006 45.5064ZM29.2677 44.5087C28.5848 44.4611 27.902 44.61 27.3033 44.938C26.7034 45.2666 26.2136 45.7612 25.8958 46.3618C25.578 46.9625 25.4469 47.6422 25.5195 48.3163C25.5919 48.9882 25.8635 49.6235 26.2991 50.1443L28.2455 52.5819L28.5742 52.4759C29.6294 52.1355 30.6047 51.591 31.442 50.8742C32.2794 50.1573 32.9617 49.2826 33.448 48.3016L33.5905 48.014L31.793 45.7965C31.7931 45.7966 31.7929 45.7964 31.793 45.7965C31.4871 45.4183 31.1032 45.1081 30.6675 44.8865C30.2328 44.6653 29.7558 44.5367 29.2677 44.5087Z" fill="#1D1D1B"/>
<path fill-rule="evenodd" clip-rule="evenodd" d="M50.6642 32.9762C50.3364 33.3001 50.207 33.6032 50.207 33.8742C50.207 34.1453 50.3364 34.4484 50.6642 34.7723C50.9938 35.0979 51.4963 35.4141 52.1576 35.6904C53.4779 36.2421 55.3366 36.5952 57.4155 36.5952C59.4945 36.5952 61.3532 36.2421 62.6735 35.6904C63.3347 35.4141 63.8373 35.0979 64.1669 34.7723C64.4947 34.4484 64.624 34.1453 64.624 33.8742C64.624 33.6032 64.4947 33.3001 64.1669 32.9762C63.8373 32.6506 63.3347 32.3343 62.6735 32.0581C61.3532 31.5064 59.4945 31.1533 57.4155 31.1533C55.3366 31.1533 53.4779 31.5064 52.1576 32.0581C51.4963 32.3343 50.9938 32.6506 50.6642 32.9762ZM51.772 31.1354C53.2416 30.5213 55.2372 30.1533 57.4155 30.1533C59.5938 30.1533 61.5894 30.5213 63.059 31.1354C63.7928 31.4419 64.4191 31.8197 64.8697 32.2648C65.322 32.7117 65.624 33.2559 65.624 33.8742C65.624 34.4926 65.322 35.0368 64.8697 35.4837C64.4191 35.9287 63.7928 36.3065 63.059 36.6131C61.5894 37.2272 59.5938 37.5952 57.4155 37.5952C55.2372 37.5952 53.2416 37.2272 51.772 36.6131C51.0383 36.3065 50.4119 35.9287 49.9614 35.4837C49.5091 35.0368 49.207 34.4926 49.207 33.8742C49.207 33.2559 49.5091 32.7117 49.9614 32.2648C50.4119 31.8197 51.0383 31.4419 51.772 31.1354Z" fill="#1D1D1B"/>
<rect x="54.5" y="37.5" width="5" height="4" fill="white" stroke="#1D1D1B"/>
</g>
<defs>
<clipPath id="clip0_178_1360">
<rect width="110" height="112.226" fill="white"/>
</clipPath>
</defs>
</svg>
