<svg width="110" height="110" viewBox="0 0 110 110" fill="none" xmlns="http://www.w3.org/2000/svg">
<path fill-rule="evenodd" clip-rule="evenodd" d="M54.6855 36.3193C44.5006 36.3193 36.2441 44.5758 36.2441 54.7607C36.2441 64.9456 44.5006 73.2021 54.6855 73.2021C64.8704 73.2021 73.1269 64.9456 73.1269 54.7607C73.1269 44.5758 64.8704 36.3193 54.6855 36.3193ZM35.2441 54.7607C35.2441 44.0235 43.9483 35.3193 54.6855 35.3193C65.4227 35.3193 74.1269 44.0235 74.1269 54.7607C74.1269 65.4979 65.4227 74.2021 54.6855 74.2021C43.9483 74.2021 35.2441 65.4979 35.2441 54.7607Z" fill="#1D1D1B"/>
<path d="M8.25316 15.2807C12.2083 15.2807 15.4145 12.0745 15.4145 8.11937C15.4145 4.16426 12.2083 0.958008 8.25316 0.958008C4.29805 0.958008 1.0918 4.16426 1.0918 8.11937C1.0918 12.0745 4.29805 15.2807 8.25316 15.2807Z" fill="#1D1D1B"/>
<path fill-rule="evenodd" clip-rule="evenodd" d="M101.892 56.9189C98.2129 56.9189 95.2305 59.9013 95.2305 63.5803C95.2305 67.2593 98.2129 70.2417 101.892 70.2417C105.571 70.2417 108.553 67.2593 108.553 63.5803C108.553 59.9013 105.571 56.9189 101.892 56.9189ZM94.2305 63.5803C94.2305 59.3491 97.6606 55.9189 101.892 55.9189C106.123 55.9189 109.553 59.3491 109.553 63.5803C109.553 67.8116 106.123 71.2417 101.892 71.2417C97.6606 71.2417 94.2305 67.8116 94.2305 63.5803Z" fill="#1D1D1B"/>
<path d="M72.1173 105.922C78.0534 105.922 82.8655 101.11 82.8655 95.174C82.8655 89.2379 78.0534 84.4258 72.1173 84.4258C66.1813 84.4258 61.3691 89.2379 61.3691 95.174C61.3691 101.11 66.1813 105.922 72.1173 105.922Z" fill="#1D1D1B"/>
<path fill-rule="evenodd" clip-rule="evenodd" d="M13.2163 84.668C6.53199 84.668 1.11328 90.0867 1.11328 96.771C1.11328 103.455 6.53199 108.874 13.2163 108.874C19.9006 108.874 25.3193 103.455 25.3193 96.771C25.3193 90.0867 19.9006 84.668 13.2163 84.668ZM0.113281 96.771C0.113281 89.5344 5.9797 83.668 13.2163 83.668C20.4529 83.668 26.3193 89.5344 26.3193 96.771C26.3193 104.008 20.4529 109.874 13.2163 109.874C5.9797 109.874 0.113281 104.008 0.113281 96.771Z" fill="#1D1D1B"/>
<path fill-rule="evenodd" clip-rule="evenodd" d="M96.4507 1.11426C89.7664 1.11426 84.3477 6.53296 84.3477 13.2173C84.3477 19.9016 89.7664 25.3203 96.4507 25.3203C103.135 25.3203 108.554 19.9016 108.554 13.2173C108.554 6.53296 103.135 1.11426 96.4507 1.11426ZM83.3477 13.2173C83.3477 5.98068 89.2141 0.114258 96.4507 0.114258C103.687 0.114258 109.554 5.98068 109.554 13.2173C109.554 20.4539 103.687 26.3203 96.4507 26.3203C89.2141 26.3203 83.3477 20.4539 83.3477 13.2173Z" fill="#1D1D1B"/>
<path fill-rule="evenodd" clip-rule="evenodd" d="M67.8984 41.1835L87.6137 22.1807L88.3077 22.9007L68.5924 41.9035L67.8984 41.1835Z" fill="#1D1D1B"/>
<path fill-rule="evenodd" clip-rule="evenodd" d="M73.4035 57.709L94.8262 61.824L94.6375 62.8061L73.2148 58.691L73.4035 57.709Z" fill="#1D1D1B"/>
<path fill-rule="evenodd" clip-rule="evenodd" d="M40.7669 41.8933L12.9199 13.5673L13.633 12.8662L41.48 41.1923L40.7669 41.8933Z" fill="#1D1D1B"/>
<path fill-rule="evenodd" clip-rule="evenodd" d="M41.9171 68.7628L22.3369 88.0727L21.6348 87.3607L41.2149 68.0508L41.9171 68.7628Z" fill="#1D1D1B"/>
<path fill-rule="evenodd" clip-rule="evenodd" d="M62.8201 71.875L68.7039 84.9448L67.7921 85.3553L61.9082 72.2855L62.8201 71.875Z" fill="#1D1D1B"/>
<path fill-rule="evenodd" clip-rule="evenodd" d="M63.4555 48.4551H46.2461V47.4551H63.4555V48.4551Z" fill="#1D1D1B"/>
<path fill-rule="evenodd" clip-rule="evenodd" d="M63.4555 55.2607H46.2461V54.2607H63.4555V55.2607Z" fill="#1D1D1B"/>
<path fill-rule="evenodd" clip-rule="evenodd" d="M63.4555 62.0781H46.2461V61.0781H63.4555V62.0781Z" fill="#1D1D1B"/>
</svg>
