<svg width="106" height="108" viewBox="0 0 106 108" fill="none" xmlns="http://www.w3.org/2000/svg">
<path fill-rule="evenodd" clip-rule="evenodd" d="M8.44336 1.19043H9.44336V98.5725H104.702V99.5725H8.44336V1.19043Z" fill="#1D1D1B"/>
<path fill-rule="evenodd" clip-rule="evenodd" d="M8.94378 0.446289L17.6465 10.0562L16.9053 10.7275L8.94307 1.93525L0.965194 10.7278L0.224609 10.0559L8.94378 0.446289Z" fill="#1D1D1B"/>
<path fill-rule="evenodd" clip-rule="evenodd" d="M95.8855 90.3545L105.478 99.0734L95.8851 107.776L95.2132 107.035L103.99 99.0727L95.2129 91.0945L95.8855 90.3545Z" fill="#1D1D1B"/>
<path fill-rule="evenodd" clip-rule="evenodd" d="M13.0204 93.5611C13.0205 93.561 13.0205 93.5608 12.5951 93.2982C12.1697 93.0355 12.1698 93.0353 12.1699 93.0351L12.1715 93.0326L12.1753 93.0264L12.1891 93.0045C12.2011 92.9857 12.2184 92.9586 12.2411 92.9238C12.2864 92.8543 12.3532 92.7539 12.4407 92.6275C12.6156 92.3746 12.8739 92.0171 13.2106 91.5929C13.8832 90.7454 14.8729 89.6264 16.1409 88.5427C18.6704 86.3811 22.3639 84.3149 26.8814 84.9206C29.1048 85.2187 31.1534 85.9406 33.1133 86.7594C33.8911 87.0844 34.6447 87.4197 35.3894 87.751C36.5483 88.2667 37.6855 88.7727 38.8587 89.215C42.64 90.6409 46.5182 91.2876 51.362 88.8463C56.4311 86.2914 60.4208 85.457 64.1156 85.6933C67.7954 85.9286 71.1354 87.2247 74.8835 88.8333C78.4637 90.3699 82.8468 89.7303 86.4088 88.6533C88.1776 88.1185 89.7175 87.4841 90.8153 86.983C91.3638 86.7327 91.8008 86.5162 92.0998 86.3628C92.2492 86.2861 92.3641 86.2253 92.441 86.1839C92.4794 86.1632 92.5084 86.1474 92.5274 86.137L92.5485 86.1254L92.5543 86.1221C92.5543 86.1221 92.5544 86.1221 92.7989 86.5582C93.0434 86.9944 93.0432 86.9944 93.043 86.9946L93.0405 86.9959L93.0338 86.9997L93.009 87.0134C92.9874 87.0253 92.9558 87.0425 92.9146 87.0646C92.8324 87.1089 92.7118 87.1727 92.5563 87.2525C92.2453 87.4121 91.7944 87.6354 91.2305 87.8928C90.1034 88.4072 88.5206 89.0596 86.6983 89.6105C83.0779 90.7051 78.4048 91.4328 74.4891 89.7523C70.7411 88.1437 67.5423 86.9144 64.0518 86.6912C60.5764 86.469 56.7645 87.2432 51.8121 89.7393C46.6345 92.3489 42.4457 91.6364 38.5058 90.1507C37.3153 89.7018 36.1208 89.1708 34.9349 88.6437C34.1948 88.3147 33.4581 87.9872 32.7278 87.6821C30.7989 86.8762 28.8442 86.1927 26.7485 85.9117C22.6279 85.3592 19.2115 87.234 16.7906 89.3029C15.5835 90.3345 14.6378 91.4032 13.9939 92.2145C13.6723 92.6197 13.427 92.9595 13.263 93.1965C13.181 93.315 13.1194 93.4077 13.0787 93.47C13.0584 93.5012 13.0434 93.5247 13.0336 93.54L13.0231 93.5568L13.0204 93.5611Z" fill="#1D1D1B"/>
</svg>
