<svg width="107" height="100" viewBox="0 0 107 100" fill="none" xmlns="http://www.w3.org/2000/svg">
<g clip-path="url(#clip0_181_1425)">
<path fill-rule="evenodd" clip-rule="evenodd" d="M90.9123 39.1127L91.0417 38.1211L91.4278 38.1715H91.6038L91.639 38.1765C91.821 38.2026 92.0012 38.2391 92.179 38.286C99.4511 39.9504 104.398 47.82 103.553 56.6088C102.708 65.3934 96.4656 72.2463 89.0128 72.5216L89.0036 72.522H87.8848V71.522H88.985C95.8071 71.2645 101.747 64.9319 102.557 56.513C103.367 48.0979 98.6227 40.7819 91.948 39.259L91.9394 39.257L91.9309 39.2547C91.7993 39.2198 91.666 39.192 91.5314 39.1715H91.3629L90.9123 39.1127Z" fill="#1D1D1B"/>
<path d="M89.6768 72.6038C89.1667 72.7173 88.6425 72.7541 88.1216 72.7129C87.648 72.6656 87.1794 72.5773 86.721 72.4492C82.3464 71.2305 78.6721 66.0283 79.7362 54.4961C80.9276 41.6088 86.3572 37.6708 91.3048 38.1255C91.6701 38.1591 92.0303 38.2354 92.3779 38.3529C92.0924 38.4434 91.8179 38.5654 91.5594 38.7167L91.3866 38.7985C88.158 40.7448 85.3659 47.0839 84.6474 54.8144C84.0198 61.6537 85.1931 67.729 87.3758 70.7576C87.7417 71.2557 88.173 71.7024 88.6582 72.0854C88.9746 72.3004 89.3168 72.4745 89.6768 72.6038Z" fill="#1D1D1B"/>
<path fill-rule="evenodd" clip-rule="evenodd" d="M15.05 39.1757C14.9821 39.1881 14.8737 39.2078 14.7552 39.2078H14.61C14.4755 39.2283 14.3421 39.2561 14.2106 39.291L14.202 39.2933L14.1933 39.2953C7.51103 40.8179 2.80137 48.1238 3.58446 56.5509C4.36732 64.9756 10.3328 71.3009 17.1567 71.5674H18.2567V72.5674H17.1376L17.128 72.567C9.67712 72.2823 3.4062 65.4403 2.58875 56.6434C1.77148 47.8485 6.67993 39.987 13.9626 38.3222C14.1403 38.2754 14.3205 38.2388 14.5025 38.2128L14.5377 38.2078H14.7552C14.7731 38.2078 14.8011 38.2046 14.8697 38.1921C14.8758 38.1909 14.8826 38.1897 14.89 38.1883C14.9476 38.1775 15.0389 38.1605 15.1312 38.1543L15.1977 39.1521C15.1676 39.1541 15.1365 39.1598 15.0667 39.1726L15.05 39.1757Z" fill="#1D1D1B"/>
<path d="M16.4661 72.6033C16.971 72.7307 17.492 72.7828 18.0122 72.7579C18.4858 72.7105 18.9544 72.6222 19.4128 72.4941C23.7874 71.2754 27.4617 66.0732 26.3976 54.541C25.2062 41.6537 19.7766 37.7157 14.829 38.1704C14.4637 38.204 14.1035 38.2803 13.7559 38.3978C14.0414 38.4883 14.3159 38.6103 14.5744 38.7616L14.7472 38.8435C18.0122 40.7443 20.7406 47.0833 21.4864 54.8139C22.114 61.6531 20.9407 67.7285 18.7125 70.757C18.3466 71.2552 17.9153 71.7018 17.4301 72.0849C17.1308 72.2958 16.8072 72.4699 16.4661 72.6033Z" fill="#1D1D1B"/>
<path fill-rule="evenodd" clip-rule="evenodd" d="M15.1603 38.4259C15.1423 38.5202 15.1129 38.6213 15.0929 38.6904C15.0877 38.7083 15.0831 38.7241 15.0795 38.7371C15.0602 38.8065 15.0533 38.8442 15.0514 38.8669C15.0555 38.9282 15.0544 38.9898 15.0482 39.051L14.0534 38.949C14.054 38.9431 14.054 38.937 14.0534 38.9311L14.0508 38.9057V38.8801C14.0508 38.7162 14.0883 38.5692 14.1159 38.4696C14.1264 38.4318 14.1354 38.4009 14.143 38.3744C14.1598 38.3164 14.1705 38.2792 14.1786 38.2357L14.18 38.2282L14.1816 38.2208C19.0125 15.9142 34.3 -0.5 52.5508 -0.5C70.8002 -0.5 86.096 15.912 90.9107 38.1713C90.911 38.1725 90.9112 38.1737 90.9115 38.1748L91.0567 38.8023L91.0482 38.885C91.0478 38.8886 91.0477 38.8922 91.0477 38.8959C91.0478 38.8982 91.0479 38.9006 91.0482 38.9029L90.0534 39.0049C90.0491 38.9628 90.0472 38.9205 90.0478 38.8782L89.9356 38.3932L89.9341 38.3862C85.1733 16.3711 70.1414 0.5 52.5508 0.5C34.9622 0.5 19.9398 16.3675 15.1603 38.4259Z" fill="#1D1D1B"/>
<path fill-rule="evenodd" clip-rule="evenodd" d="M16.0228 72.4917C15.9825 72.4172 15.9102 72.2722 15.9102 72.0853H16.9102C16.9102 72.0433 16.9001 72.0136 16.8966 72.0047C16.8977 72.0069 16.8994 72.0104 16.9021 72.0154C16.9086 72.0274 16.9144 72.0372 16.9237 72.0532C16.9287 72.0615 16.9346 72.0716 16.9421 72.0846C16.9602 72.1157 16.9858 72.1606 17.0097 72.2122C17.0419 72.2822 17.1002 72.4208 17.159 72.5605C17.201 72.6606 17.2434 72.7612 17.2766 72.8377C21.1141 81.3372 30.9058 88.4722 43.968 92.4978C47.2265 93.4897 50.5468 94.2654 53.9075 94.82L53.7446 95.8067C50.3404 95.2449 46.9769 94.459 43.6762 93.4543L43.6745 93.4538C30.4732 89.3855 20.3668 82.1158 16.3637 73.2459L16.3608 73.2396L16.3609 73.2396C16.3132 73.13 16.2654 73.0157 16.2224 72.9132C16.1731 72.7954 16.1302 72.6932 16.1017 72.6313C16.0982 72.6238 16.092 72.6119 16.0777 72.5873C16.0755 72.5836 16.0727 72.5789 16.0695 72.5734C16.0572 72.5524 16.0383 72.5203 16.0228 72.4917ZM16.8954 72.002C16.8955 72.002 16.8959 72.0029 16.8966 72.0047C16.8957 72.0028 16.8954 72.0019 16.8954 72.002Z" fill="#1D1D1B"/>
<path d="M48.8333 99.1704C51.6611 99.1704 53.9536 96.8779 53.9536 94.05C53.9536 91.2222 51.6611 88.9297 48.8333 88.9297C46.0054 88.9297 43.7129 91.2222 43.7129 94.05C43.7129 96.8779 46.0054 99.1704 48.8333 99.1704Z" fill="#1D1D1B"/>
<path d="M38.6895 71.477V69.0234H41.5519L41.143 74.3394L38.6895 71.477Z" fill="#1D1D1B"/>
<path fill-rule="evenodd" clip-rule="evenodd" d="M38.0273 68.2129L38.6426 68.3587C38.9527 68.4321 39.2704 68.4688 39.5891 68.4679L39.5905 68.4679L53.5799 68.4679L41.4745 75.7388L38.0273 71.7464V68.2129ZM39.0273 69.4379V71.3744L41.6813 74.4481L49.9729 69.4679H39.5912" fill="#1D1D1B"/>
<path d="M75 45.7013C74.5248 45.1852 73.9497 44.7738 73.3106 44.493C72.6714 44.2121 71.9819 44.0677 71.2852 44.0689H38.4811C37.8089 44.0689 37.1433 44.2034 36.5225 44.4647C35.9018 44.7261 35.3381 45.1091 34.864 45.5917C34.3898 46.0744 34.0145 46.6472 33.7596 47.2772C33.5047 47.9072 33.3753 48.582 33.3787 49.2629V64.5655C33.3788 65.464 33.6121 66.3467 34.0554 67.125C34.4986 67.9034 35.1362 68.55 35.904 69V69C33.5166 67.8914 30 65.098 30 62.4966V47.1503C30 45.7844 30.5358 44.4744 31.4894 43.5085C32.4431 42.5426 33.7365 42 35.0852 42H67.8807C69.57 42 74.0864 44.4093 75 45.7013Z" fill="#1D1D1B"/>
<path fill-rule="evenodd" clip-rule="evenodd" d="M42.0781 68.9668V75.0924H41.0781V68.9668H42.0781Z" fill="#1D1D1B"/>
<path d="M45.9363 60.4156C47.2959 60.4156 48.398 59.3135 48.398 57.9539C48.398 56.5943 47.2959 55.4922 45.9363 55.4922C44.5768 55.4922 43.4746 56.5943 43.4746 57.9539C43.4746 59.3135 44.5768 60.4156 45.9363 60.4156Z" fill="#1D1D1B"/>
<path d="M55.1531 60.4156C56.5127 60.4156 57.6148 59.3135 57.6148 57.9539C57.6148 56.5943 56.5127 55.4922 55.1531 55.4922C53.7936 55.4922 52.6914 56.5943 52.6914 57.9539C52.6914 59.3135 53.7936 60.4156 55.1531 60.4156Z" fill="#1D1D1B"/>
<path d="M64.3699 60.4156C65.7295 60.4156 66.8316 59.3135 66.8316 57.9539C66.8316 56.5943 65.7295 55.4922 64.3699 55.4922C63.0103 55.4922 61.9082 56.5943 61.9082 57.9539C61.9082 59.3135 63.0103 60.4156 64.3699 60.4156Z" fill="#1D1D1B"/>
<path fill-rule="evenodd" clip-rule="evenodd" d="M71 44.5H37C35.3431 44.5 34 45.8431 34 47.5V65C34 66.6569 35.3431 68 37 68H71C72.6569 68 74 66.6569 74 65V47.5C74 45.8431 72.6569 44.5 71 44.5ZM37 43.5C34.7909 43.5 33 45.2909 33 47.5V65C33 67.2091 34.7909 69 37 69H71C73.2091 69 75 67.2091 75 65V47.5C75 45.2909 73.2091 43.5 71 43.5H37Z" fill="#1D1D1B"/>
</g>
<defs>
<clipPath id="clip0_181_1425">
<rect width="107" height="99.1694" fill="white"/>
</clipPath>
</defs>
</svg>
