<svg width="104" height="125" viewBox="0 0 104 125" fill="none" xmlns="http://www.w3.org/2000/svg">
<path d="M9.36102 59.2171L78.3415 35.8356C80.3067 35.1882 82.447 35.3327 84.3072 36.2385C87.486 38.063 94.0896 43.2564 94.0896 43.2564C94.0896 43.2564 30.213 124.079 23.3855 123.709C20.9866 123.441 18.6853 122.609 16.6698 121.281C15.2804 120.572 13.9482 119.756 12.6853 118.841C11.0847 117.721 9.03643 116.602 8.54396 112.819C7.59258 105.476 0.709077 69.1674 0.709077 69.1674C0.709077 69.1674 -0.645238 62.407 5.70101 60.37C12.0473 58.3329 9.36102 59.2171 9.36102 59.2171Z" fill="#1F2024"/>
<path d="M23.4077 124.27H23.3517C20.9616 124.031 18.6612 123.234 16.6361 121.942L15.4497 121.27C14.3491 120.701 13.2972 120.042 12.3045 119.301L11.8232 118.965C10.7364 118.337 9.81626 117.457 9.14036 116.399C8.46447 115.342 8.05258 114.137 7.93938 112.887C7.01039 105.657 0.171656 69.605 0.1045 69.2356C0.1045 69.1573 -1.21624 62.0276 5.53295 59.8338C7.35736 59.2294 8.47663 58.8712 9.18177 58.7145H9.24892L9.69663 58.5578L78.1959 35.3554C80.3116 34.6509 82.6195 34.8078 84.6205 35.7919C87.7992 37.6163 94.1902 42.653 94.47 42.8657L94.9065 43.2126L94.5596 43.6492C88.023 51.8758 30.6046 124.27 23.4077 124.27ZM9.52874 59.7219L5.87993 60.9083C0.0821154 62.7887 1.15661 68.7432 1.20138 69.0342C1.24615 69.3252 8.11846 105.478 9.04746 112.775C9.14078 113.874 9.50306 114.932 10.1023 115.857C10.7016 116.783 11.5194 117.546 12.4836 118.081L12.9649 118.428C13.9307 119.137 14.9484 119.773 16.0093 120.33L17.2069 120.991C19.0689 122.223 21.1991 122.99 23.4189 123.229V123.229C28.3884 123.229 67.7531 75.7386 93.306 43.4253C90.332 41.0599 87.2387 38.8483 84.0384 36.7992C82.3215 35.9748 80.3522 35.8465 78.5428 36.4411L9.53993 59.7442L9.52874 59.7219Z" fill="#1F2024"/>
<path d="M21.3694 64.6458C16.176 66.3247 11.7549 65.6532 10.5685 62.855C10.4074 62.4457 10.338 62.0062 10.3651 61.5672C10.3922 61.1283 10.5151 60.7006 10.7252 60.3142C11.1862 59.4465 11.9007 58.7399 12.7734 58.2884C13.6997 57.8037 14.6658 57.3993 15.6611 57.0796C15.6611 57.0796 27.3351 56.1058 27.3351 56.2065C27.3351 56.3073 29.5736 61.8029 29.5736 61.8029L21.3694 64.6458Z" fill="#1F2024"/>
<path d="M16.131 66.1356C13.1313 66.1356 10.8928 65.0723 10.0534 63.0912C9.8563 62.6078 9.77009 62.0865 9.80108 61.5654C9.83207 61.0444 9.97947 60.5369 10.2324 60.0804C10.7317 59.1225 11.5131 58.341 12.471 57.8418C13.4257 57.3365 14.4217 56.9134 15.4482 56.577H15.5825C27.402 55.5921 27.4356 55.6257 27.6818 55.8495L27.8609 56.0174V56.1741C28.0512 56.689 29.2936 59.7893 30.0995 61.7145L30.3233 62.2629L21.5147 65.2402C19.7773 65.8158 17.9611 66.1179 16.131 66.1356V66.1356ZM15.784 57.6292C14.8432 57.9331 13.9266 58.3072 13.0418 58.7484C12.2426 59.1465 11.5915 59.7897 11.1838 60.584C11.0058 60.8962 10.9003 61.2443 10.8751 61.6028C10.8499 61.9612 10.9057 62.3207 11.0383 62.6547C12.0792 65.1059 16.2429 65.7215 21.1117 64.1209L28.7899 61.5242C27.6147 58.6365 27.0998 57.3605 26.876 56.7673C25.4769 56.8121 19.7238 57.3046 15.784 57.6292Z" fill="#1F2024"/>
<path d="M78.2403 45.0815C79.185 44.6221 80.0908 44.0868 80.9489 43.4809C81.7498 42.9321 82.3632 42.1507 82.7061 41.2424C82.8691 40.8346 82.9376 40.3951 82.9066 39.9571C82.8756 39.519 82.7458 39.0936 82.527 38.7128C80.9825 36.0937 76.5166 36.0042 71.5918 38.3658" fill="#1F2024"/>
<path d="M78.4886 45.6184L77.9961 44.6111C78.8985 44.1546 79.7631 43.6268 80.5816 43.0329C81.2978 42.5402 81.8418 41.8357 82.1374 41.0182C82.2873 40.6828 82.3572 40.3171 82.3417 39.95C82.3261 39.5829 82.2255 39.2244 82.0479 38.9028C80.6935 36.6083 76.4515 36.5523 71.8289 38.7797L71.3477 37.7723C76.6306 35.2428 81.3203 35.4666 83.0104 38.3432C83.272 38.7937 83.428 39.2977 83.4668 39.8173C83.5056 40.3368 83.4261 40.8584 83.2343 41.3428C82.8626 42.3764 82.1779 43.2684 81.2756 43.8947C80.3945 44.5434 79.4625 45.1199 78.4886 45.6184V45.6184Z" fill="#1F2024"/>
<path d="M69.3201 16.2042C63.0634 29.9488 44.1813 79.8906 30.7613 72.3915C27.4594 70.5559 26.0827 69.5821 24.7396 68.6979C22.8704 67.4779 25.0306 65.3401 23.486 64.3327C19.8372 61.9151 14.1737 58.6357 13.6253 57.2925C9.80856 47.9131 8.57736 36.6756 13.6253 25.7404C21.4601 8.50363 39.3684 0.903797 54.5905 6.7128C61.3285 9.33189 69.3201 16.2042 69.3201 16.2042Z" fill="white"/>
<path d="M33.5707 73.7119C32.4725 73.7077 31.3937 73.4226 30.4368 72.8836C27.5826 71.2831 26.1276 70.3205 24.9636 69.5258L24.4375 69.1229C23.9998 68.8018 23.6737 68.3517 23.5051 67.8357C23.3364 67.3198 23.3337 66.7639 23.4973 66.2463C23.6204 65.4069 23.6204 65.1271 23.2175 64.8025C22.3445 64.2205 21.3483 63.5825 20.3298 62.9445C16.1661 60.2918 13.6142 58.6129 13.1553 57.5049C9.96536 49.7595 7.40223 37.9177 13.0545 25.4714C20.8894 8.35777 38.7977 0.0639916 54.7361 6.1752C61.5524 8.81667 69.3873 15.4987 69.6783 15.7897L70.0029 16.0583L69.8238 16.4389C69.0068 18.2409 67.9659 20.6697 66.757 23.5015C59.8623 39.5854 47.002 69.537 35.966 73.3089C35.1954 73.5749 34.3859 73.711 33.5707 73.7119V73.7119ZM43.9799 5.32455C31.7687 5.32455 19.9604 13.0587 14.0731 25.9639C8.57746 38.0184 11.0846 49.5469 14.1514 57.0907C14.4872 57.9414 18.192 60.2806 20.867 61.9931C21.8856 62.6423 22.8929 63.2803 23.7771 63.8735C24.1697 64.1495 24.4632 64.5443 24.6143 64.9997C24.7655 65.4552 24.7663 65.9471 24.6166 66.403C24.4935 67.2873 24.4599 67.8133 25.1091 68.2386L25.6799 68.608C26.8887 69.4139 28.2654 70.3317 31.086 71.9658C31.7782 72.3528 32.5467 72.5833 33.3376 72.6413C34.1285 72.6994 34.9225 72.5834 35.6638 72.3016C46.2632 68.6863 58.9557 39.0369 65.7833 23.1097C66.9025 20.4794 67.8875 18.1849 68.6822 16.3941C67.0816 15.0734 60.2093 9.49943 54.3332 7.2497C51.0287 5.98079 47.5196 5.3283 43.9799 5.32455V5.32455Z" fill="#1F2024"/>
<path d="M75.6261 55.5898C83.4835 38.3563 77.8798 18.9266 63.1098 12.1924C48.3398 5.4582 29.9966 13.9696 22.1392 31.2031C14.2818 48.4367 19.8856 67.8664 34.6556 74.6006C49.4256 81.3347 67.7687 72.8233 75.6261 55.5898Z" fill="white"/>
<path d="M45.3799 77.4846C41.6023 77.4955 37.8675 76.6858 34.4335 75.1118C19.4017 68.2618 13.671 48.4732 21.6402 30.979C25.268 22.762 31.7098 16.1099 39.806 12.2201C47.6408 8.56005 56.0577 8.36977 63.3106 11.694C78.3424 18.5551 84.1066 38.3438 76.1038 55.838C72.4811 64.047 66.0529 70.6974 57.9717 74.5969C54.0354 76.4667 49.7376 77.4523 45.3799 77.4846V77.4846ZM52.3977 10.4516C48.2073 10.4872 44.0748 11.4344 40.2872 13.2274C32.4296 17.0095 26.1788 23.4706 22.6588 31.4491C14.947 48.3724 20.4202 67.5007 34.8924 74.0932C38.4671 75.6717 42.3449 76.4457 46.2517 76.3606C50.1585 76.2755 53.999 75.3334 57.5016 73.6007C65.3605 69.8186 71.6088 63.352 75.1189 55.3679C82.8195 38.4445 77.3462 19.3162 62.8853 12.7125C59.5927 11.2134 56.0155 10.4422 52.3977 10.4516V10.4516Z" fill="#1F2024"/>
<path d="M47.1249 54.8637C45.8459 54.8613 44.5706 54.7262 43.3194 54.4608C43.0225 54.4014 42.7614 54.2266 42.5935 53.9747C42.4256 53.7228 42.3646 53.4145 42.424 53.1177C42.4833 52.8208 42.6582 52.5597 42.9101 52.3918C43.162 52.2239 43.4702 52.1629 43.7671 52.2223C50.3596 53.6437 54.6352 50.7784 55.9559 48.5175C57.4557 45.8536 56.5715 43.9173 56.1014 43.3912C55.6313 42.8652 54.333 41.4325 49.0276 42.6749C43.7223 43.9173 40.8122 43.1898 39.3124 40.0782C38.5177 38.4217 38.3162 34.0118 42.7821 31.0009C45.6501 29.1695 49.0602 28.3792 52.4414 28.7624C52.7334 28.8092 52.995 28.9697 53.1691 29.2088C53.3432 29.4479 53.4155 29.7461 53.3704 30.0384C53.3261 30.3302 53.1684 30.5927 52.9315 30.7688C52.6947 30.9449 52.3978 31.0203 52.1056 30.9786V30.9786C49.2624 30.6694 46.3982 31.3322 43.9797 32.8589C40.4317 35.243 40.9577 38.4553 41.2823 39.1044C41.8084 40.2237 42.603 41.869 48.4568 40.5035C54.3106 39.138 56.4036 40.5035 57.7132 41.9026C58.6645 43.0219 59.9517 45.9432 57.8475 49.6144C56.3029 52.3342 52.4414 54.8637 47.1249 54.8637Z" fill="#0074FF"/>
<path d="M52.8228 56.3183C52.573 56.3283 52.3271 56.2543 52.1243 56.1083C51.9214 55.9622 51.7733 55.7525 51.7035 55.5125L43.8686 28.5717C43.8267 28.4306 43.813 28.2826 43.8283 28.1362C43.8436 27.9898 43.8876 27.8479 43.9578 27.7185C44.0279 27.5891 44.1229 27.4748 44.2372 27.3821C44.3515 27.2894 44.483 27.2201 44.6241 27.1782C44.9091 27.0936 45.216 27.1257 45.4773 27.2673C45.6067 27.3375 45.721 27.4325 45.8137 27.5468C45.9064 27.6611 45.9757 27.7926 46.0176 27.9337L53.8525 54.8857C53.8936 55.0268 53.9066 55.1746 53.8906 55.3207C53.8747 55.4668 53.8301 55.6084 53.7594 55.7373C53.6887 55.8661 53.5933 55.9798 53.4787 56.0718C53.3641 56.1639 53.2325 56.2324 53.0914 56.2736C53.0044 56.3012 52.914 56.3162 52.8228 56.3183V56.3183Z" fill="#0074FF"/>
<path d="M19.0892 65.4186L88.1257 42.0483C88.1257 42.0483 94.4608 39.9217 95.6808 46.6708C96.9008 53.42 103.348 90.5014 103.348 90.5014C103.348 90.5014 104.467 96.2321 97.9865 98.6049C91.5059 100.978 26.7003 122.848 26.7003 122.848C26.7003 122.848 19.3355 126.318 18.1826 119.009C17.0298 111.7 10.3477 75.3577 10.3477 75.3577C10.3477 75.3577 9.04939 68.6421 15.3956 66.5938C21.7419 64.5456 19.0892 65.4186 19.0892 65.4186Z" fill="white"/>
<path d="M23.037 124.269C22.125 124.289 21.222 124.085 20.4067 123.676C19.6207 123.204 18.9581 122.552 18.4736 121.774C17.989 120.995 17.6964 120.113 17.6197 119.199C16.5005 111.98 9.89679 75.8611 9.84083 75.5477C9.84083 75.4806 8.52009 68.3508 15.2693 66.1459C17.0825 65.5526 18.213 65.1833 18.9069 65.0266H18.9853L19.433 64.8699L87.9434 41.5219C89.7458 40.9436 91.7033 41.0964 93.3942 41.9473C94.1793 42.462 94.8418 43.1427 95.3349 43.9414C95.8281 44.7402 96.1399 45.6374 96.2484 46.5698C97.446 53.2855 103.848 90.0422 103.915 90.4116C103.915 90.4116 105.035 96.6123 98.2071 99.1307C91.7713 101.47 27.5253 123.206 26.8537 123.419C25.65 123.951 24.3529 124.24 23.037 124.269ZM19.2651 65.9332L15.661 67.1084C9.86321 69 10.9265 74.9433 10.9825 75.2455C11.0384 75.5477 17.6309 111.745 18.8174 118.964C18.8655 119.718 19.094 120.448 19.4836 121.095C19.8731 121.742 20.4124 122.285 21.0559 122.68C23.2944 123.889 26.5627 122.4 26.5963 122.378C27.3014 122.143 91.5139 100.418 97.9273 98.0786C103.837 95.8401 102.964 90.8257 102.93 90.6131C102.729 90.2325 96.3267 53.4534 95.1291 46.7377C95.0603 45.9713 94.8242 45.2293 94.4374 44.564C94.0506 43.8988 93.5226 43.3264 92.8906 42.8875C91.496 42.2089 89.8959 42.0849 88.4135 42.5405L19.2651 65.9556V65.9332Z" fill="#1F2024"/>
<path d="M97.7506 58.4238L71.2351 67.613C71.2351 67.613 64.6762 69.5046 63.8703 75.7165C63.0644 81.9285 67.6982 84.111 70.0487 84.111C72.0857 84.111 73.5744 83.7529 77.6597 82.1299C81.745 80.507 100.414 74.2951 100.414 74.2951L97.7506 58.4238Z" fill="white"/>
<path d="M70.0486 84.6706C69.0941 84.6205 68.1597 84.3774 67.3017 83.9561C66.4437 83.5348 65.68 82.944 65.0567 82.2194C64.2983 81.3191 63.7484 80.2621 63.4465 79.1243C63.1447 77.9865 63.0983 76.796 63.3106 75.6381C64.1613 69.1463 70.7985 67.154 71.0784 67.0757L98.187 57.6738L101.052 74.7203L100.593 74.877C100.403 74.877 81.8793 81.1001 77.8611 82.7119C73.843 84.3236 72.1976 84.6706 70.0486 84.6706ZM97.3028 59.1625L71.4141 68.1166C71.3246 68.1166 65.1686 70.0082 64.4187 75.7612C64.2377 76.7629 64.276 77.792 64.531 78.7775C64.7861 79.7629 65.2518 80.6814 65.8962 81.4695C66.4191 82.0686 67.055 82.5589 67.7675 82.9123C68.48 83.2656 69.2552 83.4752 70.0486 83.5289C71.9178 83.5289 73.2609 83.2491 77.447 81.5926C81.1406 80.1375 96.8999 74.877 99.8324 73.9032L97.3028 59.1625Z" fill="#1F2024"/>
</svg>
