<svg width="101" height="117" viewBox="0 0 101 117" fill="none" xmlns="http://www.w3.org/2000/svg">
<path d="M54.6201 104.706L50.8929 111.522L42.9685 107.213C40.5509 105.725 38.5586 105.042 38.5586 101.292V65.2406C38.5612 64.0029 39.0076 62.8072 39.8168 61.8706C40.626 60.9341 41.7443 60.3189 42.9685 60.1367L54.1612 58.4578C54.8955 58.2871 55.6567 58.2666 56.3991 58.3974C57.1415 58.5282 57.8498 58.8076 58.4816 59.2189L67.7043 64.569L59.0524 94.2632V99.5573C59.0528 100.804 58.6056 102.01 57.7922 102.955C56.9787 103.899 55.8531 104.521 54.6201 104.706Z" fill="#1F2024"/>
<path d="M51.1159 112.251L42.7102 107.673L41.8595 107.169C39.7889 105.949 37.998 104.931 37.998 101.26V65.2417C38.0194 63.8827 38.5211 62.5752 39.4143 61.5508C40.3076 60.5264 41.5347 59.8514 42.8781 59.6453L54.0707 57.9664C54.8664 57.7858 55.6902 57.766 56.4936 57.9082C57.2971 58.0504 58.064 58.3518 58.7493 58.7947L68.3526 64.391L59.6111 94.3426V99.5584C59.5921 100.88 59.1223 102.155 58.2796 103.172C57.4369 104.19 56.2718 104.89 54.9773 105.155L51.1159 112.251ZM55.5929 58.9178C55.1468 58.9215 54.7015 58.959 54.261 59.0297L43.0683 60.7086C41.9876 60.8808 41.0029 61.4309 40.2897 62.261C39.5764 63.0911 39.1808 64.1473 39.1733 65.2417V101.293C39.1733 104.282 40.494 105.065 42.5311 106.24L43.3705 106.744L50.7689 110.762L54.3618 104.192H54.6416C55.7382 104.022 56.7382 103.466 57.4623 102.625C58.1864 101.784 58.5871 100.713 58.5926 99.6032V94.1524L67.155 64.9283L58.2008 59.7461C57.4317 59.2327 56.5288 58.9564 55.6041 58.9514L55.5929 58.9178Z" fill="#1F2024"/>
<path d="M81.3479 100.308L77.6208 107.124L69.7075 102.815C67.2787 101.327 65.2305 100.644 65.2305 96.8943V44.7923C65.2327 43.5534 65.6787 42.3562 66.4878 41.4178C67.2968 40.4794 68.4152 39.8619 69.6404 39.6773L80.8331 38.0096C81.5683 37.8357 82.3311 37.8125 83.0756 37.9414C83.82 38.0703 84.5306 38.3486 85.1646 38.7595L94.3762 44.1096L85.7802 89.8653V95.1706C85.7803 96.4161 85.3327 97.6202 84.5191 98.5632C83.7054 99.5063 82.58 100.126 81.3479 100.308Z" fill="#1F2024"/>
<path d="M77.8442 107.887L69.3938 103.298L68.5431 102.795C66.4725 101.575 64.6816 100.556 64.6816 96.8848V44.7941C64.6894 43.4241 65.1848 42.1018 66.079 41.0639C66.9733 40.0261 68.2079 39.3407 69.5617 39.1306L80.7543 37.4517C81.5502 37.2735 82.3735 37.255 83.1766 37.3972C83.9796 37.5393 84.7465 37.8394 85.4329 38.2799L95.0026 43.8763L86.3283 89.9677V95.1723C86.3093 96.4936 85.8395 97.7687 84.9968 98.7864C84.1541 99.8042 82.989 100.504 81.6945 100.769L77.8442 107.887ZM82.3213 38.4926C81.8789 38.4964 81.4374 38.5338 81.0006 38.6045L69.8079 40.2834C68.7182 40.4512 67.724 41.002 67.0039 41.837C66.2838 42.6719 65.8851 43.7363 65.8793 44.8388V96.896C65.8793 99.8845 67.2 100.668 69.2371 101.843L70.0765 102.347L77.4749 106.365L81.0677 99.7949H81.3475C82.4423 99.6249 83.4408 99.0711 84.1647 98.2324C84.8885 97.3937 85.2904 96.3249 85.2986 95.2171V89.867L93.9281 44.4023L85.0411 39.2537C84.2449 38.7082 83.2975 38.4264 82.3325 38.4478L82.3213 38.4926Z" fill="#1F2024"/>
<path d="M92.1487 106.129L80.5083 107.864C79.9566 107.955 79.3916 107.925 78.8527 107.776C78.3139 107.626 77.814 107.361 77.3879 106.999C76.9618 106.637 76.6197 106.186 76.3855 105.678C76.1512 105.171 76.0303 104.618 76.0313 104.059V50.6136C76.0335 49.3746 76.4795 48.1774 77.2885 47.2391C78.0976 46.3007 79.216 45.6832 80.4412 45.4986L92.2159 43.7525C92.7573 43.6739 93.3094 43.7126 93.8345 43.866C94.3597 44.0194 94.8458 44.284 95.2598 44.6417C95.6738 44.9994 96.006 45.442 96.234 45.9393C96.4619 46.4367 96.5803 46.9773 96.581 47.5244V100.992C96.5811 102.237 96.1335 103.441 95.3198 104.385C94.5062 105.328 93.3808 105.947 92.1487 106.129Z" fill="#0074FF"/>
<path d="M79.9392 108.467C78.775 108.45 77.6634 107.98 76.8401 107.156C76.0168 106.333 75.5466 105.222 75.5293 104.057V50.6123C75.537 49.2423 76.0324 47.92 76.9267 46.8821C77.8209 45.8443 79.0556 45.1589 80.4093 44.9488L92.128 43.2027C92.7498 43.1073 93.3848 43.1478 93.9894 43.3213C94.5941 43.4948 95.1539 43.7972 95.6304 44.2078C96.107 44.6184 96.4889 45.1274 96.7499 45.6997C97.0109 46.272 97.1448 46.8941 97.1424 47.5231V100.991C97.1293 102.363 96.6291 103.685 95.7312 104.723C94.8332 105.76 93.5959 106.444 92.24 106.654L80.5884 108.411C80.3737 108.447 80.1567 108.465 79.9392 108.467ZM92.7772 44.2772C92.617 44.2661 92.4562 44.2661 92.2959 44.2772L80.5884 46.0569C79.4987 46.2246 78.5045 46.7755 77.7844 47.6104C77.0643 48.4454 76.6656 49.5097 76.6598 50.6123V104.057C76.6611 104.529 76.764 104.996 76.9614 105.424C77.1588 105.853 77.4462 106.234 77.804 106.542C78.1618 106.85 78.5816 107.077 79.035 107.209C79.4884 107.34 79.9647 107.372 80.4317 107.303L92.0721 105.535C93.1668 105.365 94.1654 104.811 94.8892 103.972C95.613 103.134 96.015 102.065 96.0231 100.957V47.5231C96.0231 47.0968 95.9391 46.6748 95.776 46.281C95.6129 45.8871 95.3738 45.5293 95.0724 45.2279C94.771 44.9265 94.4132 44.6874 94.0194 44.5243C93.6256 44.3612 93.2035 44.2772 92.7772 44.2772Z" fill="#1F2024"/>
<path d="M65.4209 110.527L53.7805 112.25C53.2329 112.333 52.6741 112.296 52.1421 112.142C51.6101 111.989 51.1175 111.722 50.6978 111.361C50.2782 111 49.9414 110.552 49.7104 110.049C49.4794 109.546 49.3597 108.999 49.3594 108.445V71.1061C49.3603 69.8751 49.8005 68.6847 50.6006 67.7491C51.4008 66.8135 52.5085 66.1941 53.7245 66.0023L65.4433 64.2562C65.9841 64.1758 66.5359 64.2129 67.0611 64.3649C67.5863 64.517 68.0726 64.7804 68.4868 65.1373C68.901 65.4941 69.2335 65.9361 69.4616 66.433C69.6896 66.93 69.8079 67.4702 69.8084 68.017V105.378C69.8105 106.618 69.3696 107.819 68.5652 108.762C67.7607 109.706 66.6457 110.332 65.4209 110.527Z" fill="white"/>
<path d="M53.2087 112.856C52.6302 112.857 52.057 112.744 51.522 112.524C50.987 112.304 50.5008 111.98 50.0911 111.571C49.6815 111.163 49.3565 110.677 49.1347 110.143C48.913 109.608 48.7988 109.036 48.7988 108.457V71.1069C48.8086 69.7317 49.3107 68.4054 50.2142 67.3685C51.1176 66.3316 52.3626 65.6526 53.7236 65.4546L65.4424 63.7086C66.0632 63.6133 66.6972 63.6535 67.3011 63.8264C67.9049 63.9992 68.4641 64.3007 68.9405 64.71C69.4168 65.1194 69.799 65.627 70.0607 66.1979C70.3224 66.7689 70.4575 67.3897 70.4567 68.0178V105.379C70.4633 106.773 69.9665 108.123 69.0576 109.179C68.1487 110.236 66.8888 110.93 65.5095 111.132L53.8579 112.811C53.643 112.842 53.426 112.857 53.2087 112.856ZM66.0356 64.7719H65.5543L53.8467 66.5627C52.7579 66.728 51.7639 67.2766 51.0437 68.1097C50.3234 68.9428 49.9243 70.0057 49.9181 71.1069V108.457C49.9206 108.926 50.0215 109.39 50.2143 109.818C50.4071 110.246 50.6875 110.629 51.0374 110.942C51.3947 111.251 51.8149 111.48 52.269 111.611C52.7231 111.742 53.2003 111.774 53.6676 111.703L65.3416 110.013C66.4382 109.842 67.4383 109.287 68.1624 108.446C68.8864 107.605 69.2872 106.533 69.2926 105.424V68.0178C69.2868 67.1587 68.9429 66.3365 68.3355 65.7291C67.728 65.1216 66.9058 64.7777 66.0468 64.7719H66.0356Z" fill="#1F2024"/>
<path d="M27.6585 108.054L23.9313 114.87L16.0181 110.561C13.6005 109.072 11.541 108.389 11.541 104.64V82.0306C11.5432 80.7916 11.9893 79.5944 12.7983 78.6561C13.6073 77.7177 14.7258 77.1002 15.9509 76.9156L27.1436 75.2478C27.8789 75.074 28.6417 75.0508 29.3861 75.1797C30.1306 75.3086 30.8412 75.5868 31.4752 75.9978L40.698 81.3479L32.0012 97.5773V102.883C32.0126 104.121 31.5813 105.322 30.785 106.27C29.9887 107.218 28.8799 107.851 27.6585 108.054Z" fill="#1F2024"/>
<path d="M24.153 115.608L15.7473 111.031L14.8966 110.527C12.826 109.307 11.0352 108.288 11.0352 104.617V82.0304C11.0587 80.6721 11.5612 79.3657 12.454 78.3418C13.3469 77.3179 14.5727 76.6422 15.9152 76.4341L27.1079 74.7552C27.9037 74.5764 28.7271 74.5575 29.5303 74.6997C30.3334 74.8419 31.1003 75.1423 31.7864 75.5834L41.4793 81.1798L32.6482 97.7002V102.871C32.6297 104.191 32.1616 105.465 31.3211 106.482C30.4806 107.5 29.3181 108.2 28.0257 108.468L24.153 115.608ZM28.6301 75.6953C28.1876 75.6996 27.7462 75.737 27.3093 75.8073L16.1166 77.4862C15.0227 77.6464 14.022 78.1924 13.2954 79.0258C12.5688 79.8591 12.1641 80.9248 12.1544 82.0304V104.64C12.1544 107.628 13.4752 108.412 15.5122 109.587L16.3517 110.09L23.75 114.109L27.3429 107.539H27.6227C28.7174 107.369 29.716 106.815 30.4398 105.976C31.1637 105.137 31.5656 104.069 31.5737 102.961V97.4651L40.0802 81.5939L31.3387 76.5236C30.5436 75.9844 29.6018 75.703 28.6413 75.7177L28.6301 75.6953Z" fill="#1F2024"/>
<path d="M38.4687 113.874L26.8619 115.609C26.3099 115.702 25.7442 115.673 25.2044 115.525C24.6647 115.376 24.164 115.111 23.7375 114.749C23.3109 114.386 22.9688 113.935 22.7352 113.426C22.5015 112.917 22.3819 112.363 22.3848 111.804V87.8849C22.387 86.6353 22.8417 85.4287 23.6648 84.4884C24.4878 83.548 25.6235 82.9376 26.8619 82.7699L38.5247 81.0238C39.0664 80.9433 39.6192 80.9806 40.1452 81.1333C40.6712 81.286 41.158 81.5504 41.5724 81.9085C41.9869 82.2666 42.3191 82.7099 42.5465 83.2082C42.7738 83.7065 42.8909 84.248 42.8898 84.7957V108.737C42.8902 109.981 42.4442 111.183 41.6329 112.126C40.8215 113.069 39.6987 113.689 38.4687 113.874Z" fill="white"/>
<path d="M26.2466 116.213C25.1854 116.192 24.1659 115.796 23.37 115.093C22.8873 114.678 22.501 114.163 22.2381 113.583C21.9752 113.003 21.842 112.372 21.8478 111.736V87.884C21.8533 86.5135 22.3479 85.1899 23.2425 84.1516C24.1372 83.1133 25.3731 82.4285 26.7278 82.2205L38.4466 80.4745C39.0675 80.3808 39.7013 80.4226 40.3045 80.5969C40.9078 80.7713 41.4662 81.074 41.9414 81.4844C42.4167 81.8948 42.7975 82.4031 43.0579 82.9745C43.3182 83.546 43.4519 84.1669 43.4497 84.7948V108.736C43.4419 110.112 42.9442 111.44 42.0457 112.482C41.1473 113.524 39.907 114.212 38.5473 114.422L26.8622 116.157C26.6587 116.191 26.4529 116.209 26.2466 116.213ZM39.0846 81.5154H38.6033L26.8622 83.3286C25.7745 83.4988 24.7829 84.0506 24.0651 84.8854C23.3473 85.7201 22.9501 86.7831 22.9447 87.884V111.803C22.9461 112.275 23.0489 112.741 23.2464 113.17C23.4438 113.599 23.7312 113.98 24.089 114.288C24.4467 114.596 24.8666 114.823 25.32 114.954C25.7734 115.085 26.2497 115.118 26.7167 115.049L38.3794 113.37C39.4742 113.2 40.4727 112.646 41.1966 111.807C41.9204 110.969 42.3223 109.9 42.3305 108.792V84.7948C42.3334 84.3677 42.2515 83.9443 42.0894 83.5492C41.9274 83.154 41.6884 82.795 41.3864 82.493C41.0844 82.191 40.7254 81.952 40.3302 81.79C39.9351 81.6279 39.5117 81.546 39.0846 81.549V81.5154Z" fill="#1F2024"/>
<path d="M93.4366 26.3915L94.2089 25.5633C95.399 24.2791 96.4844 22.9017 97.4548 21.4444C98.292 20.3335 98.9423 19.0935 99.3799 17.7732C99.6821 14.0684 99.2121 4.67773 99.2121 4.67773C87.7955 6.5693 72.3496 10.9568 72.3496 11.55C72.4503 15.1989 73.0212 20.9855 73.0212 20.9855L79.2779 23.4031C80.9792 24.0747 85.1317 19.8774 85.1317 19.8774C85.1317 20.9295 85.1988 22.295 85.2995 25.2835C85.3097 25.4555 85.3719 25.6204 85.4778 25.7563C85.5837 25.8922 85.7284 25.9927 85.8928 26.0446L90.1124 27.578C91.5227 28.1488 92.642 27.2534 93.4366 26.3915Z" fill="white"/>
<path d="M79.1851 23.4611C79.4366 23.5554 79.7725 23.5571 80.2001 23.4417C80.6254 23.327 81.0984 23.1078 81.5898 22.8189C82.5722 22.2413 83.5558 21.428 84.2677 20.7823L85.1036 20.0242V21.1527V21.1541V21.1554V21.1568V21.1582V21.1596V21.161V21.1623V21.1637V21.1651V21.1665V21.1679V21.1692V21.1706V21.172V21.1734V21.1748V21.1762V21.1776V21.1789V21.1803V21.1817V21.1831V21.1845V21.1859V21.1873V21.1887V21.1901V21.1914V21.1928V21.1942V21.1956V21.197V21.1984V21.1998V21.2012V21.2026V21.204V21.2054V21.2068V21.2082V21.2096V21.211V21.2124V21.2138V21.2152V21.2166V21.218V21.2194V21.2208V21.2222V21.2236V21.225V21.2264V21.2278V21.2292V21.2306V21.232V21.2334V21.2348V21.2362V21.2376V21.2391V21.2405V21.2419V21.2433V21.2447V21.2461V21.2475V21.2489V21.2503V21.2518V21.2532V21.2546V21.256V21.2574V21.2588V21.2602V21.2617V21.2631V21.2645V21.2659V21.2673V21.2688V21.2702V21.2716V21.273V21.2744V21.2759V21.2773V21.2787V21.2801V21.2816V21.283V21.2844V21.2858V21.2873V21.2887V21.2901V21.2915V21.293V21.2944V21.2958V21.2973V21.2987V21.3001V21.3015V21.303V21.3044V21.3058V21.3073V21.3087V21.3101V21.3116V21.313V21.3144V21.3159V21.3173V21.3188V21.3202V21.3216V21.3231V21.3245V21.326V21.3274V21.3288V21.3303V21.3317V21.3332V21.3346V21.336V21.3375V21.3389V21.3404V21.3418V21.3433V21.3447V21.3462V21.3476V21.3491V21.3505V21.352V21.3534V21.3549V21.3563V21.3578V21.3592V21.3607V21.3621V21.3636V21.365V21.3665V21.3679V21.3694V21.3708V21.3723V21.3738V21.3752V21.3767V21.3781V21.3796V21.3811V21.3825V21.384V21.3854V21.3869V21.3884V21.3898V21.3913V21.3927V21.3942V21.3957V21.3971V21.3986V21.4001V21.4015V21.403V21.4045V21.4059V21.4074V21.4089V21.4103V21.4118V21.4133V21.4148V21.4162V21.4177V21.4192V21.4207V21.4221V21.4236V21.4251V21.4265V21.428V21.4295V21.431V21.4325V21.4339V21.4354V21.4369V21.4384V21.4399V21.4413V21.4428V21.4443V21.4458V21.4473V21.4487V21.4502V21.4517V21.4532V21.4547V21.4562V21.4577V21.4591V21.4606V21.4621V21.4636V21.4651V21.4666V21.4681V21.4696V21.471V21.4725V21.474V21.4755V21.477V21.4785V21.48V21.4815V21.483V21.4845V21.486V21.4875V21.489V21.4905V21.492V21.4935V21.495V21.4965V21.498V21.4995V21.501V21.5025V21.504V21.5055V21.507V21.5085V21.51V21.5115V21.513V21.5145V21.516V21.5175V21.519V21.5205V21.522V21.5235V21.5251V21.5266V21.5281V21.5296V21.5311V21.5326V21.5341V21.5356V21.5371V21.5387V21.5402V21.5417V21.5432V21.5447V21.5462V21.5478V21.5493V21.5508V21.5523V21.5538V21.5553V21.5569V21.5584V21.5599V21.5614V21.563V21.5645V21.566V21.5675V21.569V21.5706V21.5721V21.5736V21.5751V21.5767V21.5782V21.5797V21.5813V21.5828V21.5843V21.5858V21.5874V21.5889V21.5904V21.592V21.5935V21.595V21.5966V21.5981V21.5996V21.6012V21.6027V21.6042V21.6058V21.6073V21.6088V21.6104V21.6119V21.6135V21.615V21.6165V21.6181V21.6196V21.6212V21.6227V21.6242V21.6258V21.6273V21.6289V21.6304V21.632V21.6335V21.6351V21.6366V21.6382V21.6397V21.6413V21.6428V21.6443V21.6459V21.6474V21.649V21.6505V21.6521V21.6537V21.6552V21.6568V21.6583V21.6599V21.6614V21.663V21.6645V21.6661V21.6676V21.6692V21.6708V21.6723V21.6739V21.6754V21.677V21.6786V21.6801V21.6817V21.6832V21.6848V21.6864V21.6879V21.6895V21.6911V21.6926V21.6942V21.6958V21.6973V21.6989V21.7005V21.702V21.7036V21.7052V21.7067V21.7083V21.7099V21.7114V21.713V21.7146V21.7162V21.7177V21.7193V21.7209V21.7225V21.724V21.7256V21.7272V21.7288V21.7303V21.7319V21.7335V21.7351V21.7367V21.7382V21.7398V21.7414V21.743V21.7446V21.7461V21.7477V21.7493V21.7509V21.7525V21.7541V21.7556V21.7572V21.7588V21.7604V21.762V21.7636V21.7652V21.7668V21.7683V21.7699V21.7715V21.7731V21.7747V21.7763V21.7779V21.7795V21.7811V21.7827V21.7843V21.7859V21.7875V21.7891V21.7907V21.7923V21.7938V21.7954V21.797V21.7986V21.8002V21.8018V21.8034V21.805V21.8067V21.8083V21.8099V21.8115V21.8131V21.8147V21.8163V21.8179V21.8195V21.8211V21.8227V21.8243V21.8259V21.8275V21.8291V21.8307V21.8324V21.834V21.8356V21.8372V21.8388V21.8404V21.842V21.8436V21.8452V21.8469V21.8485V21.8501V21.8517V21.8533V21.8549V21.8566V21.8582V21.8598V21.8614V21.863V21.8647V21.8663V21.8679V21.8695V21.8711V21.8728V21.8744V21.876V21.8776V21.8793V21.8809V21.8825V21.8841V21.8858V21.8874V21.889V21.8907V21.8923V21.8939V21.8955V21.8972V21.8988V21.9004V21.9021V21.9037V21.9053V21.907V21.9086V21.9102V21.9119V21.9135V21.9151V21.9168V21.9181C85.1104 22.1619 85.1227 22.437 85.1363 22.7443C85.1667 23.4262 85.2042 24.2666 85.2044 25.2753C85.2105 25.4555 85.272 25.6296 85.3807 25.7736C85.4906 25.9193 85.6431 26.027 85.8172 26.0818L85.8274 26.0851L85.8374 26.0887L90.0347 27.6109L90.0448 27.6146L90.0548 27.6187C90.3428 27.7374 90.6506 27.8005 90.9619 27.8046C91.4366 27.758 91.8974 27.6178 92.3177 27.3918C92.745 27.1621 93.1216 26.8486 93.425 26.47L93.4367 26.4553L93.4495 26.4416L94.2215 25.6136L79.1851 23.4611ZM79.1851 23.4611C79.1846 23.461 79.1841 23.4608 79.1836 23.4606L72.9372 21.0556V21.0519C72.9372 21.0343 72.9362 21.0193 72.9362 21.0191L72.9354 21.0076L72.9337 20.9877L72.9287 20.931L72.9103 20.7312L72.9087 20.7135C72.893 20.5435 72.8709 20.3051 72.8444 20.0119C72.7894 19.4048 72.715 18.5631 72.6375 17.6102C72.4826 15.7044 72.3159 13.3632 72.2656 11.5651C72.2657 11.5554 72.2658 11.5476 72.2659 11.5414C72.2673 11.5399 72.2688 11.5383 72.2706 11.5366C72.3447 11.4617 72.5621 11.3088 73.154 11.0624C74.3149 10.579 76.6761 9.82838 81.4636 8.55171C87.7312 6.89825 94.1957 5.4694 99.2022 4.63309C99.2024 4.63305 99.2027 4.63301 99.2029 4.63296L99.2361 4.62753V4.66585C99.2361 4.72895 99.2484 5.01976 99.2676 5.47668C99.3082 6.4418 99.3801 8.14802 99.4336 10.0149C99.5135 12.7995 99.5542 15.9674 99.4057 17.7878L99.404 17.8081V17.8285C99.404 17.9355 99.3687 18.1852 99.0921 18.7625C98.8184 19.3339 98.3291 20.185 97.4722 21.4814L97.4721 21.4816C96.505 22.9466 95.4179 24.3286 94.2218 25.6134L79.1851 23.4611ZM85.3351 25.2423L85.3356 25.258L85.337 25.2736C85.351 25.4227 85.4071 25.5647 85.4986 25.6832L85.8943 25.3775L85.4987 25.6832C85.5902 25.8017 85.7135 25.8918 85.8542 25.9429L85.8544 25.943L90.1014 27.4853C90.6699 27.7082 91.2372 27.7074 91.8024 27.488C92.3501 27.2753 92.8715 26.8674 93.393 26.3224L93.393 26.3225L93.3999 26.315L94.1587 25.4893C94.1591 25.4889 94.1595 25.4884 94.1599 25.488C95.3531 24.207 96.4401 22.8311 97.4102 21.3738L97.4111 21.3723C98.2355 20.1244 98.7012 19.296 98.9644 18.7551C99.2205 18.2286 99.3021 17.94 99.3163 17.7842L99.3166 17.7806C99.5774 14.6623 99.3173 7.47718 99.1831 5.31758L99.1485 4.76208L98.5999 4.85574C93.2702 5.76555 87.2728 7.15429 82.3828 8.43253C79.9371 9.0718 77.7649 9.68435 76.0883 10.1968C74.4322 10.7029 73.2126 11.125 72.7107 11.3853L72.4308 11.5304L72.4411 11.8456C72.5424 14.9299 72.9468 19.3875 73.07 20.6527L73.1001 20.9622L73.3911 21.072L79.3194 23.3091C79.5329 23.3931 79.7585 23.3946 79.959 23.3662C80.1646 23.337 80.3796 23.2712 80.5943 23.1851C81.0232 23.0131 81.5083 22.7362 82.0078 22.4022C83.0102 21.732 84.1367 20.7874 85.0995 19.8417L85.1079 19.8335L85.1159 19.8249L85.1631 19.7738L85.1669 19.8452C85.1669 20.3937 85.1675 20.9769 85.2354 21.9055C85.2766 22.4684 85.2874 23.0515 85.3007 23.766C85.3088 24.201 85.3178 24.6847 85.3351 25.2423Z" stroke="#1F2024"/>
<path d="M88.2655 9.89305C88.5117 9.75874 88.6796 9.89305 88.6013 10.1617L85.1203 15.3103C85.045 15.4632 85.0057 15.6313 85.0052 15.8018C85.0048 15.9722 85.0433 16.1405 85.1178 16.2939C85.1923 16.4472 85.3008 16.5814 85.4351 16.6864C85.5694 16.7914 85.7259 16.8644 85.8926 16.8997L90.0563 18.2316C92.1046 18.9032 92.8657 17.8511 93.7275 16.7094C98.9881 9.68039 99.0216 5.2257 99.0216 5.2257C100.219 -0.15798 95.1378 0.524773 92.6418 1.72239C82.1543 6.74791 73.6142 10.2736 73.0546 10.587C70.9728 11.8518 73.659 12.5793 73.659 12.5793L79.0203 14.3254C80.3522 14.8514 82.49 13.5531 83.3743 12.9487L88.2655 9.89305Z" fill="white"/>
<path d="M91.2306 18.9711C90.7732 18.9657 90.3196 18.8864 89.8875 18.7361L85.7238 17.4377C85.4584 17.3734 85.2119 17.2478 85.0039 17.0709C84.7959 16.894 84.6323 16.6708 84.5262 16.4192C84.433 16.1937 84.3946 15.9494 84.4141 15.7062C84.4335 15.463 84.5103 15.2279 84.6381 15.0201L87.2236 11.2034L83.6755 13.442C82.5563 14.2254 80.3177 15.479 78.8179 14.8634L73.479 13.1398C73.2328 13.0726 71.8449 12.6473 71.7218 11.6847C71.6434 11.1251 71.9904 10.5654 72.7739 10.1289C72.9418 10.0282 73.5685 9.74837 75.337 9.00965C78.7396 7.47625 85.0634 4.72285 92.4058 1.21954C93.7825 0.547979 96.8829 -0.336243 98.6402 1.07404C99.6811 1.90229 100.006 3.31257 99.5803 5.2601C99.5803 5.8645 99.211 10.2856 94.1743 17.0124C93.8882 17.5603 93.4684 18.0271 92.9538 18.3695C92.4392 18.7119 91.8465 18.9189 91.2306 18.9711ZM88.4212 9.27827C88.5939 9.28206 88.7599 9.34532 88.8913 9.45736C89.0117 9.56131 89.0976 9.69944 89.1376 9.85338C89.1776 10.0073 89.1698 10.1698 89.1152 10.3192C89.1046 10.3757 89.0816 10.4292 89.048 10.4759L85.5559 15.6245C85.5255 15.6813 85.5096 15.7448 85.5096 15.8092C85.5096 15.8736 85.5255 15.9371 85.5559 15.9939C85.6004 16.0876 85.666 16.1697 85.7476 16.2338C85.8291 16.2978 85.9244 16.3422 86.026 16.3632L90.2233 17.6616C91.8798 18.21 92.4618 17.4825 93.2453 16.3744C98.338 9.58048 98.4611 5.18175 98.4611 5.18175C98.4556 5.14465 98.4556 5.10693 98.4611 5.06982C98.8081 3.54762 98.6178 2.49551 97.935 1.94706C96.8493 1.07404 94.5212 1.44339 92.8983 2.22688C85.5559 5.74139 79.1985 8.50598 75.7847 9.98341C74.4975 10.543 73.5462 10.9796 73.3447 11.1027C72.8746 11.3825 72.8298 11.5616 72.8298 11.5616C73.1006 11.8198 73.4377 11.9981 73.8036 12.0764L79.1985 13.7553C80.1163 14.1135 81.784 13.3188 83.0599 12.4458L87.9623 9.37901C88.1058 9.31127 88.2626 9.27683 88.4212 9.27827Z" fill="#1F2024"/>
<path d="M80.4875 30.4668C80.5657 31.1911 80.4873 31.9238 80.2575 32.6152C80.0276 33.3065 79.6519 33.9404 79.1556 34.4738C78.7079 34.9327 78.2154 35.4475 77.667 35.996C70.5148 43.1481 54.2631 58.2134 15.6707 75.965C14.3171 76.6164 12.894 77.112 11.4286 77.4425C10.3198 77.6561 9.17111 77.4739 8.18277 76.9276L3.05652 74.1966C1.65743 73.3348 0.941098 72.5513 0.817979 71.141C0.706052 68.4995 0.560547 66.2386 0.560547 64.0224C0.560547 62.836 2.03798 62.2988 2.79908 61.9518C3.56019 61.6048 4.83615 65.1417 6.89561 64.2575C8.36185 63.6419 10.634 62.0189 12.7942 61.0004C25.0501 55.4153 46.2267 46.2149 70.1455 25.777C70.9961 25.0495 71.6789 23.2139 72.5295 22.4192C73.4705 21.3868 74.4721 20.4113 75.5292 19.4979C75.809 19.3972 77.5998 20.1135 78.6071 20.3038C78.9205 20.3598 79.5026 21.2552 79.5361 21.5686L80.4875 30.4668Z" fill="white"/>
<path d="M10.4987 78.0909C9.57002 78.0929 8.6551 77.8661 7.83488 77.4305L2.79817 74.7331C1.35431 73.86 0.391744 72.931 0.302203 71.2186L0.235046 70.0993C0.111927 67.8831 0 65.9468 0 64.0217C0 62.5442 1.58936 61.8839 2.44001 61.5145L2.6079 61.4362C3.24588 61.1675 3.72716 61.7607 4.29799 62.3875C5.13744 63.3837 5.85377 64.1224 6.71561 63.7419C7.57246 63.3408 8.40246 62.8846 9.20039 62.3763C10.2837 61.6873 11.4047 61.0596 12.5582 60.496L14.4386 59.6453C26.6498 54.049 47.0876 44.7591 69.7864 25.3397C70.2315 24.8894 70.6085 24.3766 70.9057 23.8175C71.2525 23.1661 71.6896 22.567 72.204 22.0379C72.4726 21.7917 72.9203 21.3216 73.3233 20.8627C73.8894 20.134 74.5743 19.5058 75.3492 19.0047C75.6626 18.8928 76.0543 19.0047 77.1512 19.3517C77.6656 19.5242 78.1886 19.6699 78.7182 19.7882C79.3561 19.9113 80.0501 21.0529 80.0949 21.5454L81.0462 30.3988C81.1405 31.2076 81.0572 32.0273 80.802 32.8006C80.5468 33.5738 80.1259 34.2821 79.5688 34.8759C79.1323 35.346 78.6286 35.8609 78.0802 36.4093C72.8084 41.6811 56.8141 57.6754 15.86 76.4903C14.4711 77.1639 13.0105 77.6783 11.5061 78.0237C11.1728 78.0749 10.8358 78.0974 10.4987 78.0909ZM2.89891 62.533C2.19377 62.8241 1.14165 63.2718 1.14165 64.0105C1.14165 65.902 1.25358 67.8272 1.3767 70.0433L1.44386 71.1626C1.49982 72.2819 1.9923 72.931 3.369 73.7705L8.39451 76.4344C9.27571 76.9147 10.2955 77.0768 11.2822 76.8933C12.6945 76.574 14.0652 76.0933 15.3676 75.4606C56.1089 56.7464 72.0361 40.8304 77.2295 35.6034C77.778 35.055 78.2593 34.5513 78.6958 34.0812C79.1442 33.6155 79.4864 33.0583 79.699 32.4477C79.9115 31.8372 79.9893 31.1878 79.927 30.5443L78.9756 21.7021C78.8526 21.3973 78.6656 21.1225 78.4271 20.8963C77.8778 20.7793 77.3358 20.6298 76.8042 20.4485C76.4369 20.3214 76.0633 20.2131 75.6849 20.124C75.1398 20.5837 74.6204 21.0732 74.1292 21.5902C73.6591 22.0939 73.2113 22.564 72.898 22.8438C72.459 23.2951 72.0825 23.8033 71.7787 24.3548C71.453 25.0309 71.0266 25.6536 70.5139 26.2016C47.692 45.7216 27.1646 55.0787 14.9087 60.6751L13.0619 61.5145C11.9342 62.0614 10.8359 62.6666 9.77121 63.3277C8.92746 63.8668 8.04876 64.3492 7.14093 64.7716C5.47322 65.4879 4.19726 64.0105 3.44735 63.1151C3.27539 62.9111 3.0923 62.7168 2.89891 62.533Z" fill="#1F2024"/>
<path d="M78.3475 19.8561C80.7875 21.2104 78.9743 22.9341 78.9743 22.9341C77.6312 24.2996 76.3888 25.4412 75.0345 26.6165C73.4227 28.0267 71.576 29.4594 70.4455 30.3212C60.4392 37.9547 48.1273 50.2106 14.4149 66.2945C14.4149 66.2945 11.0571 68.3428 8.81857 67.1788L1.39782 63.2613C1.34469 63.2427 1.2978 63.2097 1.26243 63.1659C1.22706 63.1221 1.20463 63.0694 1.19765 63.0135C1.19067 62.9577 1.19942 62.901 1.22292 62.8498C1.24642 62.7987 1.28374 62.7551 1.33066 62.7241C1.97471 62.335 2.65279 62.0053 3.35654 61.7391C6.07636 60.6198 35.0542 50.1883 70.1209 19.3748C70.5461 19.0018 71.0554 18.7377 71.6052 18.6051C72.155 18.4725 72.7288 18.4755 73.2772 18.6137L78.3475 19.8561Z" fill="white"/>
<path d="M10.3985 68.0964C9.75021 68.1075 9.1089 67.9615 8.52928 67.671L1.11972 63.7648C0.98167 63.7026 0.863011 63.6042 0.776313 63.4801C0.689615 63.356 0.638107 63.2107 0.627243 63.0597C0.611374 62.8994 0.64071 62.738 0.711928 62.5935C0.783145 62.4491 0.893395 62.3276 1.03018 62.2426C1.71241 61.8427 2.42762 61.5019 3.16798 61.2241L3.62688 61.045C13.4093 57.273 39.4435 45.6103 69.7757 18.9605C70.2704 18.5229 70.8639 18.2119 71.5053 18.054C72.1466 17.8961 72.8167 17.8961 73.458 18.0539L78.4276 19.3522C78.4756 19.3618 78.5213 19.3808 78.5619 19.4082C78.9563 19.5782 79.3038 19.841 79.5747 20.1743C79.8456 20.5075 80.0319 20.9013 80.1177 21.3221C80.1372 21.7029 80.0755 22.0836 79.9365 22.4386C79.7976 22.7937 79.5846 23.1152 79.3118 23.3816C78.0247 24.6799 76.8047 25.8216 75.3496 27.0864C73.8946 28.3511 72.059 29.795 70.727 30.8135C69.0929 32.0671 67.3692 33.4662 65.5448 34.9548C55.9639 42.689 42.8684 53.3332 14.6517 66.798C13.3566 67.5611 11.8989 68.0061 10.3985 68.0964ZM1.99275 63.0037L9.04414 66.7085C10.6559 67.5479 13.2526 66.3727 14.1256 65.8466C42.264 52.4154 55.3147 41.8159 64.8397 34.0706C66.6753 32.582 68.399 31.1829 70.0443 29.9181C71.365 28.8996 73.0775 27.5677 74.6221 26.2245C76.1667 24.8814 77.23 23.8293 78.5283 22.5421C78.6782 22.3964 78.7979 22.2225 78.8805 22.0305C78.9631 21.8384 79.007 21.6319 79.0096 21.4229C79.0096 21.0535 78.6515 20.7065 78.0806 20.382L73.167 19.1396C72.7063 19.023 72.2241 19.0201 71.762 19.1313C71.2999 19.2424 70.8717 19.4642 70.5144 19.7775C40.0255 46.5728 13.8458 58.2916 4.00743 62.0859L3.55973 62.265C3.02235 62.4779 2.49898 62.7247 1.99275 63.0037ZM1.55624 62.7798H1.6122H1.55624Z" fill="#1F2024"/>
<path d="M0.999484 71.5C0.500016 68.5 0.000362158 64 0.499792 63.5L0.999232 63C2.49923 63.8333 5.89923 65.7 7.49923 66.5C9.09923 67.3 10.4992 67.5 10.9992 67.5V77.5C9.5 77.5 6 76.2 4 75C2 73.8 0.999484 72 0.999484 71.5Z" fill="#1F2024"/>
<path d="M85.523 15.967L84.4043 16.0029L84.6577 23.8897L85.7764 23.8538L85.523 15.967Z" fill="#1F2024"/>
</svg>
