<svg width="94" height="105" viewBox="0 0 94 105" fill="none" xmlns="http://www.w3.org/2000/svg">
<path d="M46.8582 104.954C21.0186 104.954 0 85.3693 0 61.287C0.00194894 59.5121 0.121679 57.7394 0.358402 55.9803L0.462455 55.1826L1.15614 55.5063C44.1991 76.8949 76.409 74.0045 91.7741 70.4321L92.699 70.2124L92.4678 71.1373C87.5658 91.0691 68.7901 104.954 46.8582 104.954ZM1.39893 56.9515C1.24003 58.3913 1.15899 59.8385 1.15614 61.287C1.15614 84.7335 21.6544 103.798 46.8582 103.798C67.923 103.798 85.9934 90.6991 91.1382 71.8194C75.3685 75.3341 43.5748 77.6926 1.39893 56.9515Z" fill="#1F2024"/>
<path d="M68.1311 53.1015C38.2103 53.1015 10.093 35.9097 9.73463 35.6901L9.17969 35.3432L9.5959 34.8345C14.1405 29.3817 19.8426 25.0097 26.288 22.0359C32.7334 19.0622 39.7603 17.5615 46.8582 17.6428C67.5183 17.6428 85.5541 29.9788 91.6238 48.3382L91.7972 48.8585L91.2885 49.055C83.8843 51.8182 76.0335 53.19 68.1311 53.1015ZM10.9139 35.0542C16.1859 38.1642 56.5813 60.7551 90.352 48.1763C84.2245 30.5799 66.8246 18.7989 46.8582 18.7989C40.0436 18.7214 33.2947 20.1363 27.0852 22.9445C20.8757 25.7527 15.3561 29.886 10.9139 35.0542Z" fill="#1F2024"/>
<path d="M91.0832 48.569C44.3869 59.1824 10.0497 35.2041 10.0497 35.2041C5.1115 41.1667 1.95044 48.3983 0.927734 56.0724C37.6582 81.4264 77.5333 74.4318 91.9503 71.0443C93.7994 63.622 93.4986 55.8268 91.0832 48.569Z" fill="#0074FF"/>
<path d="M62.1311 75.1602C43.6214 75.1602 21.4929 70.975 0.601534 56.5464L0.3125 56.3499V55.9915C1.3572 48.2131 4.56145 40.8834 9.56159 34.8342L9.89687 34.418L10.4056 34.6954C10.7524 34.9382 45.0897 58.3962 90.9767 47.9216L91.497 47.806L91.6588 48.3032C94.1169 55.6936 94.4058 63.6336 92.4912 71.1831L92.4103 71.5184L92.0635 71.5993C82.2549 73.9263 72.2119 75.121 62.1311 75.1602ZM1.54957 55.7949C35.2625 78.9061 72.1895 75.033 91.4623 70.5357C92.2124 67.5093 92.6005 64.4045 92.6184 61.2866C92.6184 57.1786 91.9828 53.0954 90.7339 49.1818C47.4019 58.8587 14.3596 38.7072 10.1628 35.9788C5.55611 41.6859 2.57983 48.5333 1.54957 55.7949Z" fill="#1F2024"/>
<path d="M27.9312 55.0326C30.2899 55.9371 32.713 56.6636 35.1802 57.2062C37.2265 57.6802 38.0011 58.3623 38.1746 59.2525C38.2215 59.5828 38.2014 59.9192 38.1155 60.2416C38.0296 60.564 37.8797 60.8658 37.6748 61.1291C37.4698 61.3923 37.2139 61.6116 36.9224 61.7739C36.6308 61.9361 36.3096 62.038 35.9779 62.0735C35.0603 62.1917 34.1291 62.1486 33.2263 61.9463C31.2614 61.4816 29.351 60.8112 27.5265 59.9462C27.5265 59.9462 24.9484 58.975 25.4339 56.5472C25.9195 54.1193 27.9312 55.0326 27.9312 55.0326Z" fill="white"/>
<path d="M9.88269 47.6097C11.3172 48.5356 12.8437 49.3105 14.4379 49.922C15.7212 50.4422 16.1952 51.0781 16.2761 52.0492C16.3802 53.4135 15.6634 54.6621 14.7731 54.8124C14.1804 54.9088 13.5726 54.8409 13.0158 54.6159C11.7254 54.0772 10.5185 53.357 9.4318 52.477C8.93523 52.0639 8.5639 51.5203 8.35963 50.9075C8.15536 50.2947 8.12628 49.6371 8.27566 49.0086C8.65719 46.7079 9.88269 47.6097 9.88269 47.6097Z" fill="white"/>
<path d="M84.9348 67.6881C87.8062 59.4656 84.1769 50.7198 76.8286 48.1536C69.4802 45.5875 61.1955 50.1728 58.3241 58.3952C55.4527 66.6176 59.082 75.3635 66.4303 77.9296C73.7787 80.4958 82.0634 75.9105 84.9348 67.6881Z" fill="white"/>
<path d="M70.6052 79.2179C69.1137 79.2167 67.6328 78.9666 66.2235 78.478C58.593 75.8073 54.8009 66.7085 57.8068 58.1994C60.8128 49.6902 69.3682 44.9385 77.0449 47.5976C84.7217 50.2567 88.4444 59.3671 85.4732 67.8762C83.0568 74.7784 76.9177 79.2179 70.6052 79.2179ZM72.6285 48.0023C66.8478 48.0023 61.0671 52.1412 58.8589 58.5693C56.0957 66.4773 59.5757 74.9171 66.605 77.3681C73.6343 79.8191 81.6348 75.3911 84.3748 67.4832C87.1149 59.5752 83.658 51.1354 76.6287 48.6844C75.3429 48.2359 73.9902 48.0092 72.6285 48.0138V48.0023Z" fill="#1F2024"/>
<path d="M89.7736 70.1656C88.34 74.6283 84.2126 75.7266 76.3046 75.6225C68.5354 75.53 63.3906 67.6914 65.5757 61.4252C67.7608 55.1589 76.3046 52.1414 82.6634 56.6619C90.0048 61.9223 90.3632 68.3042 89.7736 70.1656Z" fill="white"/>
<path d="M77.2992 76.2129H76.3049C74.3984 76.1917 72.525 75.7121 70.8428 74.8147C69.1606 73.9172 67.7189 72.6282 66.6396 71.0565C65.6165 69.6722 64.9346 68.0659 64.6493 66.3684C64.364 64.6708 64.4835 62.9299 64.9979 61.2872C65.5985 59.6798 66.5635 58.2335 67.8173 57.062C69.071 55.8905 70.5794 55.0256 72.2238 54.5353C74.0283 53.9563 75.9436 53.8095 77.8153 54.1067C79.687 54.4039 81.4626 55.1368 82.999 56.2464C90.2826 61.4606 91.0919 68.0274 90.3173 70.386C88.7796 75.1608 84.3979 76.2129 77.2992 76.2129ZM75.935 55.0671C74.7963 55.0667 73.6648 55.2462 72.5822 55.599C71.1076 56.0331 69.7536 56.8029 68.6263 57.848C67.499 58.893 66.6291 60.1849 66.0847 61.6224C65.6202 63.0935 65.5111 64.6536 65.7663 66.175C66.0216 67.6963 66.6339 69.1355 67.553 70.3744C68.531 71.7882 69.8344 72.9462 71.3535 73.751C72.8726 74.5558 74.5628 74.9838 76.2818 74.9989C84.5829 75.103 87.9935 73.785 89.219 69.9466C89.8664 67.9234 89.0224 61.8537 82.2821 57.0904C80.4279 55.773 78.2095 55.0659 75.935 55.0671Z" fill="#1F2024"/>
<path d="M67.1432 25.3122C67.5675 23.7601 64.2367 21.4973 59.7035 20.258C55.1704 19.0187 51.1516 19.2723 50.7273 20.8244C50.303 22.3765 53.6338 24.6394 58.167 25.8787C62.7001 27.1179 66.7189 26.8643 67.1432 25.3122Z" fill="white"/>
<path d="M63.4388 27.2392C61.6 27.2078 59.7732 26.9357 58.005 26.4299C53.6579 25.2737 49.5652 22.8805 50.1664 20.6492C50.7676 18.4179 55.4962 18.5103 59.8548 19.6665C61.9004 20.186 63.8513 21.0248 65.6355 22.1522C67.7165 23.5742 67.9478 24.7188 67.7281 25.4356C67.5084 26.1524 66.7685 27.0311 64.2597 27.1929L63.4388 27.2392ZM54.4441 20.048C52.5943 20.048 51.4266 20.4411 51.2763 20.9729C51.0219 21.8978 53.5886 24.0482 58.3172 25.32C60.2123 25.872 62.1827 26.1217 64.1556 26.0599C65.7858 25.9559 66.4679 25.505 66.572 25.1581C66.676 24.8113 66.3061 24.0598 64.9534 23.1349C63.2831 22.0835 61.4569 21.3031 59.5427 20.8226C57.8845 20.3416 56.1703 20.0812 54.4441 20.048Z" fill="#1F2024"/>
<path d="M65.6463 6.26645L61.2761 22.1518C61.2179 22.347 61.1217 22.5288 60.993 22.6868C60.8644 22.8448 60.7059 22.9759 60.5266 23.0725C60.3472 23.1692 60.1506 23.2295 59.9479 23.25C59.7452 23.2706 59.5405 23.251 59.3454 23.1923L58.3511 22.8917C58.1574 22.8335 57.977 22.7376 57.8204 22.6096C57.6638 22.4816 57.5339 22.3239 57.4383 22.1456C57.3428 21.9673 57.2833 21.772 57.2633 21.5706C57.2434 21.3693 57.2634 21.1661 57.3221 20.9725L61.6923 5.08719C61.8103 4.70076 62.0745 4.37569 62.4287 4.18131C62.7829 3.98693 63.1991 3.93861 63.5884 4.04667L64.5827 4.34726C64.7787 4.40317 64.9618 4.49721 65.1214 4.62399C65.281 4.75078 65.414 4.90781 65.5128 5.0861C65.6116 5.26439 65.6743 5.46043 65.6972 5.66297C65.7201 5.86552 65.7028 6.0706 65.6463 6.26645Z" fill="white"/>
<path d="M59.8315 23.8394C59.6277 23.8369 59.4253 23.8058 59.2303 23.7469L58.236 23.4463C57.7019 23.2831 57.2535 22.9164 56.9874 22.4254C56.7213 21.9344 56.659 21.3584 56.8139 20.8219L61.1263 4.93656C61.2047 4.66594 61.3357 4.41347 61.512 4.19364C61.6882 3.97382 61.9061 3.79098 62.1532 3.65562C62.4003 3.52025 62.6716 3.43504 62.9518 3.40488C63.2319 3.37471 63.5152 3.40018 63.7854 3.47983L64.7682 3.78042C65.0358 3.85867 65.2854 3.98906 65.5024 4.16409C65.7195 4.33912 65.8999 4.55534 66.0331 4.80031C66.1663 5.04528 66.2498 5.31417 66.2788 5.59152C66.3077 5.86887 66.2815 6.14921 66.2018 6.41641L61.8778 22.3017C61.7498 22.7454 61.4809 23.1354 61.1118 23.4128C60.7426 23.6902 60.2932 23.8399 59.8315 23.8394ZM63.1727 4.55503C62.9635 4.55741 62.7603 4.62574 62.5922 4.75029C62.424 4.87483 62.2995 5.04926 62.2362 5.24871L57.9238 21.1225C57.8846 21.2454 57.8703 21.3749 57.8818 21.5035C57.8932 21.632 57.9301 21.757 57.9904 21.8711C58.0507 21.9852 58.1331 22.0861 58.2328 22.168C58.3326 22.2499 58.4476 22.3111 58.5713 22.348L59.554 22.637C59.6769 22.6742 59.8061 22.6866 59.9339 22.6736C60.0617 22.6605 60.1856 22.6223 60.2985 22.561C60.4115 22.4997 60.5111 22.4166 60.5916 22.3165C60.6722 22.2164 60.7321 22.1014 60.7679 21.978L65.0919 6.10425C65.1504 5.86538 65.1161 5.6132 64.996 5.39861C64.8758 5.18403 64.6787 5.02303 64.4444 4.94812L63.4502 4.63596C63.3636 4.59182 63.2694 4.56436 63.1727 4.55503Z" fill="#1F2024"/>
<path d="M63.6341 10.1627C66.2775 10.1627 68.4205 8.01971 68.4205 5.37625C68.4205 2.73279 66.2775 0.589844 63.6341 0.589844C60.9906 0.589844 58.8477 2.73279 58.8477 5.37625C58.8477 8.01971 60.9906 10.1627 63.6341 10.1627Z" fill="white"/>
<path d="M63.5868 10.7521C62.523 10.7543 61.4825 10.441 60.5969 9.85166C59.7113 9.26233 59.0204 8.4235 58.6118 7.44137C58.2031 6.45923 58.095 5.37793 58.3011 4.33432C58.5072 3.29071 59.0183 2.33171 59.7697 1.5787C60.5211 0.825692 61.479 0.312525 62.5222 0.10415C63.5653 -0.104224 64.6469 0.00156235 65.6299 0.40812C66.6129 0.814677 67.4532 1.50373 68.0445 2.38806C68.6357 3.27239 68.9513 4.31225 68.9513 5.37602C68.9482 6.7989 68.3825 8.1628 67.3774 9.17001C66.3724 10.1772 65.0097 10.746 63.5868 10.7521ZM63.5868 1.16769C62.7512 1.1654 61.9338 1.41124 61.238 1.87405C60.5423 2.33686 59.9996 2.9958 59.6788 3.76735C59.358 4.53891 59.2734 5.38834 59.4359 6.208C59.5984 7.02766 60.0005 7.78063 60.5914 8.37149C61.1822 8.96235 61.9352 9.36449 62.7548 9.52695C63.5745 9.6894 64.4239 9.60486 65.1955 9.28403C65.967 8.96321 66.626 8.42054 67.0888 7.72481C67.5516 7.02909 67.7974 6.21162 67.7952 5.37602C67.7921 4.26084 67.3477 3.19221 66.5592 2.40365C65.7706 1.6151 64.702 1.17074 63.5868 1.16769Z" fill="#1F2024"/>
</svg>
