<svg width="121" height="104" viewBox="0 0 121 104" fill="none" xmlns="http://www.w3.org/2000/svg">
<path fill-rule="evenodd" clip-rule="evenodd" d="M10.45 14.8062C16.9309 5.67286 25.9298 -0.0371094 35.9221 -0.0371094H35.9298V-0.0370507C42.4397 0.0626662 48.7108 2.38064 53.6585 6.51835C64.5572 15.2193 71.8603 31.6465 71.8412 50.373C71.8411 64.2581 67.8474 76.8507 61.367 85.9851C54.8873 95.1184 45.8908 100.828 35.9031 100.828H35.9026C31.7378 100.824 27.6331 99.8532 23.9272 97.9948C9.90973 91.051 -0.0253906 72.314 -0.0253906 50.4189C-0.0253906 36.5336 3.9683 23.9408 10.45 14.8062ZM11.2655 15.3849C4.91721 24.3315 0.974609 36.7166 0.974609 50.4189C0.974609 72.0733 10.8036 90.3787 24.3725 97.0994L24.3747 97.1005C27.9413 98.8892 31.893 99.8244 35.9036 99.8285C45.4812 99.8283 54.2035 94.3541 60.5514 85.4065C66.8986 76.4599 70.8412 64.0748 70.8412 50.3725V50.372C70.86 31.8728 63.6406 15.7643 53.0302 7.29633L53.0212 7.28912L53.0213 7.28902C48.2516 3.29856 42.2019 1.06001 35.9183 0.962891C26.3372 0.964348 17.6139 6.43836 11.2655 15.3849ZM20.1971 26.0743C16.1258 32.283 13.591 40.8892 13.591 50.4189C13.591 59.4954 15.8893 67.7231 19.6359 73.8377C17.449 68.4563 16.189 62.1155 16.189 55.3319C16.189 45.6361 18.7541 36.8334 22.9347 30.4396C27.1125 24.0499 32.9456 20.0139 39.4726 20.0139H39.4734C40.97 20.0164 42.4585 20.2291 43.8933 20.6455L43.9051 20.6489L43.905 20.649C46.0989 21.3442 48.1447 22.3959 49.9608 23.7504C47.1399 20.2258 43.7456 17.7577 40.0646 16.6929L40.0642 16.6928C38.7196 16.3026 37.3243 16.1032 35.9213 16.1008C29.8413 16.1011 24.271 19.8614 20.1971 26.0743ZM19.3609 25.5259C23.5506 19.1365 29.3955 15.1008 35.9221 15.1008H35.923C37.4194 15.1033 38.9078 15.316 40.3425 15.7323C45.5324 17.2335 50.0854 21.3183 53.3759 26.9931L52.5608 27.5658C50.2221 24.786 47.1161 22.7167 43.6088 21.6042C42.2663 21.2152 40.8733 21.0164 39.4726 21.0139C33.3926 21.0139 27.8339 24.7739 23.7716 30.9868C19.7121 37.1955 17.189 45.8018 17.189 55.3319C17.189 64.1623 19.3633 72.1936 22.9113 78.2543L25.3726 82.4587L22.1086 78.8419C16.3029 72.4086 12.591 62.0551 12.591 50.4189C12.591 40.7225 15.1683 31.9197 19.3609 25.5259Z" fill="#1F2024"/>
<path d="M77.0184 54.0436C77.0184 81.6311 61.1553 104 41.5804 104C35.1784 103.891 29.0178 101.595 24.1699 97.5106C27.8063 99.3342 31.8346 100.287 35.9225 100.292C55.4879 100.292 71.3605 77.9231 71.3605 50.3356C71.3605 31.6751 64.0982 15.4063 53.3235 6.82227C67.136 13.7469 77.0184 32.2684 77.0184 54.0436Z" fill="#1F2024"/>
<path d="M52.9433 27.2442C50.5416 24.3894 47.3527 22.2663 43.7539 21.126C42.3642 20.7227 40.9223 20.5166 39.4725 20.5142C26.8655 20.5142 16.6888 36.1063 16.6888 55.3322C16.6888 64.2407 18.8818 72.3612 22.4797 78.5072C16.7838 72.1758 13.1289 61.951 13.1289 50.4099C13.1289 31.1839 23.3531 15.5918 35.96 15.5918C37.4098 15.5943 38.8517 15.8003 40.2414 16.2036C45.2348 17.6683 49.6776 21.6451 52.9433 27.2442Z" fill="#1F2024"/>
<path fill-rule="evenodd" clip-rule="evenodd" d="M110 20C110 20.5523 109.552 21 109 21H86C85.4477 21 85 20.5523 85 20C85 19.4477 85.4477 19 86 19H109C109.552 19 110 19.4477 110 20Z" fill="#0074FF"/>
<path fill-rule="evenodd" clip-rule="evenodd" d="M105 34C105 34.5523 104.552 35 104 35H90C89.4477 35 89 34.5523 89 34C89 33.4477 89.4477 33 90 33H104C104.552 33 105 33.4477 105 34Z" fill="#0074FF"/>
<path fill-rule="evenodd" clip-rule="evenodd" d="M105 66C105 66.5523 104.552 67 104 67H90C89.4477 67 89 66.5523 89 66C89 65.4477 89.4477 65 90 65H104C104.552 65 105 65.4477 105 66Z" fill="#0074FF"/>
<path fill-rule="evenodd" clip-rule="evenodd" d="M123 50C123 50.5523 122.552 51 122 51H92C91.4477 51 91 50.5523 91 50C91 49.4477 91.4477 49 92 49H122C122.552 49 123 49.4477 123 50Z" fill="#0074FF"/>
<path fill-rule="evenodd" clip-rule="evenodd" d="M110 81C110 81.5523 109.552 82 109 82H86C85.4477 82 85 81.5523 85 81C85 80.4477 85.4477 80 86 80H109C109.552 80 110 80.4477 110 81Z" fill="#0074FF"/>
</svg>
