<svg width="623" height="7" viewBox="0 0 623 7" fill="none" xmlns="http://www.w3.org/2000/svg">
<path d="M0 1.5C4.6421 1.5 4.6421 5.5 9.29809 5.5C13.9541 5.5 13.8985 1.5 18.5823 1.5C23.2661 1.5 23.2383 5.5 27.8804 5.5C32.5225 5.5 32.5225 1.5 37.1785 1.5C41.8345 1.5 41.8206 5.5 46.4766 5.5C51.1326 5.5 51.1187 1.5 55.7747 1.5C60.4307 1.5 60.4168 5.5 65.0589 5.5C69.701 5.5 69.7148 1.5 74.3569 1.5C78.999 1.5 78.999 5.5 83.655 5.5C88.311 5.5 88.2971 1.5 92.9531 1.5C97.6091 1.5 97.5952 5.5 102.251 5.5C106.907 5.5 106.893 1.5 111.535 1.5C116.178 1.5 116.191 5.5 120.834 5.5C125.476 5.5 125.49 1.5 130.132 1.5C134.774 1.5 134.774 5.5 139.43 5.5C144.086 5.5 144.072 1.5 148.728 1.5C153.384 1.5 153.37 5.5 158.026 5.5C162.682 5.5 162.668 1.5 167.31 1.5C171.952 1.5 171.966 5.5 176.608 5.5C181.25 5.5 181.264 1.5 185.906 1.5C190.548 1.5 190.562 5.5 195.204 5.5C199.846 5.5 199.86 1.5 204.502 1.5C209.145 1.5 209.158 5.5 213.801 5.5C218.443 5.5 218.457 1.5 223.099 1.5C227.741 1.5 227.755 5.5 232.397 5.5C237.039 5.5 237.053 1.5 241.695 1.5C246.337 1.5 246.337 5.5 250.993 5.5C255.649 5.5 255.635 1.5 260.291 1.5C264.947 1.5 264.933 5.5 269.589 5.5C274.245 5.5 274.231 1.5 278.887 1.5C283.543 1.5 283.529 5.5 288.185 5.5C292.841 5.5 292.827 1.5 297.483 1.5C302.139 1.5 302.125 5.5 306.781 5.5C311.437 5.5 311.424 1.5 316.08 1.5C320.736 1.5 320.722 5.5 325.378 5.5C330.034 5.5 330.034 1.5 334.676 1.5C339.318 1.5 339.332 5.5 343.974 5.5C348.616 5.5 348.63 1.5 353.272 1.5C357.914 1.5 357.928 5.5 362.57 5.5C367.212 5.5 367.212 1.5 371.854 1.5C376.496 1.5 376.51 5.5 381.152 5.5C385.794 5.5 385.808 1.5 390.45 1.5C395.092 1.5 395.106 5.5 399.748 5.5C404.391 5.5 404.391 1.5 409.047 1.5C413.703 1.5 413.689 5.5 418.345 5.5C423.001 5.5 422.987 1.5 427.643 1.5C432.299 1.5 432.285 5.5 436.941 5.5C441.597 5.5 441.583 1.5 446.239 1.5C450.895 1.5 450.881 5.5 455.537 5.5C460.193 5.5 460.179 1.5 464.835 1.5C469.491 1.5 469.491 5.5 474.133 5.5C478.775 5.5 478.789 1.5 483.431 1.5C488.073 1.5 488.087 5.5 492.743 5.5C497.399 5.5 497.385 1.5 502.041 1.5C506.697 1.5 506.697 5.5 511.34 5.5C515.982 5.5 515.996 1.5 520.638 1.5C525.28 1.5 525.294 5.5 529.95 5.5C534.606 5.5 534.606 1.5 539.248 1.5C543.89 1.5 543.904 5.5 548.546 5.5C553.188 5.5 553.202 1.5 557.858 1.5C562.514 1.5 562.5 5.5 567.156 5.5C571.812 5.5 571.812 1.5 576.454 1.5C581.096 1.5 581.11 5.5 585.766 5.5C590.422 5.5 590.408 1.5 595.064 1.5C599.72 1.5 599.72 5.5 604.362 5.5C609.004 5.5 609.032 1.5 613.688 1.5C618.344 1.5 618.344 5.5 623 5.5" stroke="#FFDF00" stroke-width="2" stroke-miterlimit="10"/>
</svg>
