<svg width="200" height="200" viewBox="0 0 200 200" fill="none" xmlns="http://www.w3.org/2000/svg">
<path d="M100.212 200C116.208 200 129.175 198.601 129.175 196.875C129.175 195.149 116.208 193.75 100.212 193.75C84.217 193.75 71.25 195.149 71.25 196.875C71.25 198.601 84.217 200 100.212 200Z" fill="#1F2024"/>
<path d="M74.3744 146.962C99.3106 148.544 124.756 132.808 136.488 106.197C147.731 80.6938 143.104 52.6293 126.865 35.0721L128.124 32.499L115.794 25.9231C113.849 24.716 111.808 23.6246 109.676 22.66L109.374 22.499L109.364 22.5201C109.311 22.4962 109.257 22.4725 109.203 22.4488C79.5136 9.35977 43.5931 25.6337 28.9725 58.7975C14.4016 91.8483 25.5298 129.289 54.9994 142.499L68.1244 149.374L72.1978 146.784C72.9186 146.856 73.6436 146.915 74.3744 146.962Z" fill="#1F2024"/>
<path fill-rule="evenodd" clip-rule="evenodd" d="M108.952 23.0212C79.6367 10.0969 44.0542 26.141 29.5458 59.0501C15.0795 91.8638 26.1723 128.892 55.2564 141.929L55.2739 141.937L68.0955 148.653L72.0464 146.141L72.2617 146.163C72.9745 146.234 73.6919 146.292 74.4154 146.338C99.0633 147.902 124.28 132.342 135.917 105.945C147.07 80.6489 142.463 52.8549 126.408 35.497L126.117 35.1826L127.299 32.767L115.484 26.4655L115.466 26.4547C113.544 25.2618 111.527 24.1833 109.42 23.2299L109.401 23.2215L109.39 23.2153L109.112 23.0916L108.952 23.0212ZM109.954 22.0995C112.098 23.0704 114.15 24.1681 116.108 25.3818L128.952 32.2321L127.616 34.9642C143.803 52.7396 148.329 80.8918 137.061 106.45C125.235 133.275 99.5609 149.186 74.3362 147.586C73.671 147.544 73.0101 147.491 72.3525 147.428L68.1561 150.096L54.7277 143.062C24.8858 129.673 13.7294 91.8275 28.402 58.5459C43.0709 25.2727 79.0784 8.76755 109.064 21.7061L109.095 21.6415L109.954 22.0995Z" fill="#1F2024"/>
<path d="M152.738 114.948C138.117 148.112 102.196 164.386 72.5068 151.297C42.8173 138.208 30.6016 100.712 45.2222 67.5485C59.8429 34.3846 95.7634 18.1107 125.453 31.1997C155.143 44.2887 167.358 81.784 152.738 114.948Z" fill="white"/>
<path fill-rule="evenodd" clip-rule="evenodd" d="M125.151 31.8865C95.9103 18.9952 60.3953 34.9933 45.9094 67.8515C31.4235 100.71 43.5692 137.72 72.8103 150.611C102.051 163.502 137.566 147.504 152.052 114.646C166.538 81.7876 154.392 44.7778 125.151 31.8865ZM44.5369 67.2464C59.2923 33.777 95.6184 17.2273 125.756 30.514C155.894 43.8007 168.18 81.7815 153.425 115.251C138.669 148.72 102.343 165.27 72.2052 151.983C42.0672 138.697 29.7815 100.716 44.5369 67.2464Z" fill="#1F2024"/>
<path d="M138.486 107.753C127.566 132.524 101.372 144.961 79.981 135.53C58.5902 126.1 50.1024 98.3737 61.0232 73.6024C71.9439 48.8311 98.1376 36.3949 119.528 45.8253C140.919 55.2557 149.407 82.9817 138.486 107.753Z" fill="white"/>
<path fill-rule="evenodd" clip-rule="evenodd" d="M119.227 46.5121C98.306 37.2889 72.5071 49.4152 61.7103 73.9055C50.9135 98.3957 59.3637 125.621 80.2845 134.844C101.205 144.068 127.004 131.941 137.801 107.451C148.598 82.9607 140.148 55.7353 119.227 46.5121ZM60.3378 73.3004C71.3824 48.248 97.971 35.5019 119.832 45.1395C141.693 54.7772 150.218 83.0037 139.173 108.056C128.129 133.108 101.54 145.855 79.6794 136.217C57.8184 126.579 49.2932 98.3527 60.3378 73.3004Z" fill="#1F2024"/>
<path d="M123.764 100.733C117.228 115.558 101.704 123.068 89.0894 117.507C76.4751 111.946 71.5476 95.4192 78.0836 80.5938C84.6195 65.7684 100.144 58.2582 112.758 63.8194C125.373 69.3806 130.3 85.9072 123.764 100.733Z" fill="white"/>
<path fill-rule="evenodd" clip-rule="evenodd" d="M112.457 64.5062C100.321 59.1561 85.1873 66.3424 78.7707 80.8969C72.3542 95.4514 77.2573 111.471 89.3929 116.821C101.528 122.171 116.662 114.985 123.079 100.431C129.495 85.8761 124.592 69.8563 112.457 64.5062ZM77.3982 80.2918C84.0536 65.1955 99.9686 57.3614 113.062 63.1337C126.155 68.9059 131.107 85.9394 124.451 101.036C117.796 116.132 101.881 123.966 88.7878 118.194C75.6947 112.422 70.7428 95.3881 77.3982 80.2918Z" fill="#1F2024"/>
<path fill-rule="evenodd" clip-rule="evenodd" d="M145.134 47.939C145.2 47.1875 145.601 46.5057 146.227 46.0839L160.583 36.4003C162.326 35.2244 164.654 36.5954 164.471 38.6904L163.563 49.0909L173.547 52.1449C175.558 52.7601 175.957 55.4322 174.213 56.6081L159.857 66.2917C159.231 66.7135 158.449 66.8304 157.728 66.6097L148.096 63.6635L114.094 86.5985L116.099 89.5716C116.609 90.3281 116.164 91.3585 115.263 91.5045L99.4762 94.0639C98.4239 94.2345 97.6547 93.0941 98.2071 92.1823L106.494 78.5039C106.967 77.7235 108.089 77.6962 108.599 78.4526L110.599 81.417L144.219 58.7399C144.211 58.6141 144.213 58.485 144.225 58.3529L145.134 47.939Z" fill="#1F2024"/>
<path fill-rule="evenodd" clip-rule="evenodd" d="M96.9245 91.4055L105.211 77.7271C106.251 76.0103 108.721 75.9502 109.843 77.6143L111.004 79.3352L142.757 57.9173L143.64 47.809C143.745 46.6065 144.387 45.5158 145.388 44.8408L159.744 35.1573C162.534 33.2757 166.259 35.4694 165.966 38.8214L165.163 48.0122L173.986 50.711C177.203 51.6953 177.842 55.9706 175.052 57.8522L160.696 67.5357C159.695 68.2107 158.443 68.3977 157.289 68.0446L148.342 65.3077L116.176 87.0038L117.343 88.7333C118.466 90.3974 117.485 92.6644 115.503 92.9857L99.7166 95.545C97.4015 95.9203 95.7092 93.4115 96.9245 91.4055ZM148.097 63.664L157.728 66.6102C158.449 66.8309 159.232 66.714 159.857 66.2922L174.214 56.6086C175.957 55.4326 175.558 52.7605 173.547 52.1454L163.563 49.0914L164.472 38.6909C164.655 36.5959 162.327 35.2248 160.583 36.4008L146.227 46.0844C145.601 46.5062 145.2 47.1879 145.134 47.9395L144.225 58.3534C144.213 58.4854 144.212 58.6146 144.219 58.7404L110.599 81.4175L108.6 78.453C108.089 77.6966 106.967 77.724 106.494 78.5043L98.2074 92.1828C97.655 93.0946 98.4242 94.235 99.4766 94.0644L115.263 91.505C116.164 91.359 116.61 90.3285 116.1 89.5721L114.094 86.599L148.097 63.664Z" fill="white"/>
<path d="M158.75 137.5C158.75 149.236 149.236 158.75 137.5 158.75C125.764 158.75 116.25 149.236 116.25 137.5C116.25 125.764 125.764 116.25 137.5 116.25C149.236 116.25 158.75 125.764 158.75 137.5Z" fill="#0074FF"/>
<path fill-rule="evenodd" clip-rule="evenodd" d="M137.5 117C126.178 117 117 126.178 117 137.5C117 148.822 126.178 158 137.5 158C148.822 158 158 148.822 158 137.5C158 126.178 148.822 117 137.5 117ZM115.5 137.5C115.5 125.35 125.35 115.5 137.5 115.5C149.65 115.5 159.5 125.35 159.5 137.5C159.5 149.65 149.65 159.5 137.5 159.5C125.35 159.5 115.5 149.65 115.5 137.5Z" fill="#1F2024"/>
<path fill-rule="evenodd" clip-rule="evenodd" d="M140.044 138.849C138.191 140.849 136.406 142.778 134.904 144.279L134.374 144.81L128.844 139.279L129.904 138.219L134.371 142.686C135.736 141.293 137.308 139.596 138.953 137.819C139.04 137.725 139.127 137.631 139.214 137.536C141.166 135.429 143.207 133.231 145.094 131.344L146.154 132.404C144.291 134.268 142.27 136.444 140.315 138.556C140.224 138.653 140.134 138.751 140.044 138.849Z" fill="white"/>
</svg>
