<svg width="200" height="200" viewBox="0 0 200 200" fill="none" xmlns="http://www.w3.org/2000/svg">
<path d="M100.212 200C116.208 200 129.175 198.601 129.175 196.875C129.175 195.149 116.208 193.75 100.212 193.75C84.217 193.75 71.25 195.149 71.25 196.875C71.25 198.601 84.217 200 100.212 200Z" fill="#1F2024"/>
<path fill-rule="evenodd" clip-rule="evenodd" d="M145.069 88.75L145.339 89.8838C145.726 91.5093 146.493 93.039 147.586 94.368C148.68 95.6971 150.074 96.794 151.675 97.5837L152.5 97.9911L143.643 105.973V112.583L147.866 115.635V130L131.25 118.214V101.395L145.069 88.75ZM144.301 91.2456L132.635 101.92V117.593L146.481 127.414V116.249L142.258 113.198V105.442L150.215 98.2714C148.773 97.4427 147.507 96.3788 146.479 95.1305C145.514 93.9569 144.778 92.6424 144.301 91.2456Z" fill="#1D1D1B"/>
<path d="M132.635 117.593V101.92L144.301 91.2456C144.778 92.6424 145.514 93.9569 146.479 95.1305C147.507 96.3788 148.773 97.4427 150.215 98.2714L142.258 105.442V113.198L146.481 116.249V127.414L132.635 117.593Z" fill="white"/>
<path fill-rule="evenodd" clip-rule="evenodd" d="M145.142 88.5146L145.461 89.8552C145.843 91.4616 146.601 92.9741 147.683 94.2889C148.765 95.6038 150.145 96.6898 151.73 97.472L152.721 97.9609L143.768 106.029V112.52L147.991 115.572V130.242L131.125 118.279V101.34L145.142 88.5146ZM131.375 101.45V118.15L147.741 129.758V115.699L143.518 112.648V105.918L152.279 98.0219L151.619 97.6961C150.004 96.8989 148.595 95.791 147.49 94.4478C146.385 93.1045 145.609 91.5576 145.218 89.9131L144.997 88.986L131.375 101.45ZM144.358 91.0247L144.42 91.2056C144.891 92.5878 145.62 93.8892 146.576 95.0514C147.593 96.2877 148.848 97.3419 150.277 98.1634L150.426 98.2493L142.383 105.498V113.134L146.606 116.186V127.656L132.51 117.658V101.865L144.358 91.0247ZM132.76 101.976V117.529L146.356 127.172V116.314L142.133 113.262V105.387L150.004 98.2935C148.611 97.4704 147.384 96.4275 146.383 95.2102C145.45 94.0758 144.728 92.8104 144.246 91.466L132.76 101.976Z" fill="black"/>
<path fill-rule="evenodd" clip-rule="evenodd" d="M163.244 88.75L176.25 101.395V118.214L173.121 120.574L160.612 130V115.635L164.598 112.583V105.973L156.25 97.9914L157.027 97.5837C158.533 96.794 159.846 95.6971 160.875 94.368C161.904 93.039 162.626 91.5093 162.99 89.8838L163.244 88.75ZM163.967 91.2456C163.518 92.6424 162.826 93.9569 161.917 95.1305C160.95 96.3786 159.759 97.4424 158.402 98.2711L165.902 105.442V113.198L161.916 116.25V127.414L172.322 119.573L174.946 117.593V101.92L163.967 91.2456Z" fill="#1D1D1B"/>
<path d="M161.917 95.1305C162.826 93.9569 163.518 92.6424 163.967 91.2456L174.946 101.92V117.593L172.322 119.573L161.916 127.414V116.25L165.902 113.198V105.442L158.402 98.2711C159.759 97.4424 160.95 96.3786 161.917 95.1305Z" fill="white"/>
<path fill-rule="evenodd" clip-rule="evenodd" d="M163.17 88.5049L176.374 101.343V118.276L173.196 120.674L160.486 130.251V115.573L164.472 112.521V106.027L156.037 97.9618L156.969 97.4733C158.459 96.6919 159.758 95.6065 160.776 94.2918C161.794 92.9771 162.507 91.4642 162.867 89.8568L163.17 88.5049ZM163.316 88.9957L163.111 89.9115C162.743 91.555 162.013 93.1014 160.973 94.4449C159.933 95.7882 158.606 96.8968 157.085 97.6947L156.461 98.0216L164.722 105.92V112.645L160.736 115.697V129.75L173.045 120.475L176.124 118.152V101.448L163.316 88.9957ZM163.909 91.0158L175.07 101.868V117.656L172.397 119.673L161.79 127.665V116.189L165.776 113.137V105.496L158.198 98.2495L158.336 98.1647C159.68 97.3438 160.86 96.2903 161.817 95.0543C162.717 93.8921 163.403 92.5906 163.847 91.2077L163.909 91.0158ZM164.022 91.4748C163.568 92.8145 162.891 94.0759 162.015 95.2073C161.072 96.4251 159.917 97.4689 158.604 98.2927L166.026 105.389V113.26L162.04 116.312V127.163L172.246 119.473L174.82 117.531V101.973L164.022 91.4748Z" fill="black"/>
<path d="M37.6973 73.8457L84.8438 39.6112L95.5368 53.4074L48.3903 87.642L37.6973 73.8457Z" fill="white"/>
<path fill-rule="evenodd" clip-rule="evenodd" d="M84.5489 41.6781L39.8299 74.1499L48.6852 85.575L93.4042 53.1032L84.5489 41.6781ZM37.6973 73.8457L48.3903 87.642L95.5368 53.4074L84.8438 39.6112L37.6973 73.8457Z" fill="black"/>
<path d="M153.105 73.8457L105.959 39.6112L95.2659 53.4074L142.412 87.642L153.105 73.8457Z" fill="white"/>
<path fill-rule="evenodd" clip-rule="evenodd" d="M106.254 41.6781L150.973 74.1499L142.118 85.575L97.3986 53.1032L106.254 41.6781ZM153.105 73.8457L142.412 87.642L95.2659 53.4074L105.959 39.6112L153.105 73.8457Z" fill="black"/>
<path d="M92.5251 136.46L52.4355 90.0259L37.6983 99.7205L71.2797 152.38L92.5251 136.46Z" fill="white"/>
<path fill-rule="evenodd" clip-rule="evenodd" d="M71.2797 152.38L37.6983 99.7205L52.4355 90.0259L92.5251 136.46L71.2797 152.38ZM90.3421 136.219L71.6746 150.207L39.7589 100.16L52.1642 91.999L90.3421 136.219Z" fill="black"/>
<path fill-rule="evenodd" clip-rule="evenodd" d="M86.875 129.119C74.3309 129.119 64.1619 139.028 64.1619 151.25C64.1619 163.472 74.3309 173.381 86.875 173.381C99.4191 173.381 109.588 163.472 109.588 151.25C109.588 139.028 99.4191 129.119 86.875 129.119ZM62.5 151.25C62.5 138.133 73.4131 127.5 86.875 127.5C100.337 127.5 111.25 138.133 111.25 151.25C111.25 164.367 100.337 175 86.875 175C73.4131 175 62.5 164.367 62.5 151.25Z" fill="#1F2024"/>
<path d="M64.1619 151.25C64.1619 139.028 74.3309 129.119 86.875 129.119C99.4191 129.119 109.588 139.028 109.588 151.25C109.588 163.472 99.4191 173.381 86.875 173.381C74.3309 173.381 64.1619 163.472 64.1619 151.25Z" fill="white"/>
<path d="M97.5 151.25C97.5 156.773 93.0228 161.25 87.5 161.25C81.9772 161.25 77.5 156.773 77.5 151.25C77.5 145.727 81.9772 141.25 87.5 141.25C93.0228 141.25 97.5 145.727 97.5 151.25Z" fill="#1F2024"/>
<path fill-rule="evenodd" clip-rule="evenodd" d="M38.75 72.9167C30.0055 72.9167 22.9167 80.0055 22.9167 88.75C22.9167 97.4945 30.0055 104.583 38.75 104.583C47.4945 104.583 54.5833 97.4945 54.5833 88.75C54.5833 80.0055 47.4945 72.9167 38.75 72.9167ZM21.25 88.75C21.25 79.085 29.085 71.25 38.75 71.25C48.415 71.25 56.25 79.085 56.25 88.75C56.25 98.415 48.415 106.25 38.75 106.25C29.085 106.25 21.25 98.415 21.25 88.75Z" fill="#1F2024"/>
<path d="M22.9167 88.75C22.9167 80.0055 30.0055 72.9167 38.75 72.9167C47.4945 72.9167 54.5833 80.0055 54.5833 88.75C54.5833 97.4945 47.4945 104.583 38.75 104.583C30.0055 104.583 22.9167 97.4945 22.9167 88.75Z" fill="white"/>
<path d="M46.25 88.75C46.25 92.8921 42.8921 96.25 38.75 96.25C34.6079 96.25 31.25 92.8921 31.25 88.75C31.25 84.6079 34.6079 81.25 38.75 81.25C42.8921 81.25 46.25 84.6079 46.25 88.75Z" fill="#1F2024"/>
<path fill-rule="evenodd" clip-rule="evenodd" d="M95 26.6667C86.2555 26.6667 79.1667 33.7555 79.1667 42.5C79.1667 51.2445 86.2555 58.3333 95 58.3333C103.745 58.3333 110.833 51.2445 110.833 42.5C110.833 33.7555 103.745 26.6667 95 26.6667ZM77.5 42.5C77.5 32.835 85.335 25 95 25C104.665 25 112.5 32.835 112.5 42.5C112.5 52.165 104.665 60 95 60C85.335 60 77.5 52.165 77.5 42.5Z" fill="#1F2024"/>
<path d="M79.1667 42.5C79.1667 33.7555 86.2555 26.6667 95 26.6667C103.745 26.6667 110.833 33.7555 110.833 42.5C110.833 51.2445 103.745 58.3333 95 58.3333C86.2555 58.3333 79.1667 51.2445 79.1667 42.5Z" fill="white"/>
<path d="M102.5 42.5C102.5 46.6421 99.1421 50 95 50C90.8579 50 87.5 46.6421 87.5 42.5C87.5 38.3579 90.8579 35 95 35C99.1421 35 102.5 38.3579 102.5 42.5Z" fill="#1F2024"/>
<path fill-rule="evenodd" clip-rule="evenodd" d="M153.75 72.9167C145.005 72.9167 137.917 80.0055 137.917 88.75C137.917 97.4945 145.005 104.583 153.75 104.583C162.495 104.583 169.583 97.4945 169.583 88.75C169.583 80.0055 162.495 72.9167 153.75 72.9167ZM136.25 88.75C136.25 79.085 144.085 71.25 153.75 71.25C163.415 71.25 171.25 79.085 171.25 88.75C171.25 98.415 163.415 106.25 153.75 106.25C144.085 106.25 136.25 98.415 136.25 88.75Z" fill="#1F2024"/>
<path d="M137.917 88.75C137.917 80.0055 145.005 72.9167 153.75 72.9167C162.495 72.9167 169.583 80.0055 169.583 88.75C169.583 97.4945 162.495 104.583 153.75 104.583C145.005 104.583 137.917 97.4945 137.917 88.75Z" fill="white"/>
<path d="M161.25 88.75C161.25 92.8921 157.892 96.25 153.75 96.25C149.608 96.25 146.25 92.8921 146.25 88.75C146.25 84.6079 149.608 81.25 153.75 81.25C157.892 81.25 161.25 84.6079 161.25 88.75Z" fill="#1F2024"/>
</svg>
