<svg width="200" height="200" viewBox="0 0 200 200" fill="none" xmlns="http://www.w3.org/2000/svg">
<path d="M136.207 96.7673C138.881 95.937 140.902 94.3921 142.269 92.1325C143.345 90.3035 143.902 88.2277 143.94 85.9052C143.98 83.5143 143.462 81.7722 142.388 80.6787C142.259 80.5306 142.121 80.3952 141.975 80.2724L134.315 73.8446C133.088 72.8148 131.259 72.6775 128.827 73.4327L126.463 74.1666L134.123 80.5945L136.265 79.9294C136.166 82.07 135.614 83.9951 134.609 85.7046C134.426 86.0072 134.231 86.297 134.024 86.574L134.123 80.5945L126.463 74.1666L126.183 91.0734L133.843 97.5012L136.207 96.7673Z" fill="black"/>
<path fill-rule="evenodd" clip-rule="evenodd" d="M151.675 65.9183C151.252 65.5637 150.806 65.2565 150.335 64.9967L152.874 67.1269C155.53 70.2438 156.806 74.9446 156.702 81.2291C156.602 87.2404 155.258 92.3809 152.669 96.6505C150.863 99.59 148.64 101.843 146.001 103.41L153.559 115.563L164.841 113.213L172.501 119.64L176.106 125.769L176.251 125.89L179.992 132.437L180.466 131.963L188.126 138.39L193.126 159.64L170.001 156.515L162.341 150.088L166.716 145.713L160.874 134.644L148.126 137.765L140.466 131.338L137.545 125.17L137.447 125.089L133.514 117.349L133.218 135.208L120.826 139.056L113.166 132.628L114.299 64.2839L133.638 58.2789C137.984 56.9295 141.443 57.3334 144.015 59.4904L151.675 65.9183ZM141.299 64.7068L121.96 70.7118L120.973 130.204L125.557 128.781L125.992 102.55L133.653 108.977L144.513 130.346L156.993 127.29L164.653 133.718L174.134 151.681L185.466 153.213L182.09 138.863L177.455 134.974L169.098 120.35L157.977 122.666L150.317 116.238L138.341 96.9822C140.98 95.4153 143.202 93.1621 145.009 90.2226C147.597 85.953 148.941 80.8125 149.041 74.8012C149.113 70.443 148.522 66.8465 147.267 64.0117C145.509 63.7855 143.52 64.0172 141.299 64.7068Z" fill="black"/>
<path fill-rule="evenodd" clip-rule="evenodd" d="M134.315 73.8455C133.088 72.8158 131.259 72.6785 128.827 73.4336L126.463 74.1675L126.183 91.0743L133.843 97.5022L136.207 96.7682L136.652 98.2008L134.288 98.9347C133.8 99.086 133.27 98.9792 132.879 98.6512L125.218 92.2234C124.872 91.9328 124.675 91.5015 124.683 91.0494L124.963 74.1427C124.974 73.4948 125.399 72.9271 126.018 72.735L128.382 72.0011C131.002 71.1874 133.47 71.1785 135.279 72.6966L142.939 79.1243C143.135 79.2889 143.319 79.4681 143.489 79.6602C144.945 81.1654 145.482 83.3757 145.44 85.931C145.439 85.9618 145.439 85.9926 145.438 86.0234C146.761 82.7555 147.471 79.0149 147.541 74.7773C147.604 70.9859 147.145 67.8885 146.227 65.4336C144.927 65.3928 143.439 65.6139 141.744 66.1403L123.442 71.8232L122.507 128.158L124.076 127.671L124.493 102.526C124.502 101.947 124.843 101.426 125.37 101.186C125.896 100.946 126.513 101.03 126.957 101.402L134.617 107.829C134.772 107.959 134.898 108.119 134.99 108.299L145.311 128.608L156.636 125.834C157.1 125.72 157.591 125.835 157.957 126.142L165.618 132.57C165.766 132.695 165.889 132.847 165.98 133.019L175.1 150.299L183.507 151.435L180.744 139.693L176.49 136.124C176.355 136.01 176.24 135.873 176.152 135.719L168.336 122.041L158.283 124.136C157.833 124.229 157.365 124.112 157.013 123.816L149.353 117.388C149.231 117.287 149.127 117.166 149.043 117.032L137.215 98.0132C137.03 98.0791 136.842 98.1416 136.652 98.2008L136.207 96.7682C136.447 96.6936 136.682 96.6132 136.912 96.527C137.231 96.4075 137.539 96.2769 137.837 96.1352C139.718 95.2422 141.195 93.9083 142.269 92.1335C142.595 91.5792 142.873 91.0023 143.104 90.4028C143.635 89.0238 143.913 87.5249 143.94 85.9061C143.98 83.5153 143.462 81.7731 142.388 80.6796C142.259 80.5315 142.121 80.3961 141.975 80.2734L134.315 73.8455ZM144.439 91.1079C144.059 91.6695 143.663 92.2034 143.249 92.7098C143.246 92.7136 143.243 92.7173 143.24 92.7211C141.97 94.2754 140.541 95.5688 138.955 96.6014C138.753 96.7329 138.548 96.8601 138.341 96.9831L150.317 116.239L157.977 122.667L169.098 120.35L177.455 134.975L182.09 138.864L185.466 153.214L174.134 151.682L164.653 133.719L156.993 127.291L144.513 130.347L133.653 108.978L125.992 102.551L125.557 128.781L120.973 130.205L121.96 70.7127L141.299 64.7077C143.424 64.0479 145.337 63.8073 147.037 63.9858C147.114 63.9939 147.191 64.0028 147.267 64.0126C147.305 64.0986 147.342 64.1852 147.379 64.2726C148.557 67.0662 149.111 70.5761 149.041 74.8022C148.941 80.8134 147.597 85.9539 145.009 90.2236C144.823 90.5256 144.633 90.8204 144.439 91.1079ZM152.874 67.1279C155.53 70.2447 156.806 74.9455 156.702 81.23C156.602 87.2413 155.258 92.3818 152.669 96.6514C151.005 99.3601 148.987 101.486 146.615 103.029C146.413 103.161 146.208 103.288 146.001 103.411L153.559 115.564L164.841 113.214L172.501 119.641L176.106 125.77L176.251 125.891L179.992 132.437L180.466 131.964L188.126 138.391L193.126 159.641L170.001 156.516L162.341 150.089L166.716 145.714L160.874 134.645L148.126 137.766L140.466 131.339L137.545 125.171L137.447 125.09L133.514 117.35L133.218 135.209L120.826 139.057L113.166 132.629L114.299 64.2848L133.638 58.2799C137.984 56.9305 141.443 57.3343 144.015 59.4914L151.675 65.9192C151.252 65.5647 150.806 65.2574 150.335 64.9976L151.575 66.0383L152.874 67.1279ZM153.049 65.3171L153.838 65.9788C153.902 66.0325 153.961 66.0914 154.015 66.155C157.007 69.6654 158.309 74.793 158.201 81.2549C158.098 87.4777 156.704 92.8899 153.952 97.4291L153.947 97.4368C152.323 100.08 150.36 102.233 148.051 103.867L154.28 113.882L164.535 111.745C164.985 111.651 165.453 111.769 165.805 112.064L173.466 118.492C173.597 118.602 173.708 118.734 173.794 118.881L177.271 124.791C177.383 124.895 177.478 125.015 177.554 125.147L180.595 130.469C180.893 130.495 181.185 130.609 181.43 130.814L189.091 137.242C189.338 137.45 189.512 137.733 189.587 138.048L194.587 159.298C194.7 159.778 194.569 160.284 194.237 160.65C193.905 161.015 193.415 161.194 192.926 161.128L169.801 158.003C169.519 157.965 169.255 157.848 169.037 157.665L161.377 151.238C161.055 150.967 160.861 150.574 160.842 150.154C160.824 149.734 160.983 149.325 161.28 149.028L164.873 145.435L160.094 136.38L148.483 139.223C148.019 139.337 147.528 139.223 147.162 138.915L139.502 132.488C139.336 132.349 139.203 132.176 139.11 131.981L136.309 126.066C136.231 125.976 136.164 125.876 136.11 125.769L134.914 123.415L134.718 135.234C134.707 135.882 134.281 136.45 133.663 136.642L121.271 140.49C120.784 140.641 120.253 140.534 119.862 140.206L112.202 133.778C111.856 133.488 111.659 133.056 111.666 132.604L112.8 64.26C112.81 63.6121 113.236 63.0444 113.854 62.8523L133.194 56.8473C137.834 55.4063 141.883 55.7461 144.979 58.3421L152.637 64.7685C152.638 64.769 152.638 64.7695 152.639 64.77C152.822 64.9237 152.96 65.112 153.049 65.3171ZM134.123 80.5954L134.024 86.5749C134.231 86.298 134.426 86.0082 134.609 85.7056C134.998 85.043 135.32 84.348 135.573 83.6206C135.804 82.9584 135.979 82.2693 136.097 81.5534C136.183 81.0269 136.24 80.4858 136.265 79.9303L134.123 80.5954Z" fill="black"/>
<path fill-rule="evenodd" clip-rule="evenodd" d="M141.299 64.7067L121.959 70.7116L120.826 139.056L133.218 135.208L133.653 108.977L145.108 131.516L145.159 131.5L148.126 137.765L164.653 133.718L174.376 152.14L171.786 154.731C171.054 155.462 171.477 156.715 172.502 156.853L193.126 159.64L188.64 140.575C188.416 139.621 187.232 139.285 186.54 139.977L185.115 141.402L176.251 125.89L176.188 125.908L172.501 119.64L157.977 122.666L146.001 103.41C148.64 101.843 150.863 99.5898 152.669 96.6504C155.258 92.3807 156.602 87.2402 156.701 81.229C156.806 74.9444 155.53 70.2437 152.874 67.1269C150.219 63.9417 146.36 63.135 141.299 64.7067ZM133.843 97.5011L134.123 80.5943L136.487 79.8604C139.209 79.0153 141.176 79.288 142.388 80.6785C143.462 81.772 143.98 83.5142 143.94 85.905C143.901 88.2276 143.344 90.3034 142.269 92.1324C140.901 94.3919 138.881 95.9368 136.207 96.7672L133.843 97.5011Z" fill="white"/>
<path fill-rule="evenodd" clip-rule="evenodd" d="M120.477 69.6011L140.853 63.2742C143.546 62.4378 146.045 62.1943 148.295 62.6648C150.57 63.1406 152.488 64.326 154.019 66.1602C157.007 69.6704 158.307 74.7957 158.2 81.2539C158.097 87.4766 156.703 92.8888 153.951 97.4281L153.946 97.4358C152.322 100.079 150.359 102.232 148.05 103.866L158.696 120.984L173.248 117.952L176.898 124.159L176.976 124.138L185.442 138.952L185.478 138.916C187.001 137.393 189.606 138.134 190.099 140.231L195.085 161.419L172.301 158.34C170.045 158.035 169.115 155.279 170.724 153.67L172.532 151.862L163.872 135.453L147.293 139.513L144.359 133.319L144.343 133.324L135.051 115.042L134.698 136.319L119.291 141.103L120.477 69.6011ZM133.652 108.977L145.107 131.516L145.158 131.501L148.125 137.765L164.652 133.718L174.375 152.14L171.785 154.731C171.053 155.462 171.476 156.715 172.501 156.853L193.125 159.64L188.639 140.575C188.415 139.621 187.231 139.285 186.539 139.977L185.114 141.402L176.25 125.89L176.187 125.908L172.5 119.64L157.976 122.666L146 103.41C146.207 103.287 146.412 103.16 146.614 103.028C148.985 101.485 151.003 99.3591 152.668 96.6504C155.257 92.3808 156.601 87.2403 156.7 81.229C156.805 74.9445 155.529 70.2438 152.872 67.1269C150.218 63.9418 146.359 63.135 141.298 64.7067L121.958 70.7117L120.825 139.056L133.217 135.208L133.652 108.977ZM142.387 80.6786C141.175 79.288 139.208 79.0153 136.486 79.8605L134.122 80.5944L133.842 97.5011L136.205 96.7672C138.88 95.9369 140.9 94.392 142.268 92.1324C143.343 90.3034 143.9 88.2276 143.939 85.9051C143.979 83.5142 143.461 81.7721 142.387 80.6786ZM140.98 91.364C141.909 89.7808 142.405 87.9655 142.439 85.8802C142.476 83.6719 141.986 82.4111 141.317 81.7299L141.285 81.698L141.256 81.6642C140.628 80.9436 139.434 80.5158 136.931 81.293L135.604 81.7049L135.376 95.4541L135.761 95.3347C138.104 94.607 139.814 93.2853 140.98 91.364Z" fill="black"/>
<path fill-rule="evenodd" clip-rule="evenodd" d="M116.574 70.5216L115.391 141.865L100.736 146.416L93.076 139.988L80.6853 120.576L80.1508 152.808L52.5526 161.377L44.8922 154.949L44.2643 152.534L34.6438 155.521L31.2304 167.998L15.1604 172.988L7.5 166.56L24.9461 100.217C26.5988 93.9323 30.7148 88.3752 35.6547 86.8413L39.61 90.1602C39.6101 90.1602 39.6099 90.1602 39.61 90.1602L35.6547 86.8413C38.4009 85.9885 40.8474 86.5508 42.7298 88.1309L50.3878 94.5567L50.3619 94.5351L50.3901 94.5588C51.9134 95.8375 53.0673 97.7828 53.7118 100.184L57.8245 115.507L58.417 79.7734L73.0717 75.223L80.7322 81.6509L93.1228 101.063L93.6572 68.831L108.914 64.0938L116.574 70.5216ZM43.2654 96.2687C40.0792 97.2581 36.7906 101.127 35.3515 106.599L34.6161 109.396L36.5888 108.777L44.2493 115.205L49.677 137.397L35.4041 141.829L27.7713 135.425L22.3496 156.042L24.8892 146.759L44.3941 140.703L52.0545 147.131L52.6825 149.546L57.2837 148.118L57.2918 147.631L43.489 96.204C43.4145 96.224 43.34 96.2456 43.2654 96.2687ZM45.7842 92.8722C45.0413 92.8752 44.2655 92.9893 43.4636 93.2244L46.6194 95.8725L46.0515 93.7563C45.9704 93.4543 45.8812 93.1594 45.7842 92.8722ZM79.0208 85.1664L76.4251 82.9882L77.763 82.5728L93.0327 106.496L95.8438 108.855L95.8007 111.455L79.0208 85.1664ZM95.7106 116.888L76.0517 86.0883L68.8928 88.3112L67.956 144.804L69.6752 144.27L70.437 98.3232L78.0975 104.751L97.7564 135.551L104.915 133.328L105.852 76.8351L104.133 77.3688L103.371 123.316L95.7106 116.888ZM77.9643 112.784L80.7754 115.143L96.0451 139.066L97.3831 138.651L94.7873 136.473L78.0074 110.184L77.9643 112.784Z" fill="black"/>
<path fill-rule="evenodd" clip-rule="evenodd" d="M52.553 161.376L49.8066 150.812L34.6442 155.52L31.2307 167.997L15.1607 172.986L32.6069 106.643C34.2596 100.359 38.3756 94.8015 43.3155 93.2676C48.2841 91.7248 52.2712 94.8137 53.7122 100.183L65.1399 142.761L66.0778 86.1997L80.7325 81.6493L100.693 112.922L101.318 75.2574L116.574 70.5201L115.391 141.864L100.737 146.414L80.7758 115.142L80.1512 152.806L52.553 161.376ZM68.0442 153.582L77.3359 150.696L78.0978 104.75L102.448 142.899L112.576 139.754L113.66 74.4093L104.133 77.3673L103.371 123.314L79.0212 85.1648L68.8931 88.3097L67.8244 152.763L68.0442 153.582ZM64.9526 154.058L64.9445 154.544L54.8012 157.694L52.0548 147.129L32.55 153.186L29.1365 165.663L18.9912 168.813L35.3518 106.598C36.7909 101.125 40.0795 97.2566 43.2657 96.2672C46.4703 95.2722 49.6807 97.1567 50.9368 101.837L64.9526 154.058ZM35.4045 141.828L41.4705 116.075L44.2497 115.203L49.6774 137.396L35.4045 141.828ZM46.0429 135.54L42.7717 122.165L39.1143 137.692L46.0429 135.54Z" fill="black"/>
<path d="M53.6768 159.536L50.9304 148.972L33.5968 154.354L30.1833 166.831L17.0757 170.901L33.9791 106.622C35.525 100.743 39.2273 96.0303 43.2904 94.7687L-nan -nanL43.2904 94.7687C47.3769 93.4998 50.9757 95.9865 52.3243 101.011L66.9277 155.421L53.6768 159.536ZM37.2592 139.761L47.8599 136.469L42.8549 116.005L37.2592 139.761Z" fill="white"/>
<path d="M78.7433 151.753L66.3519 155.6L67.4852 87.256L79.8766 83.4083L102.032 118.119L102.725 76.3136L115.117 72.4659L113.984 140.81L101.592 144.658L79.4365 109.947L78.7433 151.753Z" fill="white"/>
</svg>
