<svg width="200" height="200" viewBox="0 0 200 200" fill="none" xmlns="http://www.w3.org/2000/svg">
<path d="M77.5 151.875C77.5 164.647 69.3852 175 59.375 175C49.3648 175 41.25 164.647 41.25 151.875C41.25 139.103 49.3648 128.75 59.375 128.75C69.3852 128.75 77.5 139.103 77.5 151.875Z" fill="#1F2024"/>
<path fill-rule="evenodd" clip-rule="evenodd" d="M59.375 129.5C49.939 129.5 42 139.337 42 151.875C42 164.413 49.939 174.25 59.375 174.25C68.811 174.25 76.75 164.413 76.75 151.875C76.75 139.337 68.811 129.5 59.375 129.5ZM40.5 151.875C40.5 138.87 48.7907 128 59.375 128C69.9593 128 78.25 138.87 78.25 151.875C78.25 164.88 69.9593 175.75 59.375 175.75C48.7907 175.75 40.5 164.88 40.5 151.875Z" fill="#1F2024"/>
<path d="M111.875 62.5L21.875 78.125L55.625 88.75L158.125 68.75L111.875 62.5Z" fill="#1F2024"/>
<path d="M61.0706 79.2959C63.5007 81.8658 62.8458 86.602 59.0024 89.8813C55.159 93.1606 50.1265 93.2752 47.6734 90.6997C45.2203 88.1243 45.9499 83.3936 49.7703 80.1143C53.5907 76.835 58.6462 76.7314 61.0706 79.2959Z" fill="#FFE463"/>
<path d="M52.9418 92.497C51.9913 92.5247 51.0454 92.3609 50.1659 92.0162C49.2864 91.6715 48.4931 91.1538 47.8379 90.4968C45.0635 87.5544 46.0172 82.4079 49.9766 79.0302C53.936 75.6525 59.3866 75.3053 62.1611 78.2477C64.9355 81.1957 63.9818 86.3421 60.0398 89.7144C58.2332 91.3098 55.9166 92.2801 53.462 92.4694L52.9418 92.497ZM57.0861 77.3441C54.718 77.4175 52.4586 78.3085 50.728 79.8512C47.2599 82.8212 46.3467 87.2679 48.6934 89.7695C49.2984 90.3559 50.0334 90.8058 50.8446 91.0861C51.6557 91.3664 52.5224 91.4701 53.3811 91.3894C55.579 91.2042 57.6476 90.3192 59.2537 88.8768C62.7217 85.9013 63.6408 81.4602 61.2941 78.9585C60.7524 78.4209 60.0972 77.999 59.3719 77.7207C58.6465 77.4424 57.8674 77.314 57.0861 77.3441Z" fill="#1F2024"/>
<path d="M72.317 81.9506C74.7504 84.7289 74.1004 89.8659 70.2461 93.4186C66.3917 96.9713 61.3581 97.0837 58.9305 94.2994C56.5028 91.5152 57.1471 86.3841 61.0014 82.8314C64.8558 79.2787 69.8894 79.1663 72.317 81.9506Z" fill="#FFE463"/>
<path d="M63.7194 96.247C62.8355 96.2748 61.9558 96.111 61.1378 95.7664C60.3198 95.4218 59.5819 94.9041 58.9721 94.2471C56.3998 91.2995 57.2859 86.1593 60.9483 82.782C64.6108 79.4048 69.6964 79.0522 72.2741 81.9997C74.8518 84.9472 73.9657 90.0875 70.2978 93.4647C68.6208 95.0588 66.4706 96.0289 64.1919 96.2194L63.7194 96.247ZM67.5644 81.0906C65.3629 81.1626 63.2626 82.0558 61.6572 83.6029C58.4351 86.5725 57.5812 91.0186 59.7615 93.5198C60.322 94.1085 61.0047 94.5598 61.7587 94.8402C62.5128 95.1207 63.3188 95.223 64.1167 95.1396C66.1543 94.9637 68.0746 94.0884 69.5675 92.6548C72.7896 89.6853 73.6435 85.2392 71.4632 82.738C70.964 82.1959 70.3583 81.7687 69.6862 81.4847C69.0141 81.2007 68.2909 81.0664 67.5644 81.0906Z" fill="#1F2024"/>
<path d="M68.5714 74.3028C70.9986 76.8723 70.3487 81.6077 66.5007 84.8865C62.6527 88.1652 57.6141 88.2743 55.1811 85.6884C52.7481 83.1025 53.4038 78.3835 57.2518 75.1048C61.0998 71.826 66.1384 71.7387 68.5714 74.3028Z" fill="#FFE463"/>
<path d="M60.4466 88.7465C59.4959 88.7775 58.5496 88.6022 57.6695 88.232C56.7894 87.8618 55.9955 87.3051 55.3396 86.5983C52.5634 83.4235 53.5177 77.8809 57.468 74.2432C61.4183 70.6055 66.8839 70.2316 69.6601 73.4065C72.4363 76.5754 71.4819 82.1179 67.5375 85.7556C65.7298 87.4739 63.4117 88.5189 60.9556 88.7228L60.4466 88.7465ZM64.5935 72.4273C62.2238 72.5053 59.9625 73.465 58.2314 75.1274C54.7612 78.326 53.8416 83.1149 56.1956 85.809C56.7978 86.4433 57.532 86.9297 58.3433 87.2318C59.1545 87.5339 60.0218 87.644 60.8804 87.5537C63.0761 87.3624 65.1455 86.4199 66.7566 84.8774C70.2269 81.6788 71.1465 76.8899 68.7983 74.1957C68.2595 73.6121 67.6061 73.1527 66.8812 72.8478C66.1563 72.543 65.3765 72.3996 64.5935 72.4273Z" fill="#1F2024"/>
<path d="M109.817 74.2961C112.25 76.8665 111.6 81.6033 107.746 84.8831C103.892 88.1629 98.8581 88.272 96.4305 85.7017C94.0028 83.1313 94.6471 78.3945 98.5014 75.1147C102.356 71.8349 107.389 71.7312 109.817 74.2961Z" fill="#FFE463"/>
<path d="M100.445 88.7467C99.4942 88.7769 98.5484 88.6012 97.6687 88.2311C96.789 87.8609 95.9952 87.3046 95.3391 86.5984C92.5638 83.4236 93.5178 77.881 97.4668 74.2432C101.416 70.6055 106.886 70.2316 109.661 73.4065C112.436 76.5754 111.482 82.118 107.533 85.7558C105.728 87.4728 103.412 88.5177 100.959 88.7229L100.445 88.7467ZM104.59 72.4273C102.221 72.5043 99.96 73.4641 98.23 75.1274C94.7609 78.326 93.8416 83.115 96.189 85.8092C96.792 86.4439 97.5269 86.9305 98.3389 87.2327C99.1509 87.5348 100.019 87.6446 100.878 87.5539C103.072 87.3645 105.139 86.4216 106.747 84.8775C110.216 81.6789 111.135 76.8899 108.788 74.1958C108.25 73.6129 107.598 73.1539 106.874 72.8491C106.15 72.5442 105.372 72.4005 104.59 72.4273Z" fill="#1F2024"/>
<path d="M76.0713 79.2964C78.4987 81.8671 77.8487 86.6046 74.0006 89.8849C70.1526 93.1652 65.1139 93.2689 62.6808 90.7036C60.2477 88.1383 60.9035 83.3954 64.7573 80.1151C68.6111 76.8348 73.644 76.7311 76.0713 79.2964Z" fill="#FFE463"/>
<path d="M67.4683 92.497C66.5852 92.5247 65.7063 92.3609 64.8891 92.0162C64.0719 91.6715 63.3348 91.1538 62.726 90.4968C60.1482 87.5544 61.0343 82.4079 64.7024 79.0302C68.3705 75.6525 73.4458 75.3053 76.0236 78.2477C78.6015 81.1957 77.7154 86.3421 74.0526 89.7144C72.3741 91.3098 70.2216 92.2801 67.9409 92.4694L67.4683 92.497ZM71.319 77.3441C69.1187 77.4175 67.0193 78.3085 65.4113 79.8512C62.189 82.8212 61.3404 87.2679 63.5209 89.7695C64.0824 90.3551 64.7645 90.8046 65.5172 91.0849C66.2699 91.3652 67.0741 91.4692 67.8711 91.3894C69.9152 91.2054 71.8393 90.3203 73.333 88.8768C76.5553 85.9013 77.4093 81.4602 75.2288 78.9585C74.7255 78.4209 74.1168 77.999 73.4428 77.7207C72.7688 77.4424 72.0449 77.314 71.319 77.3441Z" fill="#1F2024"/>
<path d="M84.6787 68.9201C85.9243 72.1818 83.4734 76.3771 78.6234 78.0793C73.7733 79.7816 69.0668 78.0793 67.8213 74.8231C66.5757 71.5668 69.0266 67.3661 73.8766 65.6693C78.7267 63.9725 83.4332 65.6638 84.6787 68.9201Z" fill="#FFE463"/>
<path d="M74.8802 79.9998C73.8947 80.0061 72.9148 79.8339 71.9789 79.4899C71.0515 79.1878 70.1975 78.6559 69.4806 77.9338C68.7638 77.2117 68.2029 76.3182 67.8398 75.3203C66.5103 71.2706 69.2015 66.4351 73.8359 64.5213C78.4703 62.6075 83.3308 64.3833 84.6603 68.4329C85.9898 72.4825 83.2985 77.3121 78.6587 79.2319C77.4489 79.7311 76.1702 79.9909 74.8802 79.9998ZM77.6414 65.0012C76.4709 65.0096 75.3107 65.2451 74.2127 65.6972C70.1327 67.359 67.7536 71.5046 68.8301 74.9303C69.1407 75.7563 69.6132 76.4943 70.213 77.0902C70.8129 77.6861 71.5248 78.1248 72.2965 78.374C74.2566 79.04 76.3605 78.9533 78.2712 78.128C82.3512 76.4602 84.7303 72.3205 83.6537 68.8949C82.8464 66.3991 80.4403 64.9772 77.6414 64.9772V65.0012Z" fill="#1F2024"/>
<path d="M136.61 81.6058C135.293 85.1278 137.664 89.7225 142.493 91.6831C147.321 93.6437 152.07 91.8917 153.388 88.3816C154.706 84.8715 152.357 80.253 147.511 78.3103C142.665 76.3675 137.934 78.0957 136.61 81.6058Z" fill="#FFE463"/>
<path d="M145.918 92.5C144.452 92.4914 142.999 92.2237 141.635 91.7104C139.317 90.8916 137.355 89.3531 136.066 87.3427C135.511 86.5044 135.162 85.5576 135.044 84.5728C134.927 83.5881 135.044 82.5908 135.387 81.6553C136.9 77.9613 142.163 76.4428 147.112 78.2815C149.431 79.0964 151.395 80.6309 152.688 82.6382C153.242 83.4758 153.59 84.4219 153.707 85.4058C153.823 86.3897 153.705 87.3859 153.36 88.32C152.952 89.2308 152.333 90.0418 151.549 90.692C150.765 91.3423 149.837 91.8151 148.834 92.0748C147.889 92.3539 146.907 92.4972 145.918 92.5ZM136.471 82.075C136.189 82.8537 136.094 83.683 136.195 84.5013C136.295 85.3196 136.588 86.1058 137.051 86.8016C138.242 88.5646 139.988 89.9236 142.038 90.6843C144.089 91.445 146.34 91.5684 148.468 91.0367C149.305 90.8255 150.081 90.4373 150.738 89.901C151.395 89.3647 151.917 88.6941 152.265 87.939C152.545 87.1591 152.638 86.3292 152.538 85.5104C152.438 84.6915 152.146 83.9044 151.685 83.2069C150.522 81.423 148.765 80.0621 146.695 79.3417C142.331 77.7238 137.746 78.9552 136.471 82.1026V82.075Z" fill="#1F2024"/>
<path d="M86.0715 74.3028C88.4992 76.8723 87.8491 81.6077 83.9947 84.8865C80.1403 88.1652 75.1066 88.2743 72.6789 85.6884C70.2512 83.1025 70.9012 78.3835 74.7499 75.1048C78.5985 71.826 83.638 71.7387 86.0715 74.3028Z" fill="#FFE463"/>
<path d="M77.9469 88.7465C76.9963 88.7775 76.0499 88.6022 75.1698 88.232C74.2898 87.8618 73.4958 87.3051 72.8399 86.5983C70.0637 83.4235 71.018 77.8809 74.9625 74.2432C78.907 70.6055 84.3842 70.2316 87.1604 73.4065C89.9366 76.5754 88.9823 82.1179 85.032 85.7556C83.2259 87.4727 80.91 88.5176 78.4559 88.7228L77.9469 88.7465ZM82.0881 72.4273C79.7183 72.5053 77.4571 73.465 75.726 75.1274C72.2558 78.326 71.3362 83.1149 73.6843 85.809C74.2879 86.4412 75.0224 86.9257 75.8334 87.2267C76.6445 87.5277 77.5111 87.6375 78.3692 87.5478C80.5649 87.3565 82.6343 86.414 84.2454 84.8714C87.7157 81.6729 88.6295 76.8839 86.2813 74.1898C85.7433 73.6088 85.0915 73.1514 84.3687 72.8476C83.646 72.5438 82.8687 72.4006 82.0881 72.4273Z" fill="#1F2024"/>
<path d="M96.8417 80.8163C95.0784 83.7795 90.0531 84.7743 85.3981 82.508C80.7431 80.2418 78.8975 75.8901 80.6549 72.9323C82.4123 69.9744 87.4494 68.9743 92.1044 71.2405C96.7594 73.5068 98.605 77.8532 96.8417 80.8163Z" fill="#FFE463"/>
<path d="M90.4909 85C88.6932 84.9783 86.9285 84.4854 85.3544 83.5653C80.906 81.0284 78.8139 75.9836 80.6858 72.2745C82.5576 68.5653 87.7052 67.6438 92.1536 70.1807C94.2393 71.3196 95.903 73.1683 96.8772 75.4296C97.2973 76.3765 97.5101 77.4117 97.4996 78.4579C97.4891 79.5042 97.2557 80.5344 96.8167 81.4716C96.3209 82.3768 95.6377 83.151 94.8185 83.7359C93.9993 84.3208 93.0656 84.7012 92.0875 84.8484C91.5606 84.9488 91.0263 84.9995 90.4909 85ZM86.9785 69.8891C84.6552 69.8891 82.6237 70.9039 81.6547 72.8052C80.0692 75.9312 81.963 80.2877 85.8719 82.5214C87.6993 83.6145 89.8205 84.0253 91.8948 83.6878C92.7086 83.5704 93.4868 83.2598 94.1712 82.7791C94.8557 82.2984 95.4288 81.66 95.8477 80.9117C96.2047 80.1277 96.3901 79.2685 96.3901 78.3981C96.3901 77.5277 96.2047 76.6685 95.8477 75.8845C94.9689 73.8714 93.4782 72.2286 91.614 71.2188C90.1957 70.3783 88.6034 69.9216 86.9785 69.8891Z" fill="#1F2024"/>
<path d="M91.25 81.4674C91.25 81.61 91.1996 81.8954 90.8245 82.303C90.3007 82.8283 89.7061 83.2397 89.0667 83.5191C84.8703 85.2609 80.3451 85.4711 76.0512 84.1238C75.3966 83.9056 74.7788 83.5491 74.2262 83.0707C73.8287 82.7038 73.756 82.3913 73.7504 82.2826C73.7448 82.1739 73.8007 81.8546 74.1702 81.447C74.6956 80.9246 75.2899 80.5134 75.928 80.2309C80.1245 78.4891 84.6497 78.2789 88.9436 79.6262C89.5985 79.8456 90.2177 80.1995 90.7742 80.6725C91.1828 81.0462 91.2444 81.3247 91.25 81.4674Z" fill="#FFE463"/>
<path d="M80.9448 84.9975C79.0074 85.0282 77.0759 84.7785 75.2116 84.2563C74.4876 84.0551 73.8047 83.7308 73.1934 83.2978C73.0063 83.1811 72.8472 83.0253 72.7275 82.8415C72.6077 82.6576 72.53 82.45 72.5 82.2333C72.5142 82.0152 72.5759 81.8026 72.681 81.6102C72.7861 81.4178 72.932 81.2502 73.1088 81.1188C73.686 80.6403 74.342 80.2634 75.0481 80.0042C79.3948 78.5293 84.0843 78.351 88.5328 79.4915C89.258 79.694 89.9426 80.0182 90.5566 80.45C90.7442 80.5661 90.9037 80.7217 91.0235 80.9057C91.1434 81.0897 91.2207 81.2975 91.25 81.5145C91.2358 81.7326 91.1741 81.9452 91.069 82.1376C90.9639 82.33 90.818 82.4976 90.6412 82.629C90.0634 83.1066 89.4076 83.4836 88.7019 83.7436C86.549 84.5152 84.2829 84.9331 81.9934 84.9808C81.6439 84.9919 81.2887 84.9975 80.9448 84.9975ZM73.6162 82.2111C73.6867 82.2989 73.7681 82.3775 73.8586 82.4451C74.3745 82.7938 74.9463 83.0538 75.5498 83.2142C79.7505 84.2781 84.1737 84.1097 88.2791 82.7293C88.8616 82.5273 89.4035 82.2255 89.8801 81.8377C89.9677 81.7658 90.0437 81.6813 90.1056 81.5869C90.0351 81.4991 89.9537 81.4204 89.8632 81.3528C89.3579 81.0035 88.7953 80.7433 88.2002 80.5838C83.9976 79.5197 79.5726 79.6882 75.4653 81.0686C74.885 81.2717 74.3451 81.5734 73.8699 81.9603C73.7853 82.0267 73.7095 82.1035 73.6444 82.1888L73.6162 82.2111Z" fill="#1F2024"/>
<path d="M99.9266 77.2351C99.9841 77.3537 100.008 77.4816 99.9975 77.6092C99.9866 77.7368 99.9409 77.8606 99.8639 77.9712C99.5487 78.4891 99.0938 78.9394 98.535 79.2867C96.6457 80.4562 94.4955 81.3006 92.21 81.7704C89.7736 82.3551 87.2357 82.5911 84.7044 82.4685C83.854 82.4268 83.0158 82.2795 82.2177 82.0316C81.8615 81.944 81.5492 81.7623 81.328 81.514C81.2674 81.3959 81.2415 81.2676 81.2524 81.1396C81.2633 81.0116 81.3107 80.8876 81.3907 80.7779C81.706 80.2599 82.1608 79.8097 82.7196 79.4624C84.6075 78.291 86.7582 77.4465 89.0446 76.9787C91.4815 76.3961 94.019 76.1601 96.5502 76.2806C97.3989 76.3218 98.2352 76.4691 99.0312 76.7175C99.3895 76.8041 99.7039 76.9859 99.9266 77.2351Z" fill="#FFE463"/>
<path d="M86.6266 83.75C86.1507 83.75 85.6921 83.75 85.2448 83.6923C84.3323 83.6363 83.4334 83.4416 82.5787 83.1148C82.0994 82.9589 81.6843 82.6485 81.3976 82.2313C81.294 82.0108 81.2437 81.7687 81.2506 81.5249C81.2576 81.281 81.3217 81.0423 81.4378 80.8281C81.7944 80.1178 82.306 79.4979 82.9342 79.0149C84.9057 77.5455 87.1497 76.4892 89.5335 75.9083C92.0474 75.1759 94.6674 74.8829 97.2795 75.0421C98.194 75.0975 99.0948 75.2922 99.9514 75.6195C100.42 75.7775 100.824 76.0883 101.098 76.503C101.204 76.7228 101.256 76.9652 101.249 77.2096C101.242 77.454 101.177 77.693 101.058 77.9062C100.705 78.614 100.195 79.2305 99.5672 79.7079C97.6004 81.1879 95.3581 82.2542 92.9737 82.8434C90.9068 83.4253 88.7727 83.7302 86.6266 83.75ZM82.4067 81.6827C82.5736 81.8576 82.7832 81.985 83.0145 82.0523C83.7621 82.3308 84.5466 82.4962 85.3423 82.5431C87.8187 82.693 90.3023 82.4176 92.687 81.7289C94.9049 81.1796 96.9948 80.1987 98.8391 78.8417C99.3216 78.4743 99.7139 78.0001 99.9858 77.4558C100.051 77.338 100.081 77.2036 100.072 77.0689C99.9009 76.8963 99.6901 76.7693 99.4583 76.6994C98.7236 76.4173 97.9499 76.2517 97.1649 76.2085C94.6875 76.0638 92.2038 76.345 89.8202 77.0401C87.601 77.5857 85.5104 78.5669 83.6681 79.9273C83.1926 80.3021 82.8017 80.7745 82.5214 81.3132C82.4566 81.4311 82.4287 81.5659 82.4411 81.7001L82.4067 81.6827Z" fill="#1F2024"/>
<path d="M120.004 84.7891C120.004 84.8955 120.116 85.093 120.566 85.3361C121.159 85.6429 121.806 85.8554 122.479 85.964C124.662 86.3159 126.895 86.3432 129.088 86.0451C131.294 85.8183 133.443 85.2674 135.451 84.4144C136.077 84.1568 136.648 83.802 137.138 83.3661C137.476 83.0318 137.509 82.8141 137.498 82.7128C137.487 82.6115 137.386 82.4039 136.936 82.1608C136.333 81.855 135.677 81.6443 134.995 81.5379C132.81 81.1835 130.575 81.1561 128.38 81.4569C126.175 81.6836 124.026 82.2327 122.017 83.0825C121.392 83.3442 120.821 83.7005 120.33 84.1358C120.02 84.4701 119.987 84.6828 120.004 84.7891Z" fill="#FFE463"/>
<path d="M125.173 87.4993C123.996 87.5107 122.821 87.3873 121.667 87.131C120.92 86.98 120.203 86.6857 119.547 86.2611C119.347 86.1473 119.173 85.986 119.035 85.7885C118.898 85.591 118.801 85.3622 118.751 85.1182C118.742 84.8679 118.782 84.6185 118.87 84.3878C118.957 84.1572 119.09 83.9512 119.257 83.7848C119.791 83.1847 120.414 82.6927 121.098 82.3307C125.322 80.2068 130.011 79.5137 134.584 80.337C135.328 80.4871 136.044 80.7815 136.698 81.2069C136.897 81.3192 137.073 81.4793 137.211 81.6757C137.35 81.8721 137.448 82.1 137.499 82.3434C137.508 82.5936 137.467 82.8428 137.379 83.0733C137.292 83.3037 137.16 83.5098 136.993 83.6768C136.462 84.2809 135.839 84.7735 135.152 85.1309C133.066 86.2358 130.831 86.9481 128.537 87.2389C127.422 87.4075 126.298 87.4944 125.173 87.4993ZM119.894 84.9595C119.974 85.0497 120.063 85.1286 120.161 85.1944C120.7 85.5414 121.291 85.778 121.905 85.8928C126.224 86.6552 130.648 85.9932 134.635 83.988C135.202 83.7021 135.719 83.3066 136.163 82.8197C136.245 82.7315 136.312 82.6285 136.362 82.5149C136.286 82.4225 136.198 82.3434 136.101 82.2799C135.561 81.9323 134.97 81.6937 134.356 81.5751C130.038 80.8202 125.616 81.4819 121.627 83.48C121.061 83.7715 120.546 84.1712 120.104 84.661C120.022 84.7493 119.951 84.8497 119.894 84.9595Z" fill="#1F2024"/>
<path d="M101.2 77.0554C101.146 77.1568 100.984 77.3169 100.507 77.4182C99.8601 77.5273 99.1991 77.5273 98.5521 77.4182C96.4526 77.0331 94.4312 76.312 92.568 75.2836C90.6695 74.3201 88.9428 73.0584 87.4557 71.548C87.0072 71.0772 86.6412 70.5361 86.3726 69.947C86.1939 69.5041 86.2481 69.28 86.3022 69.1786C86.3564 69.0772 86.5134 68.9171 86.99 68.821C87.6383 68.7181 88.2998 68.7271 88.945 68.8477C91.0453 69.2299 93.0672 69.9512 94.9291 70.9823C96.8288 71.9441 98.5557 73.206 100.041 74.7179C100.492 75.1874 100.858 75.7287 101.124 76.3189C101.303 76.7352 101.254 76.9593 101.2 77.0554Z" fill="#FFE463"/>
<path d="M100.245 78.75C99.7917 78.7471 99.3391 78.7084 98.8913 78.6342C96.5424 78.1801 94.2815 77.3301 92.1986 76.118C90.074 74.9847 88.1432 73.4987 86.483 71.719C85.9382 71.1322 85.4961 70.4519 85.1762 69.7085C85.069 69.4962 85.0091 69.2618 85.001 69.0225C84.9928 68.7831 85.0366 68.5449 85.1291 68.3254C85.2561 68.1255 85.4244 67.9573 85.6219 67.8329C85.8194 67.7086 86.0411 67.6313 86.271 67.6065C87.0499 67.4645 87.8467 67.4645 88.6256 67.6065C90.972 68.0658 93.2292 68.9221 95.3066 70.141C97.4298 71.2762 99.3587 72.7643 101.016 74.5461C101.558 75.1283 102 75.8021 102.323 76.5384C102.43 76.7507 102.49 76.9847 102.499 77.2238C102.508 77.4628 102.466 77.701 102.376 77.9214C102.248 78.1217 102.078 78.2905 101.88 78.4157C101.682 78.541 101.459 78.6198 101.228 78.6464C100.905 78.7148 100.575 78.7495 100.245 78.75ZM86.1828 68.9103C86.1949 69.032 86.2246 69.1512 86.271 69.2637C86.5403 69.8708 86.9087 70.4252 87.36 70.9026C88.9295 72.5758 90.7504 73.9749 92.7519 75.0457C94.7198 76.186 96.8526 76.9904 99.0679 77.4279C99.7008 77.5542 100.35 77.5666 100.987 77.4644C101.103 77.4418 101.216 77.4028 101.322 77.3487C101.308 77.2287 101.276 77.1117 101.228 77.0014C100.962 76.3938 100.596 75.8391 100.145 75.3625C96.9363 72.0539 92.8659 69.7844 88.4313 68.8311C87.7982 68.706 87.1489 68.6957 86.5124 68.8007C86.3973 68.8178 86.2859 68.8549 86.1828 68.9103Z" fill="#1F2024"/>
<path d="M83.75 64.0567C83.8258 64.3992 84.0282 64.6961 84.3127 64.8823C84.8836 65.3267 85.5344 65.6456 86.2259 65.8199C88.3988 66.3481 90.6537 66.3903 92.8432 65.9437C95.0971 65.5833 97.2592 64.7532 99.2018 63.5024C99.8524 63.0889 100.425 62.5531 100.89 61.9221C101.12 61.6504 101.248 61.3004 101.25 60.9373C101.18 60.6016 100.989 60.3076 100.715 60.1176C100.146 59.6709 99.4946 59.3518 98.8023 59.18C96.6312 58.6519 94.3782 58.6097 92.1905 59.0562C89.9332 59.4167 87.7674 60.2468 85.8207 61.4975C85.1813 61.9154 84.6189 62.4508 84.1608 63.0778C83.9131 63.3397 83.7668 63.6884 83.75 64.0567Z" fill="#FFE463"/>
<path d="M88.9224 67.4989C87.7283 67.5148 86.5375 67.3628 85.3821 67.0469C84.6067 66.85 83.8777 66.4898 83.2397 65.9885C83.0425 65.8472 82.8753 65.665 82.7482 65.4532C82.6211 65.2415 82.5369 65.0047 82.5009 64.7575C82.4861 64.2503 82.6499 63.7551 82.9612 63.366C83.4656 62.6744 84.0855 62.084 84.7911 61.6237C86.8212 60.3149 89.0824 59.4473 91.4399 59.0726C93.7317 58.6021 96.093 58.6467 98.3671 59.2035C99.1421 59.3998 99.8697 59.7622 100.504 60.2679C100.701 60.4087 100.868 60.5899 100.996 60.8005C101.124 61.011 101.21 61.2466 101.248 61.4929C101.269 62.0118 101.105 62.5203 100.788 62.92C100.282 63.6102 99.6624 64.2003 98.9581 64.6624C96.9276 65.9703 94.6666 66.8379 92.3093 67.2134C91.19 67.4077 90.057 67.5032 88.9224 67.4989ZM83.6318 64.6386C83.6318 64.6386 83.6602 64.811 83.9671 65.0727C84.4745 65.4701 85.0549 65.7535 85.6719 65.9052C87.7879 66.4063 89.9803 66.4428 92.1104 66.0122C94.3088 65.6561 96.4179 64.8477 98.316 63.6336C98.907 63.2558 99.4269 62.7681 99.8503 62.1946C99.9907 62.0277 100.08 61.8205 100.106 61.5999C100.106 61.5999 100.106 61.4334 99.7708 61.1658C99.2642 60.767 98.6835 60.4834 98.0659 60.3333C95.9582 59.8393 93.7754 59.809 91.6558 60.2441C89.4572 60.5992 87.3479 61.4077 85.4503 62.6227C84.8577 62.9984 84.3374 63.4864 83.9159 64.0618C83.6261 64.4424 83.6261 64.6326 83.6318 64.6386Z" fill="#1F2024"/>
<path d="M122.513 80.5928C122.625 81.4754 123.443 82.394 125.201 83.0665C127.33 83.7566 129.577 83.9269 131.776 83.5648C133.988 83.3027 136.115 82.5148 138.003 81.2593C139.535 80.1485 140.099 79.0078 139.986 78.1252C139.873 77.2426 139.056 76.3239 137.304 75.6515C135.167 75.011 132.93 74.8404 130.729 75.1501C128.528 75.4597 126.41 76.2432 124.502 77.4527C122.964 78.5935 122.406 79.7102 122.513 80.5928Z" fill="#FFE463"/>
<path d="M130.003 83.7485C128.507 83.77 127.018 83.5609 125.595 83.1296C123.13 82.3361 122.609 81.1565 122.518 80.5217C122.427 79.887 122.603 78.6227 124.785 77.258C126.775 76.144 128.989 75.4224 131.29 75.1376C133.591 74.8529 135.929 75.011 138.162 75.6023C140.627 76.3957 141.148 77.5753 141.233 78.2101C141.318 78.8449 141.154 80.1091 138.967 81.4792C136.997 82.6331 134.773 83.3564 132.462 83.5951C131.647 83.6974 130.825 83.7486 130.003 83.7485ZM133.709 76.0466C132.951 76.0488 132.194 76.0965 131.442 76.1894C129.307 76.4155 127.252 77.0803 125.425 78.1361C124.235 78.8925 123.578 79.723 123.674 80.3895C123.77 81.056 124.632 81.6961 125.991 82.1351C128.057 82.674 130.218 82.8163 132.344 82.5536C134.47 82.2908 136.517 81.6284 138.361 80.6064C139.556 79.8499 140.208 79.0194 140.117 78.3529C140.026 77.6864 139.159 77.0464 137.794 76.6073C136.474 76.2121 135.094 76.0226 133.709 76.0466Z" fill="#1F2024"/>
<path d="M93.7652 81.8427C93.8723 82.7193 94.6951 83.6439 96.4478 84.3103C98.5762 85.0056 100.825 85.1781 103.025 84.8146C105.237 84.5535 107.365 83.7656 109.252 82.5091C110.785 81.3984 111.349 80.2517 111.236 79.3751C111.123 78.4985 110.312 77.5739 108.553 76.9015C106.416 76.261 104.179 76.0904 101.977 76.4001C99.7762 76.7097 97.6571 77.4931 95.749 78.7026C94.2104 79.8194 93.6469 80.9601 93.7652 81.8427Z" fill="#FFE463"/>
<path d="M101.249 86.2487C99.754 86.2702 98.2655 86.0313 96.8423 85.5415C94.3783 84.6287 93.8572 83.2808 93.7665 82.5615C93.6816 81.8362 93.8515 80.3915 96.0323 78.826C98.0228 77.5541 100.236 76.7306 102.536 76.4063C104.836 76.0819 107.174 76.2636 109.406 76.9401C111.87 77.8468 112.391 79.1947 112.482 79.9201C112.573 80.6454 112.397 82.09 110.216 83.6495C108.247 84.9679 106.024 85.7944 103.713 86.0673C102.896 86.1835 102.073 86.2441 101.249 86.2487ZM94.9051 82.4044C94.9957 83.1478 95.8624 83.8974 97.2275 84.399C99.2851 85.0569 101.454 85.22 103.577 84.8766C105.711 84.6163 107.766 83.8567 109.593 82.6522C110.783 81.7878 111.44 80.8388 111.343 80.0772C111.247 79.3156 110.386 78.5842 109.027 78.0825C106.961 77.4659 104.8 77.3028 102.673 77.6031C100.547 77.9033 98.4996 78.6607 96.6554 79.8294C95.4659 80.6877 94.8088 81.6428 94.9051 82.4044Z" fill="#1F2024"/>
<path d="M97.5706 74.3953C97.3213 75.1694 97.7097 76.2761 99.1007 77.5137C100.822 78.9259 102.858 79.9563 105.059 80.5285C107.235 81.2035 109.545 81.4085 111.817 81.1282C113.701 80.8229 114.681 80.1033 114.93 79.3346C115.179 78.5659 114.785 77.4483 113.4 76.2162C111.653 74.8312 109.625 73.7963 107.438 73.1748C105.251 72.5532 102.953 72.3582 100.683 72.6016C98.7993 72.896 97.814 73.6266 97.5706 74.3953Z" fill="#FFE463"/>
<path d="M109.316 81.25C107.603 81.23 105.901 80.976 104.264 80.4958C101.962 79.8858 99.8344 78.7924 98.0414 77.2972C96.0894 75.5575 96.1418 74.2307 96.3458 73.5921C96.5497 72.959 97.2839 71.8249 99.9293 71.39C102.299 71.0805 104.712 71.2857 106.986 71.9901C109.29 72.5982 111.419 73.6896 113.214 75.1831C115.16 76.9283 115.108 78.2551 114.904 78.8937C114.7 79.5323 113.966 80.6554 111.321 81.0958C110.658 81.1995 109.988 81.2511 109.316 81.25ZM101.905 72.3479C101.307 72.3453 100.711 72.3895 100.122 72.48C98.6648 72.7168 97.6685 73.2563 97.4529 73.9114C97.2431 74.5721 97.7617 75.5355 98.8338 76.4989C100.5 77.8721 102.468 78.8781 104.597 79.4442C106.7 80.0791 108.927 80.2671 111.117 79.9948C112.579 79.7525 113.576 79.2185 113.785 78.5634C113.995 77.9083 113.482 76.9118 112.404 75.9759C110.739 74.6017 108.77 73.5955 106.642 73.0306C105.106 72.5884 103.51 72.3585 101.905 72.3479Z" fill="#1F2024"/>
<path d="M105.07 79.3969C104.821 80.1702 105.215 81.2757 106.601 82.512C108.32 83.9305 110.357 84.9673 112.561 85.5454C114.74 86.2114 117.051 86.4087 119.322 86.1227C121.201 85.8177 122.181 85.0988 122.43 84.3255C122.679 83.5522 122.285 82.4466 120.899 81.2158C119.152 79.8328 117.122 78.7988 114.935 78.1771C112.748 77.5554 110.449 77.3589 108.178 77.5997C106.317 77.9101 105.319 78.6236 105.07 79.3969Z" fill="#FFE463"/>
<path d="M117.197 87.5C115.598 87.4824 114.01 87.2292 112.483 86.7484C110.333 86.1361 108.346 85.0386 106.671 83.5375C104.855 81.7856 104.898 80.4593 105.089 79.8182C105.279 79.1827 105.964 78.0442 108.432 77.6076C110.645 77.3504 112.886 77.5555 115.018 78.2102C117.149 78.865 119.127 79.9557 120.829 81.4154C122.645 83.1672 122.602 84.4991 122.411 85.1347C122.221 85.7702 121.531 86.9087 119.068 87.3453C118.449 87.4489 117.824 87.5007 117.197 87.5ZM110.281 78.5692C109.724 78.5666 109.167 78.611 108.617 78.7019C107.258 78.9395 106.328 79.4756 106.133 80.1387C105.937 80.8019 106.415 81.769 107.421 82.7362C108.999 84.0787 110.828 85.083 112.798 85.689C114.767 86.2949 116.837 86.4898 118.883 86.2621C120.242 86.0189 121.172 85.4828 121.368 84.8252C121.563 84.1675 121.085 83.1672 120.079 82.2222C118.525 80.8475 116.69 79.8397 114.707 79.2711C113.273 78.822 111.782 78.5856 110.281 78.5692Z" fill="#1F2024"/>
<path d="M107.568 74.4161C107.324 75.1897 107.713 76.2956 109.1 77.5323C110.822 78.9402 112.856 79.9695 115.056 80.545C117.235 81.2115 119.546 81.4089 121.818 81.1224C123.699 80.8174 124.68 80.0982 124.929 79.3301C125.179 78.5619 124.79 77.4451 123.397 76.2139C121.649 74.8295 119.619 73.795 117.43 73.1739C115.241 72.5528 112.94 72.3581 110.668 72.6019C108.781 72.9179 107.8 73.6479 107.568 74.4161Z" fill="#FFE463"/>
<path d="M119.68 81.2499C118.083 81.2304 116.496 80.9763 114.971 80.4957C112.823 79.8857 110.838 78.7923 109.165 77.2969C107.35 75.5516 107.399 74.2302 107.589 73.5915C107.779 72.9529 108.464 71.8242 110.93 71.3893C113.139 71.0809 115.388 71.2862 117.507 71.9894C119.662 72.596 121.653 73.6896 123.33 75.1882C125.15 76.9335 125.101 78.2604 124.911 78.8935C124.721 79.5267 124.036 80.6608 121.57 81.0958C120.946 81.2004 120.313 81.252 119.68 81.2499ZM112.777 72.3473C112.22 72.3442 111.664 72.3884 111.114 72.4794C109.751 72.7161 108.822 73.2557 108.627 73.9109C108.431 74.5715 108.909 75.535 109.914 76.4985C111.489 77.8382 113.316 78.8401 115.284 79.4439C117.252 80.0476 119.32 80.2406 121.364 80.0112C122.722 79.7689 123.651 79.2349 123.852 78.5797C124.053 77.9245 123.564 76.928 122.564 75.992C121.011 74.6188 119.176 73.6126 117.192 73.0465C115.761 72.5995 114.274 72.364 112.777 72.3473Z" fill="#1F2024"/>
<path d="M116.25 75.0581C116.25 75.8377 116.955 76.7658 118.605 77.5348C120.622 78.3923 122.818 78.8057 125.028 78.744C127.236 78.7757 129.424 78.3353 131.428 77.4552C133.067 76.6597 133.756 75.7263 133.75 74.9414C133.744 74.1565 133.045 73.2337 131.395 72.4647C129.364 71.6499 127.179 71.2366 124.975 71.2503C122.77 71.264 120.591 71.7043 118.572 72.5443C116.927 73.3133 116.244 74.252 116.25 75.0581Z" fill="#FFE463"/>
<path d="M124.268 79.9966C122.002 80.0467 119.754 79.541 117.687 78.5164C115.361 77.2777 115.006 75.816 115 75.0666C115 74.3234 115.332 72.8742 117.642 71.5797C119.754 70.555 122.035 70.0175 124.343 70.0004C126.651 69.9834 128.938 70.4872 131.063 71.4806C133.389 72.7193 133.744 74.181 133.75 74.9304C133.756 75.6798 133.418 77.1229 131.102 78.4173C129.006 79.4904 126.715 80.0282 124.403 79.9904L124.268 79.9966ZM116.127 75.0914C116.127 75.8656 116.899 76.7389 118.183 77.4387C120.1 78.3704 122.178 78.8312 124.274 78.7889H124.397C126.535 78.8227 128.652 78.3318 130.595 77.352C131.868 76.6336 132.629 75.7479 132.623 74.9737C132.618 74.1996 131.846 73.2891 130.561 72.614C128.596 71.7087 126.485 71.2502 124.355 71.2662C122.225 71.2821 120.12 71.7723 118.166 72.7069C116.893 73.4192 116.132 74.311 116.138 75.0852L116.127 75.0914Z" fill="#1F2024"/>
<path d="M110 71.3031C110 72.088 110.705 73.0109 112.355 73.7852C114.373 74.6403 116.568 75.0536 118.778 74.9944C120.987 75.0247 123.175 74.5824 125.178 73.7003C126.817 72.9101 127.506 71.9767 127.5 71.1917C127.494 70.4068 126.795 69.484 125.145 68.7096C123.113 67.8981 120.929 67.4867 118.725 67.5003C116.52 67.514 114.342 67.9525 112.322 68.7892C110.677 69.5847 109.994 70.5182 110 71.3031Z" fill="#FFE463"/>
<path d="M119.274 76.2375C117.006 76.2836 114.756 75.8434 112.687 74.9488C110.361 73.8659 110.006 72.5827 110 71.933C110 71.2778 110.332 70.0108 112.642 68.8792C114.739 67.9416 117.029 67.4715 119.341 67.5039C121.654 67.4529 123.95 67.8968 126.063 68.8034C128.389 69.8863 128.744 71.1641 128.75 71.8193C128.756 72.4744 128.418 73.736 126.102 74.8676C124.007 75.8101 121.716 76.2823 119.403 76.2483L119.274 76.2375ZM111.127 71.9059C111.127 72.5827 111.899 73.3516 113.183 73.958C115.099 74.7751 117.178 75.1781 119.274 75.1383H119.398C121.535 75.1635 123.652 74.7326 125.595 73.8768C126.868 73.2541 127.629 72.4744 127.623 71.7976C127.618 71.1208 126.846 70.3574 125.567 69.7509C123.602 68.9595 121.491 68.5587 119.361 68.5726C117.23 68.5866 115.125 69.015 113.172 69.8322C111.899 70.4548 111.138 71.2291 111.144 71.9059H111.127Z" fill="#1F2024"/>
<path d="M98.75 70.687C98.75 71.6028 99.455 72.6795 101.105 73.5829C103.124 74.5797 105.319 75.0619 107.528 74.9937C109.737 75.0296 111.925 74.5135 113.928 73.4839C115.573 72.5619 116.256 71.4667 116.25 70.5571C116.244 69.6475 115.545 68.5585 113.895 67.6613C111.863 66.7144 109.679 66.2344 107.475 66.2504C105.27 66.2663 103.092 66.7779 101.072 67.7541C99.4326 68.6822 98.7444 69.7713 98.75 70.687Z" fill="#FFE463"/>
<path d="M106.774 74.997C104.505 75.0414 102.255 74.599 100.187 73.702C97.8606 72.6184 97.5056 71.3398 97.5 70.6896C97.5 70.034 97.8324 68.7662 100.148 67.6339C102.244 66.6946 104.534 66.2241 106.847 66.2577C109.159 66.1852 111.457 66.6265 113.563 67.5472C115.889 68.6308 116.244 69.9094 116.25 70.565C116.256 71.2206 115.918 72.483 113.608 73.6154C111.511 74.5547 109.221 75.027 106.909 74.997H106.774ZM106.982 67.3359H106.864C104.726 67.3063 102.609 67.7357 100.666 68.5928C99.393 69.2213 98.6324 69.9961 98.6381 70.6734C98.6381 71.3506 99.4156 72.12 100.7 72.7268C102.616 73.5455 104.695 73.9488 106.79 73.9079H106.909C109.046 73.9331 111.163 73.5019 113.106 72.6455C114.379 72.0225 115.14 71.2423 115.134 70.565C115.129 69.8878 114.363 69.1238 113.078 68.5116C111.159 67.6978 109.079 67.2966 106.982 67.3359Z" fill="#1F2024"/>
<path d="M105 66.9372C105 67.8529 105.705 68.9357 107.355 69.8329C109.374 70.8297 111.569 71.3119 113.778 71.2437C115.986 71.2784 118.173 70.7646 120.178 69.7401C121.823 68.812 122.506 67.723 122.5 66.8072C122.494 65.8915 121.795 64.8148 120.145 63.9115C118.113 62.9635 115.929 62.4834 113.724 62.5004C111.519 62.5175 109.341 63.0313 107.322 64.0105C105.683 64.9324 104.994 65.9967 105 66.9372Z" fill="#FFE463"/>
<path d="M114.274 71.2467C112.006 71.2929 109.756 70.8522 107.687 69.9569C105.361 68.8729 105.006 67.5939 105 66.9382C105 66.2824 105.332 65.0196 107.648 63.8869C109.744 62.9461 112.034 62.4736 114.347 62.5049C116.657 62.4477 118.952 62.8884 121.063 63.7948C123.389 64.8787 123.744 66.1632 123.75 66.8135C123.756 67.4639 123.418 68.7375 121.108 69.8701C119.011 70.8086 116.721 71.2792 114.409 71.2467H114.274ZM106.127 66.9111C106.127 67.5885 106.904 68.3527 108.189 68.9651C110.102 69.7863 112.179 70.1951 114.274 70.1628H114.392C116.529 70.1897 118.646 69.7602 120.589 68.9055C121.863 68.2768 122.623 67.5018 122.617 66.8243C122.612 66.1469 121.846 65.3773 120.561 64.7703C118.609 63.9476 116.494 63.5444 114.364 63.5889C112.226 63.5637 110.11 63.995 108.166 64.8516C106.893 65.4749 106.132 66.2553 106.138 66.9327L106.127 66.9111Z" fill="#1F2024"/>
<path d="M87.5035 70.6656C87.5035 70.7993 87.6162 71.0477 88.0387 71.3533C88.6327 71.738 89.2806 72.005 89.9542 72.1429C92.1414 72.582 94.3771 72.6164 96.5741 72.2448C98.7829 71.9597 100.935 71.267 102.946 70.1944C103.575 69.871 104.148 69.4224 104.636 68.8699C104.974 68.4496 105.014 68.1822 104.997 68.0485C104.98 67.9147 104.884 67.6664 104.462 67.3608C103.867 66.9771 103.219 66.7101 102.546 66.5712C98.138 65.7804 93.6217 66.4574 89.5486 68.5197C88.92 68.844 88.3476 69.2926 87.8584 69.8442C87.5204 70.2644 87.4866 70.5319 87.5035 70.6656Z" fill="#FFE463"/>
<path d="M92.6729 72.499C91.4959 72.5111 90.3207 72.4087 89.1666 72.1934C88.4171 72.0648 87.6989 71.8112 87.0469 71.4451C86.8472 71.3524 86.6722 71.2197 86.5346 71.0566C86.397 70.8934 86.3002 70.7039 86.2513 70.5018C86.2419 70.2941 86.2824 70.0871 86.3698 69.8957C86.4573 69.7043 86.5896 69.5333 86.7571 69.3952C87.2912 68.8975 87.9141 68.4892 88.5984 68.1884C92.8202 66.4191 97.5109 65.8435 102.084 66.5337C102.828 66.6584 103.544 66.9027 104.198 67.2557C104.399 67.3489 104.575 67.4824 104.713 67.6464C104.852 67.8104 104.949 68.001 104.999 68.2042C105.007 68.411 104.966 68.6169 104.879 68.8073C104.791 68.9977 104.66 69.1678 104.493 69.3056C103.958 69.8017 103.335 70.2097 102.652 70.5124C100.567 71.4263 98.3341 72.0173 96.0428 72.2619C94.9263 72.4088 93.8006 72.488 92.6729 72.499ZM87.3936 70.3912C87.4712 70.4701 87.5612 70.5376 87.6607 70.5914C88.2016 70.877 88.7919 71.0732 89.4053 71.1711C91.5482 71.5192 93.7374 71.5459 95.8894 71.2501C98.0547 71.0166 100.165 70.4615 102.141 69.606C102.704 69.3645 103.218 69.0327 103.658 68.6258C103.739 68.5527 103.807 68.4671 103.857 68.3729C103.783 68.2925 103.694 68.2247 103.595 68.1726C103.053 67.8889 102.464 67.6929 101.851 67.593C97.5319 66.9673 93.1102 67.5165 89.1212 69.1739C88.5567 69.4173 88.0415 69.7488 87.5982 70.154C87.5192 70.2245 87.4504 70.3042 87.3936 70.3912Z" fill="#1F2024"/>
<path d="M95.0013 64.7837C95.0013 64.8906 95.1138 65.0891 95.5639 65.3335C96.1568 65.6404 96.8038 65.8522 97.4765 65.9596C99.6617 66.3152 101.896 66.3444 104.092 66.0461C106.298 65.8182 108.447 65.2645 110.454 64.407C111.08 64.1439 111.651 63.7858 112.142 63.3482C112.48 63.0122 112.513 62.7984 112.497 62.6915C112.48 62.5846 112.39 62.3861 111.934 62.1418C111.341 61.8333 110.694 61.6198 110.021 61.5105C105.622 60.8719 101.112 61.4134 97.049 63.0682C96.4224 63.3271 95.8512 63.6838 95.3613 64.1219C95.0463 64.4579 94.9901 64.6768 95.0013 64.7837Z" fill="#FFE463"/>
<path d="M101.422 66.2491C100.245 66.2607 99.0703 66.1583 97.9161 65.9435C97.1701 65.8174 96.4531 65.5732 95.7964 65.2218C95.5978 65.1276 95.4238 64.9945 95.2864 64.8316C95.149 64.6687 95.0515 64.4801 95.0008 64.2787C94.9937 64.0713 95.0352 63.865 95.1225 63.674C95.2099 63.483 95.3409 63.3118 95.5066 63.1723C96.0398 62.6709 96.6628 62.2592 97.3478 61.9553C99.4362 61.0462 101.67 60.459 103.963 60.2167C106.243 59.8988 108.564 59.9309 110.833 60.3115C111.58 60.4372 112.297 60.6814 112.953 61.0333C113.151 61.1235 113.324 61.2528 113.462 61.4122C113.599 61.5715 113.697 61.7569 113.749 61.9553C113.758 62.1629 113.717 62.3698 113.63 62.5611C113.542 62.7524 113.41 62.9233 113.243 63.0617C112.709 63.5596 112.086 63.9678 111.402 64.2682C109.317 65.1833 107.084 65.7743 104.792 66.0173C103.676 66.1627 102.55 66.2401 101.422 66.2491ZM96.1487 64.1417C96.2226 64.2221 96.3111 64.2898 96.4102 64.3419C96.9515 64.6265 97.5417 64.8225 98.1548 64.9215C100.3 65.2695 102.491 65.2962 104.645 65.0005C106.81 64.7676 108.921 64.2125 110.896 63.3567C111.46 63.1134 111.976 62.7819 112.419 62.3768C112.497 62.3011 112.564 62.2161 112.618 62.1239C112.54 62.045 112.45 61.9775 112.351 61.9237C111.811 61.6408 111.223 61.4448 110.612 61.3442C106.295 60.7056 101.872 61.2476 97.882 62.9036C97.319 63.1466 96.8056 63.4781 96.3647 63.8836C96.2873 63.9575 96.2239 64.043 96.1772 64.1365L96.1487 64.1417Z" fill="#1F2024"/>
<path d="M137.5 83.5312C137.448 83.8984 137.247 84.2319 136.939 84.4604C136.396 84.8946 135.773 85.2295 135.101 85.448C130.852 86.695 126.275 86.4825 122.175 84.848C121.532 84.5691 120.95 84.1782 120.46 83.6958C120.177 83.4398 120.012 83.089 120 82.7188C120.052 82.3516 120.253 82.0181 120.561 81.7896C121.103 81.3554 121.727 81.0205 122.399 80.802C126.648 79.555 131.225 79.7675 135.325 81.402C135.974 81.6792 136.562 82.0701 137.057 82.5542C137.334 82.8122 137.494 83.1631 137.5 83.5312Z" fill="#FFE463"/>
<path d="M130.283 86.2475C129.922 86.2475 129.556 86.2475 129.183 86.2203C126.883 86.1553 124.617 85.6563 122.516 84.7514C121.797 84.4394 121.147 83.996 120.604 83.4456C120.412 83.2651 120.26 83.0493 120.156 82.811C120.052 82.5727 119.999 82.3167 120 82.0583C120.026 81.8009 120.105 81.5511 120.232 81.3233C120.359 81.0955 120.531 80.8941 120.739 80.7308C121.339 80.2372 122.03 79.857 122.775 79.6101C127.196 78.276 131.963 78.4996 136.229 80.2412C136.947 80.5531 137.597 80.9965 138.141 81.5469C138.333 81.7277 138.485 81.9435 138.59 82.1816C138.694 82.4198 138.749 82.6756 138.75 82.9342C138.722 83.1919 138.643 83.4417 138.515 83.6695C138.387 83.8973 138.214 84.0985 138.005 84.2617C137.408 84.7587 136.717 85.1393 135.969 85.3825C134.14 85.9877 132.216 86.2805 130.283 86.2475ZM128.495 79.8332C126.688 79.8002 124.888 80.069 123.176 80.6275C122.555 80.8174 121.98 81.1244 121.484 81.5306C121.288 81.6723 121.152 81.877 121.1 82.1073C121.129 82.3423 121.243 82.56 121.421 82.7221C121.87 83.1665 122.402 83.5247 122.99 83.7775C126.982 85.3942 131.438 85.6023 135.574 84.3651C136.184 84.1699 136.749 83.8632 137.238 83.462C137.434 83.3209 137.571 83.116 137.622 82.8853C137.593 82.6503 137.479 82.4326 137.3 82.2705C136.851 81.828 136.319 81.4717 135.732 81.2205C133.774 80.3851 131.667 79.9215 129.527 79.8549C129.166 79.8386 128.828 79.8332 128.495 79.8332Z" fill="#1F2024"/>
<path d="M97.4912 64.8301C97.5199 64.9464 97.4912 65.1845 97.2093 65.5833C96.7706 66.1062 96.2413 66.5521 95.6448 66.9014C93.7063 68.0376 91.5888 68.8625 89.3752 69.3438C87.1809 69.8963 84.9081 70.102 82.6454 69.953C81.947 69.904 81.2623 69.7411 80.6207 69.4711C80.1605 69.2496 80.0455 69.0447 80.011 68.9173C79.9764 68.7899 80.011 68.5684 80.2986 68.1641C80.7373 67.6412 81.2666 67.1953 81.8631 66.846C83.8002 65.7085 85.9183 64.8853 88.1327 64.4092C90.3259 63.8509 92.5997 63.6451 94.8625 63.8C95.5587 63.8474 96.2414 64.0084 96.8815 64.2763C97.3474 64.5144 97.4624 64.7193 97.4912 64.8301Z" fill="#FFE463"/>
<path d="M83.3699 71.25C82.8609 71.25 82.375 71.2274 81.9122 71.1823C81.1424 71.1185 80.3893 70.9276 79.6851 70.6179C79.4719 70.5383 79.2792 70.4142 79.1203 70.2543C78.9615 70.0945 78.8403 69.9027 78.7653 69.6924C78.7336 69.4726 78.7513 69.2487 78.8173 69.0363C78.8832 68.8238 78.9957 68.6279 79.1471 68.4622C79.6345 67.876 80.2215 67.3759 80.8825 66.9836C84.9475 64.6494 89.6278 63.5364 94.3378 63.7839C95.1084 63.8432 95.8622 64.0342 96.5649 64.3482C96.7783 64.4259 96.9714 64.5486 97.1304 64.7077C97.2894 64.8667 97.4104 65.0581 97.4847 65.2681C97.5164 65.4879 97.4987 65.7118 97.4327 65.9242C97.3668 66.1367 97.2543 66.3326 97.1029 66.4983C96.6143 67.0849 96.0275 67.5867 95.3675 67.9825C93.3636 69.1758 91.1731 70.0413 88.8828 70.5446C87.0797 70.9889 85.2295 71.2256 83.3699 71.25ZM79.8991 69.4441C79.9848 69.5193 80.0825 69.5803 80.1883 69.6247C80.7676 69.8767 81.3889 70.024 82.0221 70.0593C84.2316 70.2035 86.4505 69.9996 88.5936 69.4554C90.7555 68.9771 92.8241 68.1615 94.7196 67.0401C95.263 66.7223 95.7463 66.3157 96.1484 65.838C96.2173 65.7478 96.2737 65.6492 96.3162 65.5446C96.2305 65.4694 96.1328 65.4084 96.027 65.364C95.4576 65.1186 94.8489 64.9716 94.2279 64.9295C89.7751 64.7078 85.3526 65.7569 81.5015 67.9486C80.9561 68.2662 80.4725 68.675 80.0726 69.1563C80.0028 69.2429 79.9481 69.3402 79.9107 69.4441H79.8991Z" fill="#1F2024"/>
<path d="M55 101.045L157.5 82.5L152.438 147.705L63.858 166.25L55 101.045Z" fill="white"/>
<path fill-rule="evenodd" clip-rule="evenodd" d="M158.323 81.5898L153.142 148.325L63.2232 167.15L54.1602 100.435L158.323 81.5898ZM55.8397 101.656L64.4927 165.352L151.734 147.087L156.677 83.412L55.8397 101.656Z" fill="#1F2024"/>
<path d="M55.0001 101.045L25 90.625L35.625 156.25L63.8581 166.25L55.0001 101.045Z" fill="#1F2024"/>
<path fill-rule="evenodd" clip-rule="evenodd" d="M24.0586 89.5039L55.6811 100.487L64.7666 167.367L34.9555 156.808L24.0586 89.5039ZM25.9411 91.7456L36.2942 155.691L62.9492 165.132L54.3187 101.602L25.9411 91.7456Z" fill="#1F2024"/>
<path d="M107.58 162.77C106.809 175.518 98.0846 185.363 88.0927 184.759C78.1008 184.155 70.6254 173.331 71.3959 160.583C72.1664 147.835 80.8911 137.99 90.883 138.593C100.875 139.197 108.35 150.022 107.58 162.77Z" fill="white"/>
<path fill-rule="evenodd" clip-rule="evenodd" d="M90.8361 139.343C81.4172 138.774 72.8992 148.114 72.1428 160.629C71.3864 173.144 78.7174 183.442 88.1363 184.012C97.5551 184.581 106.073 175.241 106.83 162.726C107.586 150.211 100.255 139.912 90.8361 139.343ZM70.6455 160.539C71.4302 147.557 80.3616 137.207 90.9266 137.846C101.492 138.484 109.111 149.834 108.327 162.816C107.542 175.798 98.6108 186.147 88.0458 185.509C77.4808 184.87 69.8609 173.52 70.6455 160.539Z" fill="#1F2024"/>
<path d="M95.1014 162.015C94.914 165.116 92.5276 167.495 89.7712 167.328C87.0148 167.161 84.9322 164.513 85.1196 161.412C85.307 158.311 87.6935 155.932 90.4499 156.099C93.2063 156.265 95.2888 158.914 95.1014 162.015Z" fill="#1F2024"/>
<path d="M147.695 154.184C146.925 166.932 138.2 176.777 128.208 176.173C118.216 175.569 110.741 164.745 111.511 151.997C112.282 139.249 121.006 129.404 130.998 130.008C140.99 130.611 148.466 141.436 147.695 154.184Z" fill="white"/>
<path fill-rule="evenodd" clip-rule="evenodd" d="M130.953 130.755C121.534 130.186 113.016 139.526 112.26 152.041C111.504 164.556 118.835 174.854 128.253 175.424C137.672 175.993 146.19 166.653 146.947 154.138C147.703 141.623 140.372 131.324 130.953 130.755ZM110.763 151.951C111.547 138.969 120.479 128.619 131.044 129.258C141.609 129.896 149.229 141.246 148.444 154.228C147.659 167.21 138.728 177.559 128.163 176.921C117.598 176.282 109.978 164.932 110.763 151.951Z" fill="#1F2024"/>
<path d="M135.217 153.429C135.029 156.53 132.643 158.909 129.886 158.742C127.13 158.576 125.047 155.927 125.235 152.826C125.422 149.725 127.809 147.346 130.565 147.513C133.321 147.679 135.404 150.328 135.217 153.429Z" fill="#1F2024"/>
<path d="M20 80.9119C20 79.2222 21.6415 78.0191 23.2528 78.528L55.625 88.7508V102.501L21.7472 91.8025C20.7071 91.4741 20 90.5092 20 89.4185V80.9119Z" fill="white"/>
<path fill-rule="evenodd" clip-rule="evenodd" d="M19.25 80.9105C19.25 78.7138 21.384 77.1499 23.4787 77.8114L56.375 88.1997V103.523L21.5213 92.5163C20.1692 92.0893 19.25 90.835 19.25 89.4171V80.9105ZM23.027 79.2417C21.8991 78.8856 20.75 79.7277 20.75 80.9105V89.4171C20.75 90.1806 21.245 90.856 21.973 91.0859L54.875 101.476V89.299L23.027 79.2417Z" fill="#1F2024"/>
<path d="M160.625 71.7703C160.625 70.202 159.198 69.021 157.657 69.3145L55.625 88.7492V102.499L158.593 82.8863C159.772 82.6617 160.625 81.6307 160.625 80.4304V71.7703Z" fill="white"/>
<path fill-rule="evenodd" clip-rule="evenodd" d="M159.875 71.7705C159.875 70.6728 158.876 69.846 157.798 70.0515L56.375 89.37V101.593L158.452 82.1497C159.278 81.9925 159.875 81.2709 159.875 80.4307V71.7705ZM157.517 68.5779C159.52 68.1965 161.375 69.7318 161.375 71.7705V80.4307C161.375 81.9911 160.266 83.3313 158.733 83.6233L54.875 103.406V88.1288L157.517 68.5779Z" fill="#1F2024"/>
<path fill-rule="evenodd" clip-rule="evenodd" d="M153.737 97.3712C153.808 97.7089 153.592 98.0405 153.254 98.1117L61.3791 117.487C61.0413 117.558 60.7098 117.342 60.6386 117.004C60.5674 116.666 60.7834 116.335 61.1212 116.264L152.996 96.8886C153.334 96.8174 153.665 97.0334 153.737 97.3712Z" fill="#1F2024"/>
<path fill-rule="evenodd" clip-rule="evenodd" d="M153.111 111.744C153.184 112.081 152.969 112.413 152.632 112.486L62.6317 131.861C62.2942 131.934 61.9618 131.719 61.8891 131.382C61.8165 131.044 62.0311 130.712 62.3686 130.639L152.369 111.264C152.706 111.191 153.038 111.406 153.111 111.744Z" fill="#1F2024"/>
<path fill-rule="evenodd" clip-rule="evenodd" d="M100.625 110.625C100.97 110.625 101.25 110.905 101.25 111.25V122.5C101.25 122.845 100.97 123.125 100.625 123.125C100.28 123.125 100 122.845 100 122.5V111.25C100 110.905 100.28 110.625 100.625 110.625Z" fill="#1F2024"/>
<path fill-rule="evenodd" clip-rule="evenodd" d="M125 91.25C125.345 91.25 125.625 91.5298 125.625 91.875V103.125C125.625 103.47 125.345 103.75 125 103.75C124.655 103.75 124.375 103.47 124.375 103.125V91.875C124.375 91.5298 124.655 91.25 125 91.25Z" fill="#1F2024"/>
<path fill-rule="evenodd" clip-rule="evenodd" d="M29.4177 107.899C29.5428 107.577 29.905 107.418 30.2267 107.543L52.7267 116.293C53.0484 116.418 53.2078 116.78 53.0827 117.102C52.9576 117.423 52.5953 117.583 52.2736 117.458L29.7736 108.708C29.4519 108.583 29.2926 108.22 29.4177 107.899Z" fill="white"/>
<path fill-rule="evenodd" clip-rule="evenodd" d="M31.9177 122.274C32.0428 121.952 32.405 121.793 32.7267 121.918L55.2267 130.668C55.5484 130.793 55.7078 131.155 55.5827 131.477C55.4576 131.798 55.0953 131.958 54.7736 131.833L32.2736 123.083C31.9519 122.958 31.7926 122.595 31.9177 122.274Z" fill="white"/>
<path d="M78.6207 50.4041C85.1636 50.822 91.8402 46.6658 94.9184 39.6372C97.8685 32.9013 96.6545 25.4888 92.3936 20.8515L92.724 20.1719L89.4888 18.4351C88.9783 18.1162 88.4428 17.828 87.8834 17.5732L87.8042 17.5307L87.8016 17.5362C87.7875 17.5299 87.7734 17.5237 87.7593 17.5174C79.9692 14.0603 70.5441 18.3586 66.7078 27.118C62.8846 35.8475 65.8045 45.7365 73.5369 49.2255L76.9808 51.0413L78.0496 50.3572C78.2387 50.3763 78.4289 50.3919 78.6207 50.4041Z" fill="#1F2024"/>
<path fill-rule="evenodd" clip-rule="evenodd" d="M87.5072 18.0874C80.0941 14.7976 71.0071 18.8611 67.2817 27.3674C63.5612 35.8624 66.4485 45.3394 73.7954 48.6545L73.8129 48.6624L76.9517 50.3174L77.8973 49.7122L78.1138 49.7341C78.295 49.7524 78.4775 49.7673 78.6619 49.7791C84.9138 50.1784 91.3624 46.2006 94.3473 39.3852C97.2075 32.8545 96.0126 25.7111 91.9347 21.2731L91.6468 20.9597L91.9008 20.4373L89.1765 18.9747L89.1591 18.9639C88.6716 18.6594 88.1602 18.3841 87.6257 18.1407L87.6071 18.1322L87.6054 18.1313L87.5475 18.1054L87.5072 18.0874ZM87.5125 18.0753L87.8027 17.5348L87.7612 17.515L87.2391 17.2654L87.4965 16.7268C87.6698 16.7959 87.8423 16.8686 88.0142 16.9448L88.0583 16.9645L87.8046 17.5313L87.8055 17.5293L87.8865 17.5681L88.1438 17.0031C88.1501 17.006 88.1563 17.0088 88.1626 17.0117L88.1804 17.0212L87.8865 17.5681M89.8037 17.8927C89.2812 17.5674 88.7338 17.2728 88.1626 17.0117L87.5242 16.6689L87.4965 16.7268C79.4386 13.5132 70.0007 18.0432 66.1367 26.8659C62.2137 35.8234 65.159 46.1159 73.2636 49.7859L77.0126 51.7626L78.2067 50.9983C78.3315 51.0091 78.4566 51.0185 78.5822 51.0266C85.4162 51.4631 92.3207 47.1283 95.4923 39.8867C98.4662 33.0963 97.3508 25.5973 93.1403 20.7466L93.5499 19.9039L89.8037 17.8927ZM87.5125 18.0753L87.7612 17.515L87.5125 18.0753ZM87.5125 18.0753L87.7612 17.515L87.5125 18.0753Z" fill="#1F2024"/>
<path d="M99.2384 42.2088C95.3659 50.9926 85.852 55.3029 77.9884 51.8361C70.1248 48.3694 66.8893 38.4383 70.7617 29.6545C74.6342 20.8707 84.1481 16.5604 92.0117 20.0271C99.8754 23.4939 103.111 33.4249 99.2384 42.2088Z" fill="#FFE463"/>
<path fill-rule="evenodd" clip-rule="evenodd" d="M91.7101 20.7139C84.295 17.4449 75.1866 21.4794 71.4489 29.9576C67.7112 38.4358 70.8767 47.8813 78.2918 51.1504C85.707 54.4195 94.8153 50.3849 98.553 41.9067C102.291 33.4286 99.1252 23.983 91.7101 20.7139ZM70.0764 29.3525C74.0836 20.2631 84.0031 15.6769 92.3152 19.3414C100.627 23.0059 103.933 33.4224 99.9255 42.5118C95.9184 51.6013 85.9988 56.1874 77.6867 52.5229C69.3747 48.8585 66.0692 38.4419 70.0764 29.3525Z" fill="#1F2024"/>
<path d="M84.2269 43.1552C83.5693 43.154 82.9137 43.0845 82.2704 42.9481C82.1178 42.9176 81.9836 42.8277 81.8972 42.6982C81.8109 42.5687 81.7796 42.4102 81.8101 42.2576C81.8406 42.1049 81.9305 41.9707 82.06 41.8844C82.1895 41.798 82.348 41.7667 82.5006 41.7972C85.8899 42.528 88.0881 41.0549 88.7671 39.8925C89.5382 38.523 89.0836 37.5275 88.8419 37.257C88.6002 36.9866 87.9327 36.25 85.2052 36.8887C82.4776 37.5275 80.9814 37.1534 80.2104 35.5537C79.8018 34.7021 79.6982 32.4349 81.9942 30.8869C83.4687 29.9453 85.2219 29.539 86.9602 29.7361C87.1104 29.7601 87.2449 29.8426 87.3344 29.9655C87.4238 30.0885 87.461 30.2418 87.4378 30.3921C87.4151 30.5421 87.334 30.677 87.2122 30.7676C87.0904 30.8581 86.9378 30.8969 86.7876 30.8754C85.3258 30.7165 83.8533 31.0572 82.6099 31.8422C80.7858 33.0678 81.0563 34.7193 81.2231 35.0531C81.4936 35.6285 81.9021 36.4744 84.9117 35.7724C87.9212 35.0704 88.9973 35.7724 89.6705 36.4917C90.1597 37.0671 90.8214 38.569 89.7396 40.4564C88.9455 41.8548 86.9602 43.1552 84.2269 43.1552Z" fill="#1F2024"/>
<path d="M87.1566 43.9038C87.0282 43.9089 86.9018 43.8708 86.7975 43.7958C86.6932 43.7207 86.6171 43.6128 86.5812 43.4894L82.5531 29.6387C82.5316 29.5661 82.5246 29.4901 82.5324 29.4148C82.5403 29.3395 82.5629 29.2666 82.599 29.2C82.635 29.1335 82.6838 29.0747 82.7426 29.0271C82.8014 28.9794 82.869 28.9438 82.9415 28.9223C83.0881 28.8788 83.2458 28.8953 83.3802 28.9681C83.4467 29.0042 83.5055 29.053 83.5532 29.1118C83.6008 29.1706 83.6364 29.2381 83.658 29.3107L87.686 43.1672C87.7072 43.2397 87.7138 43.3157 87.7056 43.3909C87.6974 43.466 87.6745 43.5387 87.6381 43.605C87.6018 43.6713 87.5528 43.7297 87.4939 43.777C87.4349 43.8243 87.3673 43.8596 87.2947 43.8807C87.25 43.8949 87.2035 43.9027 87.1566 43.9038Z" fill="#1F2024"/>
<path fill-rule="evenodd" clip-rule="evenodd" d="M62.4024 52.1645C62.5877 52.4557 62.5018 52.8421 62.2106 53.0274L55.3356 57.4024C55.0444 57.5877 54.6581 57.5018 54.4728 57.2106C54.2875 56.9194 54.3733 56.5331 54.6645 56.3478L61.5395 51.9728C61.8307 51.7875 62.2171 51.8733 62.4024 52.1645Z" fill="#1F2024"/>
<path fill-rule="evenodd" clip-rule="evenodd" d="M58.7341 40.4846C58.8117 40.8209 58.602 41.1565 58.2657 41.2341L42.0157 44.9841C41.6793 45.0618 41.3438 44.852 41.2661 44.5157C41.1885 44.1793 41.3983 43.8438 41.7346 43.7661L57.9846 40.0161C58.3209 39.9385 58.6565 40.1483 58.7341 40.4846Z" fill="#1F2024"/>
<path fill-rule="evenodd" clip-rule="evenodd" d="M53.1812 17.2415C53.324 16.9273 53.6945 16.7883 54.0088 16.9312L60.8838 20.0562C61.198 20.199 61.337 20.5695 61.1941 20.8838C61.0513 21.198 60.6808 21.337 60.3665 21.1941L53.4915 18.0691C53.1773 17.9263 53.0383 17.5558 53.1812 17.2415Z" fill="#1F2024"/>
<path fill-rule="evenodd" clip-rule="evenodd" d="M106.043 8.91045C106.3 9.14136 106.32 9.53654 106.09 9.79311L100.465 16.0431C100.234 16.2997 99.8385 16.3205 99.5819 16.0896C99.3253 15.8587 99.3045 15.4635 99.5354 15.2069L105.16 8.9569C105.391 8.70033 105.787 8.67953 106.043 8.91045Z" fill="#1F2024"/>
<path fill-rule="evenodd" clip-rule="evenodd" d="M80.625 1.25C80.9702 1.25 81.25 1.52982 81.25 1.875V8.125C81.25 8.47018 80.9702 8.75 80.625 8.75C80.2798 8.75 80 8.47018 80 8.125V1.875C80 1.52982 80.2798 1.25 80.625 1.25Z" fill="#1F2024"/>
<path fill-rule="evenodd" clip-rule="evenodd" d="M105.63 34.9225C105.673 34.58 105.985 34.3371 106.328 34.3799L121.328 36.2549C121.67 36.2977 121.913 36.6101 121.87 36.9526C121.827 37.2951 121.515 37.5381 121.173 37.4952L106.173 35.6202C105.83 35.5774 105.587 35.2651 105.63 34.9225Z" fill="#1F2024"/>
</svg>
