<svg width="200" height="200" viewBox="0 0 200 200" fill="none" xmlns="http://www.w3.org/2000/svg">
<path d="M100.212 200C116.208 200 129.175 198.601 129.175 196.875C129.175 195.149 116.208 193.75 100.212 193.75C84.217 193.75 71.25 195.149 71.25 196.875C71.25 198.601 84.217 200 100.212 200Z" fill="#1F2024"/>
<path d="M123.125 67.5004C118.125 65.5004 115.208 70.0004 114.375 72.5004L90 152.5C93.75 157.5 103.875 168 114.375 170C127.5 172.5 135.625 160 140.625 153.75C145.625 147.5 145 133.125 135.625 128.75C126.25 124.375 128.75 103.125 123.125 93.7504C117.5 84.3754 129.375 70.0004 123.125 67.5004Z" fill="white"/>
<path fill-rule="evenodd" clip-rule="evenodd" d="M115.09 72.7288L90.8294 152.353C92.7172 154.812 96.0385 158.473 100.129 161.793C104.4 165.259 109.442 168.297 114.516 169.264C120.782 170.457 125.873 168.089 130.066 164.582C133.49 161.718 136.249 158.156 138.526 155.217C139.056 154.533 139.56 153.882 140.04 153.282C142.377 150.361 143.456 145.431 142.773 140.654C142.093 135.891 139.694 131.477 135.308 129.43C132.728 128.226 131.026 125.887 129.818 123.048C128.61 120.211 127.857 116.779 127.231 113.257C126.995 111.932 126.778 110.601 126.563 109.277C126.199 107.041 125.839 104.829 125.399 102.712C124.699 99.3512 123.821 96.3679 122.482 94.1365C120.967 91.6119 120.651 88.7812 120.884 85.9835C121.115 83.1937 121.899 80.3729 122.64 77.8371C122.706 77.6114 122.771 77.3884 122.836 77.1682C123.511 74.8693 124.097 72.8743 124.223 71.2792C124.292 70.4155 124.216 69.7528 124.002 69.2622C123.8 68.8016 123.455 68.4402 122.847 68.197C120.629 67.31 118.934 67.8581 117.661 68.8947C116.348 69.9643 115.477 71.5709 115.09 72.7288ZM116.714 67.7315C118.358 66.3932 120.621 65.6912 123.404 66.8043C124.358 67.186 125.009 67.8207 125.376 68.6614C125.731 69.4721 125.797 70.4158 125.719 71.3978C125.579 73.1585 124.946 75.3106 124.286 77.5559C124.217 77.789 124.148 78.0231 124.079 78.2579C123.336 80.8002 122.596 83.4872 122.379 86.1076C122.162 88.72 122.471 91.2018 123.768 93.3647C125.242 95.8208 126.16 99.0093 126.867 102.406C127.313 104.548 127.684 106.827 128.053 109.09C128.267 110.407 128.481 111.718 128.707 112.994C129.331 116.503 130.062 119.791 131.198 122.461C132.334 125.13 133.835 127.087 135.942 128.071C140.932 130.399 143.532 135.36 144.258 140.441C144.982 145.508 143.874 150.89 141.211 154.219C140.755 154.789 140.269 155.417 139.751 156.086C137.475 159.026 134.591 162.753 131.028 165.732C126.628 169.413 121.094 172.044 114.235 170.737C108.809 169.704 103.538 166.492 99.1839 162.958C94.8205 159.417 91.3096 155.496 89.4002 152.951L89.1719 152.646L113.661 72.2727L113.664 72.2634C114.111 70.922 115.115 69.0341 116.714 67.7315Z" fill="#1F2024"/>
<path d="M48.75 141.25C48.75 137.108 52.1079 133.75 56.25 133.75H62.5C66.6421 133.75 70 137.108 70 141.25C70 145.392 66.6421 148.75 62.5 148.75H56.25C52.1079 148.75 48.75 145.392 48.75 141.25Z" fill="white"/>
<path fill-rule="evenodd" clip-rule="evenodd" d="M48 141.25C48 136.694 51.6937 133 56.25 133H62.5C67.0564 133 70.75 136.694 70.75 141.25C70.75 145.806 67.0564 149.5 62.5 149.5H56.25C51.6937 149.5 48 145.806 48 141.25ZM56.25 134.5C52.5221 134.5 49.5 137.522 49.5 141.25C49.5 144.978 52.5221 148 56.25 148H62.5C66.2279 148 69.25 144.978 69.25 141.25C69.25 137.522 66.2279 134.5 62.5 134.5H56.25Z" fill="#1F2024"/>
<path fill-rule="evenodd" clip-rule="evenodd" d="M59.7319 51.4466C53.6795 52.9678 49.3576 59.1775 50.0786 65.3162L61.0116 158.406C61.3329 161.142 62.6016 163.402 64.4452 164.932L64.4513 164.937L70.9381 170.324L70.9412 170.326C73.2343 172.23 76.4168 173.004 79.7719 172.161L114.018 163.553C120.07 162.032 124.392 155.823 123.671 149.684L112.738 56.5942C112.417 53.8584 111.148 51.5984 109.305 50.0681L102.831 44.6919C102.824 44.6857 102.816 44.6796 102.809 44.6735C102.522 44.4356 102.222 44.2153 101.909 44.0136C101.413 43.6943 100.886 43.4217 100.334 43.1994C99.2009 42.7436 97.9597 42.4996 96.6581 42.5C95.7871 42.5002 94.889 42.61 93.9781 42.8389M115.637 151.752L123.671 149.684L115.337 152.269C115.344 152.258 115.351 152.246 115.357 152.235C115.454 152.076 115.547 151.915 115.637 151.752C115.637 151.752 115.637 151.752 115.637 151.752Z" fill="#1F2024"/>
<path d="M56.3288 70.3885C55.6052 64.2303 59.943 58.001 66.0175 56.4749L100.389 47.84C106.464 46.3139 111.975 50.069 112.698 56.2272L123.671 149.612C124.395 155.77 120.057 161.999 113.982 163.525L79.611 172.16C73.5365 173.686 68.0255 169.931 67.3019 163.773L56.3288 70.3885Z" fill="white"/>
<path fill-rule="evenodd" clip-rule="evenodd" d="M111.953 56.3147C111.284 50.6145 106.216 47.1494 100.572 48.5673L66.2003 57.2023C60.4856 58.6379 56.3948 64.5228 57.0738 70.3009L68.0468 163.685C68.7166 169.385 73.7843 172.851 79.4283 171.433L113.8 162.798C119.515 161.362 123.605 155.477 122.926 149.699L111.953 56.3147ZM100.206 47.1125C106.711 45.4783 112.666 49.5233 113.443 56.1396L124.416 149.524C125.184 156.062 120.6 162.636 114.165 164.252L79.7938 172.887C73.2888 174.522 67.3345 170.477 66.5571 163.86L55.584 70.476C54.8158 63.9376 59.4005 57.3639 65.8348 55.7475L100.206 47.1125Z" fill="#1F2024"/>
<path fill-rule="evenodd" clip-rule="evenodd" d="M100.937 50.0222L66.5657 58.6571C61.5707 59.912 57.9738 65.108 58.5634 70.1259L69.5365 163.51C70.0987 168.295 74.2802 171.179 79.0627 169.978L113.434 161.343C118.429 160.088 122.026 154.892 121.436 149.874L110.463 56.4898C109.901 51.7053 105.72 48.8207 100.937 50.0222ZM100.572 48.5674L66.2002 57.2024C60.4855 58.638 56.3947 64.5229 57.0737 70.301L68.0467 163.685C68.7165 169.385 73.7842 172.851 79.4282 171.433L113.8 162.798C119.514 161.362 123.605 155.477 122.926 149.699L111.953 56.3147C111.283 50.6146 106.216 47.1495 100.572 48.5674Z" fill="white"/>
<path d="M72.2721 58.1718C72.0927 56.6282 73.1682 55.0669 74.6743 54.6844L93.7639 49.8362C95.27 49.4537 96.6364 50.3949 96.8158 51.9385C96.9952 53.482 95.9197 55.0434 94.4136 55.4259L75.3241 60.274C73.8179 60.6565 72.4515 59.7153 72.2721 58.1718Z" fill="#1F2024"/>
<path fill-rule="evenodd" clip-rule="evenodd" d="M71.5443 58.3562C71.317 56.4012 72.6792 54.4237 74.5868 53.9392L93.6764 49.0911C95.5839 48.6066 97.3146 49.7987 97.5418 51.7537C97.769 53.7087 96.4068 55.6862 94.4993 56.1707L75.4097 61.0188C73.5021 61.5033 71.7715 60.3112 71.5443 58.3562ZM74.76 55.4292C73.6553 55.7097 72.8665 56.8549 72.9981 57.987C73.1297 59.1191 74.1319 59.8094 75.2365 59.5289L94.3261 54.6807C95.4307 54.4002 96.2195 53.255 96.088 52.1229C95.9564 50.9908 94.9542 50.3005 93.8495 50.581L74.76 55.4292Z" fill="#1F2024"/>
<path d="M72.2721 58.1718C72.0927 56.6282 73.1682 55.0669 74.6743 54.6844L93.7639 49.8362C95.27 49.4537 96.6364 50.3949 96.8158 51.9385C96.9952 53.482 95.9197 55.0434 94.4136 55.4259L75.3241 60.274C73.8179 60.6565 72.4515 59.7153 72.2721 58.1718Z" fill="#1F2024"/>
<path d="M74.4212 161.209C74.0624 158.122 76.2134 154.999 79.2256 154.234L110.587 146.269C113.599 145.504 116.332 147.387 116.691 150.474C117.05 153.561 114.899 156.684 111.886 157.449L80.5251 165.413C77.5128 166.178 74.78 164.296 74.4212 161.209Z" fill="#1F2024"/>
<path d="M35 96.25C35 92.1079 38.3579 88.75 42.5 88.75H50C54.1421 88.75 57.5 92.1079 57.5 96.25C57.5 100.392 54.1421 103.75 50 103.75H42.5C38.3579 103.75 35 100.392 35 96.25Z" fill="white"/>
<path fill-rule="evenodd" clip-rule="evenodd" d="M34.25 96.25C34.25 91.6937 37.9437 88 42.5 88H50C54.5564 88 58.25 91.6937 58.25 96.25C58.25 100.806 54.5563 104.5 50 104.5H42.5C37.9437 104.5 34.25 100.806 34.25 96.25ZM42.5 89.5C38.7721 89.5 35.75 92.5221 35.75 96.25C35.75 99.9779 38.7721 103 42.5 103H50C53.7279 103 56.75 99.9779 56.75 96.25C56.75 92.5221 53.7279 89.5 50 89.5H42.5Z" fill="#1F2024"/>
<path d="M33.75 111.25C33.75 107.108 37.1079 103.75 41.25 103.75H53.75C57.8921 103.75 61.25 107.108 61.25 111.25C61.25 115.392 57.8921 118.75 53.75 118.75H41.25C37.1079 118.75 33.75 115.392 33.75 111.25Z" fill="white"/>
<path fill-rule="evenodd" clip-rule="evenodd" d="M33 111.25C33 106.694 36.6937 103 41.25 103H53.75C58.3064 103 62 106.694 62 111.25C62 115.806 58.3063 119.5 53.75 119.5H41.25C36.6937 119.5 33 115.806 33 111.25ZM41.25 104.5C37.5221 104.5 34.5 107.522 34.5 111.25C34.5 114.978 37.5221 118 41.25 118H53.75C57.4779 118 60.5 114.978 60.5 111.25C60.5 107.522 57.4779 104.5 53.75 104.5H41.25Z" fill="#1F2024"/>
<path d="M40 126.25C40 122.108 43.3579 118.75 47.5 118.75H55C59.1421 118.75 62.5 122.108 62.5 126.25C62.5 130.392 59.1421 133.75 55 133.75H47.5C43.3579 133.75 40 130.392 40 126.25Z" fill="white"/>
<path fill-rule="evenodd" clip-rule="evenodd" d="M39.25 126.25C39.25 121.694 42.9437 118 47.5 118H55C59.5564 118 63.25 121.694 63.25 126.25C63.25 130.806 59.5563 134.5 55 134.5H47.5C42.9437 134.5 39.25 130.806 39.25 126.25ZM47.5 119.5C43.7721 119.5 40.75 122.522 40.75 126.25C40.75 129.978 43.7721 133 47.5 133H55C58.7279 133 61.75 129.978 61.75 126.25C61.75 122.522 58.7279 119.5 55 119.5H47.5Z" fill="#1F2024"/>
<path d="M79.9548 120.684C78.2895 121.154 76.8212 120.93 75.5501 120.014C74.2775 119.085 73.5281 117.715 73.3021 115.903C73.0776 114.103 73.4465 112.424 74.409 110.865C75.3714 109.306 76.7127 108.285 78.4328 107.799C79.4298 107.518 80.2941 107.446 81.0257 107.583C81.7683 107.717 82.4854 108.011 83.1773 108.466L82.0806 110.448C80.9222 109.709 79.7843 109.496 78.6667 109.811C77.5711 110.12 76.7149 110.803 76.0982 111.86C75.4924 112.913 75.267 114.062 75.4221 115.305C75.5758 116.537 76.0681 117.483 76.899 118.144C77.7285 118.792 78.6855 118.964 79.7702 118.658C80.4276 118.473 80.992 118.179 81.4635 117.776C81.9335 117.361 82.4029 116.806 82.8718 116.11L84.3474 117.165C83.7926 118.081 83.1765 118.825 82.4992 119.396C81.8219 119.967 80.9738 120.397 79.9548 120.684Z" fill="#1F2024"/>
<path d="M85.7342 118.833L89.2338 104.882L91.1073 104.354L97.7312 115.45L95.5947 116.052L94.0534 113.379L88.6137 114.913L87.8049 118.249L85.7342 118.833ZM89.1117 112.769L93.0724 111.652L90.4634 107.238L89.1117 112.769Z" fill="#1F2024"/>
<path d="M103.576 113.985C101.746 114.501 100.064 114.289 98.529 113.349L99.5501 111.443C100.835 112.196 102.113 112.394 103.384 112.035C104.008 111.859 104.484 111.578 104.81 111.192C105.145 110.79 105.283 110.347 105.222 109.862C105.165 109.4 104.943 109.082 104.559 108.908C104.173 108.723 103.449 108.645 102.386 108.675C101.007 108.709 99.9777 108.552 99.2992 108.204C98.6301 107.841 98.2277 107.114 98.0917 106.025C97.9588 104.959 98.218 103.991 98.8693 103.121C99.5192 102.239 100.419 101.635 101.57 101.311C103.147 100.866 104.604 100.995 105.939 101.697L105.06 103.655C103.891 103.102 102.797 102.969 101.778 103.256C101.198 103.42 100.755 103.692 100.451 104.072C100.158 104.449 100.039 104.857 100.093 105.295C100.154 105.78 100.382 106.108 100.777 106.279C101.182 106.434 101.945 106.501 103.065 106.479C104.377 106.453 105.364 106.634 106.025 107.024C106.697 107.411 107.096 108.107 107.221 109.114C107.365 110.263 107.1 111.275 106.426 112.152C105.753 113.028 104.803 113.639 103.576 113.985Z" fill="#1F2024"/>
<path d="M48.9664 43.7218L43.6014 45.2348L41.8741 34.8797L39.6022 35.7123L38.75 30.6034L46.4175 28.441L48.9664 43.7218Z" fill="black"/>
<path d="M65.1289 31.1516C65.2996 32.1749 65.314 33.2903 65.1721 34.4977C65.0277 35.6898 64.6206 36.8041 63.9509 37.8405C62.8833 39.485 61.3584 40.5867 59.3763 41.1457C57.3943 41.7047 55.6554 41.5234 54.1598 40.6019C53.9133 40.4492 53.6816 40.2818 53.4646 40.0998C52.8542 39.5879 52.3604 38.9604 51.9832 38.2174C51.4693 37.1949 51.1271 36.172 50.9564 35.1487C50.7882 34.1407 50.7764 33.0406 50.9208 31.8485C51.0627 30.6411 51.4685 29.5191 52.1382 28.4827C53.2059 26.8383 54.7307 25.7366 56.7128 25.1776C58.6949 24.6186 60.4337 24.7998 61.9294 25.7213C62.1717 25.8716 62.4 26.0364 62.614 26.216C63.2299 26.7324 63.7285 27.37 64.1098 28.1288C64.6211 29.136 64.9608 30.1436 65.1289 31.1516ZM57.4694 29.7137C57.0969 29.8188 56.7981 30.039 56.5732 30.3743C56.0317 31.1507 55.8769 32.2338 56.1087 33.6236C56.3039 34.7939 56.6843 35.6163 57.2497 36.091C57.3485 36.1739 57.4529 36.2462 57.5629 36.3079C57.8745 36.4919 58.2165 36.5313 58.5891 36.4263C58.917 36.3338 59.2083 36.1157 59.463 35.772C60.007 35.0109 60.1631 33.9354 59.9313 32.5456C59.7336 31.3604 59.3511 30.5297 58.7838 30.0535C58.6858 29.9712 58.5823 29.8995 58.4733 29.8384C58.1319 29.6628 57.7973 29.6212 57.4694 29.7137Z" fill="black"/>
<path d="M80.934 26.6941C81.1047 27.7174 81.1191 28.8328 80.9773 30.0402C80.8328 31.2323 80.4257 32.3466 79.756 33.383C78.6884 35.0274 77.1635 36.1291 75.1814 36.6882C73.1994 37.2472 71.4605 37.0659 69.9649 36.1444C69.7184 35.9917 69.4867 35.8243 69.2697 35.6423C68.6593 35.1304 68.1655 34.5029 67.7883 33.7599C67.2744 32.7374 66.9322 31.7145 66.7615 30.6912C66.5933 29.6832 66.5815 28.5831 66.7259 27.391C66.8678 26.1836 67.2736 25.0616 67.9433 24.0252C69.011 22.3808 70.5358 21.2791 72.5179 20.7201C74.5 20.1611 76.2388 20.3423 77.7345 21.2638C77.9769 21.4141 78.2051 21.5789 78.4191 21.7584C79.035 22.2749 79.5336 22.9125 79.9149 23.6713C80.4262 24.6785 80.7659 25.6861 80.934 26.6941ZM73.2745 25.2562C72.902 25.3613 72.6032 25.5815 72.3783 25.9168C71.8368 26.6932 71.682 27.7763 71.9138 29.1661C72.109 30.3364 72.4894 31.1588 73.0549 31.6335C73.1536 31.7164 73.258 31.7887 73.368 31.8504C73.6796 32.0344 74.0217 32.0738 74.3942 31.9688C74.7221 31.8763 75.0134 31.6582 75.2681 31.3145C75.8121 30.5534 75.9682 29.4779 75.7364 28.0881C75.5387 26.9029 75.1562 26.0722 74.5889 25.596C74.4909 25.5137 74.3874 25.442 74.2784 25.3809C73.937 25.2053 73.6024 25.1637 73.2745 25.2562Z" fill="black"/>
<path d="M96.7392 22.2366C96.9099 23.2599 96.9243 24.3753 96.7824 25.5827C96.6379 26.7748 96.2309 27.8891 95.5611 28.9255C94.4935 30.5699 92.9686 31.6716 90.9866 32.2306C89.0045 32.7896 87.2656 32.6084 85.77 31.6869C85.5235 31.5342 85.2918 31.3668 85.0748 31.1848C84.4644 30.6729 83.9706 30.0454 83.5934 29.3024C83.0796 28.2799 82.7373 27.257 82.5666 26.2337C82.3985 25.2257 82.3866 24.1256 82.531 22.9335C82.6729 21.7261 83.0787 20.6041 83.7485 19.5677C84.8161 17.9233 86.3409 16.8216 88.323 16.2626C90.3051 15.7036 92.0439 15.8848 93.5396 16.8063C93.782 16.9565 94.0102 17.1214 94.2243 17.3009C94.8401 17.8174 95.3387 18.455 95.72 19.2138C96.2313 20.221 96.571 21.2286 96.7392 22.2366ZM89.0797 20.7987C88.7071 20.9038 88.4083 21.124 88.1834 21.4593C87.6419 22.2356 87.4871 23.3188 87.719 24.7086C87.9142 25.8788 88.2945 26.7013 88.86 27.176C88.9587 27.2589 89.0631 27.3312 89.1731 27.3929C89.4847 27.5769 89.8268 27.6163 90.1993 27.5112C90.5272 27.4188 90.8185 27.2007 91.0733 26.857C91.6173 26.0959 91.7734 25.0204 91.5415 23.6305C91.3438 22.4454 90.9613 21.6147 90.3941 21.1385C90.296 21.0562 90.1925 20.9845 90.0835 20.9234C89.7421 20.7478 89.4075 20.7062 89.0797 20.7987Z" fill="black"/>
<path d="M98.511 23.0322L98.0524 20.2831L101.45 19.3248L100.866 15.8196L103.772 15L104.356 18.5052L107.754 17.5469L108.213 20.2961L104.815 21.2544L105.4 24.7595L102.494 25.5791L101.909 22.0739L98.511 23.0322Z" fill="black"/>
<path d="M105.83 28.3786L108.736 27.5591L105.4 24.7598L102.494 25.5794L105.83 28.3786Z" fill="black"/>
<path d="M108.735 27.5584L108.151 24.0532L104.814 21.2539L105.399 24.7591L108.735 27.5584Z" fill="black"/>
<path d="M108.151 24.0545L111.548 23.0962L108.212 20.2969L104.814 21.2552L108.151 24.0545Z" fill="black"/>
<path d="M111.549 23.0953L111.09 20.3462L107.754 17.5469L108.212 20.296L111.549 23.0953Z" fill="black"/>
<path d="M105.244 24.8735L105.829 28.3787L102.493 25.5794L101.908 22.0742L105.244 24.8735Z" fill="black"/>
<path d="M111.089 20.3462L107.692 21.3045L104.355 18.5052L107.753 17.5469L111.089 20.3462Z" fill="black"/>
<path d="M101.848 25.8318L105.246 24.8735L101.91 22.0742L98.5117 23.0325L101.848 25.8318Z" fill="black"/>
<path d="M98.8966 31.7242C99.5663 30.6877 99.9734 29.5735 100.118 28.3813L96.7818 25.582C96.6374 26.7742 96.2303 27.8884 95.5605 28.9249L98.8966 31.7242Z" fill="black"/>
<path d="M94.3224 35.0302C96.3045 34.4712 97.8293 33.3695 98.897 31.7251L95.5609 28.9258C94.4933 30.5702 92.9684 31.6719 90.9863 32.2309L94.3224 35.0302Z" fill="black"/>
<path d="M107.692 21.3045L107.108 17.7993L103.771 15L104.356 18.5052L107.692 21.3045Z" fill="black"/>
<path d="M100.118 28.3817C100.259 27.1743 100.245 26.0589 100.074 25.0356L96.7383 22.2363C96.909 23.2596 96.9234 24.375 96.7815 25.5824L100.118 28.3817Z" fill="black"/>
<path d="M101.389 23.0825L101.847 25.8317L98.5113 23.0324L98.0527 20.2832L101.389 23.0825Z" fill="black"/>
<path d="M104.787 22.1235L101.389 23.0818L98.0527 20.2825L101.451 19.3242L104.787 22.1235Z" fill="black"/>
<path d="M104.201 18.6196L104.786 22.1248L101.45 19.3255L100.865 15.8203L104.201 18.6196Z" fill="black"/>
<path d="M107.107 17.7993L104.201 18.6189L100.865 15.8196L103.771 15L107.107 17.7993Z" fill="black"/>
<path d="M89.1056 34.4868C90.6012 35.4083 92.3401 35.5895 94.3222 35.0305L90.9861 32.2312C89.004 32.7902 87.2652 32.609 85.7695 31.6875L89.1056 34.4868Z" fill="black"/>
<path d="M100.076 25.035C99.9078 24.027 99.568 23.0194 99.0568 22.0122L95.7207 19.2129C96.232 20.2201 96.5717 21.2277 96.7399 22.2357L100.076 25.035Z" fill="black"/>
<path d="M94.4092 29.6567C94.1544 30.0004 93.8631 30.2185 93.5353 30.311L90.1992 27.5117C90.5271 27.4192 90.8184 27.2011 91.0731 26.8574L94.4092 29.6567Z" fill="black"/>
<path d="M93.5361 30.3102C93.1635 30.4153 92.8214 30.3759 92.5099 30.1919L89.1738 27.3926C89.4854 27.5766 89.8275 27.616 90.2 27.5109L93.5361 30.3102Z" fill="black"/>
<path d="M94.8766 26.4301C95.1084 27.82 94.9523 28.8955 94.4083 29.6566L91.0723 26.8573C91.6163 26.0962 91.7724 25.0207 91.5405 23.6309L94.8766 26.4301Z" fill="black"/>
<path d="M92.5086 30.1919C92.3986 30.1303 92.2942 30.058 92.1954 29.9751L88.8601 27.1764C88.9586 27.259 89.0628 27.3311 89.1726 27.3927L92.5086 30.1919Z" fill="black"/>
<path d="M88.4103 33.9848C88.6273 34.1668 88.859 34.3342 89.1054 34.4869L85.7694 31.6876C85.5229 31.5349 85.2912 31.3675 85.0742 31.1855L88.4103 33.9848Z" fill="black"/>
<path d="M99.0564 22.0129C98.6751 21.2542 98.1765 20.6165 97.5607 20.1001L94.227 17.3028C94.8418 17.8189 95.3395 18.4559 95.7204 19.2136L99.0564 22.0129Z" fill="black"/>
<path d="M92.1958 29.9757C91.6303 29.501 91.25 28.6785 91.0548 27.5083L87.7188 24.709C87.9139 25.8792 88.2943 26.7017 88.8598 27.1764L92.1958 29.9757Z" fill="black"/>
<path d="M93.7306 23.938C94.2979 24.4142 94.6804 25.2449 94.8781 26.43L91.542 23.6307C91.3443 22.4456 90.9618 21.6149 90.3945 21.1387L93.7306 23.938Z" fill="black"/>
<path d="M86.9298 32.102C87.3065 32.8441 87.7995 33.4709 88.4088 33.9824L85.0752 31.1852C84.4648 30.6733 83.971 30.0458 83.5938 29.3027L86.9298 32.102Z" fill="black"/>
<path d="M97.5598 20.1006C97.3457 19.921 97.1175 19.7562 96.8751 19.6059L93.5391 16.8066C93.7815 16.9569 94.0097 17.1218 94.2237 17.3013L97.5598 20.1006Z" fill="black"/>
<path d="M93.42 23.7231C93.5288 23.7841 93.632 23.8555 93.7298 23.9375L90.3945 21.1389C90.2965 21.0566 90.193 20.9849 90.084 20.9238L93.42 23.7231Z" fill="black"/>
<path d="M91.0556 27.5076C90.8237 26.1178 90.9785 25.0347 91.52 24.2583L88.1839 21.459C87.6425 22.2354 87.4877 23.3185 87.7195 24.7083L91.0556 27.5076Z" fill="black"/>
<path d="M92.4161 23.5971C92.744 23.5047 93.0786 23.5462 93.42 23.7218L90.0839 20.9225C89.7426 20.7469 89.4079 20.7054 89.0801 20.7978L92.4161 23.5971Z" fill="black"/>
<path d="M83.0919 36.1832C83.7617 35.1467 84.1687 34.0324 84.3132 32.8403L80.9771 30.041C80.8327 31.2331 80.4256 32.3474 79.7559 33.3839L83.0919 36.1832Z" fill="black"/>
<path d="M78.5177 39.4872C80.4998 38.9282 82.0246 37.8265 83.0923 36.1821L79.7562 33.3828C78.6886 35.0272 77.1637 36.1289 75.1816 36.6879L78.5177 39.4872Z" fill="black"/>
<path d="M85.9025 29.0337C86.0732 30.057 86.4154 31.0798 86.9293 32.1023L83.5932 29.303C83.0794 28.2806 82.7371 27.2577 82.5664 26.2344L85.9025 29.0337Z" fill="black"/>
<path d="M91.5197 24.2587C91.7446 23.9234 92.0434 23.7032 92.4159 23.5981L89.0799 20.7988C88.7073 20.9039 88.4085 21.1241 88.1836 21.4594L91.5197 24.2587Z" fill="black"/>
<path d="M96.8749 19.6049C95.3793 18.6834 93.6404 18.5022 91.6583 19.0612L88.3223 16.2619C90.3043 15.7029 92.0432 15.8842 93.5388 16.8056L96.8749 19.6049Z" fill="black"/>
<path d="M84.3129 32.8387C84.4547 31.6313 84.4403 30.5159 84.2697 29.4926L80.9336 26.6934C81.1043 27.7167 81.1187 28.832 80.9768 30.0394L84.3129 32.8387Z" fill="black"/>
<path d="M85.8678 25.7329C85.7234 26.925 85.7352 28.0251 85.9034 29.0331L82.5673 26.2338C82.3992 25.2258 82.3873 24.1257 82.5317 22.9336L85.8678 25.7329Z" fill="black"/>
<path d="M73.3009 38.9438C74.7965 39.8653 76.5354 40.0465 78.5175 39.4875L75.1814 36.6883C73.1993 37.2473 71.4605 37.066 69.9648 36.1445L73.3009 38.9438Z" fill="black"/>
<path d="M84.2693 29.494C84.1011 28.486 83.7614 27.4784 83.2501 26.4712L79.9141 23.6719C80.4254 24.6791 80.7651 25.6867 80.9332 26.6947L84.2693 29.494Z" fill="black"/>
<path d="M78.6045 34.1137C78.3498 34.4574 78.0585 34.6755 77.7306 34.768L74.3945 31.9687C74.7224 31.8762 75.0137 31.6582 75.2684 31.3145L78.6045 34.1137Z" fill="black"/>
<path d="M91.6587 19.061C89.6766 19.62 88.1517 20.7217 87.0841 22.3661L83.748 19.5668C84.8157 17.9224 86.3405 16.8207 88.3226 16.2617L91.6587 19.061Z" fill="black"/>
<path d="M87.0847 22.3676C86.415 23.4041 86.0092 24.526 85.8673 25.7334L82.5312 22.9341C82.6731 21.7267 83.0789 20.6048 83.7487 19.5684L87.0847 22.3676Z" fill="black"/>
<path d="M77.7294 34.7673C77.3569 34.8723 77.0148 34.8329 76.7032 34.6489L73.3672 31.8496C73.6787 32.0336 74.0208 32.0731 74.3934 31.968L77.7294 34.7673Z" fill="black"/>
<path d="M79.0719 30.8872C79.3037 32.277 79.1477 33.3525 78.6036 34.1136L75.2676 31.3143C75.8116 30.5532 75.9677 29.4777 75.7358 28.0879L79.0719 30.8872Z" fill="black"/>
<path d="M76.7039 34.649C76.5939 34.5873 76.4895 34.515 76.3907 34.4321L73.0554 31.6334C73.1539 31.716 73.2581 31.7881 73.3679 31.8497L76.7039 34.649Z" fill="black"/>
<path d="M72.6056 38.4419C72.8226 38.6238 73.0543 38.7912 73.3008 38.944L69.9647 36.1447C69.7182 35.9919 69.4865 35.8245 69.2695 35.6426L72.6056 38.4419Z" fill="black"/>
<path d="M83.2517 26.4699C82.8704 25.7112 82.3718 25.0736 81.756 24.5571L78.4224 21.7599C79.0371 22.276 79.5349 22.9129 79.9157 23.6707L83.2517 26.4699Z" fill="black"/>
<path d="M76.3911 34.4327C75.8257 33.958 75.4453 33.1355 75.2501 31.9653L71.9141 29.166C72.1093 30.3362 72.4896 31.1587 73.0551 31.6334L76.3911 34.4327Z" fill="black"/>
<path d="M77.9259 28.395C78.4932 28.8712 78.8757 29.7019 79.0734 30.8871L75.7373 28.0878C75.5396 26.9027 75.1571 26.072 74.5898 25.5957L77.9259 28.395Z" fill="black"/>
<path d="M71.1251 36.5591C71.5018 37.3011 71.9948 37.9279 72.6041 38.4394L69.2705 35.6422C68.6601 35.1303 68.1663 34.5028 67.7891 33.7598L71.1251 36.5591Z" fill="black"/>
<path d="M81.7551 24.5576C81.5411 24.3781 81.3128 24.2132 81.0704 24.063L77.7344 21.2637C77.9768 21.4139 78.205 21.5788 78.419 21.7583L81.7551 24.5576Z" fill="black"/>
<path d="M77.6134 28.1801C77.7221 28.2411 77.8254 28.3126 77.9231 28.3946L74.5879 25.596C74.4899 25.5137 74.3864 25.442 74.2773 25.3809L77.6134 28.1801Z" fill="black"/>
<path d="M75.2489 31.9647C75.0171 30.5748 75.1719 29.4917 75.7134 28.7153L72.3773 25.916C71.8358 26.6924 71.681 27.7755 71.9128 29.1654L75.2489 31.9647Z" fill="black"/>
<path d="M76.6114 28.0561C76.9393 27.9637 77.2739 28.0052 77.6153 28.1808L74.2792 25.3815C73.9379 25.2059 73.6033 25.1644 73.2754 25.2568L76.6114 28.0561Z" fill="black"/>
<path d="M67.2872 40.6402C67.957 39.6038 68.364 38.4895 68.5085 37.2973L65.1724 34.498C65.028 35.6902 64.6209 36.8045 63.9512 37.8409L67.2872 40.6402Z" fill="black"/>
<path d="M62.713 43.9442C64.6951 43.3852 66.2199 42.2835 67.2876 40.6391L63.9515 37.8398C62.8839 39.4842 61.359 40.5859 59.377 41.145L62.713 43.9442Z" fill="black"/>
<path d="M70.0978 33.4907C70.2685 34.514 70.6107 35.5369 71.1246 36.5593L67.7885 33.7601C67.2747 32.7376 66.9324 31.7147 66.7617 30.6914L70.0978 33.4907Z" fill="black"/>
<path d="M75.715 28.7157C75.9399 28.3804 76.2387 28.1602 76.6112 28.0551L73.2752 25.2559C72.9026 25.3609 72.6038 25.5811 72.3789 25.9164L75.715 28.7157Z" fill="black"/>
<path d="M81.0702 24.0639C79.5746 23.1424 77.8357 22.9612 75.8536 23.5202L72.5176 20.7209C74.4997 20.1619 76.2385 20.3431 77.7341 21.2646L81.0702 24.0639Z" fill="black"/>
<path d="M68.5082 37.2977C68.6501 36.0903 68.6357 34.9749 68.465 33.9516L65.1289 31.1523C65.2996 32.1756 65.314 33.291 65.1721 34.4984L68.5082 37.2977Z" fill="black"/>
<path d="M70.0612 30.1899C69.9167 31.382 69.9286 32.4821 70.0967 33.4902L66.7607 30.6909C66.5925 29.6828 66.5807 28.5828 66.7251 27.3906L70.0612 30.1899Z" fill="black"/>
<path d="M57.4962 43.4008C58.9919 44.3223 60.7307 44.5036 62.7128 43.9446L59.3767 41.1453C57.3947 41.7043 55.6558 41.523 54.1602 40.6016L57.4962 43.4008Z" fill="black"/>
<path d="M68.4646 33.951C68.2964 32.943 67.9567 31.9354 67.4454 30.9282L64.1094 28.1289C64.6207 29.1361 64.9604 30.1437 65.1285 31.1517L68.4646 33.951Z" fill="black"/>
<path d="M62.7998 38.5708C62.5451 38.9145 62.2538 39.1326 61.9259 39.225L58.5898 36.4257C58.9177 36.3333 59.209 36.1152 59.4638 35.7715L62.7998 38.5708Z" fill="black"/>
<path d="M75.854 23.52C73.8719 24.079 72.3471 25.1807 71.2794 26.8251L67.9434 24.0258C69.011 22.3814 70.5359 21.2797 72.5179 20.7207L75.854 23.52Z" fill="black"/>
<path d="M71.28 26.8247C70.6103 27.8611 70.2045 28.983 70.0626 30.1904L66.7266 27.3912C66.8684 26.1838 67.2743 25.0618 67.944 24.0254L71.28 26.8247Z" fill="black"/>
<path d="M61.9248 39.2263C61.5522 39.3313 61.2101 39.2919 60.8986 39.1079L57.5625 36.3086C57.8741 36.4926 58.2161 36.532 58.5887 36.427L61.9248 39.2263Z" fill="black"/>
<path d="M63.2672 35.3442C63.499 36.7341 63.343 37.8095 62.799 38.5707L59.4629 35.7714C60.0069 35.0103 60.163 33.9348 59.9312 32.5449L63.2672 35.3442Z" fill="black"/>
<path d="M60.8992 39.108C60.7892 39.0463 60.6848 38.974 60.5861 38.8911L57.2507 36.0924C57.3492 36.175 57.4534 36.2471 57.5632 36.3087L60.8992 39.108Z" fill="black"/>
<path d="M56.8009 42.8989C57.0179 43.0809 57.2496 43.2482 57.4961 43.401L54.16 40.6017C53.9135 40.4489 53.6818 40.2816 53.4648 40.0996L56.8009 42.8989Z" fill="black"/>
<path d="M67.4451 30.9289C67.0638 30.1702 66.5652 29.5326 65.9493 29.0161L62.6157 26.2189C63.2305 26.735 63.7282 27.3719 64.109 28.1296L67.4451 30.9289Z" fill="black"/>
<path d="M60.5864 38.8897C60.021 38.415 59.6406 37.5926 59.4454 36.4223L56.1094 33.623C56.3046 34.7933 56.6849 35.6157 57.2504 36.0904L60.5864 38.8897Z" fill="black"/>
<path d="M62.1193 32.852C62.6866 33.3283 63.0691 34.159 63.2667 35.3441L59.9307 32.5448C59.733 31.3597 59.3505 30.529 58.7832 30.0527L62.1193 32.852Z" fill="black"/>
<path d="M55.3185 41.0161C55.6952 41.7581 56.1882 42.3849 56.7975 42.8965L53.4639 40.0993C52.8534 39.5874 52.3596 38.9599 51.9824 38.2168L55.3185 41.0161Z" fill="black"/>
<path d="M65.9504 29.0146C65.7364 28.8351 65.5081 28.6702 65.2657 28.52L61.9297 25.7207C62.1721 25.8709 62.4003 26.0358 62.6144 26.2153L65.9504 29.0146Z" fill="black"/>
<path d="M61.8087 32.6372C61.9174 32.6981 62.0207 32.7696 62.1185 32.8516L58.7832 30.053C58.6852 29.9707 58.5817 29.899 58.4727 29.8379L61.8087 32.6372Z" fill="black"/>
<path d="M46.9376 48.035L52.3026 46.5219L48.9666 43.7227L43.6016 45.2357L46.9376 48.035Z" fill="black"/>
<path d="M59.4442 36.4236C59.2124 35.0338 59.3672 33.9507 59.9087 33.1743L56.5726 30.375C56.0311 31.1514 55.8763 32.2345 56.1082 33.6244L59.4442 36.4236Z" fill="black"/>
<path d="M60.8048 32.5132C61.1327 32.4207 61.4673 32.4622 61.8087 32.6378L58.4726 29.8385C58.1312 29.663 57.7966 29.6214 57.4688 29.7139L60.8048 32.5132Z" fill="black"/>
<path d="M54.2931 37.9477C54.4638 38.971 54.806 39.9939 55.3199 41.0164L51.9838 38.2171C51.47 37.1946 51.1277 36.1717 50.957 35.1484L54.2931 37.9477Z" fill="black"/>
<path d="M59.9083 33.1727C60.1333 32.8374 60.432 32.6173 60.8046 32.5122L57.4685 29.7129C57.096 29.818 56.7972 30.0382 56.5723 30.3735L59.9083 33.1727Z" fill="black"/>
<path d="M65.2655 28.5209C63.7699 27.5995 62.031 27.4182 60.049 27.9772L56.7129 25.1779C58.695 24.6189 60.4338 24.8002 61.9295 25.7217L65.2655 28.5209Z" fill="black"/>
<path d="M54.2565 34.6469C54.112 35.8391 54.1239 36.9392 54.292 37.9472L50.956 35.1479C50.7878 34.1399 50.776 33.0398 50.9204 31.8477L54.2565 34.6469Z" fill="black"/>
<path d="M52.3029 46.5215L49.754 31.2407L46.418 28.4414L48.9669 43.7222L52.3029 46.5215Z" fill="black"/>
<path d="M60.0493 27.977C58.0672 28.536 56.5424 29.6377 55.4747 31.2821L52.1387 28.4828C53.2063 26.8384 54.7312 25.7367 56.7132 25.1777L60.0493 27.977Z" fill="black"/>
<path d="M55.4734 31.2817C54.8037 32.3181 54.3979 33.4401 54.256 34.6475L50.9199 31.8482C51.0618 30.6408 51.4676 29.5189 52.1373 28.4824L55.4734 31.2817Z" fill="black"/>
<path d="M45.2111 37.6782L46.9383 48.0334L43.6023 45.2341L41.875 34.8789L45.2111 37.6782Z" fill="black"/>
<path d="M42.9376 38.5108L45.2095 37.6782L41.8735 34.8789L39.6016 35.7116L42.9376 38.5108Z" fill="black"/>
<path d="M49.7536 31.2407L42.0861 33.4032L38.75 30.6039L46.4175 28.4414L49.7536 31.2407Z" fill="black"/>
<path d="M42.0861 33.4028L42.9382 38.5117L39.6022 35.7124L38.75 30.6035L42.0861 33.4028Z" fill="black"/>
<path d="M51.8696 45.9987L46.4631 47.5L44.7225 37.2252L42.433 38.0514L41.5742 32.9822L49.301 30.8366L51.8696 45.9987Z" fill="white"/>
<path d="M68.1572 33.5262C68.3292 34.5415 68.3437 35.6482 68.2007 36.8462C68.0552 38.0291 67.6449 39.1348 66.97 40.1631C65.8941 41.7948 64.3575 42.8879 62.3601 43.4426C60.3627 43.9972 58.6104 43.8174 57.1032 42.9031C56.1561 42.3251 55.425 41.5364 54.9097 40.537C54.3919 39.5225 54.047 38.5076 53.875 37.4922C53.7056 36.492 53.6936 35.4005 53.8392 34.2176C53.9821 33.0196 54.3911 31.9064 55.066 30.878C56.1419 29.2463 57.6785 28.1532 59.6759 27.5985C61.6733 27.0439 63.4256 27.2237 64.9329 28.138C65.8799 28.716 66.6123 29.5123 67.1301 30.5268C67.6454 31.5262 67.9877 32.526 68.1572 33.5262ZM60.4384 32.0994C60.063 32.2037 59.7619 32.4222 59.5352 32.7549C58.9896 33.5252 58.8336 34.5999 59.0672 35.979C59.2983 37.3429 59.7867 38.2307 60.5326 38.6424C60.8466 38.8249 61.1913 38.8641 61.5668 38.7598C61.8972 38.6681 62.1907 38.4517 62.4474 38.1107C62.9957 37.3555 63.153 36.2883 62.9193 34.9093C62.6857 33.5302 62.1959 32.6348 61.45 32.2231C61.106 32.0489 60.7688 32.0077 60.4384 32.0994Z" fill="white"/>
<path d="M84.0845 29.1033C84.2566 30.1186 84.2711 31.2253 84.1281 32.4234C83.9825 33.6062 83.5723 34.7119 82.8974 35.7403C81.8215 37.3719 80.2849 38.465 78.2874 39.0197C76.29 39.5744 74.5377 39.3945 73.0305 38.4802C72.0835 37.9022 71.3523 37.1135 70.8371 36.1142C70.3193 35.0996 69.9744 34.0847 69.8024 33.0693C69.6329 32.0691 69.621 30.9776 69.7665 29.7947C69.9095 28.5967 70.3184 27.4835 70.9934 26.4551C72.0693 24.8235 73.6059 23.7303 75.6033 23.1757C77.6007 22.621 79.353 22.8008 80.8602 23.7152C81.8073 24.2931 82.5397 25.0894 83.0575 26.1039C83.5728 27.1033 83.9151 28.1031 84.0845 29.1033ZM76.3658 27.6765C75.9903 27.7808 75.6893 27.9993 75.4626 28.332C74.917 29.1023 74.7609 30.177 74.9946 31.5561C75.2256 32.92 75.7141 33.8078 76.46 34.2195C76.774 34.4021 77.1187 34.4412 77.4941 34.337C77.8245 34.2452 78.1181 34.0288 78.3748 33.6878C78.923 32.9326 79.0803 31.8655 78.8467 30.4864C78.6131 29.1073 78.1233 28.212 77.3774 27.8003C77.0334 27.626 76.6962 27.5848 76.3658 27.6765Z" fill="white"/>
<path d="M100.012 24.6804C100.184 25.6958 100.198 26.8025 100.055 28.0005C99.9099 29.1834 99.4997 30.289 98.8248 31.3174C97.7489 32.949 96.2122 34.0421 94.2148 34.5968C92.2174 35.1515 90.4651 34.9716 88.9579 34.0573C88.0108 33.4793 87.2797 32.6906 86.7645 31.6913C86.2467 30.6767 85.9017 29.6618 85.7297 28.6464C85.5603 27.6462 85.5483 26.5547 85.6939 25.3718C85.8369 24.1738 86.2458 23.0606 86.9207 22.0322C87.9966 20.4006 89.5333 19.3074 91.5307 18.7528C93.5281 18.1981 95.2804 18.3779 96.7876 19.2923C97.7346 19.8703 98.4671 20.6665 98.9849 21.6811C99.5001 22.6804 99.8425 23.6802 100.012 24.6804ZM92.2932 23.2537C91.9177 23.3579 91.6166 23.5764 91.39 23.9091C90.8443 24.6794 90.6883 25.7542 90.9219 27.1332C91.153 28.4971 91.6415 29.3849 92.3874 29.7966C92.7013 29.9792 93.0461 30.0183 93.4215 29.9141C93.7519 29.8223 94.0455 29.6059 94.3022 29.2649C94.8504 28.5097 95.0077 27.4426 94.7741 26.0635C94.5404 24.6844 94.0507 23.7891 93.3048 23.3774C92.9608 23.2032 92.6236 23.1619 92.2932 23.2537Z" fill="white"/>
<path d="M101.797 25.4698L101.335 22.742L104.759 21.7912L104.17 18.3132L107.099 17.5L107.688 20.978L111.112 20.0271L111.574 22.7549L108.15 23.7058L108.739 27.1837L105.811 27.997L105.222 24.519L101.797 25.4698Z" fill="white"/>
<path fill-rule="evenodd" clip-rule="evenodd" d="M107.976 17.6324C108.185 17.762 108.328 17.9725 108.368 18.2111L108.793 20.6996L111.257 20.021C111.496 19.9553 111.751 19.9918 111.961 20.1214C112.17 20.251 112.313 20.4615 112.353 20.7001L112.812 23.3868C112.885 23.815 112.617 24.2283 112.189 24.3461L109.541 25.0756L109.997 27.7488C110.07 28.177 109.802 28.5903 109.374 28.7081L106.466 29.5091C106.228 29.5748 105.972 29.5382 105.763 29.4086C105.554 29.279 105.411 29.0686 105.37 28.8299L104.945 26.3414L102.481 27.0201C102.243 27.0858 101.987 27.0492 101.778 26.9196C101.646 26.8381 101.541 26.7245 101.471 26.5921C101.503 27.2968 101.472 28.0308 101.381 28.7927L101.38 28.7957C101.219 30.0925 100.765 31.3039 100.025 32.4222L100.024 32.4237C98.8343 34.2133 97.1277 35.4101 94.9521 36.0094C92.7783 36.6082 90.7787 36.4306 89.0385 35.3835L89.0365 35.3823C87.9573 34.729 87.1228 33.8339 86.5405 32.7138L86.5389 32.7107C86.1273 31.9107 85.815 31.1033 85.6058 30.2892C85.7014 31.1922 85.6861 32.1464 85.5654 33.1489L85.5651 33.1519C85.4042 34.4487 84.9497 35.6601 84.2098 36.7784L84.2088 36.7799C83.0192 38.5695 81.3126 39.7663 79.1369 40.3656C76.9632 40.9644 74.9636 40.7868 73.2233 39.7397L73.2213 39.7385C72.1422 39.0852 71.3076 38.1901 70.7254 37.0699L70.7238 37.0669C70.3121 36.2669 69.9999 35.4595 69.7907 34.6454C69.8863 35.5484 69.8709 36.5026 69.7503 37.5051L69.7499 37.5081C69.5891 38.8049 69.1346 40.0163 68.3947 41.1346L68.3937 41.1361C67.204 42.9256 65.4975 44.1225 63.3218 44.7218C61.148 45.3206 59.1484 45.143 57.4082 44.0959L57.4062 44.0947C56.3271 43.4414 55.4925 42.5463 54.9103 41.4261L54.9087 41.4231C54.3592 40.3553 53.9869 39.2744 53.8003 38.182C53.6163 37.1046 53.6063 35.9473 53.759 34.7158C53.9169 33.4052 54.3695 32.1855 55.1105 31.0655L55.1116 31.0639C56.3012 29.2744 58.0078 28.0775 60.1834 27.4782C62.3572 26.8795 64.3568 27.057 66.097 28.1041L66.0991 28.1053C67.1807 28.7601 68.0161 29.6643 68.5998 30.7982C69.0096 31.5868 69.3201 32.3831 69.5275 33.1862C69.4337 32.2941 69.4512 31.3509 69.5741 30.3597C69.732 29.049 70.1846 27.8293 70.9257 26.7093L70.9267 26.7077C72.1163 24.9182 73.8229 23.7213 75.9986 23.122C78.1723 22.5233 80.172 22.7008 81.9122 23.7479L81.9142 23.7491C82.9958 24.4039 83.8312 25.3081 84.4149 26.4419C84.8247 27.2306 85.1352 28.0268 85.3426 28.83C85.2488 27.9379 85.2664 26.9947 85.3892 26.0035C85.5472 24.6928 85.9997 23.4732 86.7408 22.3531L86.7418 22.3515C87.9315 20.562 89.638 19.3651 91.8137 18.7658C93.9875 18.1671 95.9871 18.3446 97.7273 19.3918L97.7293 19.393C98.811 20.0478 99.6463 20.9519 100.23 22.0858C100.517 22.6372 100.755 23.1924 100.943 23.751L100.926 23.6542C100.853 23.2261 101.122 22.8128 101.549 22.6949L104.198 21.9655L103.741 19.2922C103.668 18.8641 103.936 18.4507 104.364 18.3329L107.272 17.532C107.511 17.4663 107.766 17.5028 107.976 17.6324ZM105.589 19.7644L106.046 22.4376C106.119 22.8658 105.85 23.2791 105.422 23.3969L102.774 24.1264L102.944 25.1238L105.408 24.4451C105.647 24.3794 105.902 24.416 106.112 24.5456C106.321 24.6752 106.464 24.8856 106.504 25.1243L106.929 27.6128L108.15 27.2767L107.693 24.6034C107.62 24.1753 107.888 23.762 108.316 23.6442L110.964 22.9147L110.794 21.9173L108.33 22.5959C108.092 22.6616 107.836 22.6251 107.627 22.4955C107.418 22.3659 107.275 22.1554 107.234 21.9168L106.809 19.4283L105.589 19.7644ZM96.8122 20.8406C95.5594 20.0871 94.0793 19.9106 92.2868 20.4043C90.4963 20.8975 89.1514 21.8536 88.2045 23.2775C87.6057 24.1827 87.2464 25.1552 87.1202 26.2037L87.1198 26.2067C86.9836 27.3048 86.9974 28.2971 87.1499 29.1895C87.3048 30.0967 87.6172 31.0147 88.0957 31.945C88.5364 32.7921 89.1531 33.4498 89.9536 33.9346C91.2064 34.6882 92.6864 34.8647 94.4789 34.371C96.2698 33.8777 97.6148 32.9214 98.5617 31.4971C99.1614 30.5904 99.5213 29.6248 99.6496 28.5925C99.7834 27.4795 99.7672 26.4717 99.6121 25.5634C99.4599 24.6721 99.1505 23.7697 98.6748 22.8545L98.6732 22.8514C98.2289 21.9878 97.6103 21.3241 96.8122 20.8406ZM80.9969 25.1967C79.7441 24.4433 78.2641 24.2668 76.4717 24.7605C74.6812 25.2537 73.3363 26.2098 72.3893 27.6337C71.7906 28.5389 71.4312 29.5113 71.3051 30.5599L71.3047 30.5629C71.1685 31.661 71.1823 32.6533 71.3347 33.5457C71.4897 34.4529 71.8021 35.3709 72.2806 36.3012C72.7213 37.1483 73.338 37.806 74.1385 38.2908C75.3913 39.0444 76.8713 39.2209 78.6638 38.7272C80.4543 38.234 81.7991 37.2779 82.7461 35.8541C83.3461 34.9471 83.7061 33.9813 83.8344 32.9488C83.9682 31.8357 83.9521 30.8279 83.797 29.9196C83.6447 29.0283 83.3354 28.1259 82.8597 27.2107L82.8581 27.2076C82.4137 26.344 81.7951 25.6802 80.9969 25.1967ZM92.5708 23.1989C93.1385 23.0425 93.6997 23.1264 94.2105 23.383C94.2198 23.3877 94.2289 23.3925 94.238 23.3974C95.3258 23.993 95.8832 25.1976 96.1305 26.6455C96.3815 28.1153 96.245 29.4311 95.5113 30.4336L95.5025 30.4456L95.5024 30.4455C95.1625 30.8934 94.7212 31.2439 94.1644 31.3973C93.5834 31.5573 92.9964 31.5029 92.4665 31.2003C91.3863 30.6044 90.8309 29.4122 90.5862 27.9792C90.3353 26.5104 90.4714 25.1956 91.1913 24.1829C91.526 23.6987 91.9923 23.3582 92.5708 23.1989ZM93.3992 24.89C93.2349 24.8104 93.1301 24.8136 93.044 24.8373C92.8795 24.8826 92.7495 24.9702 92.6343 25.1378L92.6255 25.1506L92.6254 25.1506C92.2656 25.6545 92.0929 26.4543 92.3055 27.6991C92.519 28.949 92.9315 29.5033 93.3271 29.7199L93.3442 29.7293L93.3441 29.7295C93.4354 29.7821 93.5297 29.8033 93.6912 29.7588C93.7896 29.7317 93.9297 29.6571 94.0976 29.4377C94.4497 28.9522 94.6232 28.1672 94.4112 26.9256C94.197 25.6715 93.7888 25.1108 93.3992 24.89ZM65.1816 29.5528C63.9289 28.7994 62.4489 28.623 60.6566 29.1167C58.8661 29.6099 57.5212 30.5659 56.5743 31.9898C55.9755 32.8949 55.6161 33.8675 55.4899 34.916L55.4896 34.9191C55.3533 36.0172 55.3672 37.0095 55.5196 37.9019C55.6745 38.809 55.9869 39.7269 56.4654 40.6572C56.9061 41.5043 57.5227 42.162 58.3232 42.6469C59.576 43.4005 61.0561 43.5771 62.8487 43.0833C64.6392 42.5902 65.984 41.6341 66.931 40.2102C67.5309 39.3033 67.891 38.3374 68.0193 37.3049C68.1531 36.1919 68.137 35.1841 67.9818 34.2758C67.8296 33.3845 67.5202 32.482 67.0446 31.5669L67.043 31.5638C66.5985 30.7001 65.9799 30.0363 65.1816 29.5528ZM76.7557 27.5551C77.3233 27.3987 77.8846 27.4826 78.3954 27.7392C78.4046 27.7438 78.4138 27.7487 78.4229 27.7536C79.5106 28.3491 80.0681 29.5538 80.3153 31.0017C80.5664 32.4715 80.4299 33.7873 79.6962 34.7898L79.6874 34.8018L79.6873 34.8017C79.3474 35.2496 78.9061 35.6001 78.3492 35.7535C77.7683 35.9135 77.1813 35.8591 76.6514 35.5565C75.5712 34.9606 75.0158 33.7685 74.771 32.3354C74.5202 30.8666 74.6562 29.5518 75.3762 28.5391C75.7108 28.0549 76.1772 27.7144 76.7557 27.5551ZM77.5841 29.2462C77.4198 29.1666 77.3149 29.1698 77.2288 29.1935C77.0644 29.2388 76.9344 29.3264 76.8192 29.494L76.8104 29.5068L76.8103 29.5067C76.4505 30.0106 76.2778 30.8105 76.4903 32.0553C76.7038 33.3052 77.1163 33.8595 77.512 34.0761L77.5291 34.0855L77.529 34.0856C77.6203 34.1383 77.7146 34.1595 77.8761 34.115C77.9744 34.0879 78.1145 34.0133 78.2824 33.7939C78.6345 33.3084 78.8081 32.5234 78.596 31.2818C78.3818 30.0277 77.9736 29.467 77.5841 29.2462ZM50.5851 30.7679C50.7943 30.8975 50.9371 31.108 50.9779 31.3466L53.5284 46.2801C53.6015 46.7082 53.333 47.1215 52.9053 47.2393L47.5369 48.718C47.2984 48.7837 47.0426 48.7472 46.8334 48.6176C46.6242 48.488 46.4814 48.2775 46.4406 48.0389L44.8852 38.9314L43.5985 39.3919C43.3549 39.4791 43.0843 39.4558 42.8602 39.3284C42.636 39.2009 42.4816 38.9826 42.4389 38.7328L41.5862 33.74C41.5131 33.3119 41.7815 32.8986 42.2093 32.7807L49.8816 30.6674C50.1201 30.6018 50.3759 30.6383 50.5851 30.7679ZM43.434 34.2122L43.9853 37.4403L45.272 36.9798C45.5155 36.8926 45.7862 36.9159 46.0103 37.0433C46.2345 37.1708 46.3889 37.3891 46.4316 37.6389L47.9999 46.8217L51.6806 45.8079L49.4186 32.5638L43.434 34.2122ZM60.9406 31.9112C61.5082 31.7549 62.0695 31.8388 62.5803 32.0954C62.586 32.0983 62.5917 32.1012 62.5974 32.1042C62.6009 32.1061 62.6043 32.1079 62.6078 32.1098C63.6955 32.7053 64.2529 33.91 64.5002 35.3579C64.7512 36.8277 64.6147 38.1435 63.881 39.146L63.8723 39.158L63.8722 39.1579C63.5323 39.6058 63.091 39.9563 62.5341 40.1097C61.9532 40.2697 61.3662 40.2152 60.8363 39.9127C59.756 39.3168 59.2007 38.1246 58.9559 36.6916C58.705 35.2228 58.8411 33.908 59.5611 32.8953C59.8957 32.4111 60.362 32.0706 60.9406 31.9112ZM61.769 33.6023C61.6047 33.5228 61.4998 33.526 61.4137 33.5497C61.2492 33.595 61.1192 33.6825 61.0041 33.8502L60.9953 33.863L60.9952 33.8629C60.6353 34.3668 60.4626 35.1667 60.6752 36.4115C60.8887 37.6614 61.3012 38.2157 61.6968 38.4323L61.714 38.4416L61.7139 38.4418C61.8052 38.4945 61.8994 38.5157 62.061 38.4712C62.1593 38.4441 62.2994 38.3695 62.4673 38.1501C62.8194 37.6646 62.993 36.8796 62.7809 35.638C62.5667 34.3839 62.1585 33.8232 61.769 33.6023Z" fill="black"/>
</svg>
