<svg width="200" height="200" viewBox="0 0 200 200" fill="none" xmlns="http://www.w3.org/2000/svg">
<path d="M113.053 50.8995L105.426 44.4995C105.419 44.4938 105.412 44.488 105.405 44.4823C102.86 42.3471 99.2851 41.4921 95.8112 42.6482L25.8467 65.9318C25.8467 65.9318 25.8467 65.9318 25.8467 65.9318C25.0529 66.196 24.3108 66.5523 23.63 66.9859C20.5005 68.9792 18.6663 72.6065 19.0557 76.4327L21.6932 102.346C21.7105 102.517 21.732 102.685 21.7574 102.853C22.1391 105.36 23.4186 107.489 25.2053 108.988L32.8657 115.416C35.4112 117.551 38.986 118.406 42.4598 117.25L42.8922 117.106L50.4379 123.438C50.9472 123.865 51.7817 123.872 52.2571 123.231L61.3623 110.959L112.424 93.9662C116.867 92.4876 119.689 88.1238 119.215 83.4653L116.578 57.5519C116.3 54.8249 114.972 52.5087 113.066 50.9102L113.053 50.8995Z" fill="black"/>
<path fill-rule="evenodd" clip-rule="evenodd" d="M33.5067 72.36C29.0637 73.8386 26.2416 78.2023 26.7158 82.8609L29.3532 108.774C30.0015 115.144 36.3847 119.272 42.4595 117.25L50.0029 114.74L50.0029 122.486C50.0029 123.691 51.539 124.198 52.2567 123.231L61.3619 110.96L112.424 93.9665C116.867 92.4879 119.689 88.1242 119.215 83.4656L116.577 57.5522C115.929 51.1828 109.546 47.0547 103.471 49.0764L33.5067 72.36Z" fill="white"/>
<path fill-rule="evenodd" clip-rule="evenodd" d="M33.7431 73.0717C29.6333 74.4394 27.0229 78.4759 27.4614 82.7851L30.0989 108.698C30.6985 114.59 36.6031 118.409 42.2222 116.539L50.7524 113.7L50.7524 122.486C50.7524 122.968 51.3669 123.171 51.654 122.784L60.9001 110.323L112.187 93.255C116.296 91.8873 118.907 87.8508 118.468 83.5416L115.831 57.6282C115.231 51.7366 109.327 47.9181 103.708 49.7881L33.7431 73.0717ZM25.9692 82.9369C25.4595 77.929 28.4932 73.238 33.2694 71.6484L103.234 48.3648C109.764 46.1916 116.626 50.6293 117.323 57.4763L119.961 83.3898C120.47 88.3977 117.437 93.0887 112.66 94.6782L61.8228 111.597L52.8586 123.678C51.7102 125.226 49.2524 124.414 49.2524 122.486L49.2524 115.78L42.6958 117.962C36.1655 120.135 29.3035 115.697 28.6066 108.85L25.9692 82.9369Z" fill="#1F2024"/>
<path d="M160.994 80.3307C159.419 80.0507 157.747 80.1461 156.097 80.6952L148.436 74.2673C151.91 73.1112 155.485 73.9662 158.03 76.1014L158.033 76.1036L165.691 82.5293C167.597 84.1279 168.925 86.444 169.203 89.171L171.84 115.084C172.314 119.743 169.492 124.107 165.049 125.585L152.77 129.672L144.893 140.288C144.418 140.929 143.583 140.922 143.074 140.495L136.592 135.056L95.0849 148.869C91.611 150.025 88.0362 149.17 85.4907 147.035L77.8303 140.607C75.9245 139.008 74.5957 136.692 74.3182 133.965L71.6807 108.052L79.3411 114.48L81.9786 140.393C82.0648 141.24 82.2524 142.047 82.5271 142.806C84.1016 143.086 85.7744 142.99 87.4244 142.441L134.979 126.615L139.681 130.561L145.11 123.244L157.389 119.157C161.832 117.679 164.654 113.315 164.18 108.657L161.542 82.7431C161.456 81.8963 161.269 81.0891 160.994 80.3307Z" fill="black"/>
<path d="M78.4717 97.5509C74.0287 99.0295 71.2066 103.393 71.6807 108.052L79.3411 114.48C78.8671 109.821 81.6891 105.457 86.1321 103.979L156.097 80.6952L148.436 74.2673L78.4717 97.5509Z" fill="black"/>
<path d="M78.4717 97.5509C74.0287 99.0295 71.2066 103.393 71.6807 108.052L74.3182 133.965C74.5957 136.692 75.9245 139.008 77.8303 140.607C80.3758 142.742 83.9505 143.597 87.4244 142.441L134.979 126.615L134.979 133.115C134.979 133.522 135.154 133.849 135.413 134.067C135.923 134.494 136.757 134.501 137.233 133.86L145.11 123.244L157.389 119.157C161.832 117.679 164.654 113.315 164.18 108.657L161.542 82.7431C161.265 80.0162 159.936 77.7 158.03 76.1014C155.485 73.9662 151.91 73.1112 148.436 74.2673L78.4717 97.5509Z" fill="black"/>
<path fill-rule="evenodd" clip-rule="evenodd" d="M86.1317 103.979C81.6887 105.458 78.8666 109.821 79.3408 114.48L81.9782 140.393C82.6265 146.763 89.0097 150.891 95.0845 148.869L142.639 133.044L142.639 139.543C142.639 140.748 144.175 141.256 144.893 140.288L152.77 129.672L165.049 125.586C169.492 124.107 172.314 119.743 171.84 115.085L169.202 89.1713C168.554 82.802 162.171 78.6739 156.096 80.6955L86.1317 103.979Z" fill="white"/>
<path fill-rule="evenodd" clip-rule="evenodd" d="M86.3681 104.691C82.2583 106.059 79.6479 110.095 80.0864 114.404L82.7239 140.318C83.3235 146.209 89.2281 150.028 94.8472 148.158L143.388 132.004L143.388 139.544C143.388 140.025 144.003 140.228 144.29 139.841L152.308 129.035L164.812 124.874C168.921 123.506 171.532 119.47 171.093 115.161L168.456 89.2474C167.856 83.3557 161.952 79.5372 156.333 81.4072L86.3681 104.691ZM78.5942 114.556C78.0845 109.548 81.1182 104.857 85.8944 103.268L155.859 79.984C162.389 77.8107 169.251 82.2484 169.948 89.0955L172.586 115.009C173.095 120.017 170.062 124.708 165.285 126.297L153.231 130.309L145.495 140.735C144.346 142.283 141.888 141.471 141.888 139.544L141.888 134.084L95.3208 149.581C88.7905 151.754 81.9285 147.317 81.2316 140.47L78.5942 114.556Z" fill="#1F2024"/>
<path d="M100 200C124.162 200 143.75 198.041 143.75 195.625C143.75 193.209 124.162 191.25 100 191.25C75.8375 191.25 56.25 193.209 56.25 195.625C56.25 198.041 75.8375 200 100 200Z" fill="#1F2024"/>
<path d="M37.5 80.625C37.5 81.6605 36.6605 82.5 35.625 82.5C34.5895 82.5 33.75 81.6605 33.75 80.625C33.75 79.5895 34.5895 78.75 35.625 78.75C36.6605 78.75 37.5 79.5895 37.5 80.625Z" fill="white"/>
<path fill-rule="evenodd" clip-rule="evenodd" d="M35.625 79.5C35.0037 79.5 34.5 80.0037 34.5 80.625C34.5 81.2463 35.0037 81.75 35.625 81.75C36.2463 81.75 36.75 81.2463 36.75 80.625C36.75 80.0037 36.2463 79.5 35.625 79.5ZM33 80.625C33 79.1753 34.1753 78 35.625 78C37.0747 78 38.25 79.1753 38.25 80.625C38.25 82.0747 37.0747 83.25 35.625 83.25C34.1753 83.25 33 82.0747 33 80.625Z" fill="#1F2024"/>
<path d="M45 78.125C45 79.1605 44.1605 80 43.125 80C42.0895 80 41.25 79.1605 41.25 78.125C41.25 77.0895 42.0895 76.25 43.125 76.25C44.1605 76.25 45 77.0895 45 78.125Z" fill="white"/>
<path fill-rule="evenodd" clip-rule="evenodd" d="M43.125 77C42.5037 77 42 77.5037 42 78.125C42 78.7463 42.5037 79.25 43.125 79.25C43.7463 79.25 44.25 78.7463 44.25 78.125C44.25 77.5037 43.7463 77 43.125 77ZM40.5 78.125C40.5 76.6753 41.6753 75.5 43.125 75.5C44.5747 75.5 45.75 76.6753 45.75 78.125C45.75 79.5747 44.5747 80.75 43.125 80.75C41.6753 80.75 40.5 79.5747 40.5 78.125Z" fill="#1F2024"/>
<path d="M52.5 75.625C52.5 76.6605 51.6605 77.5 50.625 77.5C49.5895 77.5 48.75 76.6605 48.75 75.625C48.75 74.5895 49.5895 73.75 50.625 73.75C51.6605 73.75 52.5 74.5895 52.5 75.625Z" fill="white"/>
<path fill-rule="evenodd" clip-rule="evenodd" d="M50.625 74.5C50.0037 74.5 49.5 75.0037 49.5 75.625C49.5 76.2463 50.0037 76.75 50.625 76.75C51.2463 76.75 51.75 76.2463 51.75 75.625C51.75 75.0037 51.2463 74.5 50.625 74.5ZM48 75.625C48 74.1753 49.1753 73 50.625 73C52.0748 73 53.25 74.1753 53.25 75.625C53.25 77.0747 52.0748 78.25 50.625 78.25C49.1753 78.25 48 77.0747 48 75.625Z" fill="#1F2024"/>
<path fill-rule="evenodd" clip-rule="evenodd" d="M101.447 108.017C102.961 107.516 104.501 107.411 105.973 107.707C107.445 108.002 108.81 108.689 109.994 109.711C111.178 110.733 112.161 112.072 112.896 113.644C113.63 115.215 114.104 116.994 114.295 118.878L115.107 126.892C115.182 127.636 115.032 128.437 114.664 129.13C114.295 129.822 113.705 130.403 112.973 130.638L111.223 131.202C110.477 131.442 109.766 131.265 109.247 130.814C108.738 130.37 108.438 129.689 108.363 128.947L107.783 123.223C107.708 122.48 107.858 121.679 108.226 120.986C108.595 120.293 109.185 119.713 109.917 119.477L112.719 118.575C112.507 117.083 112.1 115.682 111.517 114.434C110.847 113.001 109.961 111.804 108.92 110.905C107.878 110.006 106.705 109.425 105.473 109.177C104.243 108.931 102.968 109.019 101.716 109.435L101.701 109.44L101.701 109.44C100.447 109.831 99.2206 110.548 98.0958 111.565C96.97 112.583 95.9685 113.881 95.158 115.393C94.3475 116.906 93.7479 118.596 93.3995 120.366C93.1035 121.87 92.9948 123.403 93.077 124.898L95.7599 124.034C96.5055 123.794 97.2173 123.971 97.7355 124.422C98.245 124.866 98.5448 125.547 98.6199 126.288L99.1998 132.013C99.2751 132.756 99.1252 133.557 98.7566 134.25C98.3882 134.943 97.7978 135.523 97.0656 135.759L95.3158 136.322C94.5702 136.562 93.8584 136.386 93.3403 135.934C92.8307 135.49 92.5309 134.809 92.4558 134.068L91.644 126.054C91.4531 124.17 91.5489 122.213 91.9267 120.293C92.3044 118.373 92.9579 116.522 93.8554 114.848C94.7528 113.173 95.8802 111.7 97.1816 110.524C98.482 109.348 99.931 108.491 101.447 108.017ZM93.2068 126.361L93.9505 133.703C93.9984 134.176 94.1853 134.541 94.4191 134.745C94.6442 134.941 94.8714 134.96 95.054 134.902L96.8037 134.338C96.9996 134.275 97.2505 134.087 97.4514 133.709C97.6521 133.332 97.7529 132.85 97.7051 132.378L97.1253 126.654C97.0773 126.181 96.8904 125.815 96.6567 125.612C96.4316 125.416 96.2043 125.396 96.0218 125.455L93.2068 126.361ZM112.88 120.028L110.179 120.897C109.983 120.961 109.732 121.149 109.532 121.527C109.331 121.904 109.23 122.386 109.278 122.858L109.858 128.582C109.906 129.055 110.093 129.421 110.326 129.624C110.551 129.82 110.779 129.84 110.961 129.781L112.711 129.218C112.907 129.155 113.158 128.966 113.359 128.589C113.559 128.211 113.66 127.729 113.612 127.258L112.88 120.028Z" fill="black"/>
<path d="M155.955 43.2861H147.206C150.642 38.5516 149.626 33.8374 149.799 32.1307C149.801 32.1046 149.803 32.0785 149.803 32.0524C149.803 29.9696 148.149 28.2754 146.117 28.2754C143.554 28.2754 142.726 30.421 141.85 32.6923C140.819 35.3647 139.536 38.6906 135.199 40.7904L132.296 42.1968V42.0052C132.296 41.1503 131.601 40.4552 130.746 40.4552H125.9C123.764 40.4552 122.025 42.1936 122.025 44.3302V60.956C122.025 63.0925 123.764 64.831 125.9 64.831H130.746C131.601 64.831 132.296 64.1358 132.296 63.281V63.2291C133.575 63.5423 134.686 63.8396 135.681 64.1074C138.631 64.9017 140.762 65.4754 143.874 65.4754H152.063C153.868 65.4754 155.336 63.9704 155.336 62.1203C155.336 61.348 155.07 60.6447 154.64 60.0771C155.855 59.5867 156.719 58.3783 156.719 56.9606C156.719 56.1881 156.453 55.4846 156.024 54.917C157.238 54.4263 158.103 53.2183 158.103 51.8009C158.103 50.9871 157.808 50.25 157.336 49.6685C158.448 49.1327 159.225 47.9813 159.225 46.6397C159.225 44.7903 157.759 43.2861 155.955 43.2861ZM125.9 63.281C124.618 63.281 123.575 62.238 123.575 60.956V44.3302C123.575 43.0481 124.618 42.0052 125.9 42.0052H130.746V43.4333V62.2452L130.747 62.2494V63.2809L125.9 63.281ZM155.955 48.4432C155.876 48.4432 151.282 48.4459 151.361 48.4458C150.933 48.4458 150.586 48.7928 150.586 49.2208C150.586 49.6488 150.933 49.9958 151.361 49.9958H154.831C155.78 49.9958 156.553 50.8056 156.553 51.8009C156.553 52.7961 155.78 53.6056 154.831 53.6056C154.312 53.6056 149.79 53.6056 149.978 53.6056C149.549 53.6056 149.203 53.9526 149.203 54.3806C149.203 54.8085 149.549 55.1556 149.978 55.1556C150.222 55.1556 153.563 55.1556 153.448 55.1556C154.397 55.1556 155.17 55.9654 155.17 56.9606C155.17 57.9558 154.397 58.7657 153.448 58.7657C152.928 58.7657 148.407 58.7657 148.594 58.7657C148.166 58.7657 147.819 59.1127 147.819 59.5407C147.819 60.8296 149.759 60.1272 152.063 60.3157C153.013 60.3157 153.786 61.1251 153.786 62.1203C153.786 63.1156 153.013 63.9254 152.063 63.9254H143.874C140.967 63.9254 139.025 63.4024 136.084 62.6108C134.984 62.3145 133.754 61.9837 132.296 61.6326V43.9192L135.875 42.1853C140.762 39.819 142.227 36.0224 143.296 33.2501C144.189 30.9372 144.681 29.8254 146.117 29.8254C147.283 29.8254 148.235 30.8059 148.253 32.0179C148.07 33.9938 149.047 38.1638 145.912 42.4343L145.056 43.6032C144.699 44.0907 145.064 44.8361 145.681 44.8361H155.955C156.903 44.8361 157.675 45.6452 157.675 46.6396C157.675 47.6341 156.903 48.4432 155.955 48.4432Z" fill="#010101"/>
<path d="M155.955 48.4432L151.361 48.4458C150.933 48.4458 150.586 48.7928 150.586 49.2208C150.586 49.6488 150.933 49.9958 151.361 49.9958H154.831C155.78 49.9958 156.553 50.8056 156.553 51.8009C156.553 52.7961 155.78 53.6056 154.831 53.6056H149.978C149.549 53.6056 149.203 53.9526 149.203 54.3806C149.203 54.8085 149.549 55.1556 149.978 55.1556H153.448C154.397 55.1556 155.17 55.9654 155.17 56.9606C155.17 57.9558 154.397 58.7657 153.448 58.7657H148.594C148.166 58.7657 147.819 59.1127 147.819 59.5407C147.819 60.8296 149.759 60.1272 152.063 60.3157C153.013 60.3157 153.786 61.1251 153.786 62.1203C153.786 63.1156 153.013 63.9254 152.063 63.9254H143.874C140.967 63.9254 139.025 63.4024 136.084 62.6108C134.984 62.3145 133.754 61.9837 132.296 61.6326V43.9192L135.875 42.1853C140.762 39.819 142.227 36.0224 143.296 33.2501C144.189 30.9372 144.681 29.8254 146.117 29.8254C147.283 29.8254 148.235 30.8059 148.253 32.0179C148.07 33.9938 149.047 38.1638 145.912 42.4343L145.056 43.6032C144.699 44.0907 145.064 44.8361 145.681 44.8361H155.955C156.903 44.8361 157.675 45.6452 157.675 46.6396C157.675 47.6341 156.903 48.4432 155.955 48.4432Z" fill="white"/>
<path d="M125.9 63.281C124.618 63.281 123.575 62.238 123.575 60.956V44.3302C123.575 43.0481 124.618 42.0052 125.9 42.0052H130.746V43.4333V62.2452L130.747 62.2494V63.2809L125.9 63.281Z" fill="#010101"/>
<path fill-rule="evenodd" clip-rule="evenodd" d="M158.834 94.7553C158.969 95.1468 158.762 95.5738 158.37 95.7091L123.995 107.584C123.604 107.719 123.177 107.512 123.041 107.12C122.906 106.729 123.114 106.302 123.505 106.166L157.88 94.2913C158.272 94.1561 158.699 94.3638 158.834 94.7553Z" fill="#1F2024"/>
<path fill-rule="evenodd" clip-rule="evenodd" d="M158.834 101.005C158.969 101.397 158.762 101.824 158.37 101.959L123.995 113.834C123.604 113.969 123.177 113.762 123.041 113.37C122.906 112.979 123.114 112.552 123.505 112.416L157.88 100.541C158.272 100.406 158.699 100.614 158.834 101.005Z" fill="#1F2024"/>
<path fill-rule="evenodd" clip-rule="evenodd" d="M145.714 112.269C145.841 112.663 145.625 113.086 145.231 113.214L123.981 120.089C123.587 120.216 123.164 120 123.037 119.606C122.909 119.212 123.125 118.789 123.519 118.662L144.769 111.787C145.163 111.659 145.586 111.875 145.714 112.269Z" fill="#1F2024"/>
</svg>
