<svg width="200" height="200" viewBox="0 0 200 200" fill="none" xmlns="http://www.w3.org/2000/svg">
<path d="M100.212 200C116.208 200 129.175 198.601 129.175 196.875C129.175 195.149 116.208 193.75 100.212 193.75C84.217 193.75 71.25 195.149 71.25 196.875C71.25 198.601 84.217 200 100.212 200Z" fill="#1F2024"/>
<path d="M59.75 116.5C48.152 116.5 38.75 125.902 38.75 137.5C38.75 146.548 44.4721 154.259 52.495 157.213C53.7132 157.662 54.5327 158.871 54.3294 160.153L53.7003 164.121C51.6953 176.768 71.688 180.197 84.331 182.229C96.5412 184.191 107.265 184.07 119.937 182.052C132.931 179.983 153.872 176.279 151.051 163.427L149.028 154.208C144.194 132.189 124.688 116.5 102.144 116.5H59.75Z" fill="white"/>
<path fill-rule="evenodd" clip-rule="evenodd" d="M59.75 117.25C48.5662 117.25 39.5 126.316 39.5 137.5C39.5 146.224 45.0167 153.661 52.7541 156.509C54.2603 157.064 55.3371 158.587 55.0702 160.27L54.4411 164.238C53.9758 167.173 54.7783 169.543 56.4369 171.518C58.119 173.521 60.7035 175.141 63.8162 176.465C70.0453 179.115 78.1111 180.469 84.45 181.488C96.5747 183.437 107.218 183.318 119.819 181.311C126.331 180.274 134.722 178.842 141.129 176.094C144.333 174.72 146.965 173.047 148.624 170.996C150.256 168.979 150.973 166.569 150.319 163.588L148.295 154.369C143.537 132.694 124.336 117.25 102.144 117.25H59.75ZM38 137.5C38 125.488 47.7378 115.75 59.75 115.75H102.144C125.04 115.75 144.851 131.684 149.76 154.048L151.784 163.266C152.54 166.711 151.697 169.584 149.79 171.94C147.91 174.263 145.024 176.055 141.721 177.472C135.114 180.306 126.537 181.761 120.055 182.793C107.312 184.822 96.5077 184.945 84.212 182.969C77.9079 181.956 69.6558 180.58 63.2291 177.846C60.0138 176.478 57.1859 174.743 55.2882 172.482C53.367 170.194 52.4223 167.393 52.9596 164.004L53.5887 160.036C53.7282 159.155 53.1661 158.259 52.2359 157.917C43.9276 154.858 38 146.872 38 137.5Z" fill="#1F2024"/>
<path fill-rule="evenodd" clip-rule="evenodd" d="M107.818 57.8336L99.5 28L91.1824 57.8336L62.9072 42.2785L79.4195 68.9146L47.75 76.75L79.4195 84.5854L79.1625 85H119.838L119.581 84.5854L151.25 76.75L119.581 68.9146L136.093 42.2785L107.818 57.8336Z" fill="white"/>
<path fill-rule="evenodd" clip-rule="evenodd" d="M99.5005 25.207L108.286 56.7197L138.238 40.2426L120.761 68.4337L151.431 76.0217V77.4778L120.761 85.0658L121.185 85.7497H77.8156L78.2396 85.0658L47.5703 77.4778V76.0217L78.2396 68.4337L60.7633 40.2426L90.7147 56.7197L99.5005 25.207ZM80.5103 84.2497H118.491L118.401 84.1046L148.128 76.7497L118.401 69.3949L133.949 44.314L107.35 58.9468L99.5005 30.7924L91.651 58.9468L65.0521 44.314L80.6003 69.3949L50.8732 76.7497L80.6003 84.1046L80.5103 84.2497Z" fill="#1F2024"/>
<path d="M121.25 91C121.25 105.912 111.512 125.5 99.5 125.5C87.4878 125.5 77.75 105.912 77.75 91C77.75 76.0883 87.4878 64 99.5 64C111.512 64 121.25 76.0883 121.25 91Z" fill="#1F2024"/>
<path fill-rule="evenodd" clip-rule="evenodd" d="M99.5 64.75C88.0453 64.75 78.5 76.343 78.5 91C78.5 98.3139 80.8944 106.81 84.7686 113.465C88.6683 120.163 93.9108 124.75 99.5 124.75C105.089 124.75 110.332 120.163 114.231 113.465C118.106 106.81 120.5 98.3139 120.5 91C120.5 76.343 110.955 64.75 99.5 64.75ZM77 91C77 75.8337 86.9303 63.25 99.5 63.25C112.07 63.25 122 75.8337 122 91C122 98.5978 119.526 107.352 115.528 114.219C111.556 121.042 105.923 126.25 99.5 126.25C93.077 126.25 87.4445 121.042 83.4723 114.219C79.4745 107.352 77 98.5978 77 91Z" fill="#1F2024"/>
<path d="M121.25 96.0488C121.25 108.778 111.512 125.5 99.5 125.5C87.4878 125.5 77.75 108.778 77.75 96.0488C77.75 83.3193 87.4878 73 99.5 73C111.512 73 121.25 83.3193 121.25 96.0488Z" fill="white"/>
<path fill-rule="evenodd" clip-rule="evenodd" d="M99.5 73.75C87.9424 73.75 78.5 83.6919 78.5 96.0488C78.5 102.245 80.8784 109.463 84.7401 115.125C88.6138 120.806 93.8534 124.75 99.5 124.75C105.147 124.75 110.386 120.806 114.26 115.125C118.122 109.463 120.5 102.245 120.5 96.0488C120.5 83.6919 111.058 73.75 99.5 73.75ZM77 96.0488C77 82.9467 87.0332 72.25 99.5 72.25C111.967 72.25 122 82.9467 122 96.0488C122 102.582 119.51 110.09 115.499 115.971C111.501 121.833 105.866 126.25 99.5 126.25C93.1345 126.25 87.499 121.833 83.5008 115.971C79.4905 110.09 77 102.582 77 96.0488Z" fill="#1F2024"/>
<path d="M50.7493 152.501C38.7493 143.501 41.9994 131.751 46.2494 126.251C49.5772 119.651 66.3859 119.501 73.2493 121.001C70.7493 135.251 61.9994 145.751 50.7493 152.501Z" fill="#1F2024"/>
<path d="M58.999 141.249C45.799 131.649 39.2491 95.4991 39.4991 81.9991C40.2491 76.9991 44.164 68.2852 50.764 76.6852C53.764 108.185 71.7491 117.999 72.4991 121.749C73.2491 125.499 64.999 139.749 58.999 141.249Z" fill="white"/>
<path fill-rule="evenodd" clip-rule="evenodd" d="M46.4854 72.5364C48.0391 72.8766 49.6576 74.0636 51.3537 76.2222L51.4897 76.3953L51.5106 76.6145C52.9967 92.2185 58.1882 102.422 63.0828 109.184C65.5343 112.571 67.9173 115.104 69.7527 117.04C69.7986 117.088 69.8442 117.136 69.8895 117.184C70.7436 118.085 71.4909 118.873 72.0509 119.551C72.6186 120.237 73.1 120.93 73.2345 121.602C73.3584 122.222 73.2866 122.975 73.1128 123.764C72.9356 124.568 72.6363 125.48 72.2453 126.448C71.4629 128.386 70.291 130.608 68.9107 132.75C67.5308 134.891 65.9281 136.975 64.2755 138.627C62.641 140.262 60.8816 141.552 59.1809 141.977L58.8412 142.062L58.5579 141.856C55.1158 139.353 52.1654 135.169 49.677 130.175C47.1819 125.167 45.118 119.277 43.4818 113.285C40.2122 101.311 38.6225 88.8252 38.7492 81.9856L38.7501 81.9367L38.7574 81.8882C38.9534 80.5816 39.3542 79.04 39.9546 77.5914C40.5513 76.1519 41.3688 74.7463 42.4287 73.7667C43.5081 72.7693 44.8801 72.1848 46.4854 72.5364ZM40.2481 82.0627C40.1333 88.7346 41.6939 101.042 44.9288 112.889C46.5488 118.822 48.5818 124.613 51.0195 129.506C53.3883 134.26 56.1082 138.102 59.148 140.425C60.3716 140.017 61.7703 139.011 63.2148 137.567C64.7731 136.009 66.311 134.015 67.6499 131.937C68.9884 129.86 70.1133 127.722 70.8544 125.887C71.2251 124.968 71.4941 124.14 71.6479 123.441C71.8053 122.727 71.8271 122.214 71.7636 121.897C71.7106 121.632 71.4659 121.197 70.8948 120.506C70.3685 119.87 69.6539 119.116 68.779 118.193L68.6641 118.072C66.8226 116.129 64.3812 113.536 61.8677 110.064C56.8557 103.139 51.5806 92.75 50.0387 76.9786C48.4944 75.0587 47.1945 74.2272 46.1645 74.0017C45.156 73.7808 44.2649 74.1123 43.4468 74.8684C42.6093 75.6423 41.8949 76.8277 41.3403 78.1657C40.7969 79.4769 40.4297 80.8793 40.2481 82.0627Z" fill="#1F2024"/>
<path d="M58.25 70C58.25 77.4558 52.2059 83.5 44.75 83.5C37.2942 83.5 31.25 77.4558 31.25 70C31.25 62.5442 37.2942 56.5 44.75 56.5C52.2059 56.5 58.25 62.5442 58.25 70Z" fill="white"/>
<path fill-rule="evenodd" clip-rule="evenodd" d="M44.75 57.25C37.7084 57.25 32 62.9584 32 70C32 77.0416 37.7084 82.75 44.75 82.75C51.7916 82.75 57.5 77.0416 57.5 70C57.5 62.9584 51.7916 57.25 44.75 57.25ZM30.5 70C30.5 62.1299 36.8799 55.75 44.75 55.75C52.6201 55.75 59 62.1299 59 70C59 77.8701 52.6201 84.25 44.75 84.25C36.8799 84.25 30.5 77.8701 30.5 70Z" fill="#1F2024"/>
<path d="M31.25 55.3025C31.25 52.8629 33.5546 51.0237 35.9703 51.3651C38.3245 51.6979 41.3864 51.9996 44.75 51.9996C48.1136 51.9996 51.1755 51.6979 53.5297 51.3651C55.9454 51.0237 58.25 52.8629 58.25 55.3025V58.2968C58.25 59.9109 57.2086 61.3224 55.6217 61.618C53.4028 62.0313 49.7789 62.4996 44.75 62.4996C39.7211 62.4996 36.0972 62.0313 33.8783 61.618C32.2914 61.3224 31.25 59.9109 31.25 58.2968V55.3025Z" fill="#1F2024"/>
<path fill-rule="evenodd" clip-rule="evenodd" d="M35.8653 52.1074C33.8599 51.8239 32 53.3592 32 55.3022V58.2964C32 59.5941 32.8262 60.6588 34.0156 60.8803C36.19 61.2853 39.768 61.7493 44.75 61.7493C49.7321 61.7493 53.31 61.2853 55.4844 60.8803C56.6738 60.6588 57.5 59.5941 57.5 58.2964V55.3022C57.5 53.3592 55.6401 51.8239 53.6347 52.1074C51.2548 52.4438 48.1569 52.7493 44.75 52.7493C41.3431 52.7493 38.2452 52.4438 35.8653 52.1074ZM30.5 55.3022C30.5 52.3659 33.2494 50.2227 36.0752 50.6222C38.4039 50.9513 41.4297 51.2493 44.75 51.2493C48.0703 51.2493 51.0961 50.9513 53.4248 50.6222C56.2506 50.2227 59 52.3659 59 55.3022V58.2964C59 60.227 57.7433 61.9854 55.7591 62.355C53.4956 62.7765 49.8258 63.2493 44.75 63.2493C39.6742 63.2493 36.0044 62.7765 33.7409 62.355C31.7567 61.9854 30.5 60.227 30.5 58.2964V55.3022Z" fill="#1F2024"/>
<path d="M58.25 44.5C58.25 51.5416 52.2059 55 44.75 55C37.2942 55 31.25 51.5416 31.25 44.5C31.25 37.4584 34.25 26.5 44.75 17.5C49.25 37 58.25 37.4584 58.25 44.5Z" fill="white"/>
<path fill-rule="evenodd" clip-rule="evenodd" d="M45.2023 16.125L45.4808 17.3318C47.7015 26.9549 51.0182 31.8417 53.7676 35.197C54.2292 35.7603 54.6887 36.2956 55.1309 36.8108C55.9854 37.8063 56.7756 38.7269 57.3927 39.6301C58.3677 41.0573 59 42.5513 59 44.5005C59 48.268 57.3683 51.1185 54.7318 53.0014C52.1241 54.8639 48.5807 55.7505 44.75 55.7505C40.9193 55.7505 37.3759 54.8639 34.7682 53.0014C32.1317 51.1185 30.5 48.268 30.5 44.5005C30.5 37.2636 33.5785 26.0883 44.2619 16.931L45.2023 16.125ZM44.3119 18.8867C34.7455 27.5663 32 37.8636 32 44.5005C32 47.7746 33.3904 50.1741 35.64 51.7808C37.9183 53.4079 41.1249 54.2505 44.75 54.2505C48.3751 54.2505 51.5818 53.4079 53.8601 51.7808C56.1096 50.1741 57.5 47.7746 57.5 44.5005C57.5 42.9289 57.0073 41.725 56.1542 40.4763C55.5813 39.6378 54.8827 38.825 54.0694 37.8786C53.617 37.3521 53.129 36.7843 52.6074 36.1477C49.8524 32.7856 46.5855 27.9704 44.3119 18.8867Z" fill="#1F2024"/>
<path fill-rule="evenodd" clip-rule="evenodd" d="M45.5884 20.5052C45.9998 20.5536 46.294 20.9263 46.2456 21.3377C46.0019 23.4099 45.8913 26.7952 46.3562 30.1663C46.8253 33.5672 47.8598 36.7985 49.7811 38.7197C50.074 39.0126 50.074 39.4875 49.7811 39.7804C49.4882 40.0733 49.0133 40.0733 48.7205 39.7804C46.4417 37.5017 45.3512 33.8579 44.8703 30.3713C44.3853 26.8549 44.4997 23.3403 44.7559 21.1624C44.8043 20.7511 45.177 20.4568 45.5884 20.5052Z" fill="#1F2024"/>
</svg>
