<svg width="200" height="200" viewBox="0 0 200 200" fill="none" xmlns="http://www.w3.org/2000/svg">
<path d="M70.5076 104.402C71.172 104.214 71.7476 103.504 71.7933 102.815L73.1776 81.918C73.2 81.579 73.09 81.3085 72.8933 81.1434C72.6902 80.9729 72.3947 80.9148 72.0571 81.01L66.9074 82.4624C66.243 82.6498 65.6674 83.3601 65.6217 84.0489L64.2374 104.946C64.215 105.285 64.325 105.556 64.5217 105.721C64.7248 105.891 65.0203 105.949 65.3578 105.854L70.5076 104.402Z" fill="black"/>
<path d="M65.8769 73.2013C65.7914 74.4922 66.1267 75.4931 66.8829 76.2042C67.6728 76.8715 68.6502 77.041 69.8151 76.7124C70.9799 76.3839 72.0017 75.6507 72.8803 74.5128C73.7928 73.3311 74.2917 72.0948 74.3772 70.804C74.4628 69.5132 74.1105 68.5341 73.3206 67.8668C72.5644 67.1557 71.6039 66.9644 70.4391 67.2929C69.2742 67.6214 68.2356 68.3765 67.3231 69.5582C66.4445 70.6961 65.9624 71.9105 65.8769 73.2013Z" fill="black"/>
<path d="M91.1187 73.1093C91.1643 72.4204 91.7399 71.7101 92.4044 71.5227L96.7985 70.2834C97.4629 70.0961 98.0385 69.3857 98.0842 68.6969L98.4285 63.4988C98.451 63.1599 98.3409 62.8893 98.1442 62.7242C97.9411 62.5537 97.6456 62.4956 97.3081 62.5908L78.0856 68.0121C77.4211 68.1995 76.8455 68.9099 76.7999 69.5987L76.4555 74.7968C76.4331 75.1357 76.5431 75.4063 76.7398 75.5714C76.9429 75.7419 77.2385 75.7999 77.576 75.7047L81.8284 74.5054C82.1659 74.4103 82.4613 74.4683 82.6644 74.6386C82.8612 74.8037 82.9713 75.0744 82.9489 75.4134L81.3115 100.131C81.289 100.47 81.3991 100.74 81.5958 100.905C81.7989 101.076 82.0944 101.134 82.4319 101.039L88.1956 99.4133C88.86 99.2259 89.4356 98.5156 89.4813 97.8267L91.1187 73.1093Z" fill="black"/>
<path d="M111.868 60.2719C112.158 59.688 112.074 59.1497 111.755 58.8821C111.557 58.7156 111.267 58.6539 110.921 58.7515L106.61 59.9673C106.105 60.1097 105.633 60.5639 105.426 61.1045L100.022 75.2785C99.8214 75.8054 99.9204 76.264 100.206 76.5041C100.406 76.6718 100.697 76.7328 101.041 76.6358L103.452 75.9557C103.902 75.829 104.331 75.4533 104.565 74.9815L111.868 60.2719Z" fill="black"/>
<path d="M120.778 81.1054C120.172 80.7485 119.175 81.1896 118.758 82.0602L116.134 87.5401C115.88 88.0711 115.925 88.6039 116.241 88.8686C116.288 88.9087 116.342 88.9427 116.402 88.9695C117.649 89.5272 118.92 89.8785 120.214 90.0235C122.053 90.2583 124.089 90.0605 126.325 89.4301C130.386 88.2847 133.565 86.2239 135.863 83.2478C137.992 80.4906 139.178 77.2804 139.421 73.6172C139.59 71.0704 139.05 69.1856 137.803 67.9626C136.73 66.8956 134.902 66.2815 132.318 66.1203L129.87 65.9889C128.663 65.9329 127.835 65.716 127.384 65.3381C127.329 65.2916 127.279 65.2428 127.235 65.1914C126.98 64.8527 126.872 64.3693 126.914 63.7414C126.958 63.0785 127.267 62.3751 127.842 61.6311C128.549 60.7468 129.469 60.1449 130.603 59.8253C131.982 59.4364 133.33 59.511 134.647 60.0489C135.279 60.3067 136.21 59.849 136.598 59.0165L139.001 53.8701C139.25 53.3364 139.193 52.8131 138.884 52.5535C138.805 52.487 138.709 52.4378 138.597 52.4102C135.787 51.7131 132.927 51.7751 130.016 52.596C126.616 53.5549 123.851 55.413 121.722 58.1703C119.661 60.84 118.514 63.9193 118.283 67.408C118.105 70.0943 118.567 71.9839 119.669 73.0769C119.759 73.1728 119.855 73.2643 119.959 73.3515C120.823 74.077 122.175 74.5012 124.015 74.6242L126.092 74.7575C128.247 74.8686 129.56 75.0973 130.032 75.4436C130.593 75.8331 130.846 76.4465 130.79 77.2838C130.732 78.156 130.416 78.9641 129.842 79.7081C129.127 80.697 128.046 81.3956 126.598 81.8041C124.511 82.3928 122.571 82.1599 120.778 81.1054Z" fill="black"/>
<path d="M26.9843 149.924C26.3776 149.567 25.3806 150.008 24.9637 150.879L22.3398 156.359C22.0855 156.89 22.1313 157.423 22.4467 157.688C22.4944 157.728 22.5484 157.762 22.6084 157.788C23.8548 158.346 25.1255 158.697 26.4205 158.842C28.2586 159.077 30.2953 158.879 32.5306 158.249C36.5918 157.104 39.7715 155.043 42.0694 152.067C44.1985 149.309 45.3843 146.099 45.627 142.436C45.7957 139.889 45.2563 138.004 44.0088 136.781C42.9364 135.714 41.108 135.1 38.5235 134.939L36.0761 134.808C34.8693 134.752 34.0407 134.535 33.5901 134.157C33.5348 134.111 33.4851 134.062 33.4411 134.01C33.1855 133.672 33.0785 133.188 33.1201 132.56C33.164 131.897 33.4732 131.194 34.0477 130.45C34.7551 129.566 35.6754 128.964 36.8088 128.644C38.1876 128.255 39.5358 128.33 40.8532 128.868C41.4846 129.126 42.4158 128.668 42.8044 127.835L45.2065 122.689C45.4556 122.155 45.3993 121.632 45.09 121.372C45.0108 121.306 44.915 121.257 44.8034 121.229C41.9932 120.532 39.1327 120.594 36.2219 121.415C32.8217 122.374 30.0572 124.232 27.9281 126.989C25.8667 129.659 24.7205 132.738 24.4893 136.227C24.3114 138.913 24.7732 140.803 25.8748 141.896C25.9646 141.992 26.0614 142.083 26.1652 142.17C27.0294 142.896 28.3814 143.32 30.2211 143.443L32.2977 143.576C34.4529 143.687 35.7662 143.916 36.2376 144.263C36.7988 144.652 37.0517 145.265 36.9962 146.103C36.9384 146.975 36.6223 147.783 36.0478 148.527C35.3335 149.516 34.2522 150.215 32.804 150.623C30.7165 151.212 28.7766 150.979 26.9843 149.924Z" fill="black"/>
<path d="M58.3364 128.47C58.3588 128.131 58.2488 127.86 58.0521 127.695C57.849 127.525 57.5534 127.467 57.2159 127.562L52.0662 129.014C51.4018 129.202 50.8261 129.912 50.7805 130.601L49.3962 151.498C49.3737 151.837 49.4837 152.108 49.6805 152.273C49.8836 152.443 50.1791 152.501 50.5166 152.406L55.6663 150.954C56.3308 150.766 56.9064 150.056 56.952 149.367L58.3364 128.47Z" fill="black"/>
<path d="M51.0357 119.753C50.9502 121.044 51.2855 122.045 52.0416 122.756C52.8316 123.423 53.809 123.593 54.9738 123.264C56.1387 122.936 57.1605 122.203 58.0391 121.065C58.9515 119.883 59.4505 118.647 59.536 117.356C59.6215 116.065 59.2693 115.086 58.4794 114.419C57.7232 113.708 56.7627 113.516 55.5978 113.845C54.433 114.173 53.3943 114.928 52.4819 116.11C51.6033 117.248 51.1212 118.462 51.0357 119.753Z" fill="black"/>
<path d="M61.6035 147.864C61.5139 148.29 61.624 148.64 61.8606 148.838C62.0623 149.007 62.3559 149.067 62.6962 148.971L68.3624 147.373C68.9629 147.204 69.5019 146.601 69.6253 145.961L72.4581 131.277C72.6766 130.144 73.9569 129.484 74.5534 129.985C74.6574 130.072 74.7406 130.195 74.7938 130.356L79.135 143.541C79.1839 143.689 79.2654 143.81 79.3715 143.899C79.5778 144.072 79.8767 144.126 80.2078 144.032L81.8123 143.58C82.3072 143.44 82.7724 143.001 82.9848 142.472L89.5137 126.22C89.9247 125.197 91.0147 124.808 91.531 125.241C91.6889 125.374 91.7931 125.583 91.8079 125.875L92.496 139.488C92.5098 139.761 92.6147 139.977 92.7814 140.117C92.9855 140.288 93.2823 140.345 93.6178 140.25L99.3359 138.638C100.067 138.431 100.673 137.603 100.621 136.881L98.3835 105.708C98.3648 105.446 98.2611 105.239 98.0996 105.103C97.8953 104.932 97.5983 104.875 97.2633 104.97L90.9727 106.744C90.4715 106.885 90.0015 107.334 89.793 107.87L83.5229 123.99C83.1348 124.988 82.0396 125.436 81.5077 124.99C81.3999 124.899 81.3153 124.772 81.2643 124.605L77.2404 111.431C77.1925 111.274 77.1085 111.147 76.9979 111.054C76.7918 110.881 76.4931 110.827 76.1616 110.921L69.9634 112.669C69.3717 112.836 68.8382 113.424 68.7055 114.056L61.6035 147.864Z" fill="black"/>
<path fill-rule="evenodd" clip-rule="evenodd" d="M114.769 124.16C114.815 123.471 115.391 122.761 116.055 122.573L119.999 121.461C123.368 120.511 126.048 118.762 128.04 116.215C130.031 113.668 131.152 110.51 131.401 106.742C131.637 103.184 130.848 100.633 129.035 99.0903C127.222 97.5476 124.631 97.2513 121.262 98.2013L109.431 101.538C108.767 101.725 108.191 102.436 108.146 103.125L105.999 135.535C105.976 135.873 106.086 136.144 106.283 136.309C106.486 136.48 106.782 136.538 107.119 136.443L112.883 134.817C113.547 134.63 114.123 133.919 114.168 133.23L114.769 124.16ZM116.54 115.247C116.203 115.342 115.907 115.284 115.704 115.114C115.508 114.949 115.397 114.678 115.42 114.339L115.83 108.147C115.876 107.458 116.451 106.748 117.116 106.56L118.699 106.114C120.305 105.661 121.442 105.751 122.11 106.384C122.694 106.904 122.939 107.862 122.847 109.257C122.75 110.723 122.333 111.884 121.596 112.743C120.824 113.679 119.65 114.37 118.076 114.814L116.54 115.247Z" fill="black"/>
<path d="M144.585 92.8475C144.608 92.5085 144.498 92.238 144.301 92.0729C144.098 91.9024 143.802 91.8443 143.465 91.9395L137.701 93.565C137.037 93.7524 136.461 94.4627 136.416 95.1516L134.269 127.562C134.246 127.901 134.356 128.171 134.553 128.336C134.756 128.507 135.051 128.565 135.389 128.47L150.975 124.074C151.64 123.886 152.215 123.176 152.261 122.487L152.605 117.289C152.628 116.95 152.518 116.68 152.321 116.515C152.118 116.344 151.822 116.286 151.485 116.381L144.068 118.473C143.731 118.568 143.435 118.51 143.232 118.34C143.036 118.175 142.925 117.904 142.948 117.565L144.585 92.8475Z" fill="black"/>
<path d="M174.866 90.6324C175.53 90.445 176.106 89.7347 176.152 89.0458L176.496 83.8477C176.518 83.5088 176.408 83.2383 176.212 83.0731C176.008 82.9027 175.713 82.8446 175.375 82.9398L159.884 87.3089C159.219 87.4963 158.644 88.2066 158.598 88.8955L156.451 121.306C156.428 121.644 156.539 121.915 156.735 122.08C156.938 122.251 157.234 122.309 157.571 122.213L173.063 117.844C173.728 117.657 174.303 116.947 174.349 116.258L174.693 111.06C174.716 110.721 174.606 110.45 174.409 110.285C174.206 110.115 173.91 110.057 173.573 110.152L166.251 112.217C165.913 112.312 165.618 112.254 165.415 112.084C165.218 111.918 165.108 111.648 165.13 111.309L165.364 107.785C165.409 107.096 165.985 106.386 166.649 106.199L173.452 104.28C174.116 104.093 174.692 103.383 174.738 102.694L175.082 97.4956C175.104 97.1567 174.994 96.8861 174.798 96.721C174.595 96.5505 174.299 96.4924 173.962 96.5876L167.159 98.5061C166.822 98.6013 166.526 98.5433 166.323 98.3729C166.126 98.2078 166.016 97.9372 166.039 97.5982L166.258 94.284C166.304 93.5951 166.879 92.8848 167.544 92.6974L174.866 90.6324Z" fill="black"/>
<path d="M35.9469 85.6469C35.9605 85.9167 36.0642 86.1349 36.2326 86.2762C36.3699 86.3915 36.5502 86.4556 36.7596 86.4548L48.4953 86.4093C49.3024 86.4062 50.1342 85.48 50.0913 84.632L49.9546 81.9253C49.9411 81.6571 49.8381 81.438 49.6689 81.2959C49.5667 81.2101 49.4404 81.1525 49.295 81.129L37.4607 79.2226C36.6347 79.0896 35.6651 80.0683 35.7116 80.9882L35.9469 85.6469Z" fill="black"/>
<path d="M42.3757 104.624C42.4202 104.7 42.475 104.764 42.5382 104.817C42.7981 105.035 43.1994 105.058 43.6103 104.86L55.9379 98.9252C56.759 98.5299 57.2323 97.47 56.8658 96.8472L55.6745 94.8232C55.6301 94.7477 55.5753 94.6831 55.5121 94.63C55.2892 94.4429 54.961 94.3979 54.6076 94.5179L41.4218 98.9947C40.5218 99.3003 39.9277 100.464 40.3262 101.142L42.3757 104.624Z" fill="black"/>
<path d="M154.499 55.1861C154.427 55.5977 154.54 55.9222 154.764 56.1101C155.032 56.3354 155.459 56.3647 155.916 56.1136L168.092 49.4152C168.576 49.1491 168.953 48.632 169.045 48.1094L169.918 43.1381C169.991 42.723 169.877 42.4014 169.654 42.2148C169.351 41.9601 168.846 41.9569 168.341 42.3106L155.799 51.0919C155.389 51.3785 155.087 51.8386 155.006 52.2976L154.499 55.1861Z" fill="black"/>
<path d="M145.817 71.7603C145.497 72.3519 145.563 72.9298 145.898 73.2108C146.048 73.3369 146.253 73.4032 146.5 73.3841L158.496 72.4593C158.993 72.421 159.52 72.0373 159.809 71.5041L162.407 66.7112C162.732 66.1115 162.658 65.5387 162.325 65.2599C162.141 65.1053 161.878 65.041 161.559 65.1124L148.476 68.0443C148.026 68.1452 147.582 68.5046 147.327 68.9744L145.817 71.7603Z" fill="black"/>
<path d="M177.221 118.668C177.175 119.357 176.6 120.067 175.935 120.255L173.062 117.844C173.727 117.657 174.303 116.947 174.348 116.258L177.221 118.668Z" fill="black"/>
<path d="M177.567 113.471L177.222 118.669L174.35 116.259L174.694 111.061L177.567 113.471Z" fill="black"/>
<path d="M177.281 112.696C177.478 112.861 177.588 113.131 177.565 113.47L174.692 111.06C174.715 110.721 174.605 110.45 174.408 110.285L177.281 112.696Z" fill="black"/>
<path d="M176.445 112.562C176.782 112.466 177.078 112.524 177.281 112.695L174.408 110.284C174.205 110.114 173.91 110.056 173.572 110.151L176.445 112.562Z" fill="black"/>
<path d="M175.935 120.254L160.443 124.623L157.57 122.213L173.062 117.844L175.935 120.254Z" fill="black"/>
<path d="M169.123 114.628L176.445 112.563L173.572 110.152L166.25 112.217L169.123 114.628Z" fill="black"/>
<path d="M177.61 105.104C177.564 105.793 176.988 106.503 176.324 106.69L173.451 104.28C174.116 104.093 174.691 103.382 174.737 102.693L177.61 105.104Z" fill="black"/>
<path d="M168.287 114.494C168.49 114.665 168.785 114.723 169.123 114.628L166.25 112.217C165.913 112.312 165.617 112.254 165.414 112.084L168.287 114.494Z" fill="black"/>
<path d="M160.443 124.624C160.106 124.719 159.81 124.661 159.607 124.491L156.735 122.08C156.938 122.251 157.233 122.309 157.571 122.213L160.443 124.624Z" fill="black"/>
<path d="M168.003 113.719C167.98 114.058 168.09 114.329 168.287 114.494L165.414 112.083C165.217 111.918 165.107 111.648 165.13 111.309L168.003 113.719Z" fill="black"/>
<path d="M177.955 99.9065L177.611 105.105L174.738 102.694L175.083 97.4961L177.955 99.9065Z" fill="black"/>
<path d="M159.607 124.49C159.41 124.325 159.3 124.054 159.323 123.715L156.45 121.305C156.428 121.644 156.538 121.914 156.734 122.079L159.607 124.49Z" fill="black"/>
<path d="M176.324 106.69L169.521 108.608L166.648 106.198L173.451 104.279L176.324 106.69Z" fill="black"/>
<path d="M168.237 110.196L168.004 113.719L165.131 111.309L165.364 107.785L168.237 110.196Z" fill="black"/>
<path d="M177.67 99.1312C177.866 99.2963 177.976 99.5668 177.954 99.9058L175.081 97.4953C175.104 97.1564 174.994 96.8858 174.797 96.7207L177.67 99.1312Z" fill="black"/>
<path d="M169.522 108.61C168.857 108.797 168.282 109.507 168.236 110.196L165.363 107.786C165.409 107.097 165.985 106.387 166.649 106.199L169.522 108.61Z" fill="black"/>
<path d="M176.834 98.9971C177.171 98.902 177.466 98.96 177.67 99.1303L174.797 96.72C174.594 96.5495 174.298 96.4915 173.961 96.5867L176.834 98.9971Z" fill="black"/>
<path d="M155.133 124.897C155.087 125.586 154.512 126.296 153.847 126.483L150.975 124.073C151.639 123.885 152.215 123.175 152.26 122.486L155.133 124.897Z" fill="black"/>
<path d="M155.479 119.7L155.134 124.898L152.262 122.487L152.606 117.289L155.479 119.7Z" fill="black"/>
<path d="M170.031 100.917L176.833 98.9983L173.961 96.5879L167.158 98.5064L170.031 100.917Z" fill="black"/>
<path d="M179.024 91.4554C178.978 92.1442 178.402 92.8546 177.738 93.0419L174.865 90.6315C175.53 90.4441 176.105 89.7338 176.151 89.0449L179.024 91.4554Z" fill="black"/>
<path d="M155.193 118.924C155.39 119.089 155.5 119.36 155.477 119.699L152.605 117.288C152.627 116.949 152.517 116.679 152.32 116.514L155.193 118.924Z" fill="black"/>
<path d="M154.357 118.792C154.694 118.697 154.99 118.755 155.193 118.925L152.321 116.515C152.117 116.344 151.822 116.286 151.484 116.382L154.357 118.792Z" fill="black"/>
<path d="M169.195 100.784C169.398 100.954 169.693 101.012 170.031 100.917L167.158 98.5062C166.821 98.6014 166.525 98.5434 166.322 98.373L169.195 100.784Z" fill="black"/>
<path d="M153.848 126.485L138.261 130.88L135.389 128.47L150.975 124.074L153.848 126.485Z" fill="black"/>
<path d="M179.369 86.2581L179.025 91.4562L176.152 89.0457L176.497 83.8477L179.369 86.2581Z" fill="black"/>
<path d="M168.911 100.008C168.888 100.347 168.998 100.618 169.195 100.783L166.323 98.3724C166.126 98.2073 166.016 97.9367 166.038 97.5977L168.911 100.008Z" fill="black"/>
<path d="M177.738 93.0433L170.416 95.1083L167.543 92.6978L174.865 90.6328L177.738 93.0433Z" fill="black"/>
<path d="M169.131 96.6937L168.912 100.008L166.039 97.5974L166.259 94.2832L169.131 96.6937Z" fill="black"/>
<path d="M179.084 85.4827C179.28 85.6478 179.39 85.9184 179.368 86.2573L176.495 83.8469C176.518 83.508 176.408 83.2374 176.211 83.0723L179.084 85.4827Z" fill="black"/>
<path d="M146.941 120.883L154.357 118.791L151.485 116.381L144.068 118.473L146.941 120.883Z" fill="black"/>
<path d="M159.324 123.715L161.471 91.305L158.598 88.8945L156.451 121.305L159.324 123.715Z" fill="black"/>
<path d="M178.248 85.3506C178.585 85.2555 178.881 85.3135 179.084 85.4838L176.211 83.0735C176.008 82.9031 175.713 82.845 175.375 82.9402L178.248 85.3506Z" fill="black"/>
<path d="M170.416 95.1077C169.752 95.2951 169.176 96.0054 169.13 96.6943L166.258 94.2838C166.303 93.595 166.879 92.8847 167.544 92.6973L170.416 95.1077Z" fill="black"/>
<path d="M146.105 120.75C146.308 120.921 146.604 120.979 146.941 120.884L144.068 118.473C143.731 118.568 143.436 118.51 143.232 118.34L146.105 120.75Z" fill="black"/>
<path d="M138.262 130.88C137.924 130.975 137.629 130.917 137.425 130.746L134.553 128.336C134.756 128.506 135.051 128.564 135.389 128.469L138.262 130.88Z" fill="black"/>
<path d="M145.821 119.975C145.798 120.314 145.908 120.584 146.105 120.75L143.233 118.339C143.036 118.174 142.926 117.903 142.948 117.564L145.821 119.975Z" fill="black"/>
<path d="M137.425 130.748C137.229 130.582 137.119 130.312 137.141 129.973L134.269 127.562C134.246 127.901 134.356 128.172 134.553 128.337L137.425 130.748Z" fill="black"/>
<path d="M162.755 89.719L178.247 85.3499L175.375 82.9395L159.883 87.3086L162.755 89.719Z" fill="black"/>
<path d="M161.47 91.3056C161.516 90.6168 162.092 89.9064 162.756 89.719L159.883 87.3086C159.219 87.496 158.643 88.2063 158.598 88.8952L161.47 91.3056Z" fill="black"/>
<path d="M147.457 95.2581L145.82 119.976L142.947 117.565L144.585 92.8477L147.457 95.2581Z" fill="black"/>
<path d="M137.14 129.973L139.287 97.5628L136.415 95.1523L134.268 127.562L137.14 129.973Z" fill="black"/>
<path d="M117.041 135.641C116.996 136.33 116.42 137.04 115.755 137.227L112.883 134.817C113.547 134.63 114.123 133.919 114.169 133.23L117.041 135.641Z" fill="black"/>
<path d="M115.755 137.227L109.992 138.852L107.119 136.442L112.883 134.816L115.755 137.227Z" fill="black"/>
<path d="M130.913 118.625C128.921 121.173 126.241 122.921 122.873 123.871L120 121.461C123.369 120.511 126.049 118.762 128.04 116.215L130.913 118.625Z" fill="black"/>
<path d="M134.273 109.153C134.024 112.92 132.903 116.078 130.912 118.625L128.039 116.215C130.031 113.668 131.151 110.51 131.401 106.742L134.273 109.153Z" fill="black"/>
<path d="M117.642 126.571L117.041 135.641L114.168 133.231L114.769 124.16L117.642 126.571Z" fill="black"/>
<path d="M147.173 94.4827C147.37 94.6478 147.48 94.9184 147.458 95.2573L144.585 92.8469C144.608 92.508 144.497 92.2374 144.301 92.0723L147.173 94.4827Z" fill="black"/>
<path d="M109.992 138.852C109.655 138.948 109.359 138.89 109.156 138.719L106.283 136.309C106.486 136.479 106.782 136.537 107.119 136.442L109.992 138.852Z" fill="black"/>
<path d="M146.338 94.3506C146.675 94.2555 146.97 94.3135 147.173 94.4838L144.301 92.0735C144.098 91.9031 143.802 91.845 143.465 91.9402L146.338 94.3506Z" fill="black"/>
<path d="M122.872 123.871L118.927 124.984L116.055 122.573L119.999 121.461L122.872 123.871Z" fill="black"/>
<path d="M109.156 138.72C108.959 138.555 108.849 138.285 108.872 137.946L105.999 135.535C105.977 135.874 106.087 136.145 106.283 136.31L109.156 138.72Z" fill="black"/>
<path d="M162.682 73.9144C162.393 74.4475 161.866 74.8312 161.369 74.8695L158.496 72.4591C158.993 72.4208 159.521 72.0371 159.81 71.5039L162.682 73.9144Z" fill="black"/>
<path d="M165.279 69.1214L162.681 73.9143L159.809 71.5039L162.406 66.7109L165.279 69.1214Z" fill="black"/>
<path d="M118.928 124.985C118.263 125.172 117.688 125.882 117.642 126.571L114.77 124.161C114.815 123.472 115.391 122.762 116.055 122.574L118.928 124.985Z" fill="black"/>
<path d="M140.574 95.9754L146.337 94.3499L143.465 91.9395L137.701 93.565L140.574 95.9754Z" fill="black"/>
<path d="M165.199 67.6702C165.531 67.9491 165.606 68.5219 165.281 69.1215L162.408 66.7111C162.733 66.1114 162.658 65.5386 162.326 65.2598L165.199 67.6702Z" fill="black"/>
<path d="M164.431 67.5235C164.75 67.4521 165.013 67.5164 165.197 67.6708L162.324 65.2605C162.14 65.106 161.877 65.0417 161.559 65.113L164.431 67.5235Z" fill="black"/>
<path d="M131.908 101.5C133.721 103.043 134.51 105.594 134.274 109.152L131.401 106.742C131.637 103.183 130.848 100.633 129.035 99.0898L131.908 101.5Z" fill="black"/>
<path d="M139.289 97.5615C139.334 96.8726 139.91 96.1623 140.574 95.9749L137.702 93.5645C137.037 93.7518 136.462 94.4622 136.416 95.151L139.289 97.5615Z" fill="black"/>
<path d="M103.494 139.291C103.546 140.013 102.94 140.842 102.209 141.048L99.3359 138.637C100.067 138.431 100.673 137.603 100.621 136.881L103.494 139.291Z" fill="black"/>
<path d="M124.468 115.153C125.205 114.295 125.622 113.134 125.719 111.668L122.846 109.258C122.749 110.723 122.332 111.885 121.596 112.743L124.468 115.153Z" fill="black"/>
<path d="M120.949 117.224C122.523 116.78 123.696 116.089 124.469 115.153L121.596 112.742C120.824 113.679 119.65 114.369 118.076 114.813L120.949 117.224Z" fill="black"/>
<path d="M119.414 117.658L120.95 117.225L118.077 114.814L116.541 115.248L119.414 117.658Z" fill="black"/>
<path d="M161.368 74.8694L149.373 75.7942L146.5 73.3838L158.496 72.459L161.368 74.8694Z" fill="black"/>
<path d="M102.208 141.047L96.4899 142.66L93.6172 140.249L99.3354 138.637L102.208 141.047Z" fill="black"/>
<path d="M125.719 111.669C125.811 110.273 125.565 109.315 124.982 108.795L122.109 106.385C122.693 106.905 122.938 107.863 122.846 109.258L125.719 111.669Z" fill="black"/>
<path d="M118.578 117.524C118.781 117.694 119.076 117.752 119.414 117.657L116.541 115.246C116.204 115.342 115.908 115.284 115.705 115.113L118.578 117.524Z" fill="black"/>
<path d="M118.292 116.75C118.269 117.089 118.379 117.36 118.576 117.525L115.703 115.115C115.507 114.95 115.396 114.679 115.419 114.34L118.292 116.75Z" fill="black"/>
<path d="M151.349 70.4556L164.433 67.5237L161.56 65.1133L148.477 68.0452L151.349 70.4556Z" fill="black"/>
<path d="M96.4903 142.661C96.1549 142.756 95.8581 142.699 95.6539 142.528L92.7815 140.117C92.9856 140.289 93.2823 140.345 93.6176 140.251L96.4903 142.661Z" fill="black"/>
<path d="M95.6542 142.528C95.4875 142.388 95.3826 142.171 95.3688 141.899L92.4961 139.488C92.5099 139.761 92.6148 139.977 92.7815 140.117L95.6542 142.528Z" fill="black"/>
<path d="M124.821 108.658C124.137 108.15 123.054 108.106 121.572 108.524L118.699 106.113C120.305 105.66 121.442 105.751 122.111 106.384L124.821 108.658C124.878 108.7 124.932 108.745 124.983 108.794L124.821 108.658Z" fill="black"/>
<path d="M171.917 50.5198C171.825 51.0425 171.448 51.5596 170.964 51.8256L168.092 49.4152C168.575 49.1491 168.953 48.632 169.045 48.1094L171.917 50.5198Z" fill="black"/>
<path d="M118.703 110.557L118.293 116.749L115.42 114.339L115.83 108.146L118.703 110.557Z" fill="black"/>
<path d="M131.846 101.45C131.867 101.466 131.887 101.484 131.907 101.501L131.846 101.45C130.036 99.9516 127.465 99.6723 124.134 100.612L121.262 98.2013C124.63 97.2513 127.221 97.5476 129.035 99.0903L131.846 101.45Z" fill="black"/>
<path d="M172.791 45.5491L171.918 50.5204L169.045 48.11L169.918 43.1387L172.791 45.5491Z" fill="black"/>
<path d="M149.373 75.7947C149.126 75.8138 148.921 75.7475 148.771 75.6214L145.899 73.2111C146.049 73.3371 146.253 73.4033 146.5 73.3843L149.373 75.7947Z" fill="black"/>
<path d="M108.871 137.946L111.018 105.535L108.145 103.125L105.998 135.535L108.871 137.946Z" fill="black"/>
<path d="M121.571 108.524L119.988 108.97L117.115 106.56L118.698 106.113L121.571 108.524Z" fill="black"/>
<path d="M148.771 75.6207C148.436 75.3397 148.37 74.7619 148.691 74.1702L145.818 71.7598C145.497 72.3514 145.564 72.9293 145.899 73.2102L148.771 75.6207Z" fill="black"/>
<path d="M119.988 108.971C119.324 109.158 118.748 109.869 118.703 110.558L115.83 108.147C115.876 107.458 116.451 106.748 117.116 106.561L119.988 108.971Z" fill="black"/>
<path d="M170.965 51.8265L158.789 58.5249L155.916 56.1145L168.092 49.416L170.965 51.8265Z" fill="black"/>
<path d="M148.689 74.1709L150.199 71.3851L147.326 68.9746L145.816 71.7605L148.689 74.1709Z" fill="black"/>
<path d="M172.527 44.6253C172.749 44.8119 172.864 45.1335 172.791 45.5486L169.918 43.1381C169.991 42.723 169.877 42.4015 169.654 42.2148L172.527 44.6253Z" fill="black"/>
<path d="M150.201 71.3855C150.455 70.9157 150.899 70.5563 151.35 70.4554L148.477 68.0449C148.027 68.1458 147.583 68.5053 147.328 68.9751L150.201 71.3855Z" fill="black"/>
<path d="M171.213 44.721C171.718 44.3673 172.223 44.3705 172.526 44.6252L169.653 42.2148C169.35 41.9601 168.845 41.9569 168.34 42.3106L171.213 44.721Z" fill="black"/>
<path d="M138.736 85.6585C136.438 88.6346 133.258 90.6953 129.197 91.8407L126.324 89.4303C130.385 88.2849 133.565 86.2241 135.863 83.248L138.736 85.6585Z" fill="black"/>
<path d="M95.3694 141.898L94.6813 128.285L91.8086 125.875L92.4967 139.488L95.3694 141.898Z" fill="black"/>
<path d="M142.293 76.0276C142.051 79.6908 140.865 82.901 138.736 85.6583L135.863 83.2478C137.992 80.4905 139.178 77.2803 139.421 73.6172L142.293 76.0276Z" fill="black"/>
<path d="M158.788 58.5233C158.332 58.7744 157.905 58.745 157.636 58.5198L154.764 56.1095C155.032 56.3346 155.459 56.3639 155.915 56.1129L158.788 58.5233Z" fill="black"/>
<path d="M85.8576 144.883C85.6453 145.412 85.18 145.851 84.6852 145.991L81.8125 143.58C82.3074 143.441 82.7726 143.001 82.9849 142.473L85.8576 144.883Z" fill="black"/>
<path d="M84.6842 145.991L83.0797 146.443L80.207 144.033L81.8115 143.58L84.6842 145.991Z" fill="black"/>
<path d="M157.636 58.5201C157.412 58.3321 157.299 58.0077 157.371 57.596L154.498 55.1855C154.426 55.5972 154.539 55.9217 154.763 56.1096L157.636 58.5201Z" fill="black"/>
<path d="M101.255 108.117L103.493 139.291L100.621 136.88L98.3828 105.707L101.255 108.117Z" fill="black"/>
<path d="M158.671 53.5023L171.214 44.721L168.341 42.3105L155.799 51.0919L158.671 53.5023Z" fill="black"/>
<path d="M83.0801 146.442C82.7489 146.536 82.45 146.482 82.2438 146.309L79.3713 143.899C79.5776 144.072 79.8764 144.125 80.2074 144.032L83.0801 146.442Z" fill="black"/>
<path d="M82.2439 146.309C82.1378 146.22 82.0563 146.1 82.0074 145.951L79.1348 143.541C79.1836 143.689 79.2652 143.81 79.3712 143.899L82.2439 146.309Z" fill="black"/>
<path d="M157.371 57.5958L157.878 54.7073L155.005 52.2969L154.498 55.1853L157.371 57.5958Z" fill="black"/>
<path d="M112.304 103.948L124.135 100.612L121.262 98.2012L109.432 101.538L112.304 103.948Z" fill="black"/>
<path d="M92.386 128.631L85.857 144.883L82.9844 142.473L89.5133 126.221L92.386 128.631Z" fill="black"/>
<path d="M157.879 54.708C157.959 54.249 158.262 53.7888 158.671 53.5022L155.798 51.0918C155.389 51.3784 155.086 51.8385 155.006 52.2975L157.879 54.708Z" fill="black"/>
<path d="M129.198 91.8401C126.962 92.4706 124.926 92.6684 123.088 92.4336L120.215 90.0231C122.053 90.2579 124.09 90.0601 126.325 89.4297L129.198 91.8401Z" fill="black"/>
<path d="M140.675 70.3733C141.923 71.5963 142.462 73.4812 142.294 76.028L139.421 73.6175C139.59 71.0708 139.05 69.1859 137.803 67.9629L140.675 70.3733Z" fill="black"/>
<path d="M94.6808 128.286C94.6661 127.995 94.5618 127.785 94.4039 127.653L91.5312 125.242C91.6892 125.375 91.7934 125.584 91.8081 125.876L94.6808 128.286Z" fill="black"/>
<path d="M132.714 82.118C133.289 81.3739 133.605 80.5658 133.663 79.6937L130.79 77.2832C130.732 78.1554 130.416 78.9635 129.842 79.7075L132.714 82.118Z" fill="black"/>
<path d="M94.4036 127.652C93.8872 127.218 92.7973 127.608 92.3863 128.631L89.5137 126.22C89.9247 125.197 91.0147 124.808 91.531 125.241L94.4036 127.652Z" fill="black"/>
<path d="M129.47 84.2154C130.919 83.8069 132 83.1083 132.714 82.1194L129.841 79.709C129.127 80.6978 128.046 81.3965 126.598 81.8049L129.47 84.2154Z" fill="black"/>
<path d="M111.019 105.534C111.065 104.845 111.64 104.135 112.305 103.948L109.432 101.537C108.768 101.725 108.192 102.435 108.146 103.124L111.019 105.534Z" fill="black"/>
<path d="M132.904 77.8538C133.465 78.2433 133.718 78.8567 133.662 79.694L130.79 77.2835C130.836 76.5875 130.669 76.0462 130.289 75.6596L130.031 75.4434C130.126 75.5091 130.212 75.5811 130.289 75.6596L132.904 77.8538Z" fill="black"/>
<path d="M123.087 92.4332C121.792 92.2882 120.521 91.9369 119.275 91.3792L116.402 88.9688C117.649 89.5264 118.919 89.8778 120.214 90.0228L123.087 92.4332Z" fill="black"/>
<path d="M72.4988 148.371C72.3754 149.011 71.8364 149.614 71.236 149.783L68.3633 147.373C68.9638 147.203 69.5027 146.601 69.6262 145.961L72.4988 148.371Z" fill="black"/>
<path d="M123.65 83.5159C125.442 84.5705 127.382 84.8034 129.47 84.2146L126.597 81.8042C124.51 82.3929 122.57 82.16 120.777 81.1055L123.65 83.5159Z" fill="black"/>
<path d="M82.0069 145.95L77.6656 132.766L74.793 130.355L79.1342 143.54L82.0069 145.95Z" fill="black"/>
<path d="M140.128 69.914C140.329 70.0566 140.512 70.2098 140.676 70.3738L140.128 69.914C139.024 69.1288 137.378 68.668 135.191 68.5315L132.318 66.1211C134.903 66.2823 136.731 66.8964 137.804 67.9634L140.128 69.914Z" fill="black"/>
<path d="M132.904 77.8544C132.433 77.5081 131.12 77.2794 128.964 77.1683L126.092 74.7578C128.247 74.8689 129.56 75.0976 130.032 75.444L132.904 77.8544Z" fill="black"/>
<path d="M119.275 91.3805C119.215 91.3536 119.161 91.3197 119.113 91.2796L116.24 88.8693C116.288 88.9093 116.342 88.9432 116.402 88.97L119.275 91.3805Z" fill="black"/>
<path d="M119.112 91.28C118.797 91.0153 118.751 90.4825 119.005 89.9515L116.133 87.541C115.878 88.0721 115.924 88.6049 116.24 88.8696L119.112 91.28Z" fill="black"/>
<path d="M71.2342 149.783L65.568 151.382L62.6953 148.971L68.3615 147.373L71.2342 149.783Z" fill="black"/>
<path d="M119.005 89.9509L121.629 84.471L118.757 82.0605L116.133 87.5404L119.005 89.9509Z" fill="black"/>
<path d="M121.63 84.4699C122.047 83.5993 123.044 83.1582 123.651 83.5151L120.778 81.1047C120.172 80.7477 119.175 81.1888 118.758 82.0595L121.63 84.4699Z" fill="black"/>
<path d="M128.965 77.1687L126.888 77.0355L124.016 74.625L126.092 74.7583L128.965 77.1687Z" fill="black"/>
<path d="M75.3304 133.688L72.4977 148.372L69.625 145.962L72.4578 131.277L75.3304 133.688Z" fill="black"/>
<path d="M65.5696 151.381C65.2293 151.477 64.9357 151.418 64.734 151.248L61.8615 148.838C62.0631 149.007 62.3567 149.067 62.6969 148.971L65.5696 151.381Z" fill="black"/>
<path d="M84.3805 127.401C84.9124 127.847 86.0075 127.399 86.3956 126.401L83.523 123.99C83.1349 124.988 82.0399 125.437 81.5079 124.991L84.3805 127.401Z" fill="black"/>
<path d="M100.972 107.514C101.134 107.65 101.237 107.857 101.256 108.118L98.3835 105.708C98.3647 105.446 98.2611 105.239 98.0996 105.104L100.972 107.514Z" fill="black"/>
<path d="M132.742 68.3987L135.189 68.5301L132.317 66.1197L129.869 65.9883L132.742 68.3987Z" fill="black"/>
<path d="M64.733 151.248C64.4964 151.05 64.3864 150.7 64.476 150.274L61.6033 147.863C61.5137 148.29 61.6238 148.639 61.8604 148.838L64.733 151.248Z" fill="black"/>
<path d="M84.1363 127.016C84.1873 127.183 84.272 127.31 84.3797 127.4L81.5071 124.99C81.3993 124.9 81.3146 124.772 81.2637 124.605L84.1363 127.016Z" fill="black"/>
<path d="M100.136 107.38C100.471 107.285 100.768 107.342 100.973 107.513L98.1 105.103C97.8957 104.931 97.5987 104.875 97.2637 104.969L100.136 107.38Z" fill="black"/>
<path d="M139.47 61.4261C139.082 62.2586 138.151 62.7163 137.519 62.4585L134.646 60.0481C135.278 60.3059 136.209 59.8481 136.598 59.0156L139.47 61.4261Z" fill="black"/>
<path d="M141.872 56.2796L139.47 61.426L136.598 59.0156L139 53.8691L141.872 56.2796Z" fill="black"/>
<path d="M126.888 77.0347C125.048 76.9117 123.696 76.4875 122.832 75.762L119.96 73.3526C120.824 74.0774 122.176 74.5013 124.015 74.6242L126.888 77.0347Z" fill="black"/>
<path d="M86.3961 126.399L92.6662 110.28L89.7935 107.869L83.5234 123.989L86.3961 126.399Z" fill="black"/>
<path d="M77.6658 132.766C77.6126 132.605 77.5294 132.482 77.4254 132.395L74.5527 129.984C74.6567 130.072 74.74 130.194 74.7931 130.356L77.6658 132.766Z" fill="black"/>
<path d="M130.257 67.7483C130.708 68.1262 131.537 68.3431 132.743 68.3991L129.871 65.9887C128.664 65.9327 127.835 65.7158 127.385 65.3379L130.257 67.7483Z" fill="black"/>
<path d="M141.757 54.9632C142.067 55.2228 142.123 55.7461 141.874 56.2797L139.001 53.8693C139.25 53.3356 139.194 52.8124 138.885 52.5527L141.757 54.9632Z" fill="black"/>
<path d="M77.4269 132.396C76.8303 131.896 75.5501 132.556 75.3316 133.688L72.459 131.278C72.6774 130.145 73.9578 129.485 74.5543 129.986L77.4269 132.396Z" fill="black"/>
<path d="M93.8453 109.153L100.136 107.379L97.2632 104.969L90.9727 106.743L93.8453 109.153Z" fill="black"/>
<path d="M137.521 62.4589C136.203 61.9209 134.855 61.8464 133.476 62.2353L130.604 59.8248C131.982 59.4359 133.33 59.5105 134.648 60.0484L137.521 62.4589Z" fill="black"/>
<path d="M141.47 54.8206C141.582 54.8483 141.678 54.8974 141.757 54.9638L138.884 52.5535C138.805 52.487 138.709 52.4378 138.598 52.4102L141.47 54.8206Z" fill="black"/>
<path d="M59.8244 151.778C59.7787 152.466 59.2031 153.177 58.5387 153.364L55.666 150.954C56.3305 150.766 56.9061 150.056 56.9517 149.367L59.8244 151.778Z" fill="black"/>
<path d="M130.107 67.6019C130.151 67.6531 130.2 67.7018 130.256 67.7482L127.383 65.3381C127.328 65.2916 127.278 65.2427 127.234 65.1914L130.107 67.6019Z" fill="black"/>
<path d="M122.831 75.7613C122.727 75.6741 122.63 75.5825 122.541 75.4866L119.668 73.0762C119.758 73.1721 119.855 73.2636 119.958 73.3508L122.831 75.7613Z" fill="black"/>
<path d="M129.786 66.1526C129.744 66.7806 129.851 67.264 130.107 67.6027L127.234 65.1922C126.978 64.8535 126.871 64.3702 126.913 63.7422L129.786 66.1526Z" fill="black"/>
<path d="M92.6656 110.281C92.8742 109.745 93.3442 109.296 93.8454 109.155L90.9727 106.744C90.4715 106.885 90.0015 107.334 89.793 107.87L92.6656 110.281Z" fill="black"/>
<path d="M58.538 153.364L53.3883 154.816L50.5156 152.405L55.6653 150.953L58.538 153.364Z" fill="black"/>
<path d="M133.476 62.2366C132.342 62.5563 131.422 63.1582 130.714 64.0424L127.842 61.6319C128.549 60.7477 129.47 60.1458 130.603 59.8262L133.476 62.2366Z" fill="black"/>
<path d="M130.714 64.0413C130.14 64.7853 129.831 65.4888 129.787 66.1516L126.914 63.7412C126.958 63.0783 127.267 62.3749 127.842 61.6309L130.714 64.0413Z" fill="black"/>
<path d="M132.888 55.0061C135.799 54.1852 138.66 54.1232 141.47 54.8203L138.597 52.4098C135.787 51.7128 132.926 51.7747 130.016 52.5956L132.888 55.0061Z" fill="black"/>
<path d="M80.1129 113.842L84.1368 127.016L81.2641 124.606L77.2402 111.432L80.1129 113.842Z" fill="black"/>
<path d="M53.3885 154.817C53.051 154.912 52.7555 154.854 52.5524 154.684L49.6799 152.274C49.883 152.444 50.1784 152.502 50.5158 152.407L53.3885 154.817Z" fill="black"/>
<path d="M122.541 75.4876C121.44 74.3946 120.978 72.505 121.156 69.8187L118.283 67.4082C118.105 70.0945 118.567 71.9841 119.669 73.0771L122.541 75.4876Z" fill="black"/>
<path d="M52.5524 154.683C52.3557 154.518 52.2457 154.247 52.2681 153.909L49.3955 151.498C49.373 151.837 49.483 152.108 49.6797 152.273L52.5524 154.683Z" fill="black"/>
<path d="M64.4762 150.275L71.5781 116.467L68.7055 114.057L61.6035 147.864L64.4762 150.275Z" fill="black"/>
<path d="M61.2082 130.881L59.8238 151.778L56.9512 149.368L58.3355 128.471L61.2082 130.881Z" fill="black"/>
<path d="M121.156 69.818C121.387 66.3293 122.533 63.2501 124.595 60.5804L121.722 58.1699C119.661 60.8397 118.514 63.9189 118.283 67.4076L121.156 69.818Z" fill="black"/>
<path d="M124.595 60.5805C126.724 57.8232 129.489 55.9651 132.889 55.0062L130.016 52.5957C126.616 53.5546 123.852 55.4127 121.723 58.17L124.595 60.5805Z" fill="black"/>
<path d="M92.3537 100.237C92.308 100.925 91.7324 101.636 91.068 101.823L88.1953 99.4127C88.8597 99.2253 89.4354 98.515 89.481 97.8262L92.3537 100.237Z" fill="black"/>
<path d="M79.8707 113.465C79.9813 113.558 80.0652 113.685 80.1132 113.842L77.2405 111.432C77.1926 111.275 77.1086 111.148 76.998 111.055L79.8707 113.465Z" fill="black"/>
<path d="M79.0348 113.331C79.3661 113.237 79.6648 113.291 79.8709 113.464L76.9985 111.054C76.7924 110.881 76.4936 110.827 76.1621 110.92L79.0348 113.331Z" fill="black"/>
<path d="M91.0679 101.825L85.3043 103.45L82.4316 101.04L88.1953 99.4141L91.0679 101.825Z" fill="black"/>
<path d="M52.2691 153.909L53.6535 133.012L50.7808 130.602L49.3965 151.499L52.2691 153.909Z" fill="black"/>
<path d="M44.9428 154.477C42.6448 157.453 39.4652 159.514 35.4039 160.659L32.5312 158.249C36.5925 157.103 39.7721 155.043 42.0701 152.066L44.9428 154.477Z" fill="black"/>
<path d="M48.5005 144.846C48.2578 148.509 47.072 151.719 44.943 154.477L42.0703 152.066C44.1993 149.309 45.3852 146.099 45.6278 142.436L48.5005 144.846Z" fill="black"/>
<path d="M107.438 77.3929C107.204 77.8647 106.775 78.2403 106.326 78.367L103.453 75.9566C103.902 75.8299 104.331 75.4542 104.566 74.9824L107.438 77.3929Z" fill="black"/>
<path d="M72.8356 115.08L79.0338 113.332L76.1611 110.922L69.9629 112.67L72.8356 115.08Z" fill="black"/>
<path d="M85.3045 103.45C84.967 103.545 84.6715 103.487 84.4684 103.317L81.5959 100.906C81.799 101.077 82.0944 101.135 82.4319 101.04L85.3045 103.45Z" fill="black"/>
<path d="M106.325 78.3655L103.914 79.0456L101.041 76.6352L103.452 75.9551L106.325 78.3655Z" fill="black"/>
<path d="M84.4684 103.316C84.2717 103.151 84.1617 102.88 84.1841 102.541L81.3115 100.131C81.289 100.47 81.3991 100.74 81.5958 100.905L84.4684 103.316Z" fill="black"/>
<path d="M60.9254 130.106C61.1221 130.271 61.2321 130.541 61.2097 130.88L58.337 128.47C58.3595 128.131 58.2494 127.86 58.0527 127.695L60.9254 130.106Z" fill="black"/>
<path d="M114.741 62.6819L107.437 77.3916L104.564 74.9811L111.868 60.2715L114.741 62.6819Z" fill="black"/>
<path d="M103.914 79.0461C103.571 79.143 103.28 79.082 103.08 78.9144L100.207 76.504C100.407 76.6716 100.698 76.7326 101.042 76.6356L103.914 79.0461Z" fill="black"/>
<path d="M60.0895 129.972C60.4269 129.877 60.7223 129.935 60.9254 130.105L58.053 127.695C57.8499 127.524 57.5543 127.466 57.2168 127.561L60.0895 129.972Z" fill="black"/>
<path d="M71.5777 116.468C71.7105 115.835 72.2439 115.247 72.8357 115.08L69.963 112.67C69.3713 112.837 68.8378 113.425 68.7051 114.057L71.5777 116.468Z" fill="black"/>
<path d="M103.078 78.9153C102.792 78.6753 102.693 78.2166 102.894 77.6898L100.022 75.2793C99.8208 75.8061 99.9198 76.2648 100.206 76.5048L103.078 78.9153Z" fill="black"/>
<path d="M35.4027 160.659C33.1674 161.289 31.1307 161.487 29.2926 161.252L26.4199 158.842C28.258 159.076 30.2947 158.878 32.53 158.248L35.4027 160.659Z" fill="black"/>
<path d="M54.9391 131.425L60.0888 129.973L57.2161 127.562L52.0664 129.015L54.9391 131.425Z" fill="black"/>
<path d="M93.9905 75.5198L92.3531 100.237L89.4805 97.8268L91.1179 73.1094L93.9905 75.5198Z" fill="black"/>
<path d="M46.8824 139.192C48.1299 140.415 48.6692 142.3 48.5005 144.846L45.6279 142.436C45.7966 139.889 45.2572 138.004 44.0098 136.781L46.8824 139.192Z" fill="black"/>
<path d="M114.629 61.2933C114.947 61.5608 115.032 62.0991 114.742 62.6831L111.869 60.2726C112.159 59.6887 112.075 59.1504 111.756 58.8828L114.629 61.2933Z" fill="black"/>
<path d="M113.795 61.1621C114.141 61.0645 114.43 61.1261 114.628 61.2926L111.756 58.8822C111.557 58.7157 111.268 58.654 110.922 58.7517L113.795 61.1621Z" fill="black"/>
<path d="M53.6539 133.011C53.6995 132.322 54.2752 131.612 54.9396 131.424L52.0669 129.014C51.4025 129.201 50.8269 129.911 50.7812 130.6L53.6539 133.011Z" fill="black"/>
<path d="M38.9195 150.938C39.494 150.194 39.8102 149.386 39.8679 148.514L36.9953 146.104C36.9375 146.976 36.6214 147.784 36.0469 148.528L38.9195 150.938Z" fill="black"/>
<path d="M102.894 77.6899L108.298 63.5159L105.426 61.1055L100.021 75.2795L102.894 77.6899Z" fill="black"/>
<path d="M35.6774 153.034C37.1256 152.625 38.2068 151.927 38.9211 150.938L36.0484 148.527C35.3341 149.516 34.2529 150.215 32.8047 150.623L35.6774 153.034Z" fill="black"/>
<path d="M60.9125 123.475C60.0339 124.613 59.0121 125.346 57.8473 125.675L54.9746 123.264C56.1395 122.936 57.1612 122.202 58.0399 121.064L60.9125 123.475Z" fill="black"/>
<path d="M62.4086 119.766C62.3231 121.057 61.8242 122.293 60.9117 123.475L58.0391 121.064C58.9515 119.883 59.4505 118.646 59.536 117.355L62.4086 119.766Z" fill="black"/>
<path d="M109.484 62.3781L113.795 61.1624L110.922 58.752L106.611 59.9677L109.484 62.3781Z" fill="black"/>
<path d="M39.1109 146.672C39.6721 147.062 39.925 147.675 39.8695 148.512L36.9969 146.102C37.043 145.406 36.876 144.865 36.4959 144.478L36.2383 144.262C36.3329 144.327 36.4188 144.399 36.4959 144.478L39.1109 146.672Z" fill="black"/>
<path d="M74.6662 105.225C74.6205 105.914 74.0449 106.624 73.3805 106.811L70.5078 104.401C71.1722 104.214 71.7479 103.503 71.7935 102.814L74.6662 105.225Z" fill="black"/>
<path d="M29.2922 161.254C27.9972 161.109 26.7265 160.757 25.4801 160.2L22.6074 157.789C23.8539 158.347 25.1246 158.698 26.4195 158.843L29.2922 161.254Z" fill="black"/>
<path d="M108.298 63.5145C108.505 62.9739 108.977 62.5197 109.482 62.3772L106.61 59.9668C106.105 60.1092 105.632 60.5634 105.426 61.1041L108.298 63.5145Z" fill="black"/>
<path d="M57.8459 125.675C56.681 126.003 55.7036 125.834 54.9137 125.166L52.0573 122.769C52.0518 122.765 52.0464 122.76 52.041 122.756L52.0573 122.769C52.8443 123.425 53.8163 123.59 54.9732 123.264L57.8459 125.675Z" fill="black"/>
<path d="M61.3512 116.828C62.1411 117.496 62.4933 118.475 62.4078 119.766L59.5352 117.355C59.6207 116.064 59.2685 115.085 58.4785 114.418L61.3512 116.828Z" fill="black"/>
<path d="M73.3798 106.813L68.2301 108.265L65.3574 105.855L70.5071 104.402L73.3798 106.813Z" fill="black"/>
<path d="M29.857 152.334C31.6494 153.389 33.5893 153.622 35.6768 153.033L32.8042 150.623C30.7166 151.211 28.7767 150.978 26.9844 149.924L29.857 152.334Z" fill="black"/>
<path d="M84.1852 102.542L85.8226 77.8245L82.9499 75.4141L81.3125 100.131L84.1852 102.542Z" fill="black"/>
<path d="M100.957 71.1077C100.912 71.7966 100.336 72.5069 99.6715 72.6943L96.7988 70.2838C97.4633 70.0964 98.0389 69.3861 98.0845 68.6973L100.957 71.1077Z" fill="black"/>
<path d="M46.3334 138.732C46.5339 138.875 46.7166 139.028 46.8814 139.192L46.3334 138.732C45.2291 137.947 43.5834 137.486 41.3961 137.35L38.5234 134.939C41.1079 135.101 42.9363 135.715 44.0088 136.782L46.3334 138.732Z" fill="black"/>
<path d="M39.1095 146.673C38.6381 146.326 37.3248 146.098 35.1695 145.987L32.2969 143.576C34.4521 143.687 35.7654 143.916 36.2368 144.262L39.1095 146.673Z" fill="black"/>
<path d="M25.4817 160.199C25.4216 160.172 25.3677 160.138 25.3199 160.098L22.4474 157.688C22.4951 157.728 22.549 157.762 22.609 157.788L25.4817 160.199Z" fill="black"/>
<path d="M25.3193 160.098C25.0039 159.834 24.9582 159.301 25.2125 158.77L22.3398 156.359C22.0855 156.89 22.1313 157.423 22.4467 157.688L25.3193 160.098Z" fill="black"/>
<path d="M99.6711 72.6937L95.277 73.9329L92.4043 71.5225L96.7984 70.2832L99.6711 72.6937Z" fill="black"/>
<path d="M101.301 65.9085L100.957 71.1066L98.084 68.6961L98.4283 63.498L101.301 65.9085Z" fill="black"/>
<path d="M68.2303 108.265C67.8928 108.36 67.5973 108.302 67.3941 108.131L64.5217 105.721C64.7248 105.891 65.0202 105.949 65.3576 105.854L68.2303 108.265Z" fill="black"/>
<path d="M54.9151 125.167C54.1589 124.456 53.8236 123.455 53.9091 122.164L51.0365 119.754C50.951 121.045 51.2863 122.046 52.0424 122.757L54.9151 125.167Z" fill="black"/>
<path d="M61.0929 116.612C61.1817 116.678 61.268 116.751 61.3518 116.829L61.0929 116.612C60.3803 116.082 59.5061 115.964 58.4703 116.256L55.5977 113.845C56.7625 113.517 57.723 113.708 58.4792 114.419L61.0929 116.612Z" fill="black"/>
<path d="M67.3942 108.13C67.1975 107.965 67.0875 107.695 67.1099 107.356L64.2373 104.945C64.2148 105.284 64.3248 105.555 64.5215 105.72L67.3942 108.13Z" fill="black"/>
<path d="M25.2125 158.769L27.8364 153.289L24.9637 150.879L22.3398 156.359L25.2125 158.769Z" fill="black"/>
<path d="M95.2775 73.9339C94.6131 74.1213 94.0374 74.8316 93.9918 75.5205L91.1191 73.11C91.1648 72.4212 91.7404 71.7108 92.4048 71.5234L95.2775 73.9339Z" fill="black"/>
<path d="M27.8356 153.29C28.2524 152.42 29.2495 151.979 29.8561 152.335L26.9835 149.925C26.3768 149.568 25.3798 150.009 24.9629 150.88L27.8356 153.29Z" fill="black"/>
<path d="M35.1699 145.987L33.0934 145.854L30.2207 143.443L32.2973 143.577L35.1699 145.987Z" fill="black"/>
<path d="M101.017 65.1351C101.214 65.3002 101.324 65.5708 101.301 65.9097L98.4288 63.4992C98.4513 63.1603 98.3412 62.8897 98.1445 62.7246L101.017 65.1351Z" fill="black"/>
<path d="M53.9078 122.163C53.9933 120.872 54.4754 119.658 55.354 118.52L52.4814 116.109C51.6027 117.247 51.1207 118.462 51.0352 119.752L53.9078 122.163Z" fill="black"/>
<path d="M55.3551 118.521C56.2675 117.34 57.3062 116.585 58.471 116.256L55.5984 113.846C54.4335 114.174 53.3949 114.929 52.4824 116.111L55.3551 118.521Z" fill="black"/>
<path d="M38.9488 137.219L41.3963 137.35L38.5236 134.94L36.0762 134.809L38.9488 137.219Z" fill="black"/>
<path d="M100.181 65.001C100.519 64.9059 100.814 64.9639 101.017 65.1342L98.1448 62.7239C97.9416 62.5534 97.6461 62.4954 97.3086 62.5906L100.181 65.001Z" fill="black"/>
<path d="M76.05 84.3284L74.6656 105.226L71.793 102.815L73.1773 81.918L76.05 84.3284Z" fill="black"/>
<path d="M45.6774 130.246C45.2888 131.079 44.3576 131.537 43.7262 131.279L40.8535 128.868C41.4849 129.126 42.4161 128.668 42.8047 127.836L45.6774 130.246Z" fill="black"/>
<path d="M48.0795 125.1L45.6774 130.246L42.8047 127.836L45.2068 122.689L48.0795 125.1Z" fill="black"/>
<path d="M33.0946 145.853C31.2548 145.73 29.9029 145.306 29.0387 144.58L26.1672 142.171C27.0315 142.896 28.383 143.32 30.2219 143.443L33.0946 145.853Z" fill="black"/>
<path d="M36.4625 136.567C36.913 136.945 37.7417 137.161 38.9485 137.217L36.0758 134.807C34.869 134.751 34.0403 134.534 33.5898 134.156L36.4625 136.567Z" fill="black"/>
<path d="M47.9625 123.783C48.2718 124.043 48.3281 124.566 48.079 125.1L45.2064 122.69C45.4555 122.156 45.3992 121.633 45.0898 121.373L47.9625 123.783Z" fill="black"/>
<path d="M43.7256 131.277C42.4082 130.739 41.0601 130.665 39.6813 131.054L36.8086 128.643C38.1874 128.254 39.5355 128.329 40.8529 128.867L43.7256 131.277Z" fill="black"/>
<path d="M47.6754 123.639C47.7869 123.667 47.8826 123.716 47.9618 123.782L45.0893 121.372C45.0101 121.305 44.9143 121.256 44.8027 121.229L47.6754 123.639Z" fill="black"/>
<path d="M36.3141 136.42C36.3579 136.471 36.4075 136.52 36.4627 136.567L33.5904 134.156C33.535 134.11 33.4854 134.061 33.4414 134.01L36.3141 136.42Z" fill="black"/>
<path d="M85.8212 77.8239C85.8437 77.4849 85.7336 77.2142 85.5367 77.0491L82.6643 74.6388C82.861 74.804 82.971 75.0745 82.9485 75.4134L85.8212 77.8239Z" fill="black"/>
<path d="M29.0381 144.582C28.9343 144.494 28.8374 144.403 28.7477 144.307L25.875 141.896C25.9648 141.992 26.0616 142.084 26.1654 142.171L29.0381 144.582Z" fill="black"/>
<path d="M35.9927 134.971C35.9511 135.599 36.0581 136.082 36.3137 136.421L33.4411 134.011C33.1855 133.672 33.0785 133.189 33.1201 132.561L35.9927 134.971Z" fill="black"/>
<path d="M85.5368 77.0483C85.3337 76.8779 85.0382 76.8199 84.7008 76.9151L81.8281 74.5046C82.1655 74.4095 82.461 74.4675 82.6641 74.6378L85.5368 77.0483Z" fill="black"/>
<path d="M67.1109 107.357L68.4953 86.4593L65.6226 84.0488L64.2383 104.946L67.1109 107.357Z" fill="black"/>
<path d="M39.6806 131.055C38.5473 131.375 37.6269 131.977 36.9195 132.861L34.0469 130.45C34.7542 129.566 35.6746 128.964 36.808 128.645L39.6806 131.055Z" fill="black"/>
<path d="M36.9194 132.86C36.3449 133.604 36.0357 134.307 35.9918 134.97L33.1191 132.56C33.1631 131.897 33.4723 131.193 34.0467 130.449L36.9194 132.86Z" fill="black"/>
<path d="M84.7013 76.9163L80.4488 78.1156L77.5762 75.7052L81.8286 74.5059L84.7013 76.9163Z" fill="black"/>
<path d="M80.9586 70.4236L100.181 65.0023L97.3084 62.5918L78.0859 68.0131L80.9586 70.4236Z" fill="black"/>
<path d="M39.0953 123.824C42.0061 123.004 44.8667 122.942 47.6769 123.639L44.8042 121.228C41.994 120.531 39.1335 120.593 36.2227 121.414L39.0953 123.824Z" fill="black"/>
<path d="M28.7484 144.306C27.6468 143.213 27.185 141.323 27.3629 138.637L24.4902 136.227C24.3123 138.913 24.7741 140.803 25.8757 141.895L28.7484 144.306Z" fill="black"/>
<path d="M75.7652 83.553C75.962 83.7181 76.072 83.9887 76.0495 84.3276L73.1769 81.9172C73.1993 81.5783 73.0893 81.3077 72.8926 81.1426L75.7652 83.553Z" fill="black"/>
<path d="M80.4491 78.1161C80.1115 78.2113 79.816 78.1532 79.6129 77.9827L76.7404 75.5724C76.9435 75.7428 77.239 75.8008 77.5764 75.7056L80.4491 78.1161Z" fill="black"/>
<path d="M74.9293 83.4209C75.2667 83.3258 75.5622 83.3838 75.7653 83.5541L72.8928 81.1439C72.6897 80.9734 72.3942 80.9153 72.0566 81.0105L74.9293 83.4209Z" fill="black"/>
<path d="M79.613 77.9819C79.4162 77.8168 79.3062 77.5462 79.3287 77.2073L76.456 74.7969C76.4336 75.1358 76.5436 75.4064 76.7403 75.5715L79.613 77.9819Z" fill="black"/>
<path d="M59.738 99.2581C60.1045 99.8809 59.6313 100.941 58.8102 101.336L55.9375 98.9257C56.7586 98.5303 57.2319 97.4704 56.8654 96.8477L59.738 99.2581Z" fill="black"/>
<path d="M69.7809 84.8726L74.9306 83.4202L72.0579 81.0098L66.9082 82.4621L69.7809 84.8726Z" fill="black"/>
<path d="M79.3277 77.2081L79.6721 72.0101L76.7994 69.5996L76.4551 74.7977L79.3277 77.2081Z" fill="black"/>
<path d="M58.5465 97.2327L59.7377 99.2568L56.8651 96.8463L55.6738 94.8223L58.5465 97.2327Z" fill="black"/>
<path d="M27.3629 138.636C27.594 135.148 28.7403 132.068 30.8017 129.399L27.929 126.988C25.8676 129.658 24.7213 132.737 24.4902 136.226L27.3629 138.636Z" fill="black"/>
<path d="M30.8004 129.399C32.9294 126.642 35.694 124.783 39.0941 123.825L36.2214 121.414C32.8213 122.373 30.0567 124.231 27.9277 126.988L30.8004 129.399Z" fill="black"/>
<path d="M68.4938 86.4599C68.5394 85.7711 69.115 85.0607 69.7795 84.8733L66.9068 82.4629C66.2424 82.6503 65.6667 83.3606 65.6211 84.0495L68.4938 86.4599Z" fill="black"/>
<path d="M58.8096 101.336L46.482 107.271L43.6094 104.861L55.9369 98.9258L58.8096 101.336Z" fill="black"/>
<path d="M79.6734 72.0087C79.7191 71.3199 80.2947 70.6096 80.9591 70.4222L78.0865 68.0117C77.422 68.1991 76.8464 68.9094 76.8008 69.5983L79.6734 72.0087Z" fill="black"/>
<path d="M58.3844 97.0413C58.4477 97.0944 58.5024 97.159 58.5469 97.2345L55.6742 94.824C55.6298 94.7485 55.575 94.684 55.5117 94.6309L58.3844 97.0413Z" fill="black"/>
<path d="M75.7524 76.9241C74.8737 78.062 73.852 78.7953 72.6871 79.1238L69.8145 76.7133C70.9793 76.3848 72.0011 75.6516 72.8797 74.5137L75.7524 76.9241Z" fill="black"/>
<path d="M77.2504 73.2151C77.1649 74.506 76.666 75.7422 75.7535 76.9239L72.8809 74.5135C73.7933 73.3318 74.2923 72.0955 74.3778 70.8047L77.2504 73.2151Z" fill="black"/>
<path d="M57.4801 96.9282C57.8333 96.8083 58.1615 96.8532 58.3843 97.0401L55.5119 94.6298C55.289 94.4428 54.9608 94.3978 54.6074 94.5178L57.4801 96.9282Z" fill="black"/>
<path d="M72.6877 79.1237C71.5228 79.4523 70.5454 79.2829 69.7555 78.6155L66.8991 76.2187C66.8936 76.2142 66.8882 76.2096 66.8828 76.2051L66.8991 76.2187C67.6861 76.8747 68.6581 77.0396 69.815 76.7133L72.6877 79.1237Z" fill="black"/>
<path d="M76.193 70.2776C76.9829 70.945 77.3351 71.9241 77.2496 73.2149L74.377 70.8044C74.4625 69.5136 74.1103 68.5345 73.3203 67.8672L76.193 70.2776Z" fill="black"/>
<path d="M46.4839 107.27C46.073 107.468 45.6717 107.445 45.4117 107.227L42.5393 104.817C42.7992 105.035 43.2005 105.057 43.6112 104.86L46.4839 107.27Z" fill="black"/>
<path d="M45.4102 107.227C45.347 107.174 45.2922 107.109 45.2477 107.034L42.375 104.623C42.4196 104.699 42.4744 104.763 42.5375 104.816L45.4102 107.227Z" fill="black"/>
<path d="M44.2945 101.405L57.4803 96.928L54.6077 94.5176L41.4219 98.9944L44.2945 101.405Z" fill="black"/>
<path d="M69.7549 78.6145C68.9988 77.9034 68.6635 76.9025 68.749 75.6116L65.8763 73.2012C65.7908 74.492 66.1261 75.493 66.8823 76.2041L69.7549 78.6145Z" fill="black"/>
<path d="M75.9347 70.0595C76.0235 70.1255 76.1098 70.198 76.1936 70.2768L75.9347 70.0595C75.2221 69.5296 74.3479 69.4108 73.3121 69.7029L70.4395 67.2924C71.6043 66.9639 72.5648 67.1552 73.321 67.8663L75.9347 70.0595Z" fill="black"/>
<path d="M45.2483 107.033L43.1988 103.551L40.3262 101.141L42.3756 104.623L45.2483 107.033Z" fill="black"/>
<path d="M68.7496 75.6122C68.8351 74.3213 69.3172 73.107 70.1958 71.969L67.3232 69.5586C66.4445 70.6965 65.9625 71.9109 65.877 73.2017L68.7496 75.6122Z" fill="black"/>
<path d="M70.1949 71.9687C71.1074 70.7871 72.146 70.0319 73.3109 69.7034L70.4382 67.293C69.2733 67.6215 68.2347 68.3766 67.3223 69.5583L70.1949 71.9687Z" fill="black"/>
<path d="M43.1981 103.551C42.7996 102.874 43.3937 101.71 44.2937 101.405L41.4211 98.9941C40.521 99.2997 39.9269 100.464 40.3254 101.141L43.1981 103.551Z" fill="black"/>
<path d="M52.9648 87.0433C53.0076 87.8912 52.1759 88.8174 51.3688 88.8206L48.4961 86.4101C49.3032 86.407 50.1349 85.4808 50.0921 84.6328L52.9648 87.0433Z" fill="black"/>
<path d="M52.8277 84.3362L52.9644 87.043L50.0918 84.6326L49.9551 81.9258L52.8277 84.3362Z" fill="black"/>
<path d="M52.5406 83.7073C52.7098 83.8494 52.8128 84.0685 52.8264 84.3366L49.9537 81.9262C49.9401 81.658 49.8372 81.4389 49.668 81.2969L52.5406 83.7073Z" fill="black"/>
<path d="M52.1676 83.5394C52.3129 83.5628 52.4391 83.6204 52.5413 83.706L49.6689 81.2958C49.5667 81.21 49.4403 81.1523 49.2949 81.1289L52.1676 83.5394Z" fill="black"/>
<path d="M51.3681 88.8206L39.6324 88.8661L36.7598 86.4556L48.4955 86.4102L51.3681 88.8206Z" fill="black"/>
<path d="M40.3336 81.6331L52.1679 83.5395L49.2952 81.1291L37.4609 79.2227L40.3336 81.6331Z" fill="black"/>
<path d="M39.6321 88.8644C39.4227 88.8652 39.2424 88.8011 39.1051 88.6858L36.2327 86.2756C36.37 86.3907 36.5502 86.4548 36.7595 86.454L39.6321 88.8644Z" fill="black"/>
<path d="M39.1057 88.6862C38.9373 88.5449 38.8336 88.3267 38.8199 88.0569L35.9473 85.6465C35.9609 85.9162 36.0646 86.1345 36.233 86.2758L39.1057 88.6862Z" fill="black"/>
<path d="M38.8189 88.0574L38.5836 83.3987L35.7109 80.9883L35.9462 85.647L38.8189 88.0574Z" fill="black"/>
<path d="M38.5833 83.3992C38.5368 82.4793 39.5064 81.5005 40.3323 81.6336L37.4597 79.2231C36.6337 79.0901 35.6641 80.0689 35.7106 80.9888L38.5833 83.3992Z" fill="black"/>
<path d="M73.3806 106.814C74.045 106.627 74.6207 105.916 74.6663 105.227L76.0506 84.3301C76.0963 83.6412 75.5946 83.2347 74.9302 83.4221L69.7805 84.8745C69.116 85.0619 68.5404 85.7722 68.4948 86.461L67.1105 107.358C67.0648 108.047 67.5665 108.454 68.2309 108.266L73.3806 106.814Z" fill="white"/>
<path d="M68.75 75.6134C68.6644 76.9043 68.9998 77.9052 69.7559 78.6163C70.5459 79.2837 71.5233 79.4531 72.6881 79.1245C73.853 78.796 74.8747 78.0628 75.7534 76.9249C76.6658 75.7432 77.1648 74.5069 77.2503 73.2161C77.3358 71.9253 76.9836 70.9462 76.1936 70.2789C75.4375 69.5678 74.477 69.3765 73.3121 69.705C72.1473 70.0335 71.1086 70.7886 70.1962 71.9703C69.3175 73.1082 68.8355 74.3226 68.75 75.6134Z" fill="white"/>
<path d="M93.9917 75.5214C94.0373 74.8325 94.613 74.1222 95.2774 73.9348L99.6715 72.6955C100.336 72.5082 100.912 71.7978 100.957 71.109L101.302 65.9109C101.347 65.2221 100.846 64.8155 100.181 65.0029L80.9586 70.4242C80.2942 70.6116 79.7186 71.322 79.6729 72.0108L79.3286 77.2089C79.283 77.8977 79.7846 78.3042 80.449 78.1169L84.7015 76.9175C85.3659 76.7301 85.8676 77.1367 85.8219 77.8255L84.1845 102.543C84.1389 103.232 84.6405 103.638 85.305 103.451L91.0686 101.825C91.733 101.638 92.3087 100.928 92.3543 100.239L93.9917 75.5214Z" fill="white"/>
<path d="M114.741 62.684C115.212 61.7366 114.696 60.9092 113.794 61.1637L109.483 62.3794C108.979 62.5218 108.506 62.976 108.299 63.5167L102.895 77.6906C102.554 78.5855 103.078 79.2837 103.914 79.0479L106.326 78.3678C106.775 78.2411 107.204 77.8654 107.438 77.3936L114.741 62.684Z" fill="white"/>
<path d="M123.651 83.5175C123.045 83.1606 122.048 83.6017 121.631 84.4723L119.007 89.9522C118.714 90.5636 118.819 91.1774 119.275 91.3816C120.522 91.9393 121.793 92.2906 123.088 92.4356C124.926 92.6704 126.962 92.4726 129.198 91.8422C133.259 90.6968 136.439 88.636 138.736 85.6599C140.865 82.9027 142.051 79.6925 142.294 76.0293C142.463 73.4826 141.923 71.5977 140.676 70.3747C139.603 69.3077 137.775 68.6936 135.191 68.5324L132.743 68.401C131.388 68.3381 130.51 68.0723 130.108 67.6035C129.853 67.2648 129.746 66.7814 129.787 66.1535C129.831 65.4906 130.14 64.7872 130.715 64.0432C131.422 63.159 132.342 62.557 133.476 62.2374C134.855 61.8485 136.203 61.9231 137.52 62.461C138.152 62.7189 139.083 62.2611 139.471 61.4286L141.874 56.2822C142.186 55.6118 142.017 54.9579 141.47 54.8223C138.66 54.1252 135.8 54.1872 132.889 55.0081C129.489 55.967 126.724 57.8251 124.595 60.5824C122.534 63.2521 121.387 66.3314 121.156 69.8201C120.978 72.5064 121.44 74.396 122.542 75.489C123.379 76.3828 124.827 76.8985 126.888 77.0363L128.965 77.1696C131.12 77.2807 132.433 77.5094 132.905 77.8557C133.466 78.2452 133.719 78.8586 133.663 79.6959C133.605 80.5681 133.289 81.3762 132.715 82.1202C132.001 83.1091 130.919 83.8077 129.471 84.2162C127.384 84.8049 125.444 84.572 123.651 83.5175Z" fill="white"/>
<path d="M29.8573 152.336C29.2506 151.979 28.2536 152.421 27.8367 153.291L25.2128 158.771C24.9201 159.382 25.0251 159.996 25.4814 160.2C26.7279 160.758 27.9986 161.11 29.2935 161.255C31.1316 161.489 33.1683 161.291 35.4036 160.661C39.4649 159.516 42.6445 157.455 44.9425 154.479C47.0715 151.722 48.2573 148.511 48.5 144.848C48.6687 142.301 48.1293 140.417 46.8819 139.194C45.8095 138.127 43.981 137.512 41.3966 137.351L38.9492 137.22C37.594 137.157 36.7156 136.891 36.3142 136.422C36.0586 136.084 35.9516 135.6 35.9932 134.972C36.0371 134.309 36.3463 133.606 36.9208 132.862C37.6281 131.978 38.5485 131.376 39.6819 131.056C41.0607 130.667 42.4088 130.742 43.7262 131.28C44.3576 131.538 45.2888 131.08 45.6774 130.247L48.0796 125.101C48.3925 124.431 48.2235 123.777 47.6765 123.641C44.8662 122.944 42.0057 123.006 39.0949 123.827C35.6948 124.786 32.9302 126.644 30.8012 129.401C28.7398 132.071 27.5935 135.15 27.3624 138.639C27.1844 141.325 27.6463 143.215 28.7478 144.308C29.5846 145.202 31.0334 145.717 33.0942 145.855L35.1707 145.988C37.326 146.1 38.6393 146.328 39.1107 146.675C39.6718 147.064 39.9247 147.677 39.8692 148.515C39.8115 149.387 39.4953 150.195 38.9208 150.939C38.2065 151.928 37.1253 152.627 35.6771 153.035C33.5896 153.624 31.6496 153.391 29.8573 152.336Z" fill="white"/>
<path d="M61.2094 130.882C61.255 130.193 60.7534 129.787 60.089 129.974L54.9392 131.426C54.2748 131.614 53.6992 132.324 53.6535 133.013L52.2692 153.91C52.2236 154.599 52.7252 155.006 53.3897 154.818L58.5394 153.366C59.2038 153.178 59.7794 152.468 59.8251 151.779L61.2094 130.882Z" fill="white"/>
<path d="M53.9087 122.165C53.8232 123.456 54.1585 124.457 54.9147 125.168C55.7046 125.836 56.682 126.005 57.8469 125.676C59.0118 125.348 60.0335 124.615 60.9121 123.477C61.8246 122.295 62.3235 121.059 62.4091 119.768C62.4946 118.477 62.1424 117.498 61.3524 116.831C60.5963 116.12 59.6357 115.928 58.4709 116.257C57.306 116.585 56.2674 117.341 55.3549 118.522C54.4763 119.66 53.9942 120.875 53.9087 122.165Z" fill="white"/>
<path d="M64.4766 150.276C64.3106 151.066 64.8297 151.592 65.5692 151.383L71.2355 149.785C71.836 149.616 72.3749 149.013 72.4984 148.373L75.3312 133.689C75.5877 132.359 77.3087 131.681 77.6668 132.768L82.0081 145.953C82.152 146.39 82.5795 146.586 83.0809 146.444L84.6854 145.992C85.1802 145.852 85.6454 145.413 85.8578 144.884L92.3867 128.632C92.9234 127.296 94.618 127.041 94.6809 128.287L95.369 141.9C95.3997 142.507 95.8815 142.834 96.4908 142.662L102.209 141.05C102.94 140.844 103.546 140.015 103.494 139.293L101.257 108.12C101.214 107.527 100.736 107.213 100.136 107.382L93.8458 109.156C93.3446 109.297 92.8745 109.746 92.666 110.282L86.3959 126.402C85.9292 127.602 84.4399 128.008 84.1374 127.018L80.1135 113.844C79.9761 113.394 79.544 113.189 79.0346 113.333L72.8364 115.081C72.2447 115.248 71.7113 115.836 71.5785 116.468L64.4766 150.276Z" fill="white"/>
<path fill-rule="evenodd" clip-rule="evenodd" d="M117.642 126.572C117.688 125.883 118.264 125.173 118.928 124.985L122.872 123.873C126.241 122.923 128.921 121.174 130.913 118.627C132.904 116.08 134.025 112.922 134.274 109.154C134.51 105.596 133.721 103.045 131.908 101.502C130.095 99.9597 127.504 99.6633 124.135 100.613L112.304 103.95C111.64 104.137 111.064 104.848 111.019 105.537L108.872 137.947C108.826 138.635 109.328 139.042 109.992 138.855L115.756 137.229C116.42 137.042 116.996 136.331 117.041 135.643L117.642 126.572ZM119.413 117.659C118.749 117.847 118.247 117.44 118.293 116.751L118.703 110.559C118.749 109.87 119.324 109.16 119.989 108.972L121.572 108.526C123.178 108.073 124.315 108.163 124.983 108.796C125.567 109.316 125.812 110.274 125.72 111.67C125.623 113.135 125.206 114.297 124.469 115.155C123.697 116.092 122.523 116.782 120.949 117.226L119.413 117.659Z" fill="white"/>
<path d="M147.458 95.2596C147.504 94.5707 147.002 94.1642 146.338 94.3516L140.574 95.9771C139.91 96.1645 139.334 96.8748 139.289 97.5637L137.142 129.974C137.096 130.663 137.598 131.069 138.262 130.882L153.848 126.486C154.513 126.299 155.088 125.588 155.134 124.899L155.478 119.701C155.524 119.012 155.022 118.606 154.358 118.793L146.941 120.885C146.277 121.072 145.775 120.666 145.821 119.977L147.458 95.2596Z" fill="white"/>
<path d="M177.739 93.0445C178.403 92.8571 178.979 92.1468 179.025 91.4579L179.369 86.2598C179.415 85.571 178.913 85.1645 178.248 85.3519L162.757 89.721C162.092 89.9084 161.517 90.6187 161.471 91.3076L159.324 123.718C159.278 124.406 159.78 124.813 160.444 124.626L175.936 120.256C176.601 120.069 177.176 119.359 177.222 118.67L177.566 113.472C177.612 112.783 177.11 112.376 176.446 112.564L169.124 114.629C168.459 114.816 167.958 114.41 168.003 113.721L168.237 110.197C168.282 109.509 168.858 108.798 169.522 108.611L176.325 106.692C176.989 106.505 177.565 105.795 177.611 105.106L177.955 99.9077C178.001 99.2188 177.499 98.8123 176.835 98.9997L170.032 100.918C169.368 101.106 168.866 100.699 168.912 100.01L169.131 96.6961C169.177 96.0072 169.752 95.2969 170.417 95.1095L177.739 93.0445Z" fill="white"/>
<path d="M38.8199 88.059C38.8446 88.5488 39.1665 88.8687 39.6327 88.8669L51.3684 88.8214C52.1755 88.8183 53.0072 87.8921 52.9644 87.0442L52.8277 84.3374C52.806 83.9072 52.5542 83.6033 52.168 83.5411L40.3337 81.6347C39.5078 81.5017 38.5382 82.4804 38.5846 83.4003L38.8199 88.059Z" fill="white"/>
<path d="M45.2487 107.036C45.4767 107.423 45.9727 107.518 46.4834 107.272L58.811 101.337C59.6321 100.942 60.1053 99.8821 59.7388 99.2593L58.5476 97.2353C58.3467 96.8939 57.9344 96.7759 57.4807 96.93L44.2949 101.407C43.3948 101.712 42.8007 102.876 43.1992 103.554L45.2487 107.036Z" fill="white"/>
<path d="M157.372 57.5982C157.213 58.503 157.951 58.9864 158.789 58.5257L170.965 51.8273C171.449 51.5612 171.826 51.0441 171.918 50.5215L172.791 45.5502C172.964 44.5685 172.089 44.1098 171.214 44.7227L158.672 53.504C158.262 53.7906 157.96 54.2507 157.879 54.7097L157.372 57.5982Z" fill="white"/>
<path d="M148.69 74.1724C148.226 75.0295 148.574 75.8578 149.373 75.7962L161.369 74.8714C161.866 74.8331 162.393 74.4494 162.682 73.9162L165.28 69.1233C165.785 68.1913 165.326 67.3244 164.432 67.5245L151.349 70.4564C150.899 70.5573 150.455 70.9167 150.2 71.3865L148.69 74.1724Z" fill="white"/>
<path fill-rule="evenodd" clip-rule="evenodd" d="M172.744 43.8732C173.405 44.2198 173.659 44.9458 173.53 45.6788L172.657 50.6501C172.524 51.4068 172 52.1127 171.327 52.4833L159.15 59.1817C158.561 59.5059 157.859 59.5692 157.296 59.2004C156.718 58.8218 156.515 58.14 156.633 57.4673L157.141 54.5788C157.258 53.9086 157.682 53.2801 158.242 52.8885L170.784 44.1071C171.377 43.6916 172.118 43.5448 172.744 43.8732ZM171.956 45.1972C171.888 45.2066 171.78 45.2408 171.644 45.3359L159.102 54.1172C158.843 54.2987 158.662 54.5905 158.618 54.8383L158.111 57.7267C158.09 57.8452 158.105 57.9097 158.114 57.9328C158.116 57.9386 158.118 57.9426 158.119 57.9451C158.142 57.9526 158.237 57.9722 158.427 57.8674L170.604 51.169C170.898 51.0074 171.129 50.6791 171.179 50.3906L172.053 45.4193C172.075 45.2892 172.056 45.225 172.048 45.2077C172.047 45.2044 172.046 45.202 172.045 45.2005C172.042 45.1994 172.036 45.1976 172.027 45.1962C172.013 45.194 171.99 45.1926 171.956 45.1972ZM141.27 55.5441C138.598 54.8851 135.877 54.9435 133.093 55.7288C129.845 56.6447 127.218 58.4117 125.189 61.0396C123.222 63.587 122.126 66.5226 121.905 69.8685C121.731 72.4893 122.205 74.0969 123.07 74.9554L123.08 74.9652L123.089 74.9753C123.732 75.6614 124.945 76.1535 126.937 76.2867C126.938 76.2867 126.937 76.2867 126.937 76.2867L129.003 76.4194C129.005 76.4195 129.007 76.4196 129.008 76.4196C130.098 76.4759 130.997 76.5628 131.695 76.6844C132.351 76.7986 132.95 76.9613 133.34 77.2439C134.164 77.8198 134.48 78.7173 134.412 79.7443C134.344 80.7727 133.97 81.7179 133.316 82.568C132.481 83.7183 131.242 84.4948 129.675 84.9369C127.4 85.5784 125.248 85.3259 123.271 84.1627C123.247 84.1489 123.121 84.1049 122.885 84.2141C122.662 84.3171 122.439 84.5208 122.307 84.795L119.683 90.2749C119.591 90.4684 119.585 90.6139 119.598 90.6836C119.6 90.6928 119.602 90.7 119.603 90.7054C120.775 91.2274 121.964 91.554 123.171 91.6891L123.183 91.6904C124.899 91.9096 126.832 91.7289 128.994 91.1192C132.92 90.0119 135.955 88.0337 138.143 85.2004C140.176 82.5675 141.312 79.5016 141.546 75.9786C141.707 73.5471 141.181 71.919 140.151 70.9091L140.147 70.9052C139.269 70.0315 137.667 69.4376 135.147 69.28C135.146 69.2799 135.145 69.2798 135.144 69.2798L132.708 69.149C132.708 69.149 132.707 69.1489 132.706 69.1489C131.994 69.1157 131.37 69.0282 130.851 68.8712C130.337 68.7157 129.867 68.4741 129.539 68.0902L129.524 68.0726L129.51 68.0541C129.104 67.5161 128.991 66.826 129.039 66.1027C129.096 65.2414 129.492 64.3986 130.121 63.5836L130.129 63.5734C130.938 62.5618 131.995 61.8747 133.272 61.5144C134.811 61.0805 136.331 61.1639 137.804 61.7655C137.857 61.787 138.012 61.8056 138.243 61.6863C138.462 61.5728 138.671 61.3699 138.792 61.1102L141.194 55.9638C141.293 55.751 141.286 55.6032 141.271 55.5465C141.27 55.5457 141.27 55.5449 141.27 55.5441ZM132.685 54.2851C135.716 53.4304 138.709 53.3633 141.651 54.0932C142.219 54.234 142.584 54.6588 142.719 55.1546C142.846 55.6264 142.767 56.1407 142.553 56.5982L140.151 61.7446C139.884 62.3175 139.433 62.7597 138.931 63.0187C138.442 63.272 137.815 63.3905 137.237 63.1542C136.075 62.6799 134.899 62.6142 133.68 62.9581C132.693 63.2364 131.909 63.7514 131.305 64.5055C130.788 65.1763 130.566 65.7387 130.536 66.2019C130.502 66.7107 130.593 66.9858 130.693 67.131C130.773 67.2152 130.944 67.3321 131.285 67.4355C131.644 67.5441 132.136 67.6208 132.778 67.6506L132.783 67.6509L135.237 67.7826C137.884 67.9478 139.937 68.5813 141.203 69.8399C142.666 71.2759 143.219 73.4169 143.042 76.0777C142.79 79.881 141.555 83.2355 139.33 86.1171C136.922 89.2361 133.598 91.3794 129.401 92.5629C127.095 93.2133 124.957 93.4284 122.998 93.1792C121.625 93.0247 120.281 92.652 118.969 92.0651C118.477 91.845 118.206 91.4078 118.123 90.9534C118.042 90.5123 118.13 90.0451 118.33 89.6271L120.954 84.1472C121.24 83.5509 121.723 83.0987 122.255 82.8527C122.773 82.6129 123.449 82.5269 124.032 82.8699C125.639 83.8159 127.367 84.0291 129.268 83.4932C130.592 83.1196 131.513 82.502 132.107 81.6799L132.114 81.6702L132.121 81.6607C132.612 81.0252 132.868 80.3574 132.915 79.6452C132.958 79.0009 132.77 78.674 132.477 78.4707L132.469 78.465L132.461 78.459C132.379 78.399 132.09 78.2758 131.438 78.1621C130.823 78.0551 129.99 77.9722 128.926 77.9174L128.917 77.9169L126.84 77.7836L126.838 77.7834C124.716 77.6416 123.036 77.105 122.004 76.0105C120.674 74.6821 120.226 72.5144 120.408 69.7693C120.649 66.1378 121.846 62.915 124.002 60.1229C126.23 57.2363 129.133 55.2871 132.685 54.2851ZM114.146 61.8693C114.135 61.8664 114.089 61.8586 113.998 61.8843L109.687 63.1001C109.436 63.1708 109.132 63.4374 109 63.7827L103.596 77.9567C103.545 78.0915 103.536 78.1923 103.541 78.2556C103.545 78.3067 103.557 78.3314 103.561 78.3391C103.57 78.3414 103.616 78.3517 103.711 78.3249L106.122 77.6448C106.34 77.5833 106.613 77.368 106.766 77.059L114.07 62.3493C114.222 62.0421 114.156 61.8862 114.146 61.8693ZM115.419 61.0754C115.777 61.6501 115.729 62.3815 115.413 63.0164L108.11 77.726C107.795 78.3605 107.21 78.8966 106.529 79.0885L104.118 79.7686C103.458 79.9547 102.775 79.7908 102.364 79.2423C101.975 78.7243 101.96 78.0379 102.195 77.4223L107.599 63.2483C107.879 62.5123 108.521 61.8705 109.28 61.6564L113.591 60.4406C114.308 60.2383 115.031 60.4532 115.419 61.0754ZM101.48 64.5445C101.908 64.8916 102.086 65.4225 102.05 65.9593L101.706 71.1574C101.671 71.6849 101.44 72.1781 101.129 72.5613C100.819 72.9445 100.384 73.2727 99.8752 73.4162L95.481 74.6555C95.3255 74.6994 95.1401 74.8201 94.9853 75.0111C94.8305 75.2021 94.7508 75.4085 94.7401 75.5698L93.1027 100.287C93.0678 100.815 92.8368 101.308 92.5263 101.691C92.2157 102.074 91.7811 102.403 91.2723 102.546L85.5086 104.172C84.9908 104.318 84.4347 104.254 84.0064 103.907C83.578 103.56 83.4007 103.029 83.4362 102.492L85.0736 77.7748C85.0788 77.6975 85.0669 77.6537 85.06 77.6357C85.0581 77.6309 85.0565 77.6275 85.0552 77.6252C85.0528 77.6245 85.0491 77.6236 85.044 77.6228C85.0249 77.6197 84.9796 77.6172 84.9051 77.6382L80.6527 78.8375C80.1348 78.9836 79.5787 78.9201 79.1504 78.573C78.7221 78.2259 78.5447 77.695 78.5803 77.1582L78.9246 71.9601C78.9596 71.4325 79.1906 70.9393 79.5011 70.5561C79.8116 70.1729 80.2463 69.8447 80.7551 69.7012L99.9776 64.2799C100.495 64.1339 101.052 64.1974 101.48 64.5445ZM100.524 65.7082C100.505 65.7051 100.459 65.7026 100.385 65.7236L81.1623 71.1449C81.0067 71.1888 80.8213 71.3095 80.6665 71.5005C80.5117 71.6915 80.432 71.8979 80.4214 72.0592L80.077 77.2573C80.0719 77.3346 80.0837 77.3783 80.0907 77.3964C80.0925 77.4012 80.0942 77.4046 80.0954 77.4068C80.0979 77.4076 80.1015 77.4085 80.1066 77.4093C80.1257 77.4124 80.171 77.4149 80.2455 77.3939L84.498 76.1945C85.0158 76.0485 85.5719 76.112 86.0003 76.4591C86.4286 76.8062 86.6059 77.3371 86.5704 77.8739L84.933 102.591C84.9278 102.669 84.9397 102.712 84.9466 102.73C84.9485 102.735 84.9501 102.739 84.9514 102.741C84.9538 102.742 84.9575 102.743 84.9626 102.743C84.9817 102.746 85.027 102.749 85.1015 102.728L90.8651 101.102C91.0207 101.059 91.2061 100.938 91.3609 100.747C91.5157 100.556 91.5953 100.349 91.606 100.188L93.2434 75.4707C93.2784 74.9431 93.5093 74.4499 93.8199 74.0667C94.1304 73.6835 94.565 73.3553 95.0739 73.2118L99.468 71.9725C99.6236 71.9287 99.809 71.808 99.9638 71.617C100.119 71.4259 100.198 71.2195 100.209 71.0582L100.553 65.8602C100.558 65.7829 100.547 65.7391 100.54 65.7211C100.538 65.7163 100.536 65.7129 100.535 65.7106C100.532 65.7099 100.529 65.709 100.524 65.7082ZM166.043 67.5469C166.355 68.1357 166.276 68.8583 165.939 69.4795L163.342 74.2725C162.962 74.9737 162.235 75.5557 161.426 75.618L149.431 76.5428C148.72 76.5976 148.125 76.2327 147.867 75.6183C147.628 75.0512 147.72 74.3882 148.031 73.8139L149.541 71.028C149.881 70.401 150.489 69.8794 151.185 69.7234L164.269 66.7915C165.004 66.6268 165.703 66.9043 166.043 67.5469ZM164.697 68.2447C164.678 68.2435 164.645 68.2443 164.597 68.2552L151.513 71.1871C151.309 71.2328 151.029 71.4301 150.86 71.7427L149.35 74.5286C149.197 74.8114 149.23 74.9911 149.249 75.037C149.251 75.0403 149.252 75.0429 149.253 75.0448C149.263 75.0471 149.282 75.0498 149.315 75.0472L161.311 74.1225C161.497 74.1081 161.825 73.9228 162.023 73.5577L164.621 68.7648C164.789 68.454 164.733 68.2771 164.718 68.2495C164.718 68.2487 164.717 68.2481 164.717 68.2475C164.713 68.2466 164.706 68.2453 164.697 68.2447ZM75.6799 70.8241C75.1504 70.3261 74.477 70.1546 73.5158 70.4257C72.539 70.7012 71.6273 71.343 70.7899 72.4275C69.9917 73.4612 69.573 74.536 69.4984 75.6619C69.4244 76.7792 69.7112 77.535 70.2553 78.055C70.8178 78.5224 71.521 78.6733 72.4846 78.4015C73.467 78.1245 74.3605 77.5005 75.1598 76.4653C75.9956 75.3829 76.4278 74.2857 76.502 73.1654C76.5762 72.0459 76.2722 71.3258 75.7097 70.8506L75.6945 70.8377L75.6799 70.8241ZM76.6929 69.7177C75.7124 68.8051 74.4703 68.598 73.1086 68.982C71.7557 69.3636 70.59 70.232 69.6026 71.5108C68.6435 72.753 68.0981 74.107 68.0017 75.5627C67.9053 77.0171 68.2833 78.2598 69.2422 79.1615L69.2567 79.1752L69.272 79.1881C70.2868 80.0454 71.5344 80.228 72.8918 79.8452C74.2391 79.4652 75.3891 78.6227 76.3471 77.3821C77.3361 76.1012 77.9019 74.7259 77.9987 73.2645C78.0951 71.8097 77.6991 70.5767 76.6929 69.7177ZM38.5993 81.5937C39.0362 81.1527 39.7142 80.7741 40.4531 80.8931L52.2873 82.7995C53.0711 82.9258 53.5398 83.5659 53.5768 84.2984L53.7135 87.0052C53.7474 87.6764 53.4417 88.3057 53.0432 88.7496C52.6478 89.1899 52.0511 89.5676 51.3713 89.5703L39.6356 89.6158C39.2236 89.6174 38.8289 89.4731 38.5321 89.1781C38.2383 88.886 38.0912 88.4973 38.0709 88.0957L37.8357 83.437C37.7991 82.7123 38.1541 82.0431 38.5993 81.5937ZM39.6649 82.6493C39.4304 82.886 39.3239 83.1661 39.3338 83.3614L39.569 88.0201C39.5713 88.0648 39.5796 88.0915 39.5848 88.104C39.5861 88.1072 39.5873 88.1096 39.5882 88.1114C39.5943 88.1131 39.6075 88.1159 39.6298 88.1158L51.3655 88.0703C51.4928 88.0698 51.7156 87.9829 51.9271 87.7474C52.1355 87.5153 52.2243 87.2575 52.2154 87.0808L52.0787 84.374C52.076 84.3199 52.0648 84.2927 52.0594 84.2827C52.0569 84.282 52.0534 84.2812 52.0488 84.2804L40.2145 82.374C40.1275 82.36 39.9077 82.4043 39.6649 82.6493ZM76.2289 82.9636C76.6573 83.3107 76.8346 83.8416 76.7991 84.3785L75.4147 105.276C75.3798 105.803 75.1488 106.297 74.8383 106.68C74.5277 107.063 74.0931 107.391 73.5843 107.535L68.4345 108.987C67.9167 109.133 67.3606 109.07 66.9323 108.722C66.5039 108.375 66.3266 107.844 66.3622 107.308L67.7465 86.4103C67.7814 85.8828 68.0124 85.3895 68.323 85.0063C68.6335 84.6232 69.0681 84.295 69.577 84.1515L74.7267 82.6991C75.2445 82.5531 75.8006 82.6165 76.2289 82.9636ZM75.2727 84.1273C75.2536 84.1243 75.2083 84.1218 75.1338 84.1428L69.9841 85.5951C69.8285 85.639 69.6431 85.7597 69.4883 85.9507C69.3335 86.1418 69.2539 86.3481 69.2432 86.5094L67.8589 107.407C67.8538 107.484 67.8656 107.528 67.8726 107.546C67.8744 107.551 67.8761 107.554 67.8773 107.556C67.8797 107.557 67.8834 107.558 67.8885 107.559C67.9076 107.562 67.9529 107.564 68.0274 107.543L73.1771 106.091C73.3327 106.047 73.5181 105.926 73.6729 105.735C73.8277 105.544 73.9073 105.338 73.918 105.177L75.3023 84.2793C75.3075 84.2021 75.2956 84.1583 75.2887 84.1403C75.2868 84.1354 75.2852 84.132 75.2839 84.1298C75.2815 84.1291 75.2778 84.1282 75.2727 84.1273ZM179.547 84.8934C179.976 85.2405 180.153 85.7714 180.117 86.3083L179.773 91.5064C179.738 92.0339 179.507 92.5271 179.197 92.9103C178.886 93.2935 178.451 93.6217 177.943 93.7652L170.621 95.8302C170.465 95.8741 170.28 95.9948 170.125 96.1858C169.97 96.3768 169.89 96.5832 169.88 96.7445L169.66 100.059C169.655 100.136 169.667 100.18 169.674 100.198C169.676 100.203 169.677 100.206 169.678 100.208C169.681 100.209 169.685 100.21 169.69 100.211C169.709 100.214 169.754 100.216 169.829 100.195L176.631 98.2767C177.149 98.1307 177.705 98.1942 178.133 98.5413C178.562 98.8884 178.739 99.4192 178.703 99.9561L178.359 105.154C178.324 105.682 178.093 106.175 177.783 106.558C177.472 106.941 177.038 107.27 176.529 107.413L169.726 109.332C169.571 109.375 169.385 109.496 169.23 109.687C169.076 109.878 168.996 110.085 168.985 110.246L168.752 113.769C168.747 113.847 168.758 113.89 168.765 113.908C168.767 113.913 168.769 113.917 168.77 113.919C168.773 113.92 168.776 113.921 168.781 113.921C168.8 113.924 168.846 113.927 168.92 113.906L176.242 111.841C176.76 111.695 177.316 111.758 177.745 112.105C178.173 112.452 178.35 112.983 178.315 113.52L177.97 118.718C177.935 119.246 177.704 119.739 177.394 120.122C177.083 120.505 176.649 120.834 176.14 120.977L160.648 125.346C160.13 125.492 159.574 125.429 159.146 125.082C158.717 124.735 158.54 124.204 158.576 123.667L160.723 91.2569C160.758 90.7293 160.989 90.2361 161.299 89.8529C161.61 89.4697 162.044 89.1415 162.553 88.998L178.045 84.6289C178.563 84.4828 179.119 84.5463 179.547 84.8934ZM178.591 86.0571C178.572 86.054 178.527 86.0516 178.452 86.0726L162.96 90.4417C162.805 90.4856 162.619 90.6063 162.465 90.7973C162.31 90.9883 162.23 91.1947 162.219 91.356L160.072 123.766C160.067 123.843 160.079 123.887 160.086 123.905C160.088 123.91 160.09 123.913 160.091 123.916C160.093 123.916 160.097 123.917 160.102 123.918C160.121 123.921 160.166 123.924 160.241 123.903L175.733 119.533C175.888 119.49 176.074 119.369 176.229 119.178C176.383 118.987 176.463 118.78 176.474 118.619L176.818 113.421C176.823 113.344 176.811 113.3 176.804 113.282C176.802 113.277 176.801 113.274 176.8 113.272C176.797 113.271 176.793 113.27 176.788 113.269C176.769 113.266 176.724 113.264 176.649 113.285L169.327 115.35C168.81 115.496 168.254 115.432 167.825 115.085C167.397 114.738 167.22 114.207 167.255 113.67L167.488 110.147C167.523 109.619 167.754 109.126 168.065 108.743C168.375 108.36 168.81 108.031 169.319 107.888L176.122 105.969C176.277 105.925 176.462 105.805 176.617 105.614C176.772 105.423 176.852 105.216 176.862 105.055L177.207 99.8569C177.212 99.7797 177.2 99.7359 177.193 99.7179C177.191 99.7131 177.19 99.7096 177.188 99.7074C177.186 99.7067 177.182 99.7058 177.177 99.705C177.158 99.7019 177.113 99.6994 177.038 99.7204L170.236 101.639C169.718 101.785 169.162 101.721 168.733 101.374C168.305 101.027 168.128 100.496 168.163 99.9595L168.383 96.6454C168.418 96.1178 168.649 95.6246 168.959 95.2414C169.27 94.8582 169.704 94.53 170.213 94.3865L177.535 92.3215C177.691 92.2776 177.876 92.1569 178.031 91.9659C178.186 91.7749 178.266 91.5685 178.276 91.4072L178.621 86.2091C178.626 86.1319 178.614 86.0881 178.607 86.07C178.605 86.0652 178.603 86.0618 178.602 86.0596C178.6 86.0588 178.596 86.0579 178.591 86.0571ZM146.68 95.0568C146.661 95.0538 146.616 95.0513 146.542 95.0723L140.778 96.6978C140.622 96.7417 140.437 96.8624 140.282 97.0534C140.127 97.2444 140.048 97.4508 140.037 97.6121L137.89 130.022C137.885 130.099 137.897 130.143 137.904 130.161C137.906 130.166 137.907 130.169 137.908 130.172C137.911 130.172 137.915 130.173 137.92 130.174C137.939 130.177 137.984 130.18 138.059 130.159L153.645 125.763C153.8 125.719 153.986 125.598 154.141 125.407C154.295 125.216 154.375 125.01 154.386 124.849L154.73 119.651C154.735 119.573 154.723 119.529 154.716 119.511C154.714 119.507 154.713 119.503 154.712 119.501C154.709 119.5 154.706 119.499 154.7 119.499C154.681 119.495 154.636 119.493 154.562 119.514L147.145 121.606C146.627 121.752 146.071 121.688 145.643 121.341C145.214 120.994 145.037 120.463 145.073 119.926L146.71 95.2088C146.715 95.1316 146.703 95.0878 146.696 95.0698C146.695 95.0649 146.693 95.0615 146.692 95.0593C146.689 95.0585 146.686 95.0577 146.68 95.0568ZM147.637 93.8931C148.065 94.2402 148.242 94.7711 148.207 95.308L146.569 120.025C146.564 120.103 146.576 120.146 146.583 120.164C146.585 120.169 146.587 120.173 146.588 120.175C146.59 120.176 146.594 120.177 146.599 120.177C146.618 120.18 146.663 120.183 146.738 120.162L154.154 118.07C154.672 117.924 155.228 117.988 155.657 118.335C156.085 118.682 156.262 119.213 156.227 119.75L155.882 124.948C155.847 125.475 155.616 125.969 155.306 126.352C154.995 126.735 154.561 127.063 154.052 127.207L138.466 131.602C137.948 131.748 137.392 131.685 136.963 131.338C136.535 130.991 136.358 130.46 136.393 129.923L138.54 97.5129C138.575 96.9854 138.806 96.4922 139.117 96.109C139.427 95.7258 139.862 95.3976 140.371 95.2541L146.134 93.6286C146.652 93.4826 147.208 93.546 147.637 93.8931ZM57.2396 96.2187C57.9315 95.9838 58.7648 96.1245 59.194 96.8537L60.3853 98.8778C60.7361 99.474 60.6369 100.169 60.4051 100.688C60.1661 101.224 59.7243 101.729 59.1364 102.012L46.8088 107.947C46.0835 108.296 45.0968 108.255 44.6024 107.415L42.5529 103.933C42.1733 103.288 42.3182 102.536 42.5921 101.999C42.8754 101.444 43.3866 100.922 44.0538 100.695L57.2396 96.2187ZM57.9026 97.6167C57.889 97.6129 57.8303 97.6022 57.7219 97.639L44.5361 102.116C44.3033 102.195 44.0674 102.408 43.9282 102.681C43.7798 102.972 43.8268 103.14 43.8457 103.172L45.8938 106.652C45.8957 106.653 45.8981 106.653 45.9012 106.654C45.93 106.659 46.0181 106.663 46.1581 106.595L58.4857 100.66C58.7189 100.548 58.9243 100.326 59.0355 100.077C59.154 99.8112 59.1082 99.6652 59.0925 99.6386L57.9026 97.6167C57.9026 97.6167 57.9026 97.6167 57.9026 97.6167ZM131.422 102.072C129.878 100.759 127.587 100.418 124.339 101.334L112.508 104.671C112.352 104.715 112.167 104.835 112.012 105.026C111.857 105.217 111.778 105.424 111.767 105.585L109.62 137.995C109.615 138.072 109.627 138.116 109.634 138.134C109.636 138.139 109.637 138.142 109.639 138.145C109.641 138.145 109.645 138.146 109.65 138.147C109.669 138.15 109.714 138.153 109.789 138.132L115.552 136.506C115.708 136.462 115.893 136.342 116.048 136.151C116.203 135.959 116.283 135.753 116.293 135.592L116.894 126.521C116.929 125.994 117.16 125.501 117.471 125.117C117.781 124.734 118.216 124.406 118.725 124.262L122.669 123.15C125.897 122.239 128.437 120.575 130.322 118.164C132.206 115.754 133.285 112.747 133.526 109.104C133.754 105.659 132.978 103.396 131.422 102.072ZM123.932 99.8904C127.42 98.9065 130.312 99.1582 132.394 100.93C134.465 102.692 135.266 105.53 135.023 109.203C134.765 113.095 133.603 116.403 131.504 119.088C129.406 121.771 126.585 123.604 123.076 124.594L119.132 125.706C118.976 125.75 118.791 125.871 118.636 126.062C118.481 126.253 118.401 126.459 118.391 126.62L117.79 135.691C117.755 136.218 117.524 136.712 117.213 137.095C116.903 137.478 116.468 137.806 115.959 137.95L110.196 139.575C109.678 139.721 109.122 139.658 108.694 139.311C108.265 138.964 108.088 138.433 108.123 137.896L110.27 105.486C110.305 104.958 110.536 104.465 110.847 104.082C111.157 103.699 111.592 103.371 112.101 103.227L123.932 99.8904ZM101.318 106.838C101.74 107.116 101.969 107.571 102.005 108.065L104.243 139.238C104.284 139.819 104.064 140.379 103.751 140.807C103.436 141.237 102.97 141.613 102.413 141.77L96.6945 143.383C96.2205 143.517 95.7097 143.477 95.2914 143.192C94.8678 142.904 94.6454 142.438 94.6201 141.937L93.932 128.324C93.9295 128.276 93.923 128.246 93.9175 128.23C93.9012 128.227 93.8711 128.225 93.8231 128.232C93.6055 128.265 93.259 128.472 93.0828 128.911L86.5538 145.163C86.2655 145.88 85.634 146.502 84.889 146.713L83.2845 147.165C82.895 147.275 82.4757 147.269 82.0981 147.096C81.7119 146.919 81.4299 146.594 81.2958 146.186L76.9545 133.002C76.9511 132.991 76.9479 132.983 76.9452 132.978C76.9166 132.975 76.847 132.975 76.7359 133.019C76.4433 133.134 76.1426 133.441 76.0676 133.83L73.2349 148.514C73.0607 149.417 72.3276 150.255 71.4391 150.506L65.7729 152.104C65.194 152.267 64.5793 152.165 64.1496 151.73C63.7296 151.304 63.6215 150.697 63.7427 150.12L70.8446 116.313C71.0311 115.425 71.756 114.605 72.6329 114.358L78.8311 112.61C79.2268 112.498 79.653 112.506 80.0344 112.687C80.4246 112.871 80.7039 113.208 80.8308 113.623L84.8547 126.797C84.8581 126.808 84.861 126.816 84.8633 126.822C84.8836 126.825 84.9302 126.827 85.0079 126.806C85.2405 126.743 85.5474 126.514 85.697 126.129L91.9671 110.009C92.2507 109.28 92.8885 108.646 93.6422 108.433L99.9328 106.659C100.399 106.527 100.902 106.564 101.318 106.838ZM84.8686 126.832C84.8684 126.832 84.8681 126.831 84.8677 126.83L84.8686 126.832ZM76.9375 132.963C76.9372 132.963 76.9376 132.964 76.9375 132.963V132.963ZM93.9089 128.212C93.9091 128.212 93.9105 128.214 93.9127 128.218C93.9098 128.215 93.9087 128.213 93.9089 128.212ZM100.49 108.09C100.475 108.085 100.429 108.077 100.34 108.102L94.0494 109.877C93.8008 109.947 93.4985 110.21 93.3651 110.553L87.095 126.673C86.7779 127.488 86.1067 128.062 85.4024 128.254C85.0473 128.35 84.6363 128.361 84.253 128.194C83.8489 128.019 83.5554 127.678 83.4202 127.235L79.3963 114.061C79.3932 114.051 79.3903 114.045 79.3882 114.041C79.3874 114.041 79.3865 114.041 79.3855 114.04C79.3803 114.039 79.3719 114.037 79.3596 114.037C79.3349 114.036 79.2945 114.038 79.2383 114.054L73.0401 115.802C72.7336 115.888 72.3916 116.245 72.3126 116.621L65.2106 150.429C65.1776 150.586 65.2062 150.655 65.2166 150.674C65.2178 150.674 65.2193 150.674 65.2212 150.675C65.2358 150.678 65.282 150.684 65.3657 150.66L71.032 149.062C71.3445 148.974 71.6893 148.607 71.762 148.23L74.5948 133.546C74.7764 132.604 75.4645 131.907 76.186 131.623C76.55 131.48 76.9893 131.415 77.4142 131.551C77.8719 131.696 78.2187 132.045 78.3793 132.533L82.7205 145.717C82.7232 145.725 82.7257 145.731 82.7274 145.734C82.7325 145.736 82.7421 145.738 82.7572 145.738C82.782 145.74 82.822 145.737 82.8774 145.721L84.4819 145.269C84.7266 145.2 85.0255 144.943 85.1619 144.603L91.6909 128.352C92.0513 127.454 92.8204 126.866 93.6 126.749C93.994 126.689 94.4436 126.747 94.8178 127.024C95.2071 127.312 95.4052 127.757 95.4301 128.248L96.1182 141.861C96.121 141.917 96.1329 141.944 96.1369 141.952C96.137 141.952 96.1369 141.952 96.1369 141.952C96.1527 141.957 96.1982 141.965 96.2873 141.939L102.005 140.327C102.179 140.278 102.382 140.137 102.54 139.921C102.7 139.702 102.757 139.487 102.746 139.346L100.509 108.172C100.505 108.122 100.494 108.097 100.49 108.09ZM125.491 108.243C126.338 109.005 126.564 110.27 126.468 111.718C126.364 113.294 125.91 114.623 125.044 115.636C124.145 116.723 122.821 117.476 121.153 117.947L119.617 118.38C119.099 118.526 118.543 118.462 118.115 118.115C117.686 117.768 117.509 117.237 117.545 116.7L117.955 110.508C117.99 109.981 118.221 109.487 118.531 109.104C118.842 108.721 119.276 108.393 119.785 108.249L121.368 107.803C123.019 107.337 124.515 107.326 125.491 108.243ZM124.468 109.34C124.107 108.998 123.332 108.808 121.776 109.246L120.192 109.693C120.037 109.737 119.852 109.857 119.697 110.049C119.542 110.24 119.462 110.446 119.452 110.607L119.041 116.8C119.036 116.877 119.048 116.921 119.055 116.939C119.057 116.943 119.059 116.947 119.06 116.949C119.062 116.95 119.066 116.951 119.071 116.952C119.09 116.955 119.135 116.957 119.21 116.936L120.746 116.503C122.223 116.086 123.244 115.461 123.891 114.676L123.9 114.665C124.503 113.962 124.882 112.971 124.972 111.619C125.06 110.281 124.797 109.634 124.484 109.355L124.476 109.347L124.468 109.34ZM60.8387 117.376C60.3091 116.878 59.6358 116.706 58.6745 116.978C57.6978 117.253 56.7861 117.895 55.9487 118.979C55.1505 120.013 54.7317 121.088 54.6572 122.214C54.5831 123.331 54.87 124.087 55.4141 124.607C55.9766 125.074 56.6798 125.225 57.6434 124.953C58.6258 124.676 59.5193 124.052 60.3186 123.017C61.1544 121.935 61.5866 120.838 61.6608 119.717C61.7349 118.598 61.431 117.878 60.8685 117.403L60.8532 117.39L60.8387 117.376ZM61.8517 116.27C60.8712 115.357 59.6291 115.15 58.2674 115.534C56.9144 115.915 55.7488 116.784 54.7614 118.063C53.8023 119.305 53.2569 120.659 53.1604 122.115C53.0641 123.569 53.4421 124.812 54.401 125.713L54.4155 125.727L54.4308 125.74C55.4456 126.597 56.6932 126.78 58.0505 126.397C59.3979 126.017 60.5479 125.175 61.5058 123.934C62.4949 122.653 63.0607 121.278 63.1575 119.816C63.2539 118.362 62.8578 117.129 61.8517 116.27ZM47.4759 124.363C44.8043 123.704 42.0829 123.762 39.2986 124.548C36.051 125.464 33.424 127.231 31.3949 129.858C29.428 132.406 28.3325 135.341 28.1108 138.687C27.9372 141.308 28.4109 142.916 29.2762 143.774L29.286 143.784L29.2954 143.794C29.9377 144.48 31.151 144.972 33.1423 145.106M33.1442 145.106L35.2094 145.238C35.211 145.238 35.2127 145.238 35.2143 145.239C36.3039 145.295 37.203 145.382 37.9009 145.503C38.5564 145.617 39.1559 145.78 39.546 146.063C40.3698 146.639 40.6857 147.536 40.6177 148.563C40.5496 149.592 40.1756 150.537 39.5218 151.387C38.6872 152.537 37.4483 153.314 35.8807 153.756C33.6059 154.397 31.4539 154.145 29.477 152.982C29.4535 152.968 29.3269 152.924 29.0908 153.033C28.8682 153.136 28.6446 153.34 28.5132 153.614L25.8894 159.094C25.7967 159.287 25.7913 159.433 25.804 159.502C25.8057 159.512 25.8076 159.519 25.8092 159.524C26.9814 160.046 28.1701 160.373 29.3771 160.508L29.3886 160.509C31.1049 160.729 33.0381 160.548 35.2001 159.938C39.1263 158.831 42.1612 156.853 44.3489 154.019C46.3819 151.386 47.5183 148.32 47.7517 144.797C47.9128 142.366 47.3871 140.738 46.3569 139.728L46.353 139.724C45.4748 138.85 43.8725 138.256 41.3527 138.099C41.3518 138.099 41.3509 138.099 41.35 138.099L38.9145 137.968C38.9137 137.968 38.9129 137.968 38.9122 137.968C38.2001 137.935 37.5757 137.847 37.0568 137.69C36.5432 137.535 36.0734 137.293 35.7446 136.909L35.7295 136.892L35.7156 136.873C35.3096 136.335 35.1969 135.645 35.2449 134.922C35.3019 134.06 35.698 133.217 36.3272 132.403L36.3351 132.392C37.1443 131.381 38.2007 130.694 39.4784 130.333C41.0169 129.899 42.5365 129.983 44.0098 130.584C44.0625 130.606 44.2177 130.624 44.4485 130.505C44.668 130.392 44.8767 130.189 44.9979 129.929L47.4 124.783C47.4993 124.57 47.4919 124.422 47.4766 124.365C47.4764 124.365 47.4761 124.364 47.4759 124.363M38.8914 123.104C41.9217 122.249 44.9147 122.182 47.8571 122.912C48.4249 123.053 48.7903 123.478 48.9245 123.974C49.0522 124.445 48.9728 124.96 48.7592 125.417L46.3571 130.564C46.0897 131.136 45.6385 131.579 45.1374 131.838C44.6476 132.091 44.0215 132.209 43.4428 131.973C42.2812 131.499 41.1046 131.433 39.8855 131.777C38.8985 132.055 38.1153 132.57 37.5104 133.325C36.9936 133.995 36.7723 134.558 36.7416 135.021C36.7079 135.53 36.7989 135.805 36.8988 135.95C36.9788 136.034 37.1496 136.151 37.4913 136.254C37.8503 136.363 38.3418 136.44 38.984 136.469L38.9895 136.47L41.4433 136.602C44.09 136.767 46.1433 137.4 47.4097 138.659C48.8724 140.095 49.4247 142.236 49.2484 144.897C48.9965 148.7 47.7613 152.054 45.5362 154.936C43.1279 158.055 39.8036 160.198 35.6073 161.382C33.3012 162.032 31.1631 162.247 29.2048 161.998C27.8311 161.844 26.4872 161.471 25.1752 160.884C24.6834 160.664 24.4116 160.227 24.3285 159.772C24.2479 159.331 24.3363 158.864 24.5365 158.446L27.1603 152.966C27.4459 152.37 27.9292 151.918 28.461 151.672C28.9793 151.432 29.6546 151.346 30.2377 151.689C31.8455 152.635 33.5733 152.848 35.4736 152.312C36.798 151.939 37.7191 151.321 38.3129 150.499L38.32 150.489L38.3273 150.48C38.8179 149.844 39.0738 149.176 39.121 148.464C39.1636 147.82 38.976 147.493 38.6831 147.29L38.6748 147.284L38.6666 147.278C38.5851 147.218 38.2963 147.095 37.6435 146.981C37.0291 146.874 36.1956 146.791 35.1322 146.736L35.1227 146.736L33.0462 146.602L33.0442 146.602C30.9216 146.46 29.2417 145.924 28.2099 144.829C26.8795 143.501 26.4323 141.333 26.6141 138.588C26.8547 134.957 28.0517 131.734 30.2076 128.942C32.4365 126.055 35.3387 124.106 38.8914 123.104ZM60.4315 130.679C60.4124 130.676 60.3671 130.674 60.2926 130.695L55.1429 132.147C54.9873 132.191 54.8019 132.312 54.6471 132.503C54.4923 132.694 54.4127 132.9 54.402 133.061L53.0176 153.959C53.0125 154.036 53.0243 154.08 53.0313 154.098C53.0332 154.103 53.0349 154.106 53.0361 154.108C53.0385 154.109 53.0422 154.11 53.0473 154.111C53.0664 154.114 53.1116 154.116 53.1861 154.095L58.3359 152.643C58.4915 152.599 58.6768 152.478 58.8316 152.287C58.9865 152.096 59.0661 151.89 59.0768 151.729L60.4611 130.831C60.4662 130.754 60.4544 130.71 60.4474 130.692C60.4456 130.687 60.4439 130.684 60.4427 130.682C60.4402 130.681 60.4366 130.68 60.4315 130.679ZM61.3877 129.516C61.816 129.863 61.9934 130.394 61.9578 130.93L60.5735 151.828C60.5386 152.355 60.3076 152.848 59.997 153.232C59.6865 153.615 59.2519 153.943 58.743 154.086L53.5933 155.539C53.0755 155.685 52.5194 155.621 52.091 155.274C51.6627 154.927 51.4854 154.396 51.5209 153.859L52.9053 132.962C52.9402 132.435 53.1712 131.941 53.4817 131.558C53.7922 131.175 54.2269 130.847 54.7357 130.703L59.8854 129.251C60.4033 129.105 60.9594 129.168 61.3877 129.516Z" fill="black"/>
</svg>
