<svg width="200" height="200" viewBox="0 0 200 200" fill="none" xmlns="http://www.w3.org/2000/svg">
<path d="M98.75 152.5L110 155V150L103.75 136.25L87.5 139.375L98.75 152.5Z" fill="#1F2024"/>
<path d="M165 121.25L176.25 123.75V118.75L170 105L153.75 108.125L165 121.25Z" fill="#1F2024"/>
<path d="M92.7915 143.357C99.1368 145.665 103.497 152.352 103.038 159.953C102.487 169.068 95.2118 176.045 86.7881 175.536C85.3881 175.451 84.0445 175.165 82.7797 174.705C76.4345 172.397 72.0738 165.709 72.5331 158.109C73.0841 148.994 80.3595 142.017 88.7832 142.526C90.1832 142.611 91.5268 142.897 92.7915 143.357Z" fill="#1F2024"/>
<path fill-rule="evenodd" clip-rule="evenodd" d="M88.7379 143.275C80.7822 142.794 73.8111 149.396 73.2817 158.154C72.8408 165.449 77.0265 171.814 83.036 174C84.234 174.436 85.5065 174.707 86.8333 174.787C94.789 175.268 101.76 168.666 102.289 159.908C102.73 152.613 98.5447 146.248 92.5351 144.062C91.3372 143.626 90.0647 143.355 88.7379 143.275ZM71.7845 158.064C72.357 148.592 79.9367 141.24 88.8284 141.778C90.3016 141.867 91.7163 142.168 93.0479 142.652C99.7288 145.082 104.265 152.092 103.787 159.998C103.214 169.47 95.6345 176.822 86.7428 176.284C85.2696 176.195 83.8549 175.894 82.5233 175.41C75.8423 172.98 71.3066 165.97 71.7845 158.064Z" fill="#1F2024"/>
<path d="M107.736 161.663C107.185 170.778 99.9096 177.755 91.4859 177.246C83.0622 176.737 76.68 168.935 77.231 159.819C77.7819 150.704 85.0573 143.727 93.481 144.236C101.905 144.745 108.287 152.548 107.736 161.663Z" fill="white"/>
<path fill-rule="evenodd" clip-rule="evenodd" d="M93.436 144.986C85.4803 144.505 78.5092 151.107 77.9799 159.865C77.4505 168.624 83.5757 176.017 91.5314 176.498C99.4871 176.979 106.458 170.377 106.988 161.619C107.517 152.86 101.392 145.467 93.436 144.986ZM76.4826 159.775C77.0551 150.303 84.6348 142.951 93.5265 143.489C102.418 144.026 109.057 152.237 108.485 161.709C107.912 171.181 100.333 178.533 91.4409 177.995C82.5492 177.458 75.9101 169.247 76.4826 159.775Z" fill="#1F2024"/>
<path d="M99.8302 161.667C99.4301 166.008 95.9319 169.235 92.0169 168.874C88.1018 168.513 85.2524 164.702 85.6525 160.36C86.0526 156.019 89.5507 152.793 93.4658 153.153C97.3808 153.514 100.23 157.326 99.8302 161.667Z" fill="#1F2024"/>
<path d="M160.292 114.607C166.637 116.915 170.997 123.602 170.538 131.203C169.987 140.318 162.712 147.295 154.288 146.786C152.888 146.701 151.544 146.415 150.28 145.955C143.934 143.647 139.574 136.959 140.033 129.359C140.584 120.244 147.859 113.267 156.283 113.776C157.683 113.861 159.027 114.147 160.292 114.607Z" fill="#1F2024"/>
<path fill-rule="evenodd" clip-rule="evenodd" d="M156.238 114.525C148.282 114.044 141.311 120.646 140.782 129.404C140.341 136.699 144.527 143.064 150.536 145.25C151.734 145.686 153.006 145.957 154.333 146.037C162.289 146.518 169.26 139.916 169.789 131.158C170.23 123.863 166.045 117.498 160.035 115.312C158.837 114.876 157.565 114.605 156.238 114.525ZM139.284 129.314C139.857 119.842 147.437 112.49 156.328 113.028C157.802 113.117 159.216 113.418 160.548 113.902C167.229 116.332 171.765 123.342 171.287 131.248C170.714 140.72 163.134 148.072 154.243 147.534C152.77 147.445 151.355 147.144 150.023 146.66C143.342 144.23 138.807 137.22 139.284 129.314Z" fill="#1F2024"/>
<path d="M175.236 132.913C174.685 142.028 167.41 149.005 158.986 148.496C150.562 147.987 144.18 140.185 144.731 131.069C145.282 121.954 152.557 114.977 160.981 115.486C169.405 115.995 175.787 123.798 175.236 132.913Z" fill="white"/>
<path fill-rule="evenodd" clip-rule="evenodd" d="M160.936 116.236C152.98 115.755 146.009 122.357 145.48 131.115C144.95 139.874 151.076 147.267 159.031 147.748C166.987 148.229 173.958 141.627 174.488 132.869C175.017 124.11 168.892 116.717 160.936 116.236ZM143.983 131.025C144.555 121.553 152.135 114.201 161.026 114.739C169.918 115.276 176.557 123.487 175.985 132.959C175.412 142.431 167.833 149.783 158.941 149.245C150.049 148.708 143.41 140.497 143.983 131.025Z" fill="#1F2024"/>
<path d="M167.33 132.917C166.93 137.258 163.432 140.485 159.517 140.124C155.602 139.763 152.752 135.952 153.153 131.61C153.553 127.269 157.051 124.043 160.966 124.403C164.881 124.764 167.73 128.576 167.33 132.917Z" fill="#1F2024"/>
<path fill-rule="evenodd" clip-rule="evenodd" d="M182.5 106.249C187 115.249 180.625 121.666 176.875 123.749L176.791 123.788C173.797 117.089 167.682 112.499 160.625 112.499C150.615 112.499 142.5 121.734 142.5 133.124C142.5 135.215 142.773 137.232 143.281 139.133L110.097 154.33C107.458 146.694 100.575 141.249 92.4998 141.249C82.1445 141.249 73.7498 150.204 73.7498 161.249C73.7498 164.415 74.4393 167.409 75.6669 170.069L66.2498 174.374C60.4165 174.374 45.6248 172.874 33.1248 166.874C22.672 161.857 22.009 159.916 20.0958 154.316C19.1491 151.545 17.8962 147.878 14.9998 142.499C7.99983 129.499 12.0832 118.749 14.9998 114.999L35.6248 104.999C50.698 90.9796 61.8106 82.0243 75.305 78.4823C94.2368 73.5131 113.628 80.8681 132.164 87.8991C134.098 88.6326 136.023 89.3625 137.936 90.0746L161.25 98.7494C166.458 97.4994 178 97.2494 182.5 106.249Z" fill="white"/>
<path fill-rule="evenodd" clip-rule="evenodd" d="M132.31 87.1532L132.431 87.1989C134.365 87.9325 136.287 88.6616 138.198 89.3726L161.3 97.9686C164.002 97.3549 168.187 97.0145 172.303 97.9243C176.548 98.8629 180.79 101.153 183.171 105.915C185.532 110.638 185.052 114.741 183.452 117.93C181.871 121.082 179.217 123.307 177.239 124.406L177.214 124.42L176.415 124.786L176.106 124.095C173.211 117.617 167.336 113.25 160.625 113.25C151.117 113.25 143.25 122.055 143.25 133.125C143.25 135.15 143.515 137.103 144.006 138.941L144.169 139.553L109.659 155.357L109.389 154.576C106.842 147.208 100.221 142 92.5001 142C82.6038 142 74.5001 150.573 74.5001 161.25C74.5001 164.307 75.1656 167.193 76.3482 169.756L76.6635 170.44L66.4134 175.125H66.2501C60.3467 175.125 45.4341 173.616 32.8005 167.552C27.571 165.041 24.6783 163.252 22.8629 161.33C21.0394 159.399 20.3483 157.376 19.4115 154.634L19.3857 154.558C18.4441 151.802 17.2068 148.181 14.3397 142.856C7.18622 129.571 11.326 118.503 14.4081 114.54L14.5155 114.402L35.1967 104.375C50.2216 90.4047 61.4421 81.3467 75.1148 77.7579C94.2789 72.7277 113.864 80.1563 132.31 87.1532ZM131.899 88.6014C113.307 81.5495 94.1535 74.3115 75.4956 79.2088C62.2046 82.6974 51.2159 91.5234 36.1359 105.55L36.0535 105.626L15.4878 115.597C12.7413 119.261 8.89994 129.59 15.6604 142.145C18.5856 147.577 19.854 151.289 20.8057 154.075C21.7693 156.895 22.3704 158.624 23.9535 160.3C25.5611 162.002 28.2263 163.692 33.4496 166.199C45.7015 172.08 60.2151 173.597 66.0876 173.625L74.6829 169.696C73.6008 167.114 73.0001 164.256 73.0001 161.25C73.0001 149.837 81.6856 140.5 92.5001 140.5C100.652 140.5 107.602 145.814 110.522 153.312L142.401 138.713C141.976 136.931 141.75 135.057 141.75 133.125C141.75 121.414 150.113 111.75 160.625 111.75C167.757 111.75 173.915 116.216 177.122 122.729C178.805 121.651 180.85 119.772 182.111 117.258C183.511 114.468 183.968 110.863 181.829 106.586C179.71 102.348 175.932 100.263 171.979 99.389C168.012 98.5119 163.942 98.8757 161.425 99.4797L161.203 99.533L137.675 90.7785C135.759 90.0656 133.832 89.3345 131.899 88.6014Z" fill="#1F2024"/>
<path fill-rule="evenodd" clip-rule="evenodd" d="M68.2033 108.343C63.3135 111.913 58.6082 115.348 54.1477 118.136C48.6274 121.586 41.8531 121.999 36.2497 120.802C33.443 120.202 30.895 119.192 28.9124 117.923C26.9468 116.666 25.4522 115.098 24.9089 113.347C24.7861 112.952 25.0073 112.532 25.4029 112.409C25.7985 112.286 26.2187 112.507 26.3415 112.903C26.7357 114.173 27.8973 115.493 29.7208 116.66C31.5273 117.815 33.9012 118.766 36.5632 119.335C41.8973 120.475 48.248 120.055 53.3527 116.864C57.764 114.107 62.4223 110.706 67.3199 107.131C67.9418 106.677 68.5676 106.22 69.1972 105.761C74.7735 101.699 80.6386 97.5 86.7268 93.8864C98.8898 86.667 112.072 81.7031 125.795 84.8946C126.199 84.9884 126.45 85.3915 126.356 85.795C126.262 86.1984 125.859 86.4494 125.455 86.3556C112.304 83.2971 99.5481 88.0207 87.4924 95.1763C81.4711 98.7502 75.6566 102.911 70.0805 106.973C69.4519 107.431 68.8261 107.888 68.2033 108.343Z" fill="#1F2024"/>
<path fill-rule="evenodd" clip-rule="evenodd" d="M77.154 101.291C64.77 94.8509 53.6515 93.6723 49.4107 93.8742C48.9969 93.894 48.6456 93.5745 48.6259 93.1608C48.6062 92.747 48.9256 92.3957 49.3393 92.3759C53.8485 92.1612 65.23 93.3994 77.846 99.9597C78.2135 100.151 78.3565 100.604 78.1654 100.971C77.9743 101.339 77.5215 101.482 77.154 101.291Z" fill="#1F2024"/>
<path fill-rule="evenodd" clip-rule="evenodd" d="M57.7972 126.717C56.183 128.238 54.9492 129.393 54.2106 129.968L54.1196 130.038L54.0117 130.079C32.1445 138.215 18.9017 127.544 14.982 121.012C14.7689 120.656 14.8841 120.196 15.2392 119.983C15.5944 119.77 16.0551 119.885 16.2682 120.24C19.8423 126.197 32.3123 136.5 53.3785 128.714C54.0586 128.17 55.1964 127.107 56.7685 125.626C56.9112 125.491 57.0573 125.353 57.2067 125.212C58.76 123.748 60.6687 121.949 62.8746 119.944C67.7107 115.548 73.9854 110.155 81.1289 105.092C95.3704 94.9977 113.253 86.0776 130.139 89.2637C130.546 89.3405 130.814 89.7328 130.737 90.1398C130.66 90.5468 130.268 90.8145 129.861 90.7377C113.622 87.6738 96.1923 96.2538 81.9963 106.316C74.921 111.331 68.6958 116.68 63.8835 121.054C61.688 123.049 59.7887 124.84 58.2349 126.305C58.0858 126.445 57.9399 126.583 57.7972 126.717Z" fill="#1F2024"/>
<path fill-rule="evenodd" clip-rule="evenodd" d="M56.7263 132.546C57.046 132.809 57.0917 133.282 56.8284 133.602C55.4322 135.297 53.5811 138.388 52.6321 142.077C51.6856 145.758 51.6476 149.982 53.7873 154.024C58.3053 162.558 61.5279 170.55 62.5808 173.498C62.7202 173.888 62.5169 174.317 62.1268 174.456C61.7367 174.596 61.3075 174.392 61.1682 174.002C60.1378 171.117 56.9436 163.192 52.4616 154.726C50.1014 150.268 50.1675 145.638 51.1794 141.704C52.1887 137.779 54.1501 134.494 55.6705 132.648C55.9338 132.328 56.4065 132.283 56.7263 132.546Z" fill="#1F2024"/>
<path d="M16.2496 132.5C14.2496 132 12.083 128.125 11.2496 126.25C10.833 130.833 12.2496 141.125 16.2496 143.125C21.2496 145.625 18.7496 133.125 16.2496 132.5Z" fill="#1F2024"/>
<path d="M46.8759 141.874C42.3759 141.874 41.6676 143.958 41.8759 144.999C41.8759 148.124 46.8759 149.374 54.3759 148.749C61.876 148.124 68.1259 141.874 65.6259 139.374C63.1259 136.874 58.7509 139.374 56.2509 140.624C53.7509 141.874 49.3759 141.874 46.8759 141.874Z" fill="#1F2024"/>
<path d="M66.875 126.875C81.25 111.666 117.5 84.6245 147.5 98.1245C141.5 99.6245 91.25 117.916 66.875 126.875Z" fill="#1F2024"/>
<path fill-rule="evenodd" clip-rule="evenodd" d="M115.75 111.5C115.957 111.224 116.349 111.168 116.625 111.375C116.787 111.497 116.946 111.669 117.087 111.83C117.162 111.916 117.253 112.022 117.347 112.133C117.426 112.227 117.508 112.323 117.587 112.413C117.956 112.841 118.413 113.337 118.999 113.811C120.158 114.75 121.846 115.625 124.375 115.625C127.915 115.625 130.409 118.471 131.843 122.771C133.286 127.101 133.752 133.134 133.122 140.057C133.091 140.4 132.787 140.654 132.443 140.622C132.1 140.591 131.846 140.287 131.878 139.943C132.498 133.116 132.026 127.274 130.657 123.166C129.278 119.029 127.085 116.875 124.375 116.875C121.519 116.875 119.561 115.875 118.212 114.783C117.544 114.241 117.031 113.682 116.641 113.231C116.542 113.116 116.458 113.018 116.382 112.928C116.299 112.83 116.225 112.742 116.148 112.655C116.004 112.491 115.921 112.41 115.875 112.375C115.599 112.168 115.543 111.776 115.75 111.5Z" fill="#1F2024"/>
<path fill-rule="evenodd" clip-rule="evenodd" d="M20.1831 154.558C20.4271 154.314 20.8229 154.314 21.0669 154.558C25.5643 159.055 39.0925 168.386 56.9097 169.376C57.2543 169.395 57.5182 169.69 57.499 170.035C57.4799 170.379 57.185 170.643 56.8403 170.624C38.6575 169.614 24.8524 160.111 20.1831 155.442C19.939 155.198 19.939 154.802 20.1831 154.558Z" fill="#1F2024"/>
<path fill-rule="evenodd" clip-rule="evenodd" d="M165.971 97.5661C166.279 97.4118 166.655 97.5369 166.809 97.8456C167.199 98.6263 167.972 99.8153 168.996 100.8C170.028 101.792 171.233 102.5 172.5 102.5C173.83 102.5 174.606 102.261 175.349 102.032C175.596 101.956 175.84 101.88 176.099 101.816C176.625 101.684 177.179 101.613 177.866 101.716C178.54 101.817 179.309 102.081 180.28 102.566C180.588 102.72 180.714 103.096 180.559 103.405C180.405 103.713 180.029 103.839 179.721 103.684C178.817 103.232 178.179 103.027 177.681 102.952C177.196 102.88 176.813 102.926 176.402 103.028C176.215 103.075 176.016 103.137 175.798 103.204C175.036 103.441 174.037 103.75 172.5 103.75C170.767 103.75 169.264 102.792 168.129 101.701C166.986 100.602 166.134 99.2907 165.691 98.4046C165.537 98.0959 165.662 97.7205 165.971 97.5661Z" fill="#1F2024"/>
<path d="M55 70C55 77.5939 48.8439 83.75 41.25 83.75C33.6561 83.75 27.5 77.5939 27.5 70C27.5 62.4061 39.375 38.75 41.25 38.75C43.125 38.75 55 62.4061 55 70Z" fill="#1F2024"/>
<path d="M76.9429 51.0145L73.1127 47.8005L73.136 44.9609L69.6632 45.699L69.6068 52.5738L65.7766 49.3599L65.833 42.4852L73.169 40.9258L76.9993 44.1397L76.976 46.9794L79.8374 46.3712L83.6677 49.5851L83.6061 57.0848L76.8814 58.5142L73.0512 55.3003L79.7759 53.8709L79.8043 50.4063L76.9429 51.0145Z" fill="#1F2024"/>
<path d="M76.8814 58.5142L76.825 65.389L69.4889 66.9483L65.6586 63.7344L65.6819 60.8947L62.8205 61.503L58.9902 58.289L59.0518 50.7893L65.7766 49.3599L69.6068 52.5738L62.882 54.0032L62.8536 57.4679L65.715 56.8596L69.5452 60.0736L69.522 62.9132L72.9948 62.1751L73.0512 55.3003L76.8814 58.5142Z" fill="#1F2024"/>
<path fill-rule="evenodd" clip-rule="evenodd" d="M73.039 40.3144C73.2272 40.2744 73.4233 40.3233 73.5707 40.447L77.4011 43.6609C77.544 43.7808 77.6258 43.9583 77.6243 44.1449L77.6074 46.2062L79.7075 45.7598C79.8957 45.7198 80.0918 45.7687 80.2392 45.8924L84.0694 49.1063C84.2123 49.2262 84.2942 49.4037 84.2926 49.5902L84.2311 57.09C84.2287 57.3831 84.0228 57.6352 83.7361 57.6962L77.5023 59.0212L77.4499 65.3941C77.4475 65.6873 77.2417 65.9394 76.9549 66.0004L69.6188 67.5597C69.4306 67.5997 69.2345 67.5508 69.0871 67.4271L65.2569 64.2132C65.114 64.0933 65.0321 63.9158 65.0337 63.7293L65.0506 61.6679L62.9504 62.1143C62.7622 62.1543 62.5661 62.1054 62.4187 61.9817L58.5885 58.7678C58.4456 58.6479 58.3637 58.4704 58.3653 58.2839L58.4268 50.7842C58.4292 50.491 58.635 50.2389 58.9218 50.178L65.1557 48.8529L65.208 42.4801C65.2104 42.1869 65.4163 41.9348 65.703 41.8739L73.039 40.3144ZM65.6084 50.0346L59.6726 51.2963L59.6176 57.9996L62.9887 60.8282L65.552 60.2834C65.7373 60.244 65.9305 60.2908 66.0772 60.4106C66.224 60.5305 66.3085 60.7104 66.3069 60.8999L66.286 63.445L69.6571 66.2736L76.2041 64.882L76.254 58.8037L73.6653 56.6315L73.6197 62.1802C73.6173 62.4734 73.4115 62.7255 73.1247 62.7864L69.6519 63.5246C69.4666 63.564 69.2734 63.5172 69.1266 63.3973C68.9799 63.2775 68.8954 63.0976 68.897 62.9081L68.9179 60.363L65.5468 57.5344L62.9835 58.0792C62.7982 58.1186 62.605 58.0718 62.4582 57.952C62.3115 57.8321 62.227 57.6522 62.2286 57.4627L62.257 53.9981C62.2594 53.7049 62.4653 53.4528 62.752 53.3919L68.2234 52.2289L65.6084 50.0346ZM68.9927 51.2427L66.404 49.0705L66.4538 42.9922L73.0008 41.6005L76.3719 44.4292L76.351 46.9742C76.3495 47.1637 76.434 47.3436 76.5807 47.4635C76.7275 47.5833 76.9206 47.6301 77.106 47.5907L79.6692 47.0459L83.0403 49.8745L82.9853 56.5779L77.0497 57.8395L74.4346 55.6452L79.9059 54.4823C80.1926 54.4213 80.3985 54.1692 80.4009 53.876L80.4293 50.4114C80.4309 50.222 80.3464 50.042 80.1996 49.9222C80.0529 49.8023 79.8597 49.7555 79.6744 49.7949L77.1111 50.3398L73.7401 47.5111L73.761 44.966C73.7625 44.7765 73.6781 44.5966 73.5313 44.4768C73.3846 44.3569 73.1914 44.3101 73.006 44.3495L69.5332 45.0877C69.2465 45.1487 69.0406 45.4008 69.0382 45.6939L68.9927 51.2427ZM70.284 46.206L70.2318 52.579C70.2294 52.8721 70.0235 53.1242 69.7367 53.1852L63.5028 54.5102L63.4849 56.6947L65.5851 56.2483C65.7733 56.2083 65.9694 56.2572 66.1168 56.3809L69.947 59.5948C70.0899 59.7147 70.1718 59.8922 70.1702 60.0787L70.1533 62.1401L72.3739 61.6681L72.4262 55.2952C72.4286 55.002 72.6345 54.7499 72.9213 54.689L79.1551 53.3639L79.173 51.1794L77.0729 51.6258C76.8847 51.6658 76.6886 51.6169 76.5412 51.4933L72.711 48.2793C72.5681 48.1594 72.4862 47.982 72.4877 47.7954L72.5046 45.734L70.284 46.206Z" fill="#1F2024"/>
<path d="M76.9873 45.6963C76.9938 44.8972 76.2591 44.2972 75.4774 44.4633L70.6458 45.4903C70.0722 45.6123 69.6605 46.1164 69.6557 46.7028L69.6158 51.5701C69.611 52.1564 69.1993 52.6606 68.6257 52.7825L63.8646 53.7945C63.2911 53.9164 62.8794 54.4206 62.8745 55.0069L62.834 59.9464C62.8275 60.7455 63.5622 61.3455 64.3439 61.1793L68.0234 60.3972C68.8051 60.231 69.5398 60.831 69.5333 61.6301L69.5024 65.3917C69.4958 66.1909 70.2305 66.7908 71.0122 66.6247L75.8439 65.5977C76.4174 65.4758 76.8292 64.9716 76.834 64.3853L76.8739 59.518C76.8787 58.9316 77.2904 58.4274 77.864 58.3055L82.6251 57.2935C83.1986 57.1716 83.6103 56.6674 83.6151 56.0811L83.6556 51.1417C83.6622 50.3425 82.9275 49.7426 82.1458 49.9087L78.4663 50.6908C77.6846 50.857 76.9499 50.257 76.9564 49.4579L76.9873 45.6963Z" fill="white"/>
<path fill-rule="evenodd" clip-rule="evenodd" d="M76.3623 45.6914C76.3656 45.2918 75.9982 44.9918 75.6074 45.0749L70.7757 46.1019C70.489 46.1629 70.2831 46.415 70.2807 46.7081L70.2408 51.5754C70.2335 52.4549 69.616 53.2112 68.7557 53.3941L63.9946 54.4061C63.7078 54.467 63.5019 54.7191 63.4995 55.0123L63.459 59.9517C63.4557 60.3513 63.8231 60.6513 64.2139 60.5682L67.8935 59.7861C69.066 59.5369 70.1681 60.4368 70.1582 61.6355L70.1274 65.3971C70.1241 65.7967 70.4915 66.0967 70.8823 66.0136L75.714 64.9866C76.0007 64.9256 76.2066 64.6735 76.209 64.3804L76.2489 59.5131C76.2561 58.6336 76.8737 57.8773 77.734 57.6944L82.4951 56.6824C82.7819 56.6215 82.9877 56.3694 82.9902 56.0762L83.0307 51.1368C83.0339 50.7372 82.6666 50.4372 82.2757 50.5203L78.5962 51.3024C77.4237 51.5516 76.3216 50.6517 76.3314 49.453L76.3623 45.6914ZM75.3475 43.8522C76.52 43.603 77.6221 44.503 77.6123 45.7016L77.5814 49.4633C77.5781 49.8628 77.9455 50.1628 78.3363 50.0797L82.0159 49.2976C83.1884 49.0484 84.2905 49.9483 84.2806 51.147L84.2401 56.0865C84.2329 56.966 83.6153 57.7222 82.755 57.9051L77.9939 58.9171C77.7071 58.9781 77.5013 59.2302 77.4989 59.5233L77.4589 64.3906C77.4517 65.2701 76.8342 66.0264 75.9738 66.2093L71.1422 67.2363C69.9696 67.4855 68.8676 66.5856 68.8774 65.3869L68.9083 61.6252C68.9116 61.2257 68.5442 60.9257 68.1534 61.0088L64.4738 61.7909C63.3013 62.0401 62.1992 61.1402 62.209 59.9415L62.2496 55.002C62.2568 54.1225 62.8744 53.3663 63.7347 53.1834L68.4958 52.1714C68.7825 52.1104 68.9884 51.8584 68.9908 51.5652L69.0307 46.6979C69.0379 45.8184 69.6555 45.0621 70.5158 44.8792L75.3475 43.8522Z" fill="#1F2024"/>
<path d="M51.25 67.5C51.25 68.8807 50.4105 70 49.375 70C48.3395 70 47.5 68.8807 47.5 67.5C47.5 66.1193 48.3395 65 49.375 65C50.4105 65 51.25 66.1193 51.25 67.5Z" fill="white"/>
<path d="M93.44 68.0875L96.8008 70.188C97.2486 70.4679 97.789 70.5593 98.304 70.4423L109.748 67.8415C110.633 67.6402 111.272 66.8677 111.303 65.9601L112.441 32.9471C112.475 31.9683 111.795 31.109 110.835 30.917L106.691 30.0882C106.401 30.0301 106.101 30.0373 105.814 30.1091L100.265 31.4963C99.3746 31.7189 98.75 32.5188 98.75 33.4366V38.125L93.9253 39.5724C93.0793 39.8262 92.5 40.6048 92.5 41.4881V66.3915C92.5 67.0811 92.8552 67.722 93.44 68.0875Z" fill="#1F2024"/>
<path d="M97.5 41.875C97.5 41.1846 98.0489 40.5158 98.726 40.3811L115.89 36.9671C116.567 36.8324 117.116 37.2828 117.116 37.9732V65.4732C117.116 66.1635 116.567 66.8324 115.89 66.9671L98.726 70.3811C98.0489 70.5158 97.5 70.0654 97.5 69.375V41.875Z" fill="white"/>
<path fill-rule="evenodd" clip-rule="evenodd" d="M96.8867 41.9961C96.8867 40.9606 97.7101 39.9573 98.7257 39.7553L115.889 36.3412C116.905 36.1392 117.728 36.8149 117.728 37.8504V65.3504C117.728 66.386 116.905 67.3892 115.889 67.5912L98.7257 71.0053C97.7101 71.2073 96.8867 70.5316 96.8867 69.4961V41.9961ZM98.7257 41.0053C98.3871 41.0726 98.1127 41.4071 98.1127 41.7522V69.2522C98.1127 69.5974 98.3871 69.8226 98.7257 69.7553L115.889 66.3412C116.228 66.2739 116.502 65.9395 116.502 65.5943V38.0943C116.502 37.7491 116.228 37.5239 115.889 37.5912L98.7257 41.0053Z" fill="#1F2024"/>
<path d="M102.404 38.4004C102.404 39.0907 102.953 39.5412 103.63 39.4065L110.986 37.9434C111.663 37.8087 112.212 37.1398 112.212 36.4495V32.6995C112.212 32.0091 111.663 31.5587 110.986 31.6934L103.63 33.1565C102.953 33.2912 102.404 33.96 102.404 34.6504V38.4004Z" fill="white"/>
<path fill-rule="evenodd" clip-rule="evenodd" d="M101.791 38.5215C101.791 39.557 102.614 40.2327 103.63 40.0307L110.986 38.5675C112.002 38.3655 112.825 37.3623 112.825 36.3267V32.5767C112.825 31.5412 112.002 30.8655 110.986 31.0675L103.63 32.5307C102.614 32.7327 101.791 33.736 101.791 34.7715V38.5215ZM103.63 38.7807C103.291 38.848 103.017 38.6228 103.017 38.2776V34.5276C103.017 34.1824 103.291 33.848 103.63 33.7807L110.986 32.3175C111.324 32.2502 111.599 32.4754 111.599 32.8206V36.5706C111.599 36.9158 111.324 37.2502 110.986 37.3175L103.63 38.7807Z" fill="#1F2024"/>
<path d="M112.169 51.4201C112.129 51.3317 112.064 51.262 111.981 51.2188C111.898 51.1757 111.801 51.1608 111.7 51.1758L109.234 51.6664L109.918 48.8646C109.94 48.7769 109.943 48.6887 109.927 48.607C109.911 48.5253 109.877 48.4523 109.826 48.3936C109.776 48.3355 109.712 48.2931 109.638 48.2698C109.564 48.2464 109.483 48.2427 109.401 48.2588L105.631 49.0086C105.51 49.0285 105.391 49.091 105.293 49.186C105.195 49.281 105.125 49.4029 105.093 49.5319L103.65 55.4429C103.628 55.5307 103.625 55.6188 103.641 55.7005C103.657 55.7822 103.691 55.8552 103.741 55.914C103.792 55.9727 103.857 56.0153 103.932 56.0385C104.007 56.0617 104.089 56.0648 104.172 56.0476L106.256 55.6331L105.281 59.6175C105.25 59.7461 105.258 59.8743 105.306 59.9814C105.353 60.0884 105.437 60.1681 105.544 60.2074C105.65 60.2468 105.773 60.2435 105.893 60.1981C106.012 60.1527 106.121 60.0679 106.202 59.9574L112.072 52.0411C112.142 51.9473 112.188 51.8388 112.205 51.7286C112.222 51.6185 112.21 51.5113 112.169 51.4201ZM106.897 57.3503L107.473 54.9861C107.495 54.8983 107.498 54.8102 107.482 54.7285C107.466 54.6468 107.432 54.5737 107.382 54.515C107.331 54.4569 107.267 54.4146 107.193 54.3912C107.12 54.3679 107.038 54.3642 106.956 54.3803L104.888 54.7916L106.041 50.052L108.696 49.5239L108.012 52.3257C107.99 52.415 107.987 52.5047 108.004 52.5875C108.021 52.6703 108.057 52.7439 108.11 52.8024C108.162 52.8609 108.229 52.9027 108.306 52.9243C108.382 52.946 108.466 52.947 108.55 52.9272L110.473 52.5448L106.897 57.3503Z" fill="#1F2024"/>
<path d="M106.897 57.3503L107.473 54.9861C107.495 54.8983 107.498 54.8102 107.482 54.7285C107.466 54.6468 107.432 54.5737 107.382 54.515C107.331 54.4569 107.267 54.4146 107.193 54.3912C107.12 54.3679 107.038 54.3642 106.956 54.3803L104.888 54.7916L106.041 50.052L108.696 49.5239L108.012 52.3257C107.99 52.415 107.987 52.5047 108.004 52.5875C108.021 52.6703 108.057 52.7439 108.11 52.8024C108.162 52.8609 108.229 52.9027 108.306 52.9243C108.382 52.946 108.466 52.947 108.55 52.9272L110.473 52.5448L106.897 57.3503Z" fill="#1F2024"/>
</svg>
