<svg width="527" height="361" viewBox="0 0 527 361" fill="none" xmlns="http://www.w3.org/2000/svg">
<path d="M126.574 92.1691L136.891 70.6521C136.883 70.5357 136.883 70.4189 136.891 70.3025C138.12 63.5884 138.691 56.7706 138.594 49.9459C138.594 45.1785 138.371 40.8244 137.989 37.0264C139.599 38.8003 141.454 40.336 143.498 41.5871H143.705C146.889 42.2069 149.309 44.384 148.195 50.1843C147.809 52.4574 146.946 54.6235 145.663 56.5407C145.506 56.7908 145.324 57.0249 145.122 57.24C144.592 58.077 144.311 59.0467 144.31 60.0368C144.31 60.2275 144.31 60.4023 144.31 60.5771C144.31 60.9108 144.437 61.2445 144.517 61.5782C144.51 61.6097 144.51 61.6422 144.517 61.6736C145.331 65.1481 163.207 88.1358 166.377 89.7854" fill="white"/>
<path d="M126.574 92.1691L136.891 70.6521C136.883 70.5357 136.883 70.4189 136.891 70.3025C138.12 63.5884 138.691 56.7706 138.594 49.9459C138.594 45.1785 138.371 40.8244 137.989 37.0264C139.599 38.8003 141.454 40.336 143.498 41.5871H143.705C146.889 42.2069 149.309 44.384 148.195 50.1843C147.809 52.4574 146.946 54.6235 145.663 56.5407C145.506 56.7908 145.324 57.0249 145.122 57.24C144.592 58.077 144.311 59.0467 144.31 60.0368C144.31 60.2275 144.31 60.4023 144.31 60.5771C144.31 60.9108 144.437 61.2445 144.517 61.5782C144.51 61.6097 144.51 61.6422 144.517 61.6736C145.331 65.1481 163.207 88.1358 166.377 89.7854" stroke="#1D1D1B" stroke-width="1.5" stroke-miterlimit="10"/>
<path d="M373.013 278.7C369.288 298.468 347.333 318.952 318.882 328.709C278.029 342.678 118.453 363.034 32.8776 301.933C-21.0626 263.476 2.35713 195.017 30.2507 147.312C9.15538 192.141 -0.779301 246.314 44.9935 279.034C130.569 340.119 290.176 319.747 330.934 305.778C348.256 299.851 363.142 289.967 373.013 278.7Z" fill="#1D1D1B"/>
<path d="M373.013 278.699C363.142 289.966 348.256 299.851 330.934 305.714C290.144 319.746 130.553 340.071 44.9933 279.033C-0.779503 246.313 9.15518 192.14 30.2505 147.311C46.6331 119.327 64.5442 98.5251 69.2728 95.0291C82.0095 85.7009 96.4658 96.7771 96.4658 96.7771C96.4658 96.7771 135.663 109.156 195.478 107.551C255.293 105.946 346.425 230.104 366.724 254.465C369.559 257.756 371.6 261.652 372.69 265.853C373.78 270.054 373.891 274.449 373.013 278.699Z" fill="white" stroke="#1D1D1B" stroke-miterlimit="10"/>
<path d="M30.25 147.311C46.6327 119.327 64.5438 98.5251 69.2723 95.0291C82.0091 85.7009 96.4653 96.7771 96.4653 96.7771C96.4653 96.7771 135.663 109.156 195.478 107.551C255.293 105.946 346.425 230.104 366.724 254.465C369.559 257.756 371.599 261.652 372.69 265.853C373.78 270.054 373.89 274.449 373.013 278.699" fill="white"/>
<path d="M30.25 147.311C46.6327 119.327 64.5438 98.5251 69.2723 95.0291C82.0091 85.7009 96.4653 96.7771 96.4653 96.7771C96.4653 96.7771 135.663 109.156 195.478 107.551C255.293 105.946 346.425 230.104 366.724 254.465C369.559 257.756 371.599 261.652 372.69 265.853C373.78 270.054 373.89 274.449 373.013 278.699" stroke="#1D1D1B" stroke-width="0.5" stroke-miterlimit="10"/>
<path d="M394.508 305.206C394.508 305.206 405.652 318.698 404.984 322.48C404.315 326.262 415.778 318.237 419.424 312.024C423.07 305.81 434.31 297.324 434.31 297.324L413.804 284.611L394.508 305.206Z" fill="white" stroke="#1D1D1B" stroke-miterlimit="10"/>
<path d="M289.922 174.422C289.922 174.422 338.799 172.833 351.823 177.982C364.846 183.13 418.85 290.142 418.85 290.142C418.85 290.142 398.025 299.168 396.433 306.986C394.841 314.805 289.922 174.422 289.922 174.422Z" fill="#1D1D1B" stroke="white" stroke-miterlimit="10"/>
<path d="M414.488 259.853L434.119 269.642C440.346 271.276 446.801 271.878 453.224 271.421C465.18 270.897 459.481 298.866 459.481 298.866C459.481 298.866 438.783 300.28 429.135 296.895C419.487 293.51 395.701 284.786 395.701 284.786C395.701 284.786 403.009 255.212 408.725 257.533L414.488 259.853Z" fill="white" stroke="#1D1D1B" stroke-miterlimit="10"/>
<path d="M167.504 206.252C167.504 206.252 241.011 225.432 265.609 223.732C290.207 222.032 293.598 217.519 298.963 227.689C304.329 237.859 341.663 276.221 406.111 288.362C406.111 288.362 408.945 259.567 418.848 260.981C418.848 260.981 327.669 196.129 305.921 165.316C284.173 134.503 170.847 183.591 170.21 192.999C169.574 202.406 167.504 206.252 167.504 206.252Z" fill="#1D1D1B" stroke="white" stroke-miterlimit="10"/>
<path d="M273.666 172.245C273.666 172.245 240.773 180.334 223.674 180.826C206.575 181.319 218.547 160.676 234.819 161.042C251.09 161.407 265.88 148.472 269.176 149.219C272.472 149.966 273.666 172.245 273.666 172.245Z" fill="white" stroke="#1D1D1B" stroke-width="1.5" stroke-miterlimit="10"/>
<path d="M271.516 158.229C249.959 154.765 222.559 137.92 221.699 137.395C224.914 145.671 228.923 153.617 233.672 161.121C224.788 162.154 223.96 163.807 220.855 169.782C217.751 175.757 223.132 180.906 223.132 180.906C223.132 180.906 193.153 201.564 181.738 205.251C170.322 208.938 164.224 205.251 164.224 205.251C164.224 205.251 120.378 178.236 106.909 161.296C93.4398 144.356 84.6196 107.425 86.6416 93.1703C88.6635 78.9159 99.8878 78.1055 117.672 75.833C130.902 74.1485 135.185 72.2734 136.538 71.4312C135.997 72.7819 135.487 74.1009 134.946 75.3563C130.854 85.3995 143.065 89.6583 154.64 89.6583C157.039 89.6705 159.428 89.355 161.741 88.7208C155.76 84.4308 151.069 78.5891 148.176 71.8284L171.644 73.4176L175.496 73.6877L178.362 73.8943C178.362 73.8943 180.225 73.8943 183.346 74.3075C184.333 74.4346 185.415 74.5935 186.53 74.8001C197.053 76.564 215.57 81.7763 229.819 97.0477C250.898 119.756 269.717 128.02 269.717 128.02C269.717 128.02 293.439 161.741 271.516 158.229Z" fill="white" stroke="#1D1D1B" stroke-width="1.5" stroke-miterlimit="10"/>
<path d="M126.127 99.9399C129.88 107.633 132.713 115.74 134.565 124.095C137.159 134.083 141.289 143.609 146.808 152.333C146.808 152.333 171.518 151.618 187.057 156.687C202.055 161.686 217.999 163.202 233.673 161.121" stroke="#1D1D1B" stroke-width="1.5" stroke-miterlimit="10"/>
<path d="M130.791 182.542C140.913 187.084 151.902 189.382 162.999 189.28C188.759 189.137 223.212 181 223.212 181" stroke="#1D1D1B" stroke-width="1.5" stroke-miterlimit="10"/>
<path d="M221.94 138.031C216.718 126.78 209.951 106.249 209.951 106.249" stroke="#1D1D1B" stroke-width="1.5" stroke-miterlimit="10"/>
<path d="M175.657 71.8125C175.659 72.8792 175.558 73.9435 175.355 74.9907C173.225 74.6062 171.322 73.4238 170.037 71.6854C170.419 71.7091 170.802 71.7091 171.183 71.6854C172.696 71.6867 174.197 71.4343 175.625 70.9385C175.658 71.2286 175.669 71.5208 175.657 71.8125Z" fill="#F3DFD1"/>
<path d="M183.601 85.3994C183.309 86.2543 182.936 87.0791 182.486 87.8625C182.805 87.2269 183.187 86.3847 183.601 85.3994Z" fill="#634E42"/>
<path d="M186.928 71.0179C186.928 71.0179 186.928 71.0179 186.928 71.1133C186.935 71.1447 186.935 71.1772 186.928 71.2086C185.766 73.6241 182.375 75.3721 178.363 75.3721C177.366 75.3769 176.372 75.2649 175.402 75.0384C173.272 74.6539 171.369 73.4714 170.084 71.733C170.466 71.7568 170.849 71.7568 171.23 71.733C172.742 71.7344 174.244 71.4819 175.672 70.9862C177.446 70.3867 179.097 69.4714 180.544 68.2847C182.433 69.6452 184.613 70.5483 186.912 70.9226L186.928 71.0179Z" fill="#634E42"/>
<path d="M194.332 24.1547V24.5838C194.332 25.1558 194.168 25.7616 193.5 26C192.318 26 193.028 26.0323 192.39 25.855H192.214C192.214 25.855 192.214 25.9663 192.214 26.0298C189.77 27.7687 187.022 29.0353 184.111 29.7643C181.579 30.4242 178.973 30.7554 176.357 30.7495H175.099C170.868 30.6095 166.722 29.5234 162.968 27.5713C162.836 27.4732 162.691 27.3931 162.538 27.3329C162.255 27.2171 161.952 27.1577 161.646 27.1581C161.349 27.1601 161.054 27.2217 160.781 27.339C160.507 27.4564 160.26 27.6272 160.054 27.8414C159.946 27.9411 159.85 28.0531 159.768 28.1752C157.364 30.7812 155.546 33.8694 154.434 37.2331C153.37 40.4474 152.832 43.8118 152.842 47.1969C152.842 59.2424 159.21 69.2857 167.776 71.3833C168.015 71.0814 168.253 70.7794 168.508 70.5093C168.763 70.2391 168.858 70.0961 169.049 69.9054L169.256 69.6829L169.479 69.4605C169.639 69.3015 169.814 69.1267 169.989 68.9837C170.304 68.6713 170.639 68.3793 170.992 68.1097C171.31 67.8554 171.629 67.6171 171.963 67.3946C172.278 67.1625 172.608 66.9502 172.95 66.7589L173.428 66.4888C173.669 66.346 173.919 66.2186 174.176 66.1074L174.622 65.9008C174.94 65.7578 175.275 65.6148 175.609 65.5036C176.03 65.345 176.461 65.2123 176.898 65.1063C178.02 64.8062 179.176 64.6565 180.337 64.6613C181.459 64.6626 182.577 64.8014 183.665 65.0745C184.168 65.1967 184.662 65.3506 185.146 65.5353L185.862 65.8055C186.167 65.9324 186.464 66.0756 186.754 66.2345C187.088 66.3935 187.422 66.5842 187.741 66.7748C188.218 66.902 190.5 67.4837 190 68.9837C189.745 70.112 189.5 70.5 186.913 70.9701H186.801C184.502 70.5958 182.322 69.6927 180.433 68.3322C178.986 69.519 177.335 70.4342 175.561 71.0337C174.133 71.5295 172.631 71.7819 171.119 71.7806C170.737 71.8043 170.355 71.8043 169.973 71.7806C170.107 71.992 170.256 72.1938 170.419 72.3844C170.528 72.5229 170.651 72.6506 170.785 72.7658C170.894 72.8799 171.011 72.9861 171.135 73.0836L171.613 73.465C171.867 73.6508 172.133 73.8207 172.409 73.9735C172.685 74.1355 172.973 74.2788 173.269 74.4026C173.468 74.501 173.676 74.5808 173.889 74.641C174.324 74.812 174.771 74.9501 175.227 75.0542C176.197 75.2807 177.191 75.3927 178.188 75.3879C178.649 75.4125 179.112 75.4125 179.573 75.3879H180.242C180.672 75.3239 181.097 75.2337 181.516 75.1177C181.93 75.0065 182.328 74.8635 182.71 74.7204L183.267 74.4821C183.467 74.4062 183.659 74.3104 183.84 74.196C184.213 73.9963 184.57 73.7679 184.907 73.5127C185.224 73.2829 185.517 73.022 185.782 72.734C185.892 72.6256 185.993 72.5087 186.085 72.3844C186.342 72.0785 186.562 71.7423 186.738 71.3833C186.976 71.3833 186.865 72.9724 186.531 74.9747C186.135 77.3349 185.56 79.6617 184.811 81.935C184.397 83.1269 183.983 84.2551 183.569 85.2404C183.569 85.3516 183.569 85.4629 183.458 85.5582C183.044 86.5435 182.662 87.3857 182.343 88.0214V88.1326C182.099 88.5647 181.817 88.9742 181.5 89.3562C179.812 91.4538 177.297 92.6457 173.189 92.6457C169.062 92.5471 164.613 91.7433 161.248 89.3562C155.267 85.0663 150.393 78.5412 147.5 71.7806C146.017 68.5338 144.674 64.6613 144.674 61.8327C146 62.5 144.668 61.7687 144.674 61.7373C144.595 61.4036 144.515 61.0699 144.467 60.7362C144.467 60.5614 144.467 60.3866 144.467 60.1959C144.431 59.1412 144.714 58.1 145.279 57.2084C145.482 56.9933 145.663 56.7592 145.821 56.5091C147.104 54.5919 147.966 52.4258 148.352 50.1527C149.467 44.3524 147.126 42.2071 143.862 41.5555H143.656C141.611 40.3044 139.756 38.7687 138.147 36.9948C134.588 33.1567 132.594 28.1291 132.559 22.8993C132.594 19.7651 133.314 16.6763 134.67 13.849C136.026 11.0218 137.984 8.52433 140.408 6.53136C145.548 2.2456 152.051 -0.0701695 158.749 8.80627e-05C164.413 -0.0271238 169.956 1.63277 174.67 4.76744C175.959 4.76744 177.153 4.92636 178.284 5.08527C182.28 5.66718 185.984 7.51043 188.855 10.3452C191.496 13.3278 193.265 16.9783 193.966 20.897C194.169 21.9723 194.291 23.0612 194.332 24.1547Z" fill="#1D1D1B"/>
<path d="M192.39 34.1187C192.39 38.6795 190.989 43.6534 190.304 48.5956C189.46 54.7455 188.839 61.0066 187.868 66.7433C187.55 66.5526 187.215 66.3619 186.881 66.203C186.592 66.0441 186.294 65.9009 185.989 65.7739L185.273 65.5038C184.79 65.3191 184.295 65.1652 183.792 65.0429C182.704 64.7698 181.587 64.6311 180.465 64.6298C179.304 64.625 178.147 64.7746 177.026 65.0747C176.588 65.1808 176.158 65.3135 175.736 65.472C175.402 65.5832 175.068 65.7263 174.749 65.8693L174.303 66.0759C174.046 66.1871 173.796 66.3144 173.555 66.4573L173.077 66.7274C172.736 66.9186 172.406 67.1309 172.09 67.3631C171.756 67.5855 171.438 67.8239 171.119 68.0782C170.766 68.3478 170.431 68.6397 170.116 68.9522C169.941 69.0952 169.766 69.27 169.607 69.4289L169.384 69.6514L169.177 69.8739C168.986 70.0646 168.811 70.2711 168.636 70.4777C168.46 70.6843 168.142 71.0498 167.903 71.3517C159.338 69.2859 152.842 59.2427 152.842 47.1971C152.832 43.8121 153.37 40.4476 154.434 37.2334C155.497 33.865 157.266 30.761 159.624 28.1277C159.706 28.0057 159.803 27.8937 159.911 27.794C160.117 27.5798 160.364 27.4089 160.638 27.2916C160.911 27.1742 161.205 27.1127 161.503 27.1107C161.809 27.1103 162.112 27.1697 162.395 27.2855C162.548 27.3456 162.692 27.4258 162.824 27.5239C166.579 29.4759 170.725 30.562 174.956 30.7021H176.214C178.83 30.708 181.436 30.3768 183.967 29.7168C186.879 28.9879 189.627 27.7212 192.071 25.9824C192.214 28.1118 192.294 30.4478 192.294 33.0063C192.39 33.3718 192.39 33.7373 192.39 34.1187Z" fill="white" stroke="#1D1D1B" stroke-miterlimit="10"/>
<path d="M186.977 71.0021C186.982 71.039 186.982 71.0764 186.977 71.1133C186.984 71.1447 186.984 71.1772 186.977 71.2086C185.815 73.6241 182.424 75.3721 178.412 75.3721C177.415 75.3769 176.421 75.2649 175.45 75.0384C173.32 74.6539 171.418 73.4714 170.133 71.733C170.515 71.7568 170.897 71.7568 171.279 71.733C172.791 71.7344 174.293 71.4819 175.721 70.9862C177.495 70.3867 179.146 69.4714 180.593 68.2847C182.482 69.6452 184.662 70.5483 186.961 70.9226H187.073L186.977 71.0021Z" fill="white"/>
<path d="M182.424 87.9736C182.229 88.4346 181.942 88.851 181.58 89.1972C181.897 88.8152 182.18 88.4057 182.424 87.9736Z" fill="#634E42"/>
<path d="M263.89 177.711L341.792 172.769C343.08 172.812 344.35 172.444 345.415 171.718C346.48 170.992 347.285 169.947 347.714 168.733L369.892 93.4405C369.753 91.6314 368.941 89.9399 367.615 88.6987C366.289 87.4576 364.545 86.7569 362.728 86.7344L283.68 84.7003C282.306 84.6228 280.948 85.0265 279.841 85.8418C278.733 86.6571 277.946 87.8327 277.614 89.1657L260.101 170.592C259.512 175.01 261.343 177.648 263.89 177.711Z" fill="#1D1D1B"/>
<path d="M264.846 177.489L344.037 174.676C345.325 174.714 346.591 174.344 347.655 173.619C348.719 172.894 349.526 171.851 349.959 170.64L369.494 93.377C369.513 92.7683 369.412 92.1619 369.196 91.5925C368.979 91.0231 368.652 90.502 368.234 90.0591C367.815 89.6161 367.313 89.26 366.756 89.0113C366.199 88.7626 365.599 88.6261 364.989 88.6096L285.925 86.6073C284.552 86.5329 283.196 86.9378 282.089 87.7526C280.982 88.5674 280.194 89.7412 279.859 91.0728L262.346 172.499C262.283 175.042 262.283 177.425 264.846 177.489Z" fill="white" stroke="#1D1D1B" stroke-width="0.5" stroke-miterlimit="10"/>
<path d="M452.92 299.327C452.92 299.327 445.262 286.614 448.271 277.619C451.28 268.625 452.172 270.421 452.172 270.421C452.172 270.421 492.531 272.01 509.63 264.589C526.729 257.167 528.083 271.168 525.679 276.714C523.275 282.26 501.988 304.03 489.841 311.468C477.693 318.905 448.446 318.444 448.446 318.444L452.92 299.327Z" fill="#1D1D1B" stroke="white" stroke-miterlimit="10"/>
<path d="M466.963 284.579V269.101" stroke="white" stroke-miterlimit="10"/>
<path d="M473.156 284.579V269.101" stroke="white" stroke-miterlimit="10"/>
<path d="M479.334 284.58V269.102" stroke="white" stroke-miterlimit="10"/>
<path d="M485.527 284.119V268.625" stroke="white" stroke-miterlimit="10"/>
<path d="M491.719 283.403V267.925" stroke="white" stroke-miterlimit="10"/>
<path d="M503.277 288.902C503.277 288.902 516.476 275.236 516.476 269.658C516.476 264.08 515.807 262.65 515.807 262.65" stroke="white" stroke-miterlimit="10"/>
<path d="M482.199 331.347C470.067 339.293 446.361 342.661 440.072 347.461C433.783 352.26 425.743 360.714 418.77 360.603C413.182 360.507 408.039 359.252 405.667 353.261C405.013 351.52 404.606 349.696 404.457 347.842C403.422 337.1 405.492 326.246 404.457 322.813C404.457 322.813 411.335 322.13 417.735 313.104C422.214 307.091 427.447 301.675 433.306 296.99C437.443 298.178 441.74 298.714 446.043 298.579C472.646 297.721 488.344 299.66 492.388 304.936C492.446 305.001 492.5 305.07 492.548 305.142C497.658 313.056 494.331 323.465 482.199 331.347Z" fill="#1D1D1B" stroke="white" stroke-miterlimit="10"/>
<path d="M482.63 331.347C470.418 339.293 446.584 342.662 440.264 347.461C433.943 352.26 425.935 360.714 418.834 360.603C413.214 360.508 408.056 359.252 405.668 353.261C404.076 345.093 408.693 340.548 415.968 339.34C424.932 337.751 442.047 325.483 446.521 320.382C450.995 315.281 460.085 306.398 479.063 302.997C485.989 301.758 490.208 302.997 492.93 305C492.988 305.065 493.042 305.134 493.09 305.206C498.168 313.056 494.825 323.465 482.63 331.347Z" fill="white" stroke="#1D1D1B" stroke-miterlimit="10"/>
<path d="M463.73 300.82C463.73 300.82 449.513 305.492 444.323 312.643C438.082 321.24 426.523 328.852 421.81 330.283C417.253 331.793 412.828 333.674 408.58 335.908" stroke="white" stroke-miterlimit="10"/>
<path d="M282.445 166.689L285.781 148.674C285.96 147.709 286.812 147.016 287.793 147.038L337.961 148.17C339.255 148.199 340.181 149.431 339.849 150.682L335.57 166.809C335.34 167.675 334.563 168.282 333.668 168.296L284.442 169.053C283.179 169.073 282.215 167.931 282.445 166.689Z" fill="#1D1D1B"/>
<path d="M291.599 154.029L293.59 154.078C293.919 154.069 294.241 154.175 294.502 154.377C294.729 154.595 294.892 154.872 294.973 155.177C295.083 155.566 295.134 155.97 295.121 156.374C295.123 156.853 295.085 157.332 295.007 157.805C294.921 158.431 294.769 159.047 294.553 159.641C294.404 160.034 294.196 160.403 293.938 160.734C293.758 160.982 293.518 161.179 293.24 161.306C292.972 161.431 292.68 161.495 292.384 161.494L290.402 161.454L291.599 154.029ZM292.671 155.73L292.058 159.768L292.384 159.765C292.604 159.786 292.824 159.733 293.009 159.614C293.176 159.464 293.301 159.274 293.372 159.062C293.519 158.645 293.621 158.214 293.677 157.775C293.798 157.246 293.81 156.699 293.713 156.165C293.667 156.024 293.575 155.902 293.451 155.819C293.328 155.736 293.179 155.698 293.031 155.71L292.671 155.73Z" fill="white"/>
<path d="M296.293 154.128L299.879 154.213L299.628 155.782L297.38 155.736L297.177 156.91L299.262 156.95L299.019 158.459L296.935 158.411L296.7 159.868L299.016 159.914L298.75 161.629L295.096 161.562L296.293 154.128Z" fill="white"/>
<path d="M300.238 154.218L301.637 154.256L301.766 159.571L303.575 154.297L304.93 154.284L302.146 161.63L300.697 161.644L300.238 154.218Z" fill="white"/>
<path d="M305.367 154.34L308.953 154.416L308.702 155.976L306.454 155.93L306.269 157.096L308.353 157.136L308.11 158.627L306.034 158.596L305.783 160.037L308.09 160.074L307.823 161.738L304.169 161.679L305.367 154.34Z" fill="white"/>
<path d="M309.742 154.434L311.08 154.421L310.19 159.917L312.283 159.957L311.992 161.749L308.561 161.705L309.742 154.434Z" fill="white"/>
<path d="M312.919 158.152C313.036 157.16 313.392 156.211 313.955 155.385C314.156 155.091 314.426 154.85 314.741 154.682C315.056 154.515 315.407 154.427 315.764 154.426C316.089 154.415 316.41 154.506 316.681 154.686C316.952 154.866 317.159 155.126 317.275 155.43C317.578 156.311 317.629 157.26 317.422 158.168C317.322 158.888 317.121 159.59 316.824 160.254C316.604 160.733 316.28 161.157 315.876 161.496C315.518 161.79 315.065 161.944 314.602 161.928C314.181 161.949 313.767 161.806 313.449 161.528C313.132 161.176 312.931 160.736 312.871 160.267C312.768 159.564 312.784 158.849 312.919 158.152ZM314.257 158.19C314.141 158.712 314.146 159.254 314.273 159.774C314.299 159.909 314.371 160.031 314.476 160.121C314.581 160.21 314.714 160.261 314.852 160.265C315.007 160.263 315.159 160.219 315.291 160.138C315.423 160.057 315.531 159.941 315.602 159.804C315.88 159.269 316.052 158.686 316.109 158.087C316.222 157.593 316.217 157.08 316.094 156.589C316.067 156.453 315.994 156.331 315.886 156.243C315.779 156.155 315.645 156.107 315.506 156.107C315.353 156.112 315.204 156.159 315.075 156.241C314.947 156.324 314.842 156.44 314.773 156.576C314.493 157.073 314.317 157.623 314.257 158.19Z" fill="white"/>
<path d="M318.717 154.62L320.939 154.658C321.145 154.643 321.351 154.691 321.528 154.796C321.706 154.902 321.846 155.06 321.931 155.248C322.124 155.777 322.16 156.351 322.033 156.899C321.96 157.521 321.727 158.114 321.355 158.618C321.201 158.816 321.003 158.974 320.775 159.079C320.548 159.184 320.299 159.233 320.048 159.221L319.319 159.228L318.882 161.921L317.536 161.934L318.717 154.62ZM319.553 157.728L319.888 157.725C319.994 157.732 320.1 157.717 320.199 157.679C320.298 157.641 320.387 157.582 320.46 157.505C320.601 157.347 320.689 157.148 320.712 156.938C320.764 156.747 320.762 156.545 320.706 156.356C320.645 156.194 320.481 156.11 320.232 156.112L319.855 156.116L319.553 157.728Z" fill="white"/>
<path d="M323.091 154.68L326.676 154.739L326.425 156.257L324.178 156.279L323.992 157.428L326.076 157.407L325.833 158.882L323.783 158.851L323.548 160.274L325.864 160.303L325.597 161.932L321.943 161.899L323.091 154.68Z" fill="white"/>
<path d="M326.299 161.951L327.481 154.757L329.711 154.787C330.028 154.772 330.344 154.836 330.63 154.975C330.741 155.052 330.835 155.15 330.907 155.264C330.979 155.378 331.027 155.505 331.048 155.638C331.13 156.022 331.134 156.418 331.06 156.803C331.008 157.159 330.898 157.504 330.735 157.825C330.605 158.09 330.424 158.327 330.202 158.523C330.047 158.648 329.871 158.742 329.681 158.802C329.801 158.87 329.904 158.962 329.984 159.073C330.053 159.191 330.106 159.317 330.142 159.448C330.193 159.595 330.229 159.747 330.25 159.901L330.562 161.987L329.044 162.001L328.688 159.796C328.676 159.603 328.625 159.414 328.536 159.241C328.506 159.19 328.463 159.148 328.412 159.119C328.361 159.089 328.302 159.073 328.243 159.073L328.123 159.074L327.646 161.998L326.299 161.951ZM328.341 157.651L328.915 157.645C329.041 157.632 329.165 157.602 329.283 157.556C329.393 157.515 329.484 157.435 329.538 157.331C329.615 157.204 329.669 157.064 329.697 156.919C329.754 156.743 329.752 156.554 329.692 156.379C329.622 156.252 329.467 156.193 329.218 156.187L328.635 156.193L328.341 157.651Z" fill="white"/>
<path d="M178.745 45.8781C177.972 44.8207 176.927 43.9917 175.72 43.4785C174.554 42.9572 173.288 42.6969 172.011 42.7158C170.742 42.8046 169.482 42.9798 168.237 43.2402C167.617 43.3673 166.964 43.4785 166.311 43.5739C165.645 43.7203 164.969 43.8159 164.289 43.8599V43.701C164.828 43.2573 165.404 42.8587 166.009 42.5092C166.633 42.1998 167.277 41.9292 167.935 41.6987C169.308 41.3201 170.745 41.2335 172.154 41.4445C173.569 41.587 174.934 42.043 176.15 42.7793C177.336 43.5146 178.299 44.5584 178.936 45.7987L178.745 45.8781Z" fill="black"/>
<path d="M175.354 48.2615C174.046 48.9738 172.649 49.5082 171.199 49.8506C170.45 50.0958 169.655 50.1664 168.874 50.0572C168.447 49.9953 168.043 49.8256 167.701 49.5642C167.358 49.3028 167.088 48.9583 166.916 48.5634L167.027 48.4363C167.699 48.522 168.378 48.522 169.049 48.4363C169.686 48.4363 170.355 48.5634 171.055 48.5475C172.482 48.507 173.903 48.3582 175.306 48.1025L175.354 48.2615Z" fill="black"/>
<path d="M185.799 45.0679C186.433 44.2042 187.227 43.4705 188.139 42.9066C188.6 42.5477 189.151 42.3223 189.731 42.2551C190.035 42.2357 190.34 42.2777 190.627 42.3788C190.915 42.4798 191.178 42.6377 191.403 42.8431V43.002C190.999 43.3276 190.555 43.6 190.082 43.8124C189.64 43.9466 189.187 44.0371 188.728 44.0826C187.779 44.3371 186.861 44.6941 185.99 45.1473L185.799 45.0679Z" fill="black"/>
<path d="M188.266 48.2458C188.589 48.1086 188.925 48.0021 189.269 47.928C189.428 47.928 189.635 47.7373 189.746 47.928C189.909 48.1667 189.992 48.4501 189.985 48.7385V48.8815C189.853 49.1345 189.64 49.336 189.38 49.4536C189.205 49.4536 189.109 49.2947 188.998 49.1993C188.731 48.9671 188.491 48.7059 188.282 48.4206L188.266 48.2458Z" fill="black"/>
</svg>
