<svg width="145" height="196" viewBox="0 0 145 196" fill="none" xmlns="http://www.w3.org/2000/svg">
<g clip-path="url(#clip0_92_1108)">
<path d="M121.119 114.145C122.471 113.642 123.936 113.534 125.345 113.834C126.755 114.134 128.052 114.829 129.086 115.839C132.916 119.564 139.177 127.932 143.693 145.34C143.693 145.34 146.138 154.839 140.345 158.296C134.553 161.753 130.078 157.001 125.671 145.771C123.516 140.224 120.545 135.034 116.856 130.376C115.248 128.404 114.431 125.897 114.565 123.349C114.754 120.06 116.107 116.035 121.119 114.145Z" fill="white"/>
<path d="M136.768 159.849C138.118 159.813 139.434 159.409 140.575 158.681C146.588 155.092 144.234 145.625 144.13 145.221C139.718 128.218 133.687 119.677 129.401 115.507C128.303 114.44 126.929 113.707 125.437 113.39C123.944 113.074 122.393 113.187 120.961 113.717C115.651 115.721 114.303 120.036 114.113 123.307C113.97 125.969 114.823 128.588 116.504 130.648C120.161 135.275 123.11 140.428 125.251 145.934C128.436 154.043 131.494 158.363 134.882 159.531C135.489 159.742 136.126 159.849 136.768 159.849ZM123.753 114.122C125.621 114.124 127.415 114.853 128.761 116.157C132.212 119.505 138.685 127.763 143.259 145.453C143.259 145.544 145.542 154.661 140.101 157.9C138.333 158.954 136.718 159.208 135.139 158.672C132.067 157.609 129.094 153.334 126.058 145.603C123.883 140.01 120.889 134.776 117.176 130.076C115.637 128.193 114.853 125.797 114.979 123.361C115.16 120.359 116.387 116.402 121.245 114.571C122.047 114.269 122.897 114.116 123.753 114.122Z" fill="black"/>
<path d="M46.3375 174.358C46.3375 174.358 36.4131 169.738 29.1683 156.283C23.4392 145.667 22.1581 138.984 10.4969 131.72C-1.16428 124.457 0.892776 119.628 0.892776 119.628C0.892776 119.628 3.08969 111.169 19.1988 120.032C27.5082 124.607 34.6538 135.713 40.3558 148.197C45.1601 158.713 56.5371 162.829 56.5371 162.829C56.5371 162.829 54.5522 174.676 46.3375 174.358Z" fill="white"/>
<path d="M46.6578 174.821C54.8906 174.821 56.9612 163.01 56.9837 162.91L57.0469 162.533L56.6905 162.406C56.5777 162.365 45.4128 158.222 40.7663 148.01C34.0358 133.274 26.8496 123.725 19.4153 119.632C12.4592 115.807 7.14064 114.635 3.6265 116.175C2.89558 116.466 2.23536 116.912 1.69054 117.483C1.14573 118.053 0.72905 118.735 0.468731 119.482C0.288288 119.968 -1.20037 124.965 10.2668 132.106C19.4965 137.857 22.122 143.195 25.7624 150.581C26.6647 152.448 27.63 154.384 28.7758 156.487C35.9936 169.92 46.0533 174.712 46.1526 174.758L46.2338 174.794H46.324L46.6578 174.821ZM56.0229 163.115C55.6123 165.032 53.3568 173.913 46.6533 173.913H46.4503C45.503 173.458 36.3139 168.593 29.5608 156.073C28.4285 153.966 27.4812 152.044 26.5654 150.168C22.8618 142.645 20.1867 137.212 10.736 131.325C-0.329727 124.433 1.29427 119.832 1.31232 119.786V119.732C1.53521 119.11 1.88939 118.544 2.35046 118.074C2.81152 117.603 3.36846 117.239 3.98288 117.006C6.23842 116.048 10.6412 115.861 18.9642 120.44C26.2271 124.433 33.2779 133.841 39.9273 148.401C44.285 157.891 54.0199 162.297 56.0229 163.115Z" fill="black"/>
<path d="M0.726856 119.36C0.726856 119.36 -1.9798 125.579 8.84684 130.635C8.87842 126.374 9.92049 121.549 14.4902 117.747C2.97339 113.191 0.726856 119.36 0.726856 119.36Z" fill="black"/>
<path d="M9.28026 131.348V130.639C9.32086 125.224 11.1163 121.122 14.7567 118.097L15.3477 117.606L14.6349 117.325C9.85317 115.43 6.02777 115.103 3.26699 116.352C1.95292 116.888 0.891311 117.908 0.298702 119.205C0.127282 119.66 -2.1012 126.019 8.63968 131.048L9.28026 131.348ZM13.6064 117.897C10.2907 120.913 8.58104 124.861 8.39608 129.922C-1.11778 125.202 1.04303 119.773 1.14227 119.541C1.65595 118.464 2.55759 117.625 3.66396 117.193C6.03679 116.112 9.4607 116.371 13.6064 117.897Z" fill="black"/>
<path d="M107.991 194.142C101.436 194.142 96.122 187.17 96.122 178.569C96.122 169.969 101.436 162.997 107.991 162.997C114.546 162.997 119.859 169.969 119.859 178.569C119.859 187.17 114.546 194.142 107.991 194.142Z" fill="black"/>
<path d="M108.009 194.369C114.681 194.369 120.107 187.278 120.107 178.57C120.107 169.861 114.663 162.766 108.009 162.766C101.355 162.766 95.9144 169.857 95.9144 178.57C95.9144 187.283 101.323 194.369 108.009 194.369ZM108.009 163.22C114.432 163.22 119.656 170.107 119.656 178.57C119.656 187.033 114.414 193.915 108.009 193.915C101.603 193.915 96.3655 187.028 96.3655 178.57C96.3655 170.111 101.571 163.22 108.009 163.22Z" fill="black"/>
<path d="M101.364 194.142C94.8089 194.142 89.4951 187.17 89.4951 178.569C89.4951 169.969 94.8089 162.997 101.364 162.997C107.919 162.997 113.232 169.969 113.232 178.569C113.232 187.17 107.919 194.142 101.364 194.142Z" fill="white"/>
<path d="M101.364 194.596C108.158 194.596 113.684 187.405 113.684 178.569C113.684 169.734 108.158 162.538 101.364 162.538C94.5701 162.538 89.0621 169.729 89.0621 178.569C89.0621 187.409 94.5701 194.596 101.364 194.596ZM101.364 163.447C107.679 163.447 112.781 170.229 112.781 178.569C112.781 186.91 107.661 193.688 101.364 193.688C95.0663 193.688 89.9643 186.905 89.9643 178.569C89.9643 170.233 95.0663 163.447 101.364 163.447Z" fill="black"/>
<path d="M84.7539 187.364C55.0189 187.364 30.914 164.311 30.914 135.873C30.914 107.434 55.0189 84.3809 84.7539 84.3809C114.489 84.3809 138.594 107.434 138.594 135.873C138.594 164.311 114.489 187.364 84.7539 187.364Z" fill="white"/>
<path d="M84.7539 187.814C114.69 187.814 139.045 164.515 139.045 135.873C139.045 107.231 114.685 83.9268 84.7539 83.9268C54.8229 83.9268 30.463 107.231 30.463 135.873C30.463 164.515 54.8183 187.814 84.7539 187.814ZM84.7539 84.8353C114.193 84.8353 138.143 107.731 138.143 135.873C138.143 164.015 114.193 186.906 84.7539 186.906C55.3146 186.906 31.3652 164.015 31.3652 135.873C31.3652 107.731 55.3146 84.8353 84.7539 84.8353Z" fill="black"/>
<path d="M103.95 14.9C105.38 11.5747 124.39 -6.26456 131.215 3.17975C136.493 10.489 131.572 26.602 129.072 33.5296C128.992 33.7544 128.847 33.9499 128.656 34.0909C128.465 34.2319 128.236 34.312 127.999 34.3208C127.762 34.3296 127.528 34.2667 127.327 34.1403C127.126 34.0138 126.967 33.8296 126.871 33.6114C125.206 29.8727 121.954 20.4375 110.433 22.3091C107.83 22.7407 102.331 18.6977 103.95 14.9Z" fill="white"/>
<path d="M127.949 34.7788H128.012C128.34 34.7692 128.657 34.6599 128.922 34.4653C129.187 34.2707 129.387 33.9999 129.496 33.6886C131.919 26.9426 137.007 10.448 131.581 2.92075C129.97 0.685732 127.611 -0.259152 124.575 0.0679231C116.04 1.02189 104.627 12.1879 103.544 14.7227C102.885 16.2536 103.215 17.9844 104.446 19.5971C106.025 21.6322 108.732 23.0541 110.491 22.777C120.961 21.0462 124.322 28.846 126.127 33.0344C126.244 33.3115 126.357 33.5704 126.46 33.8021C126.586 34.0944 126.794 34.3429 127.058 34.5167C127.323 34.6904 127.633 34.7816 127.949 34.7788ZM125.712 0.908325C126.711 0.868837 127.704 1.08077 128.601 1.52495C129.498 1.96912 130.271 2.63153 130.85 3.45225C136.024 10.6206 131.017 26.77 128.648 33.3797C128.597 33.5156 128.507 33.6333 128.389 33.718C128.272 33.8027 128.132 33.8508 127.988 33.8561C127.844 33.8614 127.701 33.8238 127.578 33.748C127.455 33.6721 127.356 33.5614 127.295 33.4296C127.191 33.1979 127.083 32.9481 126.966 32.6755C125.202 28.5871 121.521 20.0332 110.374 21.8639C109.12 22.0728 106.679 20.9553 105.186 19.0383C104.451 18.0889 103.72 16.6352 104.383 15.0816C105.385 12.7194 116.608 1.87138 124.674 0.967381C125.019 0.930255 125.365 0.910546 125.712 0.908325Z" fill="black"/>
<path d="M111.271 22.1955C111.271 22.1955 119.076 6.1188 132.744 6.32322L111.271 22.1955Z" fill="white"/>
<path d="M111.671 22.3955C111.748 22.2365 119.53 6.59143 132.738 6.77768V5.86914H132.472C118.84 5.86914 110.927 21.8322 110.85 21.9958L111.671 22.3955Z" fill="black"/>
<path d="M23.5485 58.3648C23.5774 67.9649 26.5417 77.3231 32.0384 85.1668C36.7486 91.9007 42.8778 97.5036 49.988 101.575C59.8241 107.206 70.9553 110.138 82.2694 110.079C92.1393 110.113 101.888 107.888 110.779 103.574C118.722 99.7373 125.671 94.0954 131.079 87.0929C137.332 78.8797 140.99 68.9947 140.99 58.3648C140.99 38.6131 128.418 21.4552 109.94 12.7468C101.27 8.70279 91.8243 6.6248 82.2694 6.65961C61.5725 6.65961 43.3792 16.0903 32.918 30.3362C26.9904 38.4086 23.5485 48.0347 23.5485 58.3648Z" fill="white"/>
<path d="M82.2696 110.52C92.2046 110.547 102.017 108.313 110.974 103.983C118.99 100.119 126.005 94.4336 131.468 87.3745C138.004 78.7842 141.455 68.7493 141.455 58.3647C141.442 39.0672 129.447 21.437 110.13 12.3379C101.397 8.27676 91.8889 6.18385 82.2696 6.20524C62.1095 6.20524 43.5238 15.1271 32.5573 30.0636C26.3681 38.4949 23.084 48.2799 23.084 58.3647C23.1232 68.0516 26.1151 77.4928 31.6551 85.412C36.4093 92.1945 42.5866 97.8412 49.7491 101.952C59.6573 107.626 70.8715 110.58 82.2696 110.52ZM82.2696 7.11378C91.7574 7.09558 101.135 9.16374 109.747 13.1738C128.761 22.1093 140.539 39.4307 140.539 58.3647C140.539 68.5495 137.151 78.389 130.737 86.8203C125.363 93.7667 118.464 99.3644 110.581 103.174C101.746 107.441 92.0681 109.643 82.2696 109.616C71.0347 109.673 59.9814 106.761 50.2137 101.171C43.1668 97.1254 37.0884 91.5705 32.4085 84.8987C26.9748 77.1309 24.0397 67.8707 23.9998 58.3692C23.9998 48.4797 27.2117 38.881 33.2836 30.6087C44.0787 15.8994 62.3937 7.11378 82.2696 7.11378Z" fill="black"/>
<path d="M36.5392 90.3184C36.5392 90.2639 36.7828 84.8899 40.5992 78.1984C44.1178 72.0158 51.4889 63.4074 66.6191 57.5018L66.2943 56.6523C50.8844 62.6669 43.3735 71.4707 39.7872 77.7941C35.8851 84.6763 35.6505 90.0595 35.6415 90.2821L36.5392 90.3184Z" fill="black"/>
<path d="M140.819 40.7437C141.022 34.8972 137.661 30.241 131.95 29.1098C119.923 26.7249 85.7472 22.5274 48.2825 34.3476C48.2825 34.3476 35.7327 35.9511 38.9987 50.7559C40.925 59.4779 43.3249 67.9591 44.3534 71.398C45.2179 74.3888 46.9989 77.0281 49.4419 78.9389C52.1486 81.0103 56.2311 82.6321 62.1632 81.6645C74.3837 79.7157 108.704 73.4876 128.927 75.4046C133.853 75.8589 136.768 75.1048 138.653 72.9607C140.539 70.8165 141.08 68.2817 140.981 65.3698L140.819 40.7437Z" fill="white"/>
<path d="M58.7746 82.4185C59.9336 82.4147 61.0906 82.319 62.2346 82.1323C63.4436 81.937 64.8691 81.7053 66.4706 81.4373C80.8339 79.0705 110.715 74.1462 128.882 75.8634C133.943 76.3449 136.965 75.5726 138.986 73.274C140.791 71.2116 141.549 68.7676 141.427 65.347L141.269 40.7436C141.481 34.561 137.859 29.8184 132.039 28.6645C125.146 27.3017 88.7328 21.1236 48.1826 33.9023C47.6548 33.9795 42.9542 34.7563 40.1077 38.8311C37.9875 41.8657 37.4688 45.9087 38.5604 50.8557C40.816 61.0496 43.6083 70.4893 43.9241 71.5296C44.8084 74.6148 46.6442 77.3369 49.166 79.3022C51.933 81.3931 55.3159 82.4903 58.7746 82.4185ZM120.378 74.605C102.334 74.605 78.6415 78.5118 66.3262 80.5424C64.7248 80.8058 63.2993 81.0421 62.0948 81.2329C57.2003 82.0142 53.0365 81.1193 49.7119 78.5754C47.3413 76.727 45.6161 74.1672 44.7857 71.2661C44.4745 70.2304 41.6821 60.8179 39.4401 50.6604C38.4071 45.9768 38.8762 42.1791 40.8385 39.3626C43.5452 35.4604 48.2909 34.8199 48.3405 34.7972H48.4172C88.7599 22.0776 125.006 28.2103 131.872 29.5685C137.236 30.6361 140.574 35.0198 140.376 40.7436L140.538 65.3697C140.646 68.5496 139.965 70.8209 138.319 72.6744C136.514 74.7322 133.717 75.4 128.976 74.9457C126.319 74.7186 123.432 74.605 120.378 74.605Z" fill="black"/>
<path d="M144.49 52.427C144.146 45.9814 142.696 39.6445 140.204 33.6974C138.278 29.1819 135.833 25.2116 132.743 24.612C125.399 23.1538 110.602 21.1731 91.6604 22.5496C77.9499 23.5457 64.4001 26.1372 51.2816 30.2722C51.2816 30.2722 38.849 32.4391 42.1196 47.2438C44.6909 58.9049 47.5329 69.2305 47.5329 69.2305C47.5329 69.2305 50.0365 79.7106 63.2225 77.6073C75.4565 75.6312 113.341 69.5031 133.559 71.4292C138.486 71.8835 143.326 67.9631 143.985 64.2381C144.49 61.3716 144.86 59.9316 144.756 57.0152L144.49 52.427Z" fill="black"/>
<path d="M59.9165 78.0846C61.0409 78.0809 62.1632 77.9867 63.2727 77.803L63.805 77.7212C76.1293 75.7497 113.635 69.7578 133.537 71.6522C138.64 72.1382 143.548 68.018 144.206 64.2793C144.278 63.8705 144.351 63.4889 144.414 63.1255C144.866 61.1207 145.064 59.066 145 57.011L144.734 52.4138C144.387 45.9429 142.924 39.5822 140.412 33.616C137.994 27.9422 135.5 24.9213 132.789 24.3852C127.181 23.2722 111.952 20.8419 91.643 22.3183C77.916 23.3126 64.3496 25.9041 51.2146 30.0409C51.2146 30.0409 46.2524 30.9494 43.3788 35.2468C41.3172 38.345 40.821 42.3925 41.8992 47.276C44.4434 58.8054 47.3125 69.1673 47.3125 69.2718C47.3125 69.3763 49.568 78.0846 59.9165 78.0846ZM124.727 70.8163C104.026 70.8163 74.4241 75.5453 63.7328 77.2533L63.2005 77.3396C50.3845 79.3839 47.8628 69.5489 47.7681 69.131C47.7365 69.0174 44.881 58.6827 42.3548 47.1488C41.3037 42.3925 41.7774 38.4676 43.7622 35.4785C46.5185 31.3401 51.2867 30.4815 51.3364 30.4543C64.4468 26.3177 77.9893 23.7262 91.6926 22.7317C111.938 21.2598 127.127 23.6811 132.716 24.7895C135.27 25.2938 137.679 28.2283 140.011 33.7568C142.497 39.6778 143.941 45.9895 144.278 52.4092H144.504H144.278L144.549 57.0292C144.616 59.0498 144.428 61.0708 143.99 63.0437C143.922 63.4071 143.854 63.7887 143.782 64.1976C143.155 67.75 138.473 71.6658 133.601 71.2024C130.912 70.948 127.926 70.8345 124.727 70.8345V70.8163Z" fill="black"/>
<path d="M71.2911 47.2017C70.4669 42.0827 71.8601 37.5963 74.403 37.1811C76.9459 36.7659 79.6755 40.5791 80.4998 45.6981C81.324 50.817 79.9308 55.3034 77.3878 55.7186C74.8449 56.1338 72.1153 52.3206 71.2911 47.2017Z" fill="white"/>
<path d="M110.664 43.0767C109.84 37.9577 111.233 33.4713 113.776 33.0561C116.319 32.6409 119.049 36.4541 119.873 41.5731C120.697 46.692 119.304 51.1784 116.761 51.5936C114.218 52.0088 111.488 48.1956 110.664 43.0767Z" fill="white"/>
<path d="M42.978 20.9553C40.5105 18.3205 16.6017 8.07214 13.3853 19.2972C10.8997 27.9783 20.9774 41.4384 25.6735 47.0941C25.8246 47.278 26.0269 47.4121 26.2543 47.4792C26.4818 47.5463 26.724 47.5432 26.9497 47.4703C27.1755 47.3975 27.3743 47.2583 27.5207 47.0706C27.6672 46.8828 27.7544 46.6553 27.7712 46.4172C28.0689 42.3288 27.929 32.3348 39.3962 30.1497C41.9901 29.6546 45.793 23.9671 42.978 20.9553Z" fill="white"/>
<path d="M26.5713 47.9796C26.7474 47.9788 26.9223 47.9513 27.0901 47.8979C27.4022 47.8005 27.6773 47.6096 27.8788 47.3507C28.0803 47.0918 28.1986 46.7771 28.2179 46.4488C28.2404 46.1944 28.254 45.9127 28.272 45.6129C28.5517 41.0702 29.0705 32.5662 39.4821 30.5947C41.2279 30.2631 43.2985 27.9962 44.0924 25.5432C44.7195 23.5989 44.4398 21.859 43.3075 20.6461C41.4264 18.6246 26.9232 12.0513 18.5732 14.0819C15.6049 14.8042 13.7147 16.5168 12.9524 19.1652C10.3946 28.1007 20.7565 41.8788 25.3263 47.38C25.4771 47.5661 25.667 47.7164 25.8822 47.8201C26.0974 47.9237 26.3328 47.9782 26.5713 47.9796ZM22.1144 14.6089C30.1351 14.6089 41.1241 19.6377 42.6489 21.2685C43.8037 22.4996 43.6052 24.1213 43.2353 25.2615C42.482 27.5829 40.5648 29.4635 39.3152 29.6998C28.2134 31.803 27.645 41.0929 27.3743 45.5584C27.3743 45.8537 27.3382 46.1308 27.3202 46.3806C27.3101 46.5282 27.2564 46.6694 27.1659 46.786C27.0754 46.9025 26.9524 46.9891 26.8126 47.0346C26.6727 47.08 26.5226 47.0823 26.3815 47.041C26.2404 46.9998 26.1149 46.9169 26.021 46.8031C21.537 41.4063 11.3825 27.9372 13.8185 19.4241C14.4816 17.1074 16.1552 15.6083 18.7807 14.9677C19.8743 14.7179 20.9931 14.5974 22.1144 14.6089Z" fill="black"/>
<path d="M38.5703 30.3229C38.5703 30.3229 25.7904 17.885 13.0105 22.7729L38.5703 30.3229Z" fill="white"/>
<path d="M38.2597 30.6491L38.8867 29.9813C38.7559 29.8587 25.7504 17.4025 12.8487 22.3359L13.169 23.1854C25.5294 18.4701 38.1334 30.5264 38.2597 30.6491Z" fill="black"/>
<path d="M103.781 58.6642C103.781 58.6642 98.7516 58.2099 96.0449 59.7681C93.239 61.4125 98.905 65.3374 98.905 65.3374C98.905 65.3374 101.945 68.2629 103.682 64.7196C105.302 61.4034 104.981 61.7805 104.981 61.7805C104.981 61.7805 106.06 59.182 103.781 58.6642Z" fill="white"/>
<path d="M83.4724 66.1285C83.5701 66.1285 83.665 66.0966 83.7431 66.0376C86.9685 63.5982 91.5969 63.7163 91.6465 63.7163C91.7662 63.7163 91.8809 63.6684 91.9655 63.5832C92.0501 63.498 92.0977 63.3825 92.0977 63.262C92.0977 63.1415 92.0501 63.026 91.9655 62.9408C91.8809 62.8556 91.7662 62.8077 91.6465 62.8077C91.4435 62.8077 86.6843 62.676 83.1747 65.3108C83.1273 65.3466 83.0874 65.3914 83.0572 65.4427C83.027 65.4941 83.0072 65.5509 82.9988 65.6099C82.9904 65.669 82.9937 65.7291 83.0084 65.7869C83.0231 65.8447 83.0489 65.899 83.0845 65.9467C83.1292 66.007 83.188 66.0551 83.2557 66.0869C83.3234 66.1186 83.3979 66.1329 83.4724 66.1285Z" fill="white"/>
<path d="M84.7541 61.0765C84.7989 61.0833 84.8446 61.0833 84.8894 61.0765C86.9699 60.3958 89.2081 60.3768 91.2997 61.022C91.4116 61.0653 91.5359 61.0622 91.6455 61.0132C91.7551 60.9642 91.8408 60.8734 91.8839 60.7608C91.9269 60.6481 91.9238 60.5228 91.8752 60.4125C91.8265 60.3022 91.7364 60.2158 91.6245 60.1725C89.344 59.4394 86.8916 59.4521 84.6188 60.2088C84.4991 60.2269 84.3915 60.2921 84.3196 60.39C84.2477 60.488 84.2174 60.6107 84.2353 60.7312C84.2533 60.8517 84.318 60.9601 84.4153 61.0325C84.5126 61.1049 84.6344 61.1354 84.7541 61.1173V61.0765Z" fill="white"/>
<path d="M86.8751 69.081C86.9727 69.081 87.0677 69.0491 87.1458 68.9901C88.6738 67.816 90.3903 66.9141 92.2208 66.3235C92.278 66.3078 92.3315 66.2808 92.3783 66.2442C92.4252 66.2076 92.4644 66.162 92.4937 66.1101C92.523 66.0582 92.5419 66.001 92.5493 65.9417C92.5566 65.8825 92.5523 65.8224 92.5365 65.7648C92.5049 65.6495 92.4293 65.5514 92.3263 65.4919C92.2232 65.4324 92.101 65.4162 91.9862 65.4468C90.0308 66.0586 88.1982 67.0137 86.5729 68.2678C86.5255 68.3036 86.4856 68.3485 86.4554 68.3998C86.4252 68.4511 86.4053 68.5079 86.397 68.567C86.3886 68.6261 86.3918 68.6862 86.4065 68.744C86.4212 68.8018 86.4471 68.8561 86.4826 68.9038C86.5283 68.9639 86.588 69.0116 86.6566 69.0425C86.7251 69.0735 86.8002 69.0867 86.8751 69.081Z" fill="white"/>
<path d="M115.267 62.5352C115.341 62.5353 115.414 62.5171 115.479 62.4823C115.544 62.4474 115.6 62.3969 115.641 62.3353C115.675 62.2858 115.698 62.2302 115.71 62.1716C115.721 62.1131 115.722 62.0528 115.71 61.9941C115.699 61.9355 115.676 61.8796 115.644 61.8298C115.611 61.78 115.569 61.7372 115.519 61.7038C112.362 59.537 108.478 60.3183 108.302 60.341C108.182 60.3657 108.077 60.4373 108.01 60.5399C107.943 60.6426 107.919 60.768 107.943 60.8884C107.968 61.0089 108.039 61.1146 108.141 61.1824C108.243 61.2501 108.367 61.2743 108.487 61.2496C108.523 61.2496 112.145 60.5182 115.001 62.467C115.08 62.517 115.173 62.5409 115.267 62.5352Z" fill="white"/>
<path d="M108.212 58.5599C108.302 58.5601 108.39 58.5332 108.465 58.4826C109.979 57.5947 111.77 57.3125 113.481 57.6922C113.601 57.7175 113.726 57.6939 113.828 57.6266C113.931 57.5593 114.002 57.4538 114.027 57.3333C114.052 57.2129 114.029 57.0873 113.962 56.9842C113.895 56.8811 113.791 56.809 113.671 56.7837C111.721 56.3302 109.672 56.6558 107.955 57.6922C107.877 57.7475 107.818 57.8266 107.787 57.918C107.756 58.0094 107.754 58.1083 107.783 58.2005C107.812 58.2926 107.869 58.3732 107.946 58.4305C108.023 58.4878 108.117 58.5188 108.212 58.519V58.5599Z" fill="white"/>
<path d="M112.939 65.915C113.013 65.9151 113.086 65.897 113.151 65.8621C113.217 65.8273 113.272 65.7768 113.314 65.7151C113.381 65.6157 113.407 65.4934 113.385 65.375C113.363 65.2565 113.295 65.1518 113.196 65.0837C111.773 64.0739 110.162 63.3646 108.46 62.9986C108.34 62.9799 108.218 63.0099 108.12 63.0819C108.023 63.1538 107.957 63.262 107.939 63.3824C107.92 63.5029 107.95 63.6259 108.021 63.7243C108.093 63.8227 108.2 63.8885 108.32 63.9071C109.886 64.2622 111.368 64.9227 112.682 65.8514C112.76 65.8963 112.849 65.9184 112.939 65.915Z" fill="white"/>
<path d="M52.2242 117.742C50.8736 117.238 49.4089 117.129 47.9993 117.427C46.5897 117.725 45.2925 118.419 44.2576 119.428C40.4277 123.153 34.1663 131.525 29.6507 148.955C29.6507 148.955 27.2057 158.454 32.9979 161.907C38.7902 165.359 43.2652 160.612 47.6725 149.387C49.8285 143.835 52.7998 138.641 56.4871 133.978C58.0952 132.007 58.9127 129.502 58.7788 126.955C58.5893 123.657 57.236 119.627 52.2242 117.742Z" fill="white"/>
<path d="M36.5757 163.447C37.2173 163.446 37.8543 163.338 38.4614 163.129C41.8492 161.962 44.9077 157.641 48.0926 149.533C50.2348 144.026 53.1815 138.872 56.8351 134.242C58.5194 132.186 59.3745 129.567 59.2305 126.905C59.041 123.635 57.6922 119.319 52.3826 117.316C50.9525 116.787 49.4034 116.674 47.9125 116.989C46.4215 117.305 45.0489 118.037 43.9514 119.101C39.6658 123.271 33.6345 131.821 29.2227 148.819C29.1189 149.219 26.7641 158.691 32.7774 162.28C33.9159 163.006 35.2283 163.41 36.5757 163.447ZM52.0714 118.165C56.9298 119.982 58.1568 123.957 58.3373 126.96C58.4617 129.396 57.6746 131.79 56.1313 133.669C52.4194 138.371 49.4256 143.604 47.249 149.196C44.213 156.919 41.2402 161.207 38.1682 162.266C36.6073 162.806 35.0104 162.552 33.206 161.494C27.7926 158.259 30.0482 149.137 30.0482 149.047C34.6315 131.362 41.0914 123.103 44.5288 119.755C45.5043 118.808 46.7248 118.157 48.0507 117.876C49.3766 117.594 50.7543 117.695 52.0262 118.165H52.0714Z" fill="black"/>
<path d="M66.102 195.545C59.5471 195.545 54.2333 188.573 54.2333 179.973C54.2333 171.372 59.5471 164.4 66.102 164.4C72.6569 164.4 77.9707 171.372 77.9707 179.973C77.9707 188.573 72.6569 195.545 66.102 195.545Z" fill="black"/>
<path d="M66.1011 195.791C72.7685 195.791 78.1953 188.704 78.1953 179.991C78.1953 171.278 72.782 164.191 66.1011 164.191C59.4201 164.191 54.0023 171.278 54.0023 179.991C54.0023 188.704 59.4292 195.791 66.1011 195.791ZM66.1011 164.646C72.5204 164.646 77.7442 171.528 77.7442 179.991C77.7442 188.454 72.5204 195.336 66.1011 195.336C59.6818 195.336 54.4534 188.454 54.4534 179.991C54.4534 171.528 59.6773 164.628 66.1011 164.628V164.646Z" fill="black"/>
<path d="M59.4692 195.545C52.9143 195.545 47.6005 188.573 47.6005 179.973C47.6005 171.372 52.9143 164.4 59.4692 164.4C66.0241 164.4 71.3379 171.372 71.3379 179.973C71.3379 188.573 66.0241 195.545 59.4692 195.545Z" fill="white"/>
<path d="M59.4693 196C66.263 196 71.7891 188.809 71.7891 179.973C71.7891 171.137 66.263 163.946 59.4693 163.946C52.6756 163.946 47.1495 171.133 47.1495 179.973C47.1495 188.813 52.6756 196 59.4693 196ZM59.4693 164.855C65.7848 164.855 70.8868 171.637 70.8868 179.973C70.8868 188.309 65.7667 195.091 59.4693 195.091C53.1718 195.091 48.0517 188.309 48.0517 179.973C48.0517 171.637 53.1763 164.855 59.4693 164.855Z" fill="black"/>
<path d="M66.1001 195.546C59.5452 195.546 54.2314 188.574 54.2314 179.974C54.2314 171.373 59.5452 164.401 66.1001 164.401C72.655 164.401 77.9688 171.373 77.9688 179.974C77.9688 188.574 72.655 195.546 66.1001 195.546Z" fill="black"/>
<path d="M59.4692 195.546C52.9143 195.546 47.6005 188.574 47.6005 179.974C47.6005 171.373 52.9143 164.401 59.4692 164.401C66.0241 164.401 71.3379 171.373 71.3379 179.974C71.3379 188.574 66.0241 195.546 59.4692 195.546Z" fill="white"/>
</g>
<defs>
<clipPath id="clip0_92_1108">
<rect width="145" height="196" fill="white" transform="matrix(-1 0 0 1 145 0)"/>
</clipPath>
</defs>
</svg>
