<svg width="192" height="233" viewBox="0 0 192 233" fill="none" xmlns="http://www.w3.org/2000/svg">
<path d="M62.7848 230.659C70.6277 230.659 76.9857 222.381 76.9857 212.168C76.9857 201.956 70.6277 193.678 62.7848 193.678C54.9419 193.678 48.584 201.956 48.584 212.168C48.584 222.381 54.9419 230.659 62.7848 230.659Z" fill="black"/>
<path d="M62.7832 230.929C54.8057 230.929 48.3125 222.508 48.3125 212.168C48.3125 201.828 54.7895 193.402 62.7832 193.402C70.7769 193.402 77.2593 201.822 77.2593 212.168C77.2593 222.514 70.7661 230.929 62.7832 230.929ZM62.7832 193.942C55.1026 193.942 48.8523 202.119 48.8523 212.168C48.8523 222.217 55.1026 230.389 62.7832 230.389C70.4639 230.389 76.7196 222.212 76.7196 212.168C76.7196 202.124 70.4693 193.942 62.7832 193.942Z" fill="black"/>
<path d="M70.7184 230.659C78.5613 230.659 84.9193 222.381 84.9193 212.168C84.9193 201.956 78.5613 193.678 70.7184 193.678C62.8755 193.678 56.5176 201.956 56.5176 212.168C56.5176 222.381 62.8755 230.659 70.7184 230.659Z" fill="white"/>
<path d="M70.7076 231.333C62.5033 231.333 55.832 222.735 55.832 212.168C55.832 201.602 62.5141 192.998 70.7076 192.998C78.901 192.998 85.5831 201.596 85.5831 212.168C85.5831 222.741 78.9172 231.333 70.7076 231.333ZM70.7076 194.347C63.2482 194.347 57.1814 202.34 57.1814 212.147C57.1814 221.953 63.2482 229.947 70.7076 229.947C78.1669 229.947 84.2337 221.953 84.2337 212.147C84.2337 202.34 78.1777 194.347 70.7076 194.347Z" fill="black"/>
<path d="M54.4656 140.423C53.761 138.853 52.6274 137.514 51.1951 136.56C49.7629 135.606 48.0901 135.075 46.3694 135.029C40.0003 134.861 27.6508 136.485 9.12661 147.111C9.12661 147.111 -0.97752 152.931 0.949389 160.742C2.8763 168.552 10.6649 168.428 23.8672 162.846C30.3812 160.069 37.2748 158.283 44.3183 157.549C47.3378 157.281 50.1484 155.896 52.1987 153.665C54.7841 150.774 57.0672 146.27 54.4656 140.423Z" fill="white"/>
<path d="M9.01938 167.517C7.42403 167.564 5.83977 167.237 4.39372 166.562C2.32648 165.527 0.939323 163.622 0.270032 160.904C-1.75403 152.694 8.3339 146.777 8.7603 146.529C26.9067 136.129 39.2346 134.176 46.3755 134.354C48.2249 134.405 50.0227 134.975 51.5626 135.999C53.1026 137.024 54.3222 138.462 55.0817 140.148C57.8668 146.41 55.3084 151.2 52.6744 154.113C50.5134 156.474 47.546 157.94 44.3568 158.223C37.3808 158.952 30.5531 160.719 24.1 163.466C17.6716 166.185 12.7383 167.517 9.01938 167.517ZM45.5389 135.692C39.5153 135.692 27.4141 137.391 9.43499 147.694C9.33784 147.753 -0.199551 153.358 1.57623 160.58C2.15916 162.932 3.27644 164.518 4.99824 165.354C8.43645 167.08 14.514 166.055 23.5765 162.225C30.1556 159.427 37.1159 157.625 44.2273 156.88C47.0827 156.623 49.7383 155.307 51.6705 153.19C55.1195 149.382 55.8481 145.169 53.8295 140.676C53.1735 139.222 52.1207 137.982 50.7918 137.099C49.4629 136.215 47.9117 135.724 46.3161 135.681L45.5389 135.692Z" fill="black"/>
<path d="M134.091 207.178C134.091 207.178 148.432 201.682 157.1 185.705C163.955 173.099 165.488 165.164 179.44 156.539C193.393 147.914 190.932 142.18 190.932 142.18C190.932 142.18 188.303 132.137 169.029 142.66C159.086 148.092 150.537 161.281 143.714 176.103C137.966 188.591 124.354 193.478 124.354 193.478C124.354 193.478 124.267 207.551 134.091 207.178Z" fill="white"/>
<path d="M133.707 207.858C132.62 207.883 131.538 207.692 130.526 207.294C129.514 206.897 128.592 206.302 127.813 205.544C123.673 201.541 123.673 193.806 123.678 193.477V193.008L124.126 192.846C124.256 192.797 137.544 187.9 143.098 175.828C151.168 158.297 159.782 146.943 168.704 142.067C177.07 137.503 183.466 136.133 187.725 137.956C188.616 138.31 189.42 138.85 190.083 139.542C190.746 140.234 191.253 141.06 191.568 141.964C191.805 142.606 193.533 148.62 179.796 157.111C168.78 163.918 165.644 170.245 161.304 178.994C160.225 181.217 159.064 183.509 157.693 186.006C148.998 202.016 134.484 207.728 134.333 207.782L134.23 207.825H134.117L133.707 207.858ZM125.038 193.941C125.103 195.619 125.578 201.493 128.752 204.578C129.439 205.24 130.255 205.752 131.149 206.084C132.044 206.415 132.997 206.558 133.95 206.504C135.24 205.964 148.436 200.241 156.506 185.386C157.866 182.889 158.999 180.607 160.095 178.374C164.532 169.42 167.743 162.952 179.083 155.946C192.14 147.855 190.326 142.46 190.305 142.417L190.278 142.326C190.017 141.604 189.602 140.947 189.062 140.4C188.523 139.854 187.871 139.43 187.153 139.159C184.497 138.032 179.256 137.822 169.341 143.232C160.689 147.984 152.269 159.123 144.324 176.383C139.056 187.84 127.521 192.954 125.038 193.941Z" fill="black"/>
<path d="M90.5911 222.611C126.169 222.611 155.01 195.237 155.01 161.469C155.01 127.702 126.169 100.328 90.5911 100.328C55.0133 100.328 26.1719 127.702 26.1719 161.469C26.1719 195.237 55.0133 222.611 90.5911 222.611Z" fill="white"/>
<path d="M90.5919 223.28C54.6985 223.28 25.498 195.555 25.498 161.47C25.498 127.385 54.6985 99.6543 90.5919 99.6543C126.485 99.6543 155.686 127.385 155.686 161.47C155.686 195.555 126.485 223.28 90.5919 223.28ZM90.5919 101.003C55.4434 101.003 26.8474 128.129 26.8474 161.47C26.8474 194.81 55.4542 221.931 90.5919 221.931C125.73 221.931 154.336 194.81 154.336 161.47C154.336 128.129 125.762 101.003 90.5919 101.003Z" fill="black"/>
<path d="M67.6157 17.8271C65.9154 13.8787 43.1812 -7.30362 35.0039 3.91594C28.6889 12.5949 34.5775 31.7275 37.5677 39.9534C37.6634 40.2202 37.8368 40.4524 38.0657 40.6198C38.2946 40.7872 38.5684 40.8823 38.8519 40.8928C39.1353 40.9032 39.4154 40.8286 39.656 40.6784C39.8966 40.5283 40.0867 40.3096 40.2017 40.0505C42.1934 35.6112 46.085 24.4078 59.8702 26.6301C62.9846 27.1372 69.5642 22.3365 67.6157 17.8271Z" fill="white"/>
<path d="M38.9112 41.5661H38.8302C38.4126 41.5511 38.009 41.4116 37.6714 41.1655C37.3338 40.9194 37.0776 40.578 36.9357 40.1852C34.0156 32.1535 27.9218 12.5031 34.4582 3.50589C36.4175 0.808885 39.2782 -0.345435 42.9647 0.0645108C53.22 1.21883 66.9296 14.5636 68.2358 17.5627C69.04 19.429 68.646 21.5327 67.1185 23.4961C65.2078 25.945 61.9099 27.6603 59.7617 27.3043C47.3475 25.2815 43.3587 34.4837 41.2159 39.4301C41.0756 39.7537 40.9406 40.0612 40.8165 40.3363C40.6546 40.7054 40.3876 41.0188 40.0488 41.2374C39.7101 41.4561 39.3144 41.5704 38.9112 41.5661ZM41.6099 1.34829C40.4323 1.29917 39.261 1.54481 38.2025 2.0629C37.1439 2.58099 36.2317 3.35512 35.5485 4.315C29.3954 12.7728 35.3542 31.8946 38.2041 39.7213C38.254 39.8614 38.3448 39.9833 38.4646 40.0714C38.5845 40.1595 38.728 40.2096 38.8767 40.2154C39.0254 40.2212 39.1724 40.1824 39.2988 40.104C39.4252 40.0255 39.5252 39.911 39.5859 39.7753C39.71 39.5002 39.8395 39.2035 39.9799 38.8799C42.1011 33.9821 46.5324 23.7766 59.9776 25.9666C61.4458 26.2039 64.2956 24.8878 66.0552 22.6547C66.9134 21.5759 67.7662 19.8821 66.9998 18.0967C65.7907 15.3026 52.4265 2.48643 42.819 1.41841C42.412 1.37446 42.0031 1.35106 41.5937 1.34829H41.6099Z" fill="black"/>
<path d="M58.8659 26.4897C58.8659 26.4897 49.5283 7.3949 33.1738 7.64302L58.8659 26.4897Z" fill="white"/>
<path d="M58.2599 26.7864C58.1682 26.5976 48.9169 8.10149 33.1777 8.31725V6.96875H33.4638C49.8614 6.96875 59.3718 25.9988 59.4582 26.193L58.2599 26.7864Z" fill="black"/>
<path d="M163.82 69.4372C163.787 80.8358 160.242 91.9478 153.667 101.262C148.031 109.258 140.698 115.911 132.19 120.745C120.422 127.431 107.103 130.913 93.5659 130.843C81.7581 130.89 70.0939 128.256 59.4536 123.14C49.9503 118.585 41.6355 111.885 35.1649 103.571C27.6893 93.8128 23.3281 82.0754 23.3281 69.4534C23.3066 45.9894 38.3224 25.6108 60.4522 15.2705C70.8259 10.4686 82.128 8.00117 93.5605 8.0425C118.324 8.0425 140.092 19.2405 152.604 36.1561C159.707 45.7413 163.82 57.1766 163.82 69.4372Z" fill="white"/>
<path d="M93.5614 131.5C81.6558 131.532 69.8969 128.875 59.1631 123.728C49.5603 119.125 41.1559 112.36 34.6099 103.964C26.7727 93.7153 22.6328 81.7999 22.6328 69.4422C22.6328 46.4852 37.0172 25.4971 60.1725 14.6659C70.6392 9.83813 82.0336 7.34941 93.5614 7.37322C117.731 7.37322 139.98 17.9833 153.155 35.7565C160.577 45.7894 164.49 57.4351 164.49 69.4422C164.449 80.9686 160.869 92.2048 154.235 101.634C148.532 109.704 141.125 116.423 132.537 121.316C120.661 128.062 107.221 131.574 93.5614 131.5ZM93.5614 8.71633C82.231 8.69247 71.0317 11.1389 60.7446 15.885C38.0751 26.4896 23.9822 47.0085 23.9822 69.4368C23.9822 81.4978 28.0249 93.1705 35.6786 103.144C42.0969 111.373 50.3369 118.004 59.7514 122.514C70.3016 127.573 81.8595 130.184 93.5614 130.152C106.982 130.222 120.185 126.77 131.851 120.141C140.267 115.351 147.527 108.771 153.117 100.868C159.817 91.4337 163.327 80.1091 163.139 68.5425C162.951 56.976 159.073 45.7715 152.07 36.5603C139.176 19.1214 117.305 8.71633 93.5614 8.71633Z" fill="black"/>
<path d="M148.145 107.384C148.145 107.319 147.848 100.96 143.287 93.0357C139.104 85.7214 130.306 75.516 112.268 68.5361L112.753 67.2793C131.224 74.4318 140.232 84.9123 144.539 92.4424C149.224 100.636 149.505 107.06 149.516 107.33L148.145 107.384Z" fill="black"/>
<path d="M23.5124 48.5138C23.2695 41.5717 27.2906 36.0428 34.1239 34.6997C48.5136 31.8679 89.4051 26.8838 134.231 40.919C134.231 40.919 149.247 42.8231 145.334 60.4022C143.035 70.7587 140.163 80.8293 138.933 84.9126C137.895 88.4594 135.764 91.5889 132.844 93.8559C129.606 96.3156 124.721 98.2412 117.623 97.0923C103.001 94.7783 61.9372 87.3831 37.7402 89.6594C31.8461 90.1988 28.3593 89.3033 26.1032 86.7574C23.847 84.2114 23.2101 81.2123 23.3181 77.7548L23.5124 48.5138Z" fill="white"/>
<path d="M121.677 98.1335C120.283 98.1291 118.892 98.0154 117.515 97.7937L112.447 96.9684C95.267 94.1581 59.5247 88.311 37.7836 90.3608C31.7653 90.9325 27.9979 89.967 25.5852 87.2376C23.3884 84.7618 22.4762 81.8436 22.6274 77.7334L22.8379 48.5463C22.5842 41.108 26.9885 35.4227 34.0053 34.0418C42.2581 32.4236 85.8645 25.0824 134.399 40.2611C135.095 40.3582 140.725 41.3399 144.147 46.1945C146.7 49.8247 147.331 54.6685 146.02 60.5804C143.321 72.6738 139.975 83.8933 139.597 85.134C138.516 88.8136 136.295 92.0561 133.255 94.3955C129.922 96.8988 125.846 98.2148 121.677 98.1335ZM47.9686 88.5861C69.5587 88.5861 97.9279 93.225 112.663 95.6361L117.726 96.4614C123.544 97.3838 128.494 96.3265 132.434 93.3329C135.253 91.1508 137.302 88.1277 138.285 84.7024C138.658 83.4672 141.999 72.2962 144.676 60.2406C145.906 54.7225 145.35 50.2508 143.029 46.9389C139.791 42.354 134.199 41.5827 134.145 41.5449H134.026C85.789 26.4416 42.4524 33.7236 34.2536 35.3418C27.9007 36.6148 23.9498 41.7661 24.1872 48.4924L23.9929 77.7334C23.8634 81.5092 24.6676 84.1199 26.6161 86.3152C28.7481 88.7264 32.0514 89.5517 37.681 89.0123C40.8493 88.721 44.3145 88.5861 47.9686 88.5861Z" fill="black"/>
<path d="M140.578 25.0174C143.531 21.8889 172.138 9.72 175.986 23.0486C178.96 33.3566 166.902 49.3391 161.283 56.0546C161.102 56.273 160.86 56.4323 160.588 56.5119C160.316 56.5916 160.026 56.5879 159.756 56.5014C159.486 56.4149 159.248 56.2496 159.073 56.0267C158.898 55.8038 158.793 55.5336 158.773 55.2509C158.417 50.3963 158.584 38.5295 144.864 35.9349C141.76 35.347 137.21 28.5883 140.578 25.0174Z" fill="white"/>
<path d="M160.193 57.2411C159.975 57.2418 159.758 57.2072 159.551 57.1386C159.151 57.0147 158.799 56.7725 158.541 56.444C158.283 56.1155 158.13 55.7163 158.104 55.2993C158.077 54.9918 158.061 54.6628 158.039 54.3068C157.705 48.9127 157.089 38.9176 144.74 36.5928C142.581 36.1936 140.082 33.4643 139.116 30.5083C138.349 28.1512 138.695 26.0367 140.087 24.5749C142.343 22.18 159.777 14.3263 169.806 16.7482C173.411 17.622 175.711 19.6826 176.634 22.8866C179.71 33.556 167.285 49.9538 161.801 56.5075C161.603 56.739 161.356 56.9246 161.078 57.0512C160.8 57.1779 160.498 57.2427 160.193 57.2411ZM165.526 17.6166C155.972 17.6166 142.889 23.5501 141.07 25.4811C139.736 26.8944 139.99 28.7661 140.4 30.0876C141.286 32.7846 143.525 34.9962 144.988 35.2713C158.369 37.7849 159.054 48.8858 159.383 54.2204C159.383 54.5711 159.427 54.9001 159.448 55.2022C159.456 55.3504 159.51 55.4926 159.601 55.6094C159.693 55.7261 159.819 55.8118 159.961 55.8548C160.103 55.9027 160.256 55.9061 160.399 55.8646C160.543 55.8232 160.671 55.7388 160.765 55.6229C166.114 49.231 178.237 33.2863 175.338 23.2588C174.556 20.5618 172.591 18.8087 169.493 18.059C168.192 17.7573 166.861 17.6088 165.526 17.6166Z" fill="black"/>
<path d="M145.852 36.1396C145.852 36.1396 161.143 21.3707 176.434 27.1747L145.852 36.1396Z" fill="white"/>
<path d="M146.322 36.6251L145.383 35.6541C145.539 35.5031 161.165 20.6588 176.688 26.5436L176.208 27.8058C161.489 22.2284 146.473 36.4794 146.322 36.6251Z" fill="black"/>
<path d="M129.54 139.942C131.156 139.344 132.908 139.214 134.595 139.568C136.281 139.922 137.833 140.746 139.072 141.944C143.654 146.367 151.146 156.308 156.549 177.005C156.549 177.005 159.469 188.284 152.544 192.383C145.619 196.483 140.259 190.846 134.986 177.517C132.406 170.925 128.851 164.758 124.439 159.221C122.516 156.88 121.536 153.906 121.692 150.882C121.897 146.965 123.516 142.181 129.54 139.942Z" fill="white"/>
<path d="M148.237 194.347C147.452 194.346 146.673 194.215 145.932 193.958C141.841 192.561 138.154 187.405 134.333 177.739C131.775 171.212 128.255 165.105 123.889 159.62C121.853 157.15 120.821 154.006 120.996 150.812C121.228 146.89 122.852 141.712 129.275 139.312C131.015 138.67 132.9 138.533 134.714 138.914C136.528 139.296 138.198 140.182 139.531 141.469C144.669 146.437 151.907 156.599 157.191 176.816C157.316 177.302 160.155 188.64 152.873 192.95C151.483 193.827 149.881 194.31 148.237 194.347ZM132.665 140.045C131.669 140.048 130.681 140.23 129.75 140.585C125.141 142.305 122.647 145.779 122.34 150.903C122.188 153.762 123.115 156.574 124.936 158.784C129.388 164.375 132.98 170.601 135.591 177.253C139.207 186.423 142.731 191.45 146.386 192.696C148.21 193.316 150.11 193.02 152.188 191.79C158.595 188.014 155.912 177.264 155.885 177.156C150.407 156.189 142.699 146.41 138.613 142.44C137.018 140.898 134.884 140.039 132.665 140.045Z" fill="black"/>
<path d="M191.132 141.862C191.132 141.862 194.37 149.246 181.416 155.25C181.379 150.19 180.132 144.462 174.664 139.947C188.444 134.537 191.132 141.862 191.132 141.862Z" fill="black"/>
<path d="M180.898 156.092V155.256C180.844 148.832 178.702 143.956 174.346 140.363L173.639 139.781L174.491 139.441C180.213 137.197 184.79 136.809 188.093 138.292C189.666 138.925 190.936 140.138 191.639 141.679C191.844 142.219 194.516 149.77 181.665 155.742L180.898 156.092ZM175.722 140.126C179.689 143.707 181.735 148.395 181.956 154.404C193.34 148.799 190.754 142.354 190.635 142.078C190.021 140.8 188.942 139.802 187.618 139.29C184.785 138.006 180.682 138.308 175.722 140.126Z" fill="black"/>
<path d="M19.1181 62.387C19.526 54.7331 21.261 47.208 24.2458 40.1475C26.5505 34.7858 29.476 30.0715 33.1732 29.3594C41.9604 27.628 59.6642 25.2762 82.3283 26.9106C98.7328 28.0939 114.945 31.1709 130.641 36.0804C130.641 36.0804 145.517 38.6533 141.604 56.2324C138.527 70.0789 135.127 82.3341 135.127 82.3341C135.127 82.3341 132.131 94.7835 116.354 92.2861C101.732 89.972 56.4041 82.6955 32.2125 84.9826C26.3184 85.522 20.5269 80.8669 19.7389 76.4438C19.1343 73.0348 18.6917 71.3303 18.8159 67.8673L19.1181 62.387Z" fill="black"/>
<path d="M120.311 92.8524C118.966 92.8482 117.623 92.7364 116.295 92.518L115.653 92.4209C100.934 90.0799 56.0322 82.9706 32.2184 85.2253C26.13 85.8025 20.2467 80.9101 19.4587 76.4708C19.3723 75.9853 19.286 75.5322 19.2104 75.1007C18.6757 72.7193 18.4472 70.2795 18.5303 67.8404L18.8488 62.3816C19.256 54.6958 20.9984 47.1393 23.998 40.0504C26.891 33.3133 29.8759 29.7262 33.1198 29.0898C39.8289 27.7682 58.0508 24.8824 82.3504 26.6355C98.7729 27.8157 115.003 30.8928 130.717 35.8053C130.717 35.8053 136.655 36.8841 140.098 41.9868C142.565 45.6656 143.159 50.4716 141.869 56.2702C138.824 69.9602 135.392 82.264 135.392 82.388C135.392 82.5121 132.688 92.8524 120.311 92.8524ZM42.7597 84.222C67.5288 84.222 102.947 89.8372 115.739 91.8653L116.382 91.9678C131.721 94.4005 134.733 82.7171 134.847 82.2208C134.884 82.086 138.301 69.8146 141.324 56.1192C142.581 50.4716 142.014 45.8112 139.639 42.2619C136.342 37.348 130.636 36.3285 130.577 36.2962C114.891 31.3844 98.687 28.3073 82.291 27.1263C58.0616 25.3787 39.8936 28.2537 33.2061 29.5698C30.1673 30.2063 27.312 33.6909 24.4945 40.2554C21.5194 47.286 19.7916 54.7804 19.3885 62.4032L19.0701 67.8512C18.9914 70.245 19.2162 72.6392 19.7393 74.9767C19.8203 75.4082 19.9013 75.8613 19.9876 76.3467C20.7379 80.581 26.3351 85.2253 32.1698 84.6859C35.3651 84.3784 38.9383 84.2436 42.7597 84.2436V84.222Z" fill="black"/>
<path d="M106.698 56.184C107.685 50.1057 106.018 44.7786 102.975 44.2856C99.9324 43.7926 96.6664 48.3203 95.6802 54.3986C94.694 60.4769 96.361 65.804 99.4036 66.297C102.446 66.79 105.712 62.2622 106.698 56.184Z" fill="white"/>
<path d="M59.589 51.2855C60.5751 45.2073 58.9081 39.8802 55.8655 39.3871C52.823 38.8941 49.557 43.4219 48.5708 49.5002C47.5846 55.5784 49.2516 60.9055 52.2942 61.3985C55.3368 61.8916 58.6028 57.3638 59.589 51.2855Z" fill="white"/>
<path d="M67.8248 69.7929C67.8248 69.7929 73.843 69.2535 77.0815 71.1037C80.4387 73.0563 73.6595 77.7167 73.6595 77.7167C73.6595 77.7167 70.0215 81.1905 67.9435 76.9831C66.0004 73.0455 66.389 73.4716 66.389 73.4716C66.389 73.4716 65.0936 70.4078 67.8248 69.7929Z" fill="white"/>
<path d="M92.1255 78.6553C92.0087 78.6553 91.8951 78.6174 91.8017 78.5474C87.9317 75.6454 82.3992 75.791 82.3452 75.791C82.2744 75.7932 82.2038 75.7813 82.1375 75.7562C82.0712 75.731 82.0105 75.6931 81.9588 75.6445C81.9072 75.5959 81.8657 75.5376 81.8366 75.473C81.8075 75.4084 81.7914 75.3386 81.7893 75.2678C81.7872 75.197 81.799 75.1264 81.8242 75.0602C81.8494 74.9939 81.8873 74.9333 81.9359 74.8817C81.9846 74.8301 82.0429 74.7886 82.1075 74.7595C82.1722 74.7304 82.242 74.7144 82.3129 74.7122C82.5558 74.7122 88.2771 74.5558 92.4494 77.6843C92.5061 77.7268 92.5539 77.7801 92.59 77.841C92.6261 77.902 92.6498 77.9695 92.6599 78.0396C92.6699 78.1097 92.666 78.1811 92.6484 78.2497C92.6308 78.3183 92.5999 78.3828 92.5573 78.4395C92.5071 78.5065 92.4419 78.5609 92.3669 78.5983C92.292 78.6358 92.2093 78.6553 92.1255 78.6553Z" fill="white"/>
<path d="M90.5923 72.6568C90.5386 72.6649 90.484 72.6649 90.4303 72.6568C87.9428 71.8376 85.2615 71.8149 82.7605 72.592C82.6266 72.6435 82.4778 72.6398 82.3467 72.5816C82.2156 72.5235 82.113 72.4156 82.0615 72.2819C82.01 72.1481 82.0137 71.9994 82.0719 71.8684C82.1301 71.7374 82.238 71.6349 82.3719 71.5834C85.1004 70.7129 88.0347 70.728 90.7542 71.6265C90.8973 71.648 91.0261 71.7254 91.1121 71.8417C91.1982 71.958 91.2345 72.1038 91.213 72.2468C91.1915 72.3899 91.114 72.5186 90.9976 72.6045C90.8812 72.6905 90.7354 72.7268 90.5923 72.7053V72.6568Z" fill="white"/>
<path d="M88.0501 82.1609C87.9352 82.1597 87.8236 82.1219 87.7317 82.053C85.8982 80.6564 83.839 79.5836 81.6433 78.8813C81.5749 78.8626 81.5108 78.8306 81.4548 78.7871C81.3987 78.7436 81.3518 78.6895 81.3167 78.6279C81.2816 78.5662 81.2591 78.4983 81.2503 78.428C81.2415 78.3576 81.2466 78.2862 81.2655 78.2178C81.3034 78.0809 81.3938 77.9645 81.5171 77.8938C81.6404 77.8231 81.7866 77.8039 81.924 77.8403C84.2631 78.5679 86.4556 79.7018 88.401 81.19C88.4577 81.2325 88.5055 81.2857 88.5416 81.3466C88.5777 81.4076 88.6014 81.4751 88.6115 81.5452C88.6215 81.6153 88.6176 81.6867 88.6 81.7553C88.5824 81.824 88.5514 81.8884 88.5089 81.9451C88.456 82.0159 88.3865 82.0726 88.3065 82.1102C88.2265 82.1478 88.1384 82.1652 88.0501 82.1609Z" fill="white"/>
<path d="M54.0837 74.3886C53.9952 74.3887 53.9082 74.3671 53.83 74.3258C53.7519 74.2844 53.6852 74.2244 53.6357 74.1512C53.5959 74.0925 53.5681 74.0265 53.5539 73.9569C53.5397 73.8874 53.5393 73.8158 53.5529 73.7461C53.5664 73.6765 53.5936 73.6102 53.6328 73.5511C53.672 73.4919 53.7225 73.4411 53.7814 73.4015C57.5596 70.8285 62.2069 71.7563 62.4174 71.7833C62.5567 71.8131 62.6786 71.8967 62.7564 72.0159C62.8343 72.1352 62.8618 72.2803 62.833 72.4198C62.8189 72.4892 62.7911 72.5551 62.7515 72.6139C62.7118 72.6726 62.6609 72.7229 62.6018 72.762C62.5426 72.8011 62.4764 72.8281 62.4068 72.8416C62.3372 72.855 62.2656 72.8547 62.1961 72.8405C62.1529 72.8405 57.8187 71.9721 54.4021 74.2861C54.3095 74.3531 54.198 74.389 54.0837 74.3886Z" fill="white"/>
<path d="M62.5258 69.6688C62.4181 69.669 62.3129 69.6371 62.2235 69.5771C60.4125 68.5202 58.2691 68.185 56.2215 68.6385C56.1506 68.6534 56.0775 68.6542 56.0063 68.6408C55.9351 68.6274 55.8673 68.6002 55.8067 68.5606C55.746 68.5211 55.6938 68.4699 55.6529 68.4102C55.612 68.3504 55.5833 68.2832 55.5684 68.2124C55.5535 68.1416 55.5528 68.0685 55.5661 67.9974C55.5795 67.9262 55.6068 67.8584 55.6464 67.7978C55.6859 67.7372 55.7371 67.685 55.7969 67.6441C55.8567 67.6033 55.9239 67.5746 55.9948 67.5597C58.3281 67.0207 60.7797 67.4074 62.8335 68.6385C62.9507 68.7202 63.0307 68.845 63.056 68.9855C63.0813 69.1261 63.0498 69.2709 62.9684 69.3883C62.9245 69.4688 62.8609 69.5368 62.7834 69.5858C62.706 69.6349 62.6173 69.6635 62.5258 69.6688Z" fill="white"/>
<path d="M56.8632 78.402C56.7757 78.4013 56.6897 78.3793 56.6126 78.3379C56.5355 78.2966 56.4696 78.2371 56.4206 78.1647C56.3397 78.0467 56.3091 77.9014 56.3354 77.7608C56.3617 77.6202 56.4428 77.4958 56.5609 77.4149C58.2619 76.2165 60.1878 75.3743 62.2229 74.9391C62.366 74.9169 62.5121 74.9525 62.6291 75.0379C62.746 75.1234 62.8241 75.2518 62.8463 75.3949C62.8685 75.5379 62.8329 75.6839 62.7474 75.8008C62.6618 75.9176 62.5334 75.9957 62.3902 76.0179C60.5147 76.4398 58.7399 77.2241 57.1654 78.3265C57.0743 78.3808 56.9692 78.4071 56.8632 78.402Z" fill="white"/>
<path d="M112.91 232.325C120.753 232.325 127.111 224.047 127.111 213.834C127.111 203.622 120.753 195.344 112.91 195.344C105.067 195.344 98.709 203.622 98.709 213.834C98.709 224.047 105.067 232.325 112.91 232.325Z" fill="black"/>
<path d="M112.91 232.595C104.933 232.595 98.4395 224.18 98.4395 213.834C98.4395 203.488 104.916 195.068 112.91 195.068C120.904 195.068 127.381 203.488 127.381 213.834C127.381 224.18 120.904 232.595 112.91 232.595ZM112.91 195.608C105.23 195.608 98.9792 203.785 98.9792 213.834C98.9792 223.883 105.23 232.055 112.91 232.055C120.591 232.055 126.841 223.878 126.841 213.834C126.841 203.79 120.596 195.608 112.91 195.608Z" fill="black"/>
<path d="M120.845 232.325C128.688 232.325 135.046 224.047 135.046 213.834C135.046 203.622 128.688 195.344 120.845 195.344C113.002 195.344 106.645 203.622 106.645 213.834C106.645 224.047 113.002 232.325 120.845 232.325Z" fill="white"/>
<path d="M120.846 233.021C112.642 233.021 105.965 224.423 105.965 213.856C105.965 203.289 112.642 194.686 120.846 194.686C129.05 194.686 135.721 203.284 135.721 213.856C135.721 224.428 129.045 233.021 120.846 233.021ZM120.846 196.034C113.386 196.034 107.314 204.028 107.314 213.834C107.314 223.641 113.386 231.635 120.846 231.635C128.305 231.635 134.372 223.641 134.372 213.834C134.372 204.028 128.305 196.012 120.846 196.012V196.034Z" fill="black"/>
</svg>
