<svg width="61" height="91" viewBox="0 0 61 91" fill="none" xmlns="http://www.w3.org/2000/svg">
<path d="M60.3426 45.2587C60.3426 20.2634 48.7639 0.000701904 34.4809 0.000701904C30.8028 0.000701904 28.8775 0.000701904 24.9982 0.000701904C23.2741 0.000701904 8.61914 26.7 8.61914 45.2587C8.61914 63.3501 15.3695 82.8407 24.1362 90.0849C25.1794 90.9468 29.3085 90.5167 34.4809 90.5167C48.7639 90.5167 60.3426 70.254 60.3426 45.2587Z" fill="url(#paint0_radial_238_1934)"/>
<path fill-rule="evenodd" clip-rule="evenodd" d="M51.4655 14.0007C55.994 21.9255 58.8426 32.9737 58.8426 45.2587C58.8426 57.5437 55.994 68.5919 51.4655 76.5167C46.9128 84.484 40.8518 89.0167 34.4809 89.0167C33.1684 89.0167 31.925 89.044 30.7935 89.0709C30.6952 89.0732 30.5977 89.0755 30.5013 89.0778C29.4804 89.1023 28.5663 89.1241 27.7603 89.124C26.8708 89.1239 26.1751 89.0965 25.661 89.0288C25.2121 88.9697 25.0629 88.8978 25.0588 88.9014C20.9971 85.5275 17.2463 79.1591 14.5076 71.2488C11.7766 63.3605 10.1191 54.1306 10.1191 45.2587C10.1191 36.2938 13.6816 25.2094 17.5395 16.2642C19.4586 11.8146 21.4262 7.95043 23.0099 5.21377C23.8043 3.84106 24.4869 2.77856 25.0062 2.07508C25.1946 1.81986 25.3472 1.63165 25.4636 1.5007H34.4809C40.8518 1.5007 46.9128 6.03338 51.4655 14.0007ZM34.4809 0.000701904C48.7639 0.000701904 60.3426 20.2634 60.3426 45.2587C60.3426 70.254 48.7639 90.5167 34.4809 90.5167C33.0742 90.5167 31.7447 90.5485 30.5334 90.5775C27.2909 90.6551 24.8957 90.7124 24.1362 90.0849C15.3695 82.8407 8.61914 63.3501 8.61914 45.2587C8.61914 26.7 23.2741 0.000701904 24.9982 0.000701904H34.4809Z" fill="#1F2024"/>
<path d="M51.7234 45.2581C51.7234 20.2628 40.1448 9.91821e-05 25.8617 9.91821e-05C11.5787 9.91821e-05 0 20.2628 0 45.2581C0 70.2534 11.5787 90.5161 25.8617 90.5161C40.1448 90.5161 51.7234 70.2534 51.7234 45.2581Z" fill="#FFE463"/>
<path fill-rule="evenodd" clip-rule="evenodd" d="M42.8464 14.0001C47.3748 21.9249 50.2234 32.9731 50.2234 45.2581C50.2234 57.5431 47.3748 68.5913 42.8464 76.5161C38.2936 84.4834 32.2326 89.0161 25.8617 89.0161C19.4908 89.0161 13.4298 84.4834 8.87709 76.5161C4.3486 68.5913 1.5 57.5431 1.5 45.2581C1.5 32.9731 4.3486 21.9249 8.87709 14.0001C13.4298 6.03278 19.4908 1.5001 25.8617 1.5001C32.2326 1.5001 38.2936 6.03278 42.8464 14.0001ZM25.8617 9.91821e-05C40.1448 9.91821e-05 51.7234 20.2628 51.7234 45.2581C51.7234 70.2534 40.1448 90.5161 25.8617 90.5161C11.5787 90.5161 0 70.2534 0 45.2581C0 20.2628 11.5787 9.91821e-05 25.8617 9.91821e-05Z" fill="#1F2024"/>
<path fill-rule="evenodd" clip-rule="evenodd" d="M49.1382 81.0337L40.5176 81.0337L40.5176 82.5337L49.1382 82.5337L49.1382 81.0337Z" fill="#1F2024"/>
<path fill-rule="evenodd" clip-rule="evenodd" d="M44.062 85.373L35.4414 85.373L35.4414 86.873L44.062 86.873L44.062 85.373Z" fill="#1F2024"/>
<path fill-rule="evenodd" clip-rule="evenodd" d="M53.4487 74.1362L44.8281 74.1362L44.8281 75.6362L53.4487 75.6362L53.4487 74.1362Z" fill="#1F2024"/>
<path fill-rule="evenodd" clip-rule="evenodd" d="M56.8979 66.3809L48.2773 66.3809L48.2773 67.8809L56.8979 67.8809L56.8979 66.3809Z" fill="#1F2024"/>
<path fill-rule="evenodd" clip-rule="evenodd" d="M59.4839 55.1719L50.8633 55.1719L50.8633 56.6719L59.4839 56.6719L59.4839 55.1719Z" fill="#1F2024"/>
<path fill-rule="evenodd" clip-rule="evenodd" d="M60.3452 43.9644L51.7246 43.9644L51.7246 45.4644L60.3452 45.4644L60.3452 43.9644Z" fill="#1F2024"/>
<path fill-rule="evenodd" clip-rule="evenodd" d="M58.6225 31.8965L50.002 31.8965L50.002 33.3965L58.6225 33.3965L58.6225 31.8965Z" fill="#1F2024"/>
<path fill-rule="evenodd" clip-rule="evenodd" d="M56.0366 21.5532L47.416 21.5532L47.416 23.0532L56.0366 23.0532L56.0366 21.5532Z" fill="#1F2024"/>
<path fill-rule="evenodd" clip-rule="evenodd" d="M53.4487 14.6553L44.8281 14.6553L44.8281 16.1553L53.4487 16.1553L53.4487 14.6553Z" fill="#1F2024"/>
<path fill-rule="evenodd" clip-rule="evenodd" d="M48.2761 7.76025L40.5176 7.76025L40.5176 9.26025L48.2761 9.26025L48.2761 7.76025Z" fill="#1F2024"/>
<path fill-rule="evenodd" clip-rule="evenodd" d="M43.9655 3.44629L36.207 3.44629L36.207 4.94629L43.9655 4.94629L43.9655 3.44629Z" fill="#1F2024"/>
<defs>
<radialGradient id="paint0_radial_238_1934" cx="0" cy="0" r="1" gradientUnits="userSpaceOnUse" gradientTransform="translate(33.6676 88.9691) rotate(-89.4763) scale(88.9721 50.781)">
<stop stop-color="#E9B404"/>
<stop offset="0.474999" stop-color="#FFE56D"/>
<stop offset="0.973958" stop-color="#E9B404"/>
</radialGradient>
</defs>
</svg>
