<svg width="27" height="65" viewBox="0 0 27 65" fill="none" xmlns="http://www.w3.org/2000/svg">
<path d="M25.6466 32.4558C25.6466 41.3092 24.291 49.2909 22.1241 55.032C21.0397 57.9053 19.7666 60.1785 18.391 61.7201C17.0149 63.2622 15.5989 64.0079 14.2052 64.0079H14.195H14.1849H14.1748H14.1647H14.1546H14.1445H14.1345H14.1245H14.1145H14.1045H14.0945H14.0846H14.0746H14.0647H14.0548H14.045H14.0351H14.0253H14.0154H14.0056H13.9959H13.9861H13.9763H13.9666H13.9569H13.9472H13.9375H13.9278H13.9182H13.9085H13.8989H13.8893H13.8797H13.8701H13.8606H13.8511H13.8415H13.832H13.8225H13.8131H13.8036H13.7942H13.7847H13.7753H13.7659H13.7566H13.7472H13.7378H13.7285H13.7192H13.7099H13.7006H13.6913H13.6821H13.6728H13.6636H13.6544H13.6452H13.636H13.6268H13.6177H13.6085H13.5994H13.5903H13.5812H13.5721H13.563H13.5539H13.5449H13.5359H13.5268H13.5178H13.5088H13.4999H13.4909H13.4819H13.473H13.4641H13.4551H13.4462H13.4374H13.4285H13.4196H13.4108H13.4019H13.3931H13.3843H13.3755H13.3667H13.3579H13.3491H13.3404H13.3316H13.3229H13.3142H13.3055H13.2968H13.2881H13.2794H13.2707H13.2621H13.2535H13.2448H13.2362H13.2276H13.219H13.2104H13.2018H13.1933H13.1847H13.1762H13.1676H13.1591H13.1506H13.1421H13.1336H13.1251H13.1166H13.1081H13.0997H13.0912H13.0828H13.0744H13.066H13.0575H13.0491H13.0407H13.0324H13.024H13.0156H13.0073H12.9989H12.9906H12.9822H12.9739H12.9656H12.9573H12.949H12.9407H12.9324H12.9242H12.9159H12.9076H12.8994H12.8912H12.8829H12.8747H12.8665H12.8583H12.8501H12.8419H12.8337H12.8255H12.8173H12.8091H12.801H12.7928H12.7847H12.7765H12.7684H12.7603H12.7521H12.744H12.7359H12.7278H12.7197H12.7116H12.7035H12.6954H12.6874H12.6793H12.6712H12.6632H12.6551H12.6471H12.639H12.631H12.6229H12.6149H12.6069H12.5989H12.5909H12.5829H12.5748H12.5669H12.5589H12.5509H12.5429H12.5349H12.5269H12.5189H12.511H12.503H12.495H12.4871H12.4791H12.4712H12.4632H12.4553H12.4473H12.4394H12.4315H12.4235H12.4156H12.4077H12.3998H12.3918H12.3839H12.376H12.3681H12.3602H12.3523H12.3444H12.3365H12.3286H12.3207H12.3128H12.3049H12.297H12.2891H12.2812H12.2733H12.2655H12.2576H12.2497H12.2418H12.2339H12.226H12.2182H12.2103H12.2024H12.1945H12.1867H12.1788H12.1709H12.1631H12.1552H12.1473H12.1394H12.1316H12.1237H12.1158H12.108H12.1001H12.0922H12.0843H12.0765H12.0686H12.0607H12.0529H12.045H12.0371H12.0292H12.0214H12.0135H12.0056H11.9977H11.9899H11.982H11.9741H11.9662H11.9583H11.9504H11.9425H11.9347H11.9268H11.9189H11.911H11.9031H11.8952H11.8873H11.8794H11.8715H11.8636H11.8557H11.8477H11.8398H11.8319H11.824H11.8161H11.8081H11.8002H11.7923H11.7843H11.7764H11.7684H11.7605H11.7525H11.7446H11.7366H11.7287H11.7207H11.7127H11.7048H11.6968H11.6888H11.6808H11.6728H11.6648H11.6568H11.6488H11.6408H11.6328H11.6248H11.6168H11.6087H11.6007H11.5927H11.5846H11.5766H11.5685H11.5605H11.5524H11.5443H11.5363H11.5282H11.5201H11.512H11.5039H11.4958H11.4877H11.4796H11.4715H11.4633H11.4552H11.4471H11.4389H11.4307H11.4226H11.4144H11.4062H11.3981H11.3899H11.3817H11.3735H11.3653H11.357H11.3488H11.3406H11.3323H11.3241H11.3158H11.3076H11.2993H11.291H11.2827H11.2744H11.2661H11.2578H11.2495H11.2412H11.2328H11.2245H11.2161H11.2078H11.1994H11.191H11.1826H11.1742H11.1658H11.1574H11.149H11.1405H11.1321H11.1236H11.1152H11.1067H11.0982H11.0897H11.0812H11.0727H11.0642H11.0556H11.0471H11.0385H11.03H11.0214H11.0128H11.0042H10.9956H10.987H10.9784H10.9697H10.9611H10.9524H10.9437H10.9351H10.9264H10.9177H10.9089H10.9002H10.8915H10.8827H10.8739H10.8652H10.8564H10.8476H10.8388H10.8299H10.8211H10.8123H10.8034H10.7945H10.7856H10.7767H10.7678H10.7589H10.7499H10.741H10.732H10.7231H10.7141H10.7051H10.696H10.687H10.678H10.6689H10.6598H10.6508H10.6417H10.6325H10.6234H10.6143H10.6051H10.5959H10.5868H10.5776H10.5684H10.5591H10.5499H10.5406H10.5314H10.5221H10.5128H10.5035H10.4941H10.4848H10.4754H10.466H10.4566H10.4472H10.4378H10.4284H10.4189H10.4095H10.4H10.3905H10.3809H10.3714H10.3619H10.3523H10.3427H10.3331H10.3235H10.3139H10.3042H10.2946H10.2849H10.2752H10.2655H10.2557H10.246H10.2362H10.2264H10.2166H10.2068H10.197H10.1871H10.1772H10.1673H10.1574H10.1475H10.1376H10.1276H10.1176H10.1076H10.0976H10.0876H10.0775H10.0675H10.0662C10.0065 63.9053 9.93217 63.7654 9.84395 63.5845C9.59112 63.066 9.26357 62.293 8.88618 61.3056C8.1331 59.3354 7.20007 56.5605 6.29083 53.3686C4.4684 46.9709 2.76367 38.9745 2.76367 32.4558C2.76367 26.0564 3.55278 19.4066 4.85249 13.7228C6.15546 8.02478 7.94803 3.40408 9.89756 0.951413C9.91498 0.942346 9.97195 0.915685 10.1017 0.889834C10.3168 0.846959 10.6225 0.827254 11.0371 0.827178C11.4116 0.827109 11.8372 0.842516 12.3201 0.859994C12.3651 0.861624 12.4107 0.863273 12.4567 0.864929C12.9904 0.884116 13.5809 0.903766 14.2052 0.903766C15.5989 0.903766 17.0149 1.64941 18.391 3.19157C19.7666 4.73315 21.0397 7.0064 22.1241 9.87965C24.291 15.6208 25.6466 23.6025 25.6466 32.4558Z" fill="url(#paint0_radial_1707_7975)" stroke="#1F2024" stroke-width="1.5"/>
<path d="M19.4925 32.4515C19.4925 41.3174 18.3724 49.3142 16.5803 55.0695C15.6828 57.9516 14.6296 60.2295 13.4951 61.7704C12.3495 63.3265 11.2217 64.0035 10.1837 64.0035C9.14579 64.0035 8.01798 63.3265 6.87239 61.7704C5.7379 60.2295 4.68471 57.9516 3.78722 55.0695C1.99504 49.3142 0.875 41.3174 0.875 32.4515C0.875 23.5856 1.99504 15.5888 3.78722 9.83345C4.68471 6.95131 5.7379 4.67349 6.87239 3.13253C8.01798 1.57649 9.14579 0.899414 10.1837 0.899414C11.2217 0.899414 12.3495 1.57649 13.4951 3.13253C14.6296 4.67349 15.6828 6.95131 16.5803 9.83345C18.3724 15.5888 19.4925 23.5856 19.4925 32.4515Z" fill="#FFE463" stroke="#1F2024" stroke-width="1.5"/>
<line x1="15.1043" y1="6.86114" x2="20.1284" y2="6.07162" stroke="#1F2024" stroke-width="1.5"/>
<line x1="17.4788" y1="11.4239" x2="22.4782" y2="11.3474" stroke="#1F2024" stroke-width="1.5"/>
<line x1="18.5039" y1="16.6255" x2="24.1417" y2="16.6255" stroke="#1F2024" stroke-width="1.5"/>
<line x1="19.2358" y1="25.1952" x2="25.768" y2="24.6275" stroke="#1F2024" stroke-width="1.5"/>
<path d="M19.5039 32.7401L26.3959 32.626" stroke="#1F2024" stroke-width="1.5"/>
<line x1="19.6309" y1="41.2388" x2="25.2687" y2="41.2388" stroke="#1F2024" stroke-width="1.5"/>
<line x1="17.9414" y1="48.6201" x2="23.5792" y2="48.6201" stroke="#1F2024" stroke-width="1.5"/>
<line x1="17.2283" y1="53.4338" x2="22.8398" y2="54.1543" stroke="#1F2024" stroke-width="1.5"/>
<path d="M14.8008 58.5146L20.8073 58.9286" stroke="#1F2024" stroke-width="1.5"/>
<line x1="13.2559" y1="61.4893" x2="18.3299" y2="61.4893" stroke="#1F2024" stroke-width="1.5"/>
<defs>
<radialGradient id="paint0_radial_1707_7975" cx="0" cy="0" r="1" gradientUnits="userSpaceOnUse" gradientTransform="translate(13.8218 1.25835) rotate(89.6541) scale(63.5007 23.9392)">
<stop stop-color="#E9B404"/>
<stop offset="0.474999" stop-color="#FFE56D"/>
<stop offset="0.973958" stop-color="#E9B404"/>
</radialGradient>
</defs>
</svg>
