<svg width="1209" height="18" viewBox="0 0 1209 18" fill="none" xmlns="http://www.w3.org/2000/svg">
<path d="M1 1L18 17" stroke="#73B1FB" stroke-width="2"/>
<path d="M18 1L35 17" stroke="#73B1FB" stroke-width="2"/>
<path d="M35 1L52 17" stroke="#73B1FB" stroke-width="2"/>
<path d="M52 1L69 17" stroke="#73B1FB" stroke-width="2"/>
<path d="M69 1L86 17" stroke="#73B1FB" stroke-width="2"/>
<path d="M86 1L103 17" stroke="#73B1FB" stroke-width="2"/>
<path d="M103 1L120 17" stroke="#73B1FB" stroke-width="2"/>
<path d="M120 1L137 17" stroke="#73B1FB" stroke-width="2"/>
<path d="M137 1L154 17" stroke="#73B1FB" stroke-width="2"/>
<path d="M154 1L171 17" stroke="#73B1FB" stroke-width="2"/>
<path d="M171 1L188 17" stroke="#73B1FB" stroke-width="2"/>
<path d="M188 1L205 17" stroke="#73B1FB" stroke-width="2"/>
<path d="M205 1L222 17" stroke="#73B1FB" stroke-width="2"/>
<path d="M222 1L239 17" stroke="#73B1FB" stroke-width="2"/>
<path d="M239 1L256 17" stroke="#73B1FB" stroke-width="2"/>
<path d="M256 1L273 17" stroke="#73B1FB" stroke-width="2"/>
<path d="M273 1L290 17" stroke="#73B1FB" stroke-width="2"/>
<path d="M290 1L307 17" stroke="#73B1FB" stroke-width="2"/>
<path d="M307 1L324 17" stroke="#73B1FB" stroke-width="2"/>
<path d="M324 1L341 17" stroke="#73B1FB" stroke-width="2"/>
<path d="M341 1L358 17" stroke="#73B1FB" stroke-width="2"/>
<path d="M358 1L375 17" stroke="#73B1FB" stroke-width="2"/>
<path d="M375 1L392 17" stroke="#73B1FB" stroke-width="2"/>
<path d="M392 1L409 17" stroke="#73B1FB" stroke-width="2"/>
<path d="M409 1L426 17" stroke="#73B1FB" stroke-width="2"/>
<path d="M426 1L443 17" stroke="#73B1FB" stroke-width="2"/>
<path d="M443 1L460 17" stroke="#73B1FB" stroke-width="2"/>
<path d="M460 1L477 17" stroke="#73B1FB" stroke-width="2"/>
<path d="M477 1L494 17" stroke="#73B1FB" stroke-width="2"/>
<path d="M494 1L511 17" stroke="#73B1FB" stroke-width="2"/>
<path d="M511 1L528 17" stroke="#73B1FB" stroke-width="2"/>
<path d="M528 1L545 17" stroke="#73B1FB" stroke-width="2"/>
<path d="M545 1L562 17" stroke="#73B1FB" stroke-width="2"/>
<path d="M562 1L579 17" stroke="#73B1FB" stroke-width="2"/>
<path d="M579 1L596 17" stroke="#73B1FB" stroke-width="2"/>
<path d="M596 1L613 17" stroke="#73B1FB" stroke-width="2"/>
<path d="M613 1L630 17" stroke="#73B1FB" stroke-width="2"/>
<path d="M630 1L647 17" stroke="#73B1FB" stroke-width="2"/>
<path d="M647 1L664 17" stroke="#73B1FB" stroke-width="2"/>
<path d="M664 1L681 17" stroke="#73B1FB" stroke-width="2"/>
<path d="M681 1L698 17" stroke="#73B1FB" stroke-width="2"/>
<path d="M698 1L715 17" stroke="#73B1FB" stroke-width="2"/>
<path d="M715 1L732 17" stroke="#73B1FB" stroke-width="2"/>
<path d="M732 1L749 17" stroke="#73B1FB" stroke-width="2"/>
<path d="M749 1L766 17" stroke="#73B1FB" stroke-width="2"/>
<path d="M766 1L783 17" stroke="#73B1FB" stroke-width="2"/>
<path d="M783 1L800 17" stroke="#73B1FB" stroke-width="2"/>
<path d="M800 1L817 17" stroke="#73B1FB" stroke-width="2"/>
<path d="M817 1L834 17" stroke="#73B1FB" stroke-width="2"/>
<path d="M834 1L851 17" stroke="#73B1FB" stroke-width="2"/>
<path d="M851 1L868 17" stroke="#73B1FB" stroke-width="2"/>
<path d="M868 1L885 17" stroke="#73B1FB" stroke-width="2"/>
<path d="M885 1L902 17" stroke="#73B1FB" stroke-width="2"/>
<path d="M902 1L919 17" stroke="#73B1FB" stroke-width="2"/>
<path d="M919 1L936 17" stroke="#73B1FB" stroke-width="2"/>
<path d="M936 1L953 17" stroke="#73B1FB" stroke-width="2"/>
<path d="M953 1L970 17" stroke="#73B1FB" stroke-width="2"/>
<path d="M970 1L987 17" stroke="#73B1FB" stroke-width="2"/>
<path d="M987 1L1004 17" stroke="#73B1FB" stroke-width="2"/>
<path d="M1004 1L1021 17" stroke="#73B1FB" stroke-width="2"/>
<path d="M1021 1L1038 17" stroke="#73B1FB" stroke-width="2"/>
<path d="M1038 1L1055 17" stroke="#73B1FB" stroke-width="2"/>
<path d="M1055 1L1072 17" stroke="#73B1FB" stroke-width="2"/>
<path d="M1072 1L1089 17" stroke="#73B1FB" stroke-width="2"/>
<path d="M1089 1L1106 17" stroke="#73B1FB" stroke-width="2"/>
<path d="M1106 1L1123 17" stroke="#73B1FB" stroke-width="2"/>
<path d="M1123 1L1140 17" stroke="#73B1FB" stroke-width="2"/>
<path d="M1140 1L1157 17" stroke="#73B1FB" stroke-width="2"/>
<path d="M1157 1L1174 17" stroke="#73B1FB" stroke-width="2"/>
<path d="M1174 1L1191 17" stroke="#73B1FB" stroke-width="2"/>
<path d="M1191 1L1208 17" stroke="#73B1FB" stroke-width="2"/>
<line x1="8.74228e-08" y1="1" x2="1200" y2="1.0001" stroke="#73B1FB" stroke-width="2"/>
</svg>
