<svg width="311" height="18" viewBox="0 0 311 18" fill="none" xmlns="http://www.w3.org/2000/svg">
<g opacity="0.2">
<path d="M7.30859 1L22.451 17" stroke="#1F2024" stroke-width="2"/>
<path d="M22.4512 1L37.5936 17" stroke="#1F2024" stroke-width="2"/>
<path d="M37.5918 1L52.7342 17" stroke="#1F2024" stroke-width="2"/>
<path d="M52.7363 1L67.8787 17" stroke="#1F2024" stroke-width="2"/>
<path d="M67.8789 1L83.0213 17" stroke="#1F2024" stroke-width="2"/>
<path d="M83.0195 1L98.1619 17" stroke="#1F2024" stroke-width="2"/>
<path d="M98.1621 1L113.305 17" stroke="#1F2024" stroke-width="2"/>
<path d="M113.305 1L128.447 17" stroke="#1F2024" stroke-width="2"/>
<path d="M128.447 1L143.59 17" stroke="#1F2024" stroke-width="2"/>
<path d="M143.59 1L158.732 17" stroke="#1F2024" stroke-width="2"/>
<path d="M158.73 1L173.873 17" stroke="#1F2024" stroke-width="2"/>
<path d="M173.875 1L189.017 17" stroke="#1F2024" stroke-width="2"/>
<path d="M189.018 1L204.16 17" stroke="#1F2024" stroke-width="2"/>
<path d="M204.158 1L219.301 17" stroke="#1F2024" stroke-width="2"/>
<path d="M219.301 1L234.443 17" stroke="#1F2024" stroke-width="2"/>
<path d="M234.445 1L249.588 17" stroke="#1F2024" stroke-width="2"/>
<path d="M249.586 1L264.728 17" stroke="#1F2024" stroke-width="2"/>
<path d="M264.729 1L279.871 17" stroke="#1F2024" stroke-width="2"/>
<path d="M279.871 1L295.013 17" stroke="#1F2024" stroke-width="2"/>
<path d="M295.014 1L310.156 17" stroke="#1F2024" stroke-width="2"/>
<line x1="-8.74228e-08" y1="1" x2="310" y2="0.999973" stroke="#1F2024" stroke-width="2"/>
</g>
</svg>
