<svg width="1077" height="18" viewBox="0 0 1077 18" fill="none" xmlns="http://www.w3.org/2000/svg">
<path d="M0.890625 1L16.033 17" stroke="#73B1FB" stroke-opacity="0.32" stroke-width="2"/>
<path d="M16.0332 1L31.1756 17" stroke="#73B1FB" stroke-opacity="0.32" stroke-width="2"/>
<path d="M31.1738 1L46.3162 17" stroke="#73B1FB" stroke-opacity="0.32" stroke-width="2"/>
<path d="M46.3184 1L61.4608 17" stroke="#73B1FB" stroke-opacity="0.32" stroke-width="2"/>
<path d="M61.4609 1L76.6033 17" stroke="#73B1FB" stroke-opacity="0.32" stroke-width="2"/>
<path d="M76.6016 1L91.744 17" stroke="#73B1FB" stroke-opacity="0.32" stroke-width="2"/>
<path d="M91.7441 1L106.887 17" stroke="#73B1FB" stroke-opacity="0.32" stroke-width="2"/>
<path d="M106.889 1L122.031 17" stroke="#73B1FB" stroke-opacity="0.32" stroke-width="2"/>
<path d="M122.029 1L137.172 17" stroke="#73B1FB" stroke-opacity="0.32" stroke-width="2"/>
<path d="M137.172 1L152.314 17" stroke="#73B1FB" stroke-opacity="0.32" stroke-width="2"/>
<path d="M152.314 1L167.457 17" stroke="#73B1FB" stroke-opacity="0.32" stroke-width="2"/>
<path d="M167.457 1L182.599 17" stroke="#73B1FB" stroke-opacity="0.32" stroke-width="2"/>
<path d="M182.6 1L197.742 17" stroke="#73B1FB" stroke-opacity="0.32" stroke-width="2"/>
<path d="M197.742 1L212.885 17" stroke="#73B1FB" stroke-opacity="0.32" stroke-width="2"/>
<path d="M212.883 1L228.025 17" stroke="#73B1FB" stroke-opacity="0.32" stroke-width="2"/>
<path d="M228.027 1L243.17 17" stroke="#73B1FB" stroke-opacity="0.32" stroke-width="2"/>
<path d="M243.17 1L258.312 17" stroke="#73B1FB" stroke-opacity="0.32" stroke-width="2"/>
<path d="M258.311 1L273.453 17" stroke="#73B1FB" stroke-opacity="0.32" stroke-width="2"/>
<path d="M273.453 1L288.596 17" stroke="#73B1FB" stroke-opacity="0.32" stroke-width="2"/>
<path d="M288.598 1L303.74 17" stroke="#73B1FB" stroke-opacity="0.32" stroke-width="2"/>
<path d="M303.738 1L318.881 17" stroke="#73B1FB" stroke-opacity="0.32" stroke-width="2"/>
<path d="M318.881 1L334.023 17" stroke="#73B1FB" stroke-opacity="0.32" stroke-width="2"/>
<path d="M334.023 1L349.166 17" stroke="#73B1FB" stroke-opacity="0.32" stroke-width="2"/>
<path d="M349.166 1L364.308 17" stroke="#73B1FB" stroke-opacity="0.32" stroke-width="2"/>
<path d="M364.309 1L379.451 17" stroke="#73B1FB" stroke-opacity="0.32" stroke-width="2"/>
<path d="M379.451 1L394.594 17" stroke="#73B1FB" stroke-opacity="0.32" stroke-width="2"/>
<path d="M394.592 1L409.734 17" stroke="#73B1FB" stroke-opacity="0.32" stroke-width="2"/>
<path d="M409.736 1L424.879 17" stroke="#73B1FB" stroke-opacity="0.32" stroke-width="2"/>
<path d="M424.879 1L440.021 17" stroke="#73B1FB" stroke-opacity="0.32" stroke-width="2"/>
<path d="M440.02 1L455.162 17" stroke="#73B1FB" stroke-opacity="0.32" stroke-width="2"/>
<path d="M455.162 1L470.305 17" stroke="#73B1FB" stroke-opacity="0.32" stroke-width="2"/>
<path d="M470.305 1L485.447 17" stroke="#73B1FB" stroke-opacity="0.32" stroke-width="2"/>
<path d="M485.447 1L500.59 17" stroke="#73B1FB" stroke-opacity="0.32" stroke-width="2"/>
<path d="M500.59 1L515.732 17" stroke="#73B1FB" stroke-opacity="0.32" stroke-width="2"/>
<path d="M515.73 1L530.873 17" stroke="#73B1FB" stroke-opacity="0.32" stroke-width="2"/>
<path d="M530.875 1L546.017 17" stroke="#73B1FB" stroke-opacity="0.32" stroke-width="2"/>
<path d="M546.018 1L561.16 17" stroke="#73B1FB" stroke-opacity="0.32" stroke-width="2"/>
<path d="M561.158 1L576.301 17" stroke="#73B1FB" stroke-opacity="0.32" stroke-width="2"/>
<path d="M576.301 1L591.443 17" stroke="#73B1FB" stroke-opacity="0.32" stroke-width="2"/>
<path d="M591.445 1L606.588 17" stroke="#73B1FB" stroke-opacity="0.32" stroke-width="2"/>
<path d="M606.586 1L621.728 17" stroke="#73B1FB" stroke-opacity="0.32" stroke-width="2"/>
<path d="M621.729 1L636.871 17" stroke="#73B1FB" stroke-opacity="0.32" stroke-width="2"/>
<path d="M636.871 1L652.013 17" stroke="#73B1FB" stroke-opacity="0.32" stroke-width="2"/>
<path d="M652.014 1L667.156 17" stroke="#73B1FB" stroke-opacity="0.32" stroke-width="2"/>
<path d="M667.156 1L682.299 17" stroke="#73B1FB" stroke-opacity="0.32" stroke-width="2"/>
<path d="M682.299 1L697.441 17" stroke="#73B1FB" stroke-opacity="0.32" stroke-width="2"/>
<path d="M697.439 1L712.582 17" stroke="#73B1FB" stroke-opacity="0.32" stroke-width="2"/>
<path d="M712.584 1L727.726 17" stroke="#73B1FB" stroke-opacity="0.32" stroke-width="2"/>
<path d="M727.727 1L742.869 17" stroke="#73B1FB" stroke-opacity="0.32" stroke-width="2"/>
<path d="M742.867 1L758.01 17" stroke="#73B1FB" stroke-opacity="0.32" stroke-width="2"/>
<path d="M758.01 1L773.152 17" stroke="#73B1FB" stroke-opacity="0.32" stroke-width="2"/>
<path d="M773.152 1L788.295 17" stroke="#73B1FB" stroke-opacity="0.32" stroke-width="2"/>
<path d="M788.295 1L803.437 17" stroke="#73B1FB" stroke-opacity="0.32" stroke-width="2"/>
<path d="M803.438 1L818.58 17" stroke="#73B1FB" stroke-opacity="0.32" stroke-width="2"/>
<path d="M818.58 1L833.722 17" stroke="#73B1FB" stroke-opacity="0.32" stroke-width="2"/>
<path d="M833.723 1L848.865 17" stroke="#73B1FB" stroke-opacity="0.32" stroke-width="2"/>
<path d="M848.865 1L864.008 17" stroke="#73B1FB" stroke-opacity="0.32" stroke-width="2"/>
<path d="M864.008 1L879.15 17" stroke="#73B1FB" stroke-opacity="0.32" stroke-width="2"/>
<path d="M879.148 1L894.291 17" stroke="#73B1FB" stroke-opacity="0.32" stroke-width="2"/>
<path d="M894.291 1L909.433 17" stroke="#73B1FB" stroke-opacity="0.32" stroke-width="2"/>
<path d="M909.436 1L924.578 17" stroke="#73B1FB" stroke-opacity="0.32" stroke-width="2"/>
<path d="M924.576 1L939.719 17" stroke="#73B1FB" stroke-opacity="0.32" stroke-width="2"/>
<path d="M939.719 1L954.861 17" stroke="#73B1FB" stroke-opacity="0.32" stroke-width="2"/>
<path d="M954.861 1L970.004 17" stroke="#73B1FB" stroke-opacity="0.32" stroke-width="2"/>
<path d="M970.004 1L985.146 17" stroke="#73B1FB" stroke-opacity="0.32" stroke-width="2"/>
<path d="M985.146 1L1000.29 17" stroke="#73B1FB" stroke-opacity="0.32" stroke-width="2"/>
<path d="M1000.29 1L1015.43 17" stroke="#73B1FB" stroke-opacity="0.32" stroke-width="2"/>
<path d="M1015.43 1L1030.57 17" stroke="#73B1FB" stroke-opacity="0.32" stroke-width="2"/>
<path d="M1030.57 1L1045.72 17" stroke="#73B1FB" stroke-opacity="0.32" stroke-width="2"/>
<path d="M1045.72 1L1060.86 17" stroke="#73B1FB" stroke-opacity="0.32" stroke-width="2"/>
<path d="M1060.86 1L1076 17" stroke="#73B1FB" stroke-opacity="0.32" stroke-width="2"/>
<line x1="8.74228e-08" y1="1" x2="1068.88" y2="1.00009" stroke="#C3DDFC" stroke-width="2"/>
</svg>
