<svg id="Шар_1" data-name="Шар 1" xmlns="http://www.w3.org/2000/svg" viewBox="0 0 2048 555.14"><defs><style>.cls-1{fill:#0071fc;}.cls-2{fill:#ff311a;}</style></defs><title>CAS Logo2_horizontal_AI</title><g id="solutions"><path class="cls-1" d="M917.16,1132.43v-38.08c0-61.78-121.23-59.45-121.23,0v25a60.35,60.35,0,0,0,10,33.72c7.94,11.79,19.56,21.6,33.92,29.92,3.95,2.29,7.85,4.69,11.6,7.3,11.39,7.92,22.18,16.16,23.82,29.54v32.37c0,18.19-36.81,20.31-36.81,0v-36H795.93v37.87c0,57.13,121.23,69.19,121.23,0V1222.9A62.89,62.89,0,0,0,899.61,1179c-9.72-10-22.65-17.34-38.51-27.92a80.51,80.51,0,0,1-11.63-8.75,36.83,36.83,0,0,1-11.65-27.13v-19.55c0-17.35,37.66-16.71,37.66,0v36.81Z" transform="translate(0 -746.43)"/><path class="cls-1" d="M1070,1090.68c0-55.85-119.33-55.22-119.33,0v170.75c0,51.73,119.33,54.9,119.33,0V1090.68Zm-41.57,42.85v120c0,17.46-37.14,19.36-37.14,0V1097.66c0-19,37.14-18.4,37.14,0Z" transform="translate(0 -746.43)"/><polygon class="cls-1" points="1149.27 305.07 1107.06 305.07 1107.06 548.81 1216.55 548.81 1216.55 514.22 1149.27 514.22 1149.27 305.07"/><path class="cls-1" d="M1319.91,1131.68v120c0,17.46-37.14,19.36-37.14,0V1051.51h-40.62v208.07c0,51.73,119.33,54.9,119.33,0V1051.51h-41.57Z" transform="translate(0 -746.43)"/><polygon class="cls-1" points="1385.81 339.77 1424.95 339.77 1424.95 548.81 1467.9 548.81 1467.9 339.77 1507.26 339.77 1507.26 305.07 1385.81 305.07 1385.81 339.77"/><rect class="cls-1" x="1535.19" y="305.07" width="42.32" height="243.74"/><path class="cls-1" d="M1614.28,1088.83v170.75c0,51.73,119.33,54.9,119.33,0V1088.83C1733.61,1033,1614.28,1033.61,1614.28,1088.83Zm77.75,126v36.81c0,17.46-37.13,19.36-37.13,0V1095.81c0-19,37.13-18.4,37.13,0v119Z" transform="translate(0 -746.43)"/><polygon class="cls-1" points="1852.45 445.88 1812.46 305.07 1770.25 305.07 1770.25 548.81 1811.83 548.81 1811.83 414.14 1849.59 548.81 1891.8 548.81 1891.8 305.07 1852.45 305.07 1852.45 445.88"/><path class="cls-1" d="M1991.93,1149.44a81,81,0,0,1-11.62-8.75,36.82,36.82,0,0,1-11.65-27.14V1094c0-17.35,37.66-16.72,37.66,0v36.81H2048v-38.08c0-61.78-121.24-59.46-121.24,0v25a60.28,60.28,0,0,0,10,33.72c7.94,11.79,19.55,21.6,33.91,29.92,4,2.29,7.85,4.69,11.61,7.3,11.38,7.91,22.18,16.15,23.82,29.53v32.38c0,18.19-36.82,20.31-36.82,0v-36h-42.53v37.87c0,57.13,121.24,69.19,121.24,0v-31.19a62.93,62.93,0,0,0-17.55-43.93C2020.73,1167.38,2007.8,1160,1991.93,1149.44Z" transform="translate(0 -746.43)"/></g><g id="logo"><polygon class="cls-1" points="0 547.17 394.87 215.55 434.49 244.25 633.9 64.15 572.28 0 752.91 0 752.91 186.54 686.65 118.17 440.61 343.96 371.39 295 0 547.17"/><polygon class="cls-2" points="150.25 471.63 150.25 552.02 30.81 552.02 150.25 471.63"/><polygon class="cls-2" points="192.45 444.83 192.45 552.02 350.71 552.02 350.71 339.53 192.45 444.83"/><polygon class="cls-2" points="392.92 339.53 392.92 552.02 550.97 552.02 550.97 273.59 442.08 374.56 392.92 339.53"/><polygon class="cls-2" points="592.96 235.07 685.81 152.78 752.91 218.19 752.91 552.02 592.96 552.02 592.96 235.07"/></g><g id="ads"><path class="cls-2" d="M1669.19,782.05,1628,1012.64h40l7.64-48.35h40.48l7.53,48.35h40.43l-40.83-230.59Zm11.66,149.23,15.16-96,15,96Z" transform="translate(0 -746.43)"/><path class="cls-2" d="M1856.44,782.05h-68.65v230.59h67.45c30.23,0,46.64-20.12,46.64-44.54V824.78C1901.88,800.16,1883.07,782.05,1856.44,782.05Zm6,181.65c0,9.2-3.2,15.81-10.41,15.81h-24.62V814.78H1849c8.2,0,13.41,3.4,13.41,13.41Z" transform="translate(0 -746.43)"/><path class="cls-2" d="M1995,875.83a76.6,76.6,0,0,1-11-8.29,34.81,34.81,0,0,1-11-25.67V823.38c0-16.41,35.63-15.81,35.63,0v34.83H2048v-36c0-58.45-114.69-56.24-114.69,0v23.65a57.11,57.11,0,0,0,9.46,31.9c7.51,11.15,18.5,20.43,32.08,28.3,3.75,2.17,7.43,4.44,11,6.91,10.76,7.49,21,15.28,22.53,27.94V971.5c0,17.22-34.83,19.22-34.83,0v-34h-40.23v35.83c0,54,114.69,65.45,114.69,0V943.8a59.46,59.46,0,0,0-16.61-41.56C2022.2,892.79,2010,885.83,1995,875.83Z" transform="translate(0 -746.43)"/></g><g id="cliver"><path class="cls-1" d="M869.18,859.78V825.86c0-17.4-35.11-18-35.11,0V973.22c0,18.31,35.11,16.51,35.11,0V938.41H908.5v42.32c0,51.92-112.85,48.92-112.85,0V819.26c0-52.22,112.85-52.82,112.85,0v40.52Z" transform="translate(0 -746.43)"/><polygon class="cls-1" points="941.21 36.81 941.21 267.31 1044.75 267.31 1044.75 234.59 981.13 234.59 981.13 36.81 941.21 36.81"/><path class="cls-1" d="M1171.4,783.25H1068.16v230.49s104.14.9,104.14,0v-33h-63.92v-66h54.32V882h-54.62V816h63Z" transform="translate(0 -746.43)"/><polygon class="cls-1" points="1189.41 36.81 1230.23 267.31 1284.25 267.31 1325.46 36.81 1285.45 36.81 1257.44 214.09 1229.83 36.81 1189.41 36.81"/><path class="cls-1" d="M1452.22,783.05H1349v230.49s104.15.9,104.15,0v-33h-63.93v-66h54.32V881.79h-54.62v-66h63Z" transform="translate(0 -746.43)"/><path class="cls-1" d="M1562,906.1c17.12-4.39,26.21-14.2,30.06-27.56a30.8,30.8,0,0,0,1.15-8.6V824.06c0-24-19.61-40.81-42-40.81h-68v230.49h40V912.9h4L1564,1013.74h44Zm-7.2-37.62a14,14,0,0,1-14,13.61h-19.21V815.66h19.21c7.6,0,14,5.5,14,13.6Z" transform="translate(0 -746.43)"/></g></svg>